<svg xmlns="http://www.w3.org/2000/svg">
    <symbol id="q-icon01" viewBox="0 0 54 54">
        <path fill="#F5F5F5"
            d="M28.5 13h-9l-2 1.5V40l2 1H51l.5-7.5-2.5-1-2-2-1.5-2.5.5-2.5 1.5-2.5 3-2v-7.5l-1-.5h-21z" />
        <path fill="#FF5B53"
            d="M15.711 13.106l1.236.618a1 1 0 0 1 .553.894v24.764a1 1 0 0 1-.553.894l-1.236.618a.999.999 0 0 1-.447.106H4.5a1 1 0 0 1-1-1v-5.736c0-.451.303-.842.723-1.007C6.153 32.496 9 30.524 9 27c0-3.524-2.846-5.496-4.777-6.257-.42-.165-.723-.556-.723-1.007V14a1 1 0 0 1 1-1h10.764c.155 0 .308.036.447.106z" />
        <path fill="#FF5B53" fill-rule="evenodd"
            d="M2.5 14a2 2 0 0 1 2-2h10.764a2 2 0 0 1 .894.211l1.236.618a2 2 0 0 1 1.106 1.789v24.764a2 2 0 0 1-1.106 1.789l-1.236.618a2 2 0 0 1-.894.211H4.5a2 2 0 0 1-2-2v-5.736c0-.918.61-1.643 1.356-1.937C5.653 31.618 8 29.9 8 27s-2.347-4.618-4.144-5.327C3.11 21.38 2.5 20.654 2.5 19.736V14zm12.764 26l1.236-.618V14.618L15.264 14H4.5v5.738l.01.017a.182.182 0 0 0 .08.058C6.654 20.627 10 22.85 10 27c0 4.149-3.346 6.373-5.41 7.187a.184.184 0 0 0-.08.058.067.067 0 0 0-.01.017V40h10.764zM4.5 19.736z"
            clip-rule="evenodd" />
        <path fill="#34332E" fill-rule="evenodd"
            d="M20.206 12.002h30.612a1.467 1.467 0 0 1 1.467 1.467v7.488a1.464 1.464 0 0 1-1.349 1.462h-.003a4.602 4.602 0 0 0 0 9.179h.003a1.464 1.464 0 0 1 1.349 1.463v.004l-1-.005 1 .001v7.488a1.467 1.467 0 0 1-1.466 1.466l-30.609-.003c-.55 0-1.097-.285-1.485-.682A2.581 2.581 0 0 1 18 39.5V36a1 1 0 1 1 2 0v3.5c0 .224.08.355.155.431.04.042.08.068.108.081h-.051a.27.27 0 0 1 .066.007.154.154 0 0 1-.014-.006l-.001-.001 30.022.003v.533h.533v-.533h-.533v-6.48c.164.026.33.045.497.057l.075-.997-.079.997a.536.536 0 0 1-.493-.532v.476a6.602 6.602 0 0 1 0-13.054v.476a.536.536 0 0 1 .493-.532l.08.997-.076-.998a6.604 6.604 0 0 0-.497.057v-6.48h.533a.534.534 0 0 1-.533-.533v.533h-30.03a.158.158 0 0 1 .014-.006.256.256 0 0 1-.062.005h.047a.377.377 0 0 0-.104.077c-.07.07-.149.195-.148.418v.003L20 18a1 1 0 1 1-2 0l.002-3.501v.001l1-.002h-1m32.816 25.517v.534h-.533a.533.533 0 0 1 .533-.534zm1.467-19.058h-1l1-.004v.004z"
            clip-rule="evenodd" />
        <path fill="#34332E" fill-rule="evenodd"
            d="M18.67 32.682a1 1 0 0 1-1-1v-1.867a1 1 0 1 1 2 0v1.867a1 1 0 0 1-1 1zm.002-7.467a1 1 0 0 1-1-1l.001-1.868a1 1 0 0 1 2 .001v1.868a1 1 0 0 1-1.001 1z"
            clip-rule="evenodd" />
        <path fill="#34332E"
            d="M34.603 29.703c.588-.52 1.293-.781 2.116-.781.823 0 1.522.26 2.095.78.588.521.882 1.259.882 2.213 0 .94-.294 1.67-.882 2.191-.573.521-1.272.782-2.095.782-.823 0-1.528-.26-2.116-.782-.588-.52-.882-1.25-.882-2.19 0-.955.294-1.693.882-2.213zm3.285.91c-.309-.303-.698-.455-1.169-.455-.47 0-.86.152-1.168.456-.309.304-.463.73-.463 1.28s.154.983.463 1.301c.308.304.698.456 1.168.456s.86-.152 1.169-.456c.309-.318.463-.752.463-1.301 0-.55-.154-.976-.463-1.28zm-11.31-9.718c.588-.52 1.293-.78 2.116-.78.823 0 1.521.26 2.095.78.587.52.881 1.258.881 2.213 0 .94-.294 1.67-.881 2.191-.574.52-1.272.781-2.095.781-.823 0-1.528-.26-2.116-.781-.588-.52-.882-1.251-.882-2.191 0-.955.294-1.692.882-2.213zm3.285.911c-.31-.303-.699-.455-1.169-.455-.47 0-.86.152-1.168.455-.31.304-.463.73-.463 1.28s.154.984.463 1.302c.308.304.698.455 1.168.455s.86-.151 1.169-.455c.308-.318.463-.752.463-1.302s-.155-.976-.463-1.28zm9.171-1.822c.206.174.309.354.309.542 0 .174-.08.355-.243.543L27.768 34.454c-.206.245-.411.368-.617.368a.765.765 0 0 1-.551-.238c-.147-.16-.22-.318-.22-.478 0-.159.08-.34.242-.542l11.332-13.406c.191-.232.367-.347.53-.347.175 0 .36.057.55.173z" />
        <path fill="#34332E" fill-rule="evenodd"
            d="M27.526 21.806c-.31.304-.463.73-.463 1.28s.154.984.463 1.302c.308.304.698.455 1.168.455s.86-.151 1.169-.455c.308-.318.463-.752.463-1.302s-.155-.976-.463-1.28c-.31-.303-.699-.455-1.169-.455-.47 0-.86.152-1.168.455zm2.124 2.37c.24-.249.376-.6.376-1.09 0-.492-.137-.833-.374-1.066-.247-.243-.559-.37-.958-.37-.399 0-.71.127-.958.37-.237.233-.373.574-.373 1.066 0 .49.135.841.375 1.09.247.242.558.367.956.367.398 0 .709-.125.956-.366zm9.56-4.436l.018.015c.243.205.415.462.415.771 0 .27-.126.518-.314.737l-.001.001-11.33 13.382c-.23.276-.513.476-.847.476-.293 0-.55-.116-.762-.324l-.005-.005-.005-.006c-.18-.194-.3-.422-.3-.68 0-.259.129-.505.308-.73l.005-.007 11.332-13.405c.202-.245.456-.454.76-.454.243 0 .48.08.706.216l.02.013zm-1.256.418L26.622 33.564c-.162.203-.243.383-.243.542 0 .16.074.319.22.478a.767.767 0 0 0 .552.238c.206 0 .411-.123.617-.368L39.1 21.069c.162-.188.243-.369.243-.543 0-.188-.103-.368-.309-.542a1.067 1.067 0 0 0-.55-.173c-.163 0-.339.115-.53.347zm-3.55 9.32c.645-.572 1.423-.856 2.315-.856.892 0 1.663.284 2.295.857.665.59.982 1.417.982 2.437 0 1.006-.318 1.825-.982 2.414-.632.573-1.403.858-2.295.858-.892 0-1.67-.285-2.315-.857-.665-.589-.983-1.408-.983-2.416 0-1.02.317-1.847.983-2.437zm4.41 4.628c.588-.52.882-1.25.882-2.19 0-.955-.294-1.693-.882-2.213-.573-.52-1.272-.781-2.095-.781-.823 0-1.528.26-2.116.78-.588.521-.882 1.259-.882 2.213 0 .94.294 1.67.882 2.191.588.521 1.293.782 2.116.782.823 0 1.522-.26 2.095-.782zm-1.137-3.278c-.247-.244-.559-.37-.958-.37-.399 0-.71.126-.958.37-.237.233-.373.574-.373 1.066 0 .49.135.84.376 1.09.247.242.558.367.955.367.398 0 .709-.125.956-.367.24-.25.376-.6.376-1.09 0-.492-.137-.833-.374-1.066zm.21 2.367c-.308.304-.697.456-1.168.456-.47 0-.86-.152-1.168-.456-.309-.318-.463-.752-.463-1.301 0-.55.154-.976.463-1.28.308-.304.698-.456 1.168-.456s.86.152 1.169.456c.309.304.463.73.463 1.28s-.154.983-.463 1.301zM26.38 20.671c.645-.572 1.423-.857 2.315-.857.892 0 1.663.285 2.295.858.665.59.982 1.416.982 2.436 0 1.007-.318 1.826-.982 2.414-.632.574-1.403.858-2.295.858-.892 0-1.67-.285-2.315-.856-.665-.59-.983-1.409-.983-2.416 0-1.02.317-1.848.983-2.437zm4.41 4.628c.587-.52.881-1.251.881-2.191 0-.955-.294-1.692-.881-2.213-.574-.52-1.272-.78-2.095-.78-.823 0-1.528.26-2.116.78-.588.52-.882 1.258-.882 2.213 0 .94.294 1.67.882 2.191.588.52 1.293.781 2.116.781.823 0 1.521-.26 2.095-.781z"
            clip-rule="evenodd" />
    </symbol>
    <symbol id="q-icon07" viewBox="0 0 40 41">
        <path fill="#F7F7F7" d="M2 10h36v7H2z" />
        <path fill="#34332E" fill-rule="evenodd"
            d="M8.094 1.122A.915.915 0 0 1 9.248.547l10.185 3.369L30.114.544a.915.915 0 0 1 1.147.593.908.908 0 0 1-.595 1.14L19.703 5.741h-.002a.893.893 0 0 1-.564-.005L8.671 2.272a.913.913 0 0 1-.623-.797.903.903 0 0 1 .045-.352v-.001zM.375 12.519a3.889 3.889 0 0 1 3.892-3.878h31.219c2.147 0 3.891 1.742 3.889 3.878v1.888a3.873 3.873 0 0 1-2.238 3.505l-.288.135v15.438c0 3.865-3.157 7.015-7.039 7.015H10.482c-3.882 0-7.04-3.15-7.04-7.015v-15.27l-.349-.111a3.886 3.886 0 0 1-2.718-3.697V12.52zm18.586-2.062H4.267a2.072 2.072 0 0 0-1.459.604 2.06 2.06 0 0 0-.606 1.455v.5h.003v1.392c0 .546.218 1.07.605 1.456.387.385.912.602 1.459.603H18.96v-6.01zm16.525.003H20.79v6.004h14.695a2.061 2.061 0 0 0 2.064-2.06v-1.887a2.062 2.062 0 0 0-2.064-2.057zm-16.522 7.825H5.272v15.2c0 2.868 2.34 5.197 5.212 5.2h8.48v-20.4zm16.06 0H20.792v20.397h9.022c2.873 0 5.212-2.33 5.212-5.197v-15.2z"
            clip-rule="evenodd" />
        <rect width="40" height="11" fill="#FF5B53" rx="4" transform="matrix(1 0 0 -1 0 19)" />
        <path fill="#34332E" fill-rule="evenodd" d="M19 39V8h2v31h-2z" clip-rule="evenodd" />
    </symbol>
    <symbol id="q-icon08" viewBox="0 0 40 38">
        <path fill="#FF5B53"
            d="M36.688 1H4.312c-1.186 0-2.164.936-2.296 2.146L2 3.429v24.276c0 1.245.893 2.273 2.042 2.412l.27.017h8.825c.55 0 1.082.205 1.498.578.128.068.25.15.361.242l.201.19L20.777 37l5.666-5.868c.186-.27.425-.497.7-.667.276-.17.582-.277.9-.317l.27-.014h8.375c1.186 0 2.164-.936 2.296-2.146l.016-.283V3.429c0-1.248-.893-2.273-2.042-2.412L36.688 1z" />
        <path fill="#FF5B53" fill-rule="evenodd"
            d="M20.368 37.998a3.17 3.17 0 0 1-2.189-.77l-.2-.188-4.991-5.049H5.3a5.26 5.26 0 0 1-3.632-1.46A5.405 5.405 0 0 1 .01 26.948L0 26.604V5.374c0-1.375.519-2.695 1.448-3.692A5.27 5.27 0 0 1 4.975.01l.34-.01H34.7a5.26 5.26 0 0 1 3.632 1.46 5.404 5.404 0 0 1 1.658 3.583l.01.344v21.23a5.413 5.413 0 0 1-1.448 3.691 5.27 5.27 0 0 1-3.527 1.673l-.34.01H27.58l-5.066 5.057-.005.005a3.178 3.178 0 0 1-2.14.945zm14.667-35.73l-.305-.02H5.3a3.091 3.091 0 0 0-2.064.794A3.132 3.132 0 0 0 2.221 5.01l-.003.028-.018.307v21.274c0 .762.277 1.499.78 2.071a3.089 3.089 0 0 0 1.956 1.031l.029.004.305.018h8.044c.269 0 .516.099.708.264l.09.077.106.054a.938.938 0 0 1 .139.088l.136.123 5.752 5.82 5.914-5.9.048-.067a1.11 1.11 0 0 1 .735-.448l.182-.01H34.7c.763 0 1.497-.284 2.064-.794s.926-1.21 1.015-1.967l.003-.028.018-.307V5.373c0-.762-.276-1.499-.78-2.071a3.092 3.092 0 0 0-1.956-1.031l-.029-.004z"
            clip-rule="evenodd" />
        <path fill="#fff"
            d="M18.723 23c-.037 0-.074 0-.111-.003a3.414 3.414 0 0 1-2.408-1.111l-.024-.029-4.805-5.582a1.538 1.538 0 0 1 .19-2.197 1.6 1.6 0 0 1 1.162-.362 1.617 1.617 0 0 1 1.082.549l4.787 5.561a.19.19 0 0 0 .127.055c.053.007.098-.016.136-.052l9.414-9.364a1.618 1.618 0 0 1 2.251-.018c.629.602.634 1.59.019 2.205l-9.43 9.38a3.46 3.46 0 0 1-2.39.968z" />
    </symbol>
    <symbol id="q-icon04" viewBox="0 0 47.67 48.47">
        <defs>
            <style>.cls-1{fill:#f15d57}.cls-2{fill:none}.cls-3{fill:#222323}</style>
        </defs>
        <g id="Layer_1-2">
            <path
                d="M44.28 17.7l1.21-1.21-1.2 1.2-.01.01zM15.95 38.67l-.05-.02.1.04-.05-.02zM5.04 28.91l1.86.74-.07-.03-1.79-.71z"
                class="cls-2" />
            <path
                d="M23.54 46.26c-.32.13-.67.21-1.02.21v2c.61 0 1.21-.12 1.77-.35.58-.23 1.11-.58 1.55-1.02l-1.41-1.41c-.25.25-.55.45-.89.58zm-1.04.21c-.55 0-1.08-.21-1.49-.58l-.07.08.07-.08c-.43-.39-.65-.9-.65-1.53h-2c0 1.14.42 2.21 1.31 3.01.77.71 1.78 1.1 2.82 1.1h.02v-2h-.02zM4.7 30.57v.18c.02 1.06.39 2.07 1.19 2.87.82.82 1.87 1.19 2.97 1.19.14 0 .28 0 .42-.02-.01.14-.02.28-.02.42 0 1.13.42 2.14 1.22 2.94.77.78 1.81 1.22 2.9 1.22h.03c.14 0 .29 0 .43-.02-.01.14-.02.28-.02.41-.01 1.11.42 2.17 1.21 2.95.8.8 1.82 1.21 2.94 1.21.14 0 .28 0 .42-.02-.02.15-.03.31-.03.46h2c0-.3.07-.64.2-1 .12-.36.33-.68.59-.95l8.59-8.59-1.29-1.29-8.58 8.59c-.26.26-.56.46-.89.59-.32.13-.66.2-1.01.2-.6 0-1.11-.21-1.53-.63-.41-.4-.64-.95-.63-1.53s-.02 0-.02 0h.02c0-.36.07-.71.22-1.05.13-.32.32-.6.56-.85l8.59-8.59-1.28-1.28-8.59 8.58c-.25.25-.55.44-.87.57-.33.14-.69.22-1.05.22-.59 0-1.1-.21-1.52-.63-.41-.4-.64-.95-.63-1.52 0-.34.07-.68.2-1.01.13-.33.33-.63.59-.89l-1.27-1.27c-.22.22-.51.41-.86.56l.05.13-.05-.13.05.13-.05-.13c-.35.15-.7.22-1.06.22-.63 0-1.15-.2-1.55-.61-.4-.4-.6-.92-.6-1.55 0-.34.07-.68.2-1.01l-1.86-.73c-.21.53-.32 1.09-.34 1.66zm11.2 8.08l.05.02.05.02-.1-.04z"
                class="cls-3" />
            <path
                d="M47.67 22.05c0-1.08-.18-2.12-.58-3.1-.36-.92-.91-1.75-1.6-2.46l-1.21 1.21.02-.02 1.19-1.19-10-10c-.73-.73-1.61-1.3-2.58-1.66a8.21 8.21 0 0 0-2.98-.56c-.99 0-1.97.2-2.91.57-.94.36-1.81.91-2.53 1.62l-1.73 1.7 2 1.37.98.67 5.05 4.8c.26.26.42.52.53.79.13.35.19.66.19.94 0 .67-.2 1.08-.53 1.41-.35.35-.78.54-1.42.54-.33 0-.67-.05-1.01-.17l-.4 1.22-.06.19.46-1.41c-.25-.09-.48-.23-.66-.42s-5.03-5.04-5.03-5.04l-.14.14.14-.14-1.43-1.43-1.42 1.45L6.06 27.35c-.44.44-.79.96-1.02 1.55s1.79.71 1.79.71l.07.03c.13-.33.33-.63.59-.89l-.03-.03.03.03 13.95-14.28 5.03 5.04c.43.43.91.73 1.45.91s.06-.18.06-.18l-.06.18c.54.18 1.08.27 1.64.27 1.12 0 2.06-.37 2.82-1.11.75-.74 1.13-1.69 1.13-2.84 0-.54-.11-1.09-.32-1.65a4.38 4.38 0 0 0-.98-1.5l-5.2-4.95-1.11-.76c.53-.52 1.17-.92 1.86-1.18.69-.28 1.43-.43 2.18-.43.77 0 1.53.14 2.26.43.71.27 1.35.68 1.88 1.21l.32-.32-.32.32 10 10c.49.49.88 1.09 1.16 1.8.29.71.43 1.49.43 2.35 0 .76-.14 1.51-.44 2.21a5.34 5.34 0 0 1-1.16 1.76L24.42 45.69l1.41 1.41 19.65-19.66c.68-.69 1.22-1.51 1.59-2.4.39-.94.6-1.95.59-2.98z"
                class="cls-3" />
            <path d="M10.77 32.03l1.28 1.28 8.05-8.06-1.29-1.27-8.04 8.05z" class="cls-3" />
            <path
                d="M33.57 15.21c-.23-.55-.55-1.05-.97-1.47L21.25 2.19A7.476 7.476 0 0 0 18.89.57C18 .2 17.05 0 16.09 0h-.07c-.98 0-1.93.21-2.8.63-.81.39-1.55.92-2.18 1.56s-8.92 8.94-8.92 8.94c-.68.68-1.18 1.52-1.55 2.45-.39.99-.57 2.06-.57 3.18 0 1.1.21 2.21.6 3.29.4 1.11 1.03 2.12 1.86 2.96s2.32 2.59 2.32 2.59l.74-.67-.74.67 1.41 1.57 1.49-1.49 12.33-12.36 6.59 6.42c.43.43.94.78 1.52 1.02h.03l.03.02c.53.2 1.09.3 1.66.3 1.08 0 2.14-.4 2.92-1.21s0-.02 0-.02c.76-.79 1.15-1.84 1.14-2.91 0-.61-.14-1.19-.36-1.72zM.61 20.05l-.01-.01.01.01z"
                class="cls-1" />
        </g>
    </symbol>
    <symbol id="q-icon02" viewBox="0 0 52 54">
        <path fill="#34332E" fill-rule="evenodd"
            d="M19.5 3.29v28h17v-28h-17zm-1-2a1 1 0 0 0-1 1v30a1 1 0 0 0 1 1h19a1 1 0 0 0 1-1v-30a1 1 0 0 0-1-1h-19z"
            clip-rule="evenodd" />
        <path fill="#FF5B53" d="M17.5 1.764a1 1 0 0 1 1-1h19a1 1 0 0 1 1 1v13h-21v-13z" />
        <path stroke="#34332E" stroke-width="2" d="M18.932 15.79h19" />
        <path fill="#34332E" d="M30.932 16.29h5v2h-5v-2z" />
        <path fill="#F5F5F5"
            d="M16.629 30.29c-.85 0-4.368 2.892-6.109 4.427l8.942 9.03 14.253-.354 17.353-9.827c-.425-2.975-3.365-2.95-4.781-2.567-.213.07-7.186 3.393-10.646 5.046 1.027-1.838-.463-3.435-1.483-4.072-.567-.284-7.732-.118-11.244 0-.425-.425-1.711-1.299-2.301-1.682h-3.984z" />
        <path fill="#34332E" fill-rule="evenodd"
            d="M11.983 34.773l7.885 7.964 13.569-.337 14.48-8.326a1.869 1.869 0 0 0-.33-.56 1.878 1.878 0 0 0-.85-.541c-.7-.23-1.547-.172-2.134-.023a5.646 5.646 0 0 1-.028.012l-.168.075a439.108 439.108 0 0 0-2.802 1.298 824.022 824.022 0 0 0-5.267 2.485c-.186.28-.411.552-.676.818a1 1 0 0 1-.675.292l-11.156.354a1 1 0 1 1-.063-1.999l10.733-.34c.113-.138.2-.267.267-.388.32-.573.258-1.069.013-1.534-.24-.46-.655-.861-1.03-1.121a4.156 4.156 0 0 0-.181-.02c-.229-.02-.546-.035-.942-.046a86.313 86.313 0 0 0-2.978-.014c-2.29.02-4.951.091-6.702.15a1 1 0 0 1-.74-.292c-.145-.145-.505-.423-.963-.75a36.302 36.302 0 0 0-.932-.64h-3.615a1.27 1.27 0 0 0-.091.038c-.127.058-.3.152-.52.288-.437.271-.982.659-1.573 1.108a61.451 61.451 0 0 0-2.531 2.05zm21.86-1.856zm3.11 1.397a886.07 886.07 0 0 1 5.961-2.794c.276-.127.504-.231.671-.306l.007-.003c.13-.059.291-.132.379-.16a.96.96 0 0 1 .054-.017c.83-.225 2.129-.359 3.337.04.62.203 1.236.555 1.732 1.125.5.573.834 1.316.963 2.226a1 1 0 0 1-.491 1.008L34.214 44.26a1 1 0 0 1-.474.133l-14.254.354a1 1 0 0 1-.735-.296l-8.942-9.03a1 1 0 0 1 .05-1.454 66.612 66.612 0 0 1 3.444-2.835 23.222 23.222 0 0 1 1.73-1.216 6.99 6.99 0 0 1 .747-.409c.203-.092.516-.216.849-.216h3.984a1 1 0 0 1 .545.161c.304.198.785.52 1.248.85.292.208.61.442.873.658 1.75-.056 4.209-.119 6.353-.138a88.41 88.41 0 0 1 3.052.015c.41.011.773.028 1.059.053.142.012.28.028.401.049.09.015.281.05.461.14a.673.673 0 0 1 .083.046c.615.384 1.389 1.062 1.865 1.969.194.37.338.781.4 1.22z"
            clip-rule="evenodd" />
        <path fill="#34332E" fill-rule="evenodd"
            d="M8.145 32.57a1 1 0 0 1 1.408.021L21.68 44.986a1 1 0 0 1-.012 1.41l-6.64 6.552a1 1 0 0 1-1.407-.002L1.228 40.64a1 1 0 0 1 .011-1.43l6.906-6.64zm-4.782 7.372L14.33 50.829l5.226-5.156-10.74-10.975-5.453 5.244z"
            clip-rule="evenodd" />
    </symbol>
    <symbol id="q-icon03" viewBox="0 0 45 42">
        <path fill="#FF5B53"
            d="M28.204 24.16l-8.815-4.95c-1.061-.597-2.389.15-2.389 1.342v9.896c0 1.192 1.328 1.94 2.389 1.342l8.815-4.95a1.526 1.526 0 0 0 0-2.68z" />
        <path fill="#222" fill-rule="evenodd"
            d="M32.78.04a1.145 1.145 0 0 1 .864.107 1.118 1.118 0 0 1 .428 1.533l-3.978 6.96h7.82c3.634 0 6.587 2.94 6.585 6.54v20.28c0 3.603-2.951 6.54-6.587 6.54H7.087C3.451 42 .5 39.063.5 35.46V15.182c0-3.604 2.951-6.54 6.587-6.54h7.94l-3.976-6.963a1.118 1.118 0 0 1 .427-1.531 1.148 1.148 0 0 1 1.55.424L17.443 8.3l.006.009.008.017.013.027.134.29h9.917l.134-.29c.008-.018.02-.038.038-.073L32.094.57a1.127 1.127 0 0 1 .685-.53zm9.45 15.142v19.78h.002v.5c0 2.37-1.939 4.291-4.316 4.291H7.087c-2.377 0-4.316-1.92-4.316-4.29V15.181c0-2.37 1.939-4.291 4.316-4.291h30.826c2.377 0 4.316 1.92 4.316 4.29z"
            clip-rule="evenodd" />
    </symbol>
    <symbol id="q-icon06" viewBox="0 0 47 47">
        <path fill="#FF5B53" stroke="#FF5B53" stroke-width="2"
            d="M17.057 6.831c-.21.21-.494.328-.791.328H8.63c-.813 0-1.473.66-1.473 1.472v7.639c0 .297-.118.582-.327.791l-5.399 5.4.707.706-.707-.707c-.354.354-.432.77-.432 1.04 0 .271.078.687.432 1.04l5.399 5.4c.21.21.327.494.327.79v7.64c0 .812.66 1.472 1.473 1.472h7.635c.297 0 .582.118.79.327h.001l5.402 5.4a1.47 1.47 0 0 0 2.08 0l5.399-5.4c.21-.21.494-.327.79-.327h7.639c.813 0 1.472-.66 1.472-1.472v-7.64c0-.297.118-.581.328-.79l5.401-5.4a1.47 1.47 0 0 0 0-2.08l-5.401-5.402a1.119 1.119 0 0 1-.328-.791V8.631c0-.812-.66-1.472-1.472-1.472h-7.638c-.298 0-.582-.118-.791-.328l-5.4-5.399-.706.707.707-.707A1.463 1.463 0 0 0 23.499 1c-.271 0-.687.079-1.04.432l-5.402 5.4z" />
        <path fill="#F7F7F7"
            d="M32.477 27.842v-6.745h-2.275v-1.686h6.586v1.686h-2.286v6.745h-2.025zM26.86 28c-1.098 0-2.275-.407-3.147-1.21l1.154-1.393c.589.51 1.37.86 2.037.86.747 0 1.098-.283 1.098-.735 0-.487-.464-.645-1.188-.95l-1.075-.453c-.883-.351-1.709-1.087-1.709-2.31 0-1.414 1.267-2.545 3.055-2.545.974 0 2.003.373 2.74 1.109l-1.008 1.267c-.555-.419-1.075-.645-1.732-.645-.622 0-.995.25-.995.69 0 .476.52.657 1.267.951l1.053.419c1.04.419 1.663 1.12 1.663 2.308 0 1.404-1.177 2.637-3.214 2.637zm-9.46-.158V19.41h5.341v1.686h-3.315v1.562h2.817v1.697h-2.817v1.788h3.44v1.698H17.4zm-7.585 0V19.41h2.942c1.743 0 3.135.475 3.135 2.093 0 .747-.42 1.562-1.098 1.822v.046c.848.226 1.494.86 1.494 1.98 0 1.72-1.46 2.49-3.293 2.49h-3.18zm2.025-5.081h.838c.86 0 1.244-.374 1.244-.951 0-.6-.396-.849-1.244-.849h-.838v1.8zm0 3.53h1.007c.974 0 1.472-.35 1.472-1.075 0-.69-.487-.973-1.472-.973H11.84v2.048z" />
    </symbol>
    <symbol id="q-icon05" viewBox="0 0 32 36">
        <path fill="#FF5B53" d="M1 1h30v3H1zm0 31h30v3H1z" />
        <path fill="#F7F7F7" d="M3 4.5h26v27H3z" />
        <path fill="#34332E" fill-rule="evenodd"
            d="M28.5 5.333h-25v25.778h25V5.333zm-27-1.777v28.433h29V3.556h-29z" clip-rule="evenodd" />
        <path fill="#FF5B53" fill-rule="evenodd"
            d="M2 1.778v1.778h28V1.778H2zM1 0C.448 0 0 .398 0 .889v3.555c0 .491.448.89 1 .89h30c.552 0 1-.399 1-.89V.89c0-.492-.448-.89-1-.89H1zm29 34.222v-1.778H2v1.778h28zM31 36c.552 0 1-.398 1-.889v-3.555c0-.491-.448-.89-1-.89H1c-.552 0-1 .399-1 .89v3.555C0 35.602.448 36 1 36h30z"
            clip-rule="evenodd" />
        <path fill="#34332E" fill-rule="evenodd"
            d="M5 17.333V4.89h2v12.444h2V4.89h2v12.444h2V4.89h2v12.444h2V4.89h2v12.444h2V4.89h2v12.444h2V4.89h2v12.444h2.5v1.778H27v12.445h-2V19.11h-2v12.445h-2V19.11h-2v12.445h-2V19.11h-2v12.445h-2V19.11h-2v12.445H9V19.11H7v12.445H5V19.11H2.5v-1.778H5z"
            clip-rule="evenodd" />
    </symbol>
</svg>