<svg xmlns="http://www.w3.org/2000/svg">
    <symbol id="bag-icon" viewBox="0 0 30 28">
        <path fill="#999"
            d="M27 6.5h-6v-3l-3-3h-6l-3 3v3H3c-1.65 0-3 1.35-3 3V17c0 1.125.6 2.07 1.5 2.595V24.5c0 1.665 1.335 3 3 3h21c1.665 0 3-1.335 3-3v-4.92c.885-.525 1.5-1.485 1.5-2.58V9.5c0-1.65-1.35-3-3-3zm-15-3h6v3h-6v-3zm-9 6h24V17h-7.5v-4.5h-9V17H3V9.5zm13.5 9h-3v-3h3v3zm9 6h-21V20h6v1.5h9V20h6v4.5z" />
    </symbol>
    <symbol id="cart-icon" viewBox="0 0 20 19">
        <path fill="#333" fill-rule="evenodd"
            d="M2.627 3.009c-.161-.02-.391-.022-.822-.022H1a1 1 0 1 1 0-2h.854c.362 0 .72 0 1.02.037.342.043.727.145 1.072.437.344.292.508.655.606.985.05.167.09.355.128.553l10.539-.006c.805 0 1.49 0 2.04.059.574.062 1.142.202 1.629.587.348.276.631.625.828 1.024.275.556.293 1.14.234 1.716-.056.549-.2 1.219-.368 2.007l-.02.094c-.114.532-.213.995-.33 1.372-.127.403-.297.789-.598 1.13a3.001 3.001 0 0 1-.784.635c-.397.222-.81.308-1.23.347-.393.036-.867.036-1.41.036H6.18l.028.164c.07.425.11.651.157.807 0 .002 0 .004.002.006l.006.001c.161.02.391.022.822.022H17.5a1 1 0 0 1 0 2H7.146c-.362 0-.72 0-1.02-.037-.342-.043-.727-.146-1.072-.437-.344-.292-.508-.655-.606-.985a8.726 8.726 0 0 1-.205-1l-.008-.048-.218-1.31a1.051 1.051 0 0 1-.006-.035l-1.22-7.325c-.07-.425-.11-.652-.156-.807 0-.002 0-.004-.002-.006l-.006-.001zM5.847 10h9.32c.598 0 .979-.001 1.269-.028.273-.025.377-.067.436-.1a.999.999 0 0 0 .261-.211c.045-.05.108-.144.19-.406.086-.278.167-.65.292-1.235.183-.855.302-1.417.346-1.845.042-.414-.005-.558-.038-.626a1 1 0 0 0-.276-.341c-.06-.047-.19-.123-.605-.168-.427-.046-1.002-.047-1.877-.047L5.015 5l.833 5z"
            clip-rule="evenodd" />
        <path fill="#333"
            d="M18 17.5a1.5 1.5 0 1 1-3 0 1.5 1.5 0 0 1 3 0zm-9.5 0a1.5 1.5 0 1 1-3 0 1.5 1.5 0 0 1 3 0z" />
    </symbol>
    <symbol id="arrow-bottom" viewBox="0 0 12 8">
        <path fill="#CCC" fill-rule="evenodd"
            d="M.293.993a1 1 0 0 1 1.414 0L6 5.286 10.293.993a1 1 0 1 1 1.414 1.414l-5 5a1 1 0 0 1-1.414 0l-5-5a1 1 0 0 1 0-1.414z"
            clip-rule="evenodd" />
    </symbol>
    <symbol id="clock-icon" viewBox="0 0 24 24">
        <g clip-path="url(#a)">
            <path fill="#F3332B"
                d="M24 12a12 12 0 1 1-24 0 12 12 0 0 1 24 0zM12 5.25a.75.75 0 1 0-1.5 0v8.25a.75.75 0 0 0 .378.651l5.25 3a.75.75 0 0 0 .744-1.302L12 13.065V5.25z" />
        </g>
        <defs>
            <clipPath id="a">
                <path fill="#fff" d="M0 0h24v24H0z" />
            </clipPath>
        </defs>
    </symbol>
    <symbol id="arrow-right" viewBox="0 0 9 15">
        <path fill="#222" fill-rule="evenodd"
            d="M.793 14.207a1 1 0 0 1 0-1.414L6.086 7.5.793 2.207A1 1 0 0 1 2.207.793l6 6a1 1 0 0 1 0 1.414l-6 6a1 1 0 0 1-1.414 0z"
            clip-rule="evenodd" />
    </symbol>
    <symbol id="close-x" viewBox="0 0 16 16">
        <path fill="#272727" fill-rule="evenodd"
            d="M15.707.293a1 1 0 0 1 0 1.414L9.414 8l6.293 6.293a1 1 0 0 1-1.414 1.414L8 9.414l-6.293 6.293a1 1 0 0 1-1.414-1.414L6.586 8 .293 1.707A1 1 0 0 1 1.707.293L8 6.586 14.293.293a1 1 0 0 1 1.414 0z"
            clip-rule="evenodd" />
    </symbol>
    <symbol id="facebook-icon" viewBox="0 0 24 24">
        <path fill="#999" fill-rule="evenodd"
            d="M9.778 12.8V20h3.358v-7.1h2.271l.593-3h-2.864V7.7c0-.3.099-.7.592-.7h1.58V4h-3.061c-.988 0-2.47 1.3-2.47 2.8v3.1H8v3l1.778-.1z"
            clip-rule="evenodd" />
    </symbol>
    <symbol id="arrow-left" viewBox="0 0 9 15">
        <path fill="#222" fill-rule="evenodd"
            d="M8.207.793a1 1 0 0 1 0 1.414L2.914 7.5l5.293 5.293a1 1 0 1 1-1.414 1.414l-6-6a1 1 0 0 1 0-1.414l6-6a1 1 0 0 1 1.414 0z"
            clip-rule="evenodd" />
    </symbol>
    <symbol id="blog-icon" viewBox="0 0 24 24">
        <path fill="#999"
            d="M5.768 9.893a.811.811 0 0 0-.613.27.88.88 0 0 0-.253.648c0 .256.08.458.253.647.173.176.373.27.613.27s.452-.094.626-.27a.892.892 0 0 0 .266-.647.892.892 0 0 0-.266-.648.794.794 0 0 0-.626-.27zm7.47-.013a.811.811 0 0 0-.612.27.88.88 0 0 0-.253.647c0 .256.08.459.253.648.173.175.373.27.612.27.24 0 .453-.095.626-.27a.892.892 0 0 0 .267-.648.915.915 0 0 0-.267-.648c-.16-.189-.373-.27-.626-.27zm4.994.013a.811.811 0 0 0-.612.27.88.88 0 0 0-.253.648c0 .256.08.458.253.647a.83.83 0 0 0 .612.27c.24 0 .453-.094.626-.27a.892.892 0 0 0 .267-.647.892.892 0 0 0-.267-.648.812.812 0 0 0-.626-.27z" />
        <path fill="#999"
            d="M20.443 3.228H3.557C2.265 3.228 1.2 4.307 1.2 5.616v9.675c0 1.308 1.065 2.388 2.357 2.388h6.632s1.278 3.549 1.744 3.549c.466 0 1.851-3.55 1.851-3.55h6.659c1.292 0 2.357-1.079 2.357-2.388V5.617c0-1.309-1.065-2.388-2.357-2.388zM7.473 12.16c-.334.378-.853.54-1.412.54-.506 0-.88-.149-1.146-.364h-.013v.27H3.637v-5.6h1.265V9.15h.027c.346-.297.799-.391 1.331-.418.453-.014.933.27 1.226.607.28.337.492.864.492 1.444 0 .634-.16.998-.506 1.376zm2.73.5H8.91V9.191c0-.797-.625-.904-.625-.904v-1.39s1.81.108 1.917 2.334v3.427zm5.073-1.067a1.955 1.955 0 0 1-.48.675c-.2.189-.439.337-.705.445a2.213 2.213 0 0 1-.84.162c-.292 0-.572-.054-.825-.162a2.252 2.252 0 0 1-.706-.445 2.09 2.09 0 0 1-.48-.675 1.976 1.976 0 0 1-.159-.796c0-.283.053-.54.16-.796.106-.243.266-.472.48-.675a2.42 2.42 0 0 1 .705-.445 2.213 2.213 0 0 1 1.665 0c.266.108.506.257.705.445.214.203.36.419.48.675.106.257.16.513.16.796 0 .284-.054.54-.16.796zm5.087.554c0 .985-.186 1.578-.613 1.997-.519.499-1.251.526-1.864.445v-1.012c.52.054 1.225-.297 1.225-.972v-.256h-.013c-.293.405-.706.553-1.279.553-.519 0-.972-.189-1.278-.553-.306-.364-.453-.85-.453-1.457 0-.688.173-1.228.506-1.633.346-.405.826-.594 1.385-.594.493 0 .813.122 1.119.405h.013v-.31h1.265v3.387h-.013z" />
    </symbol>
    <symbol id="gear-icon" viewBox="0 0 30 30">
        <path fill="#999"
            d="M15 9a6 6 0 1 1 0 12 6 6 0 0 1 0-12zm0 3a3 3 0 1 0 0 6 3 3 0 0 0 0-6zm-3 18a.758.758 0 0 1-.75-.63l-.555-3.975C9.75 25.02 8.94 24.51 8.16 23.91l-3.735 1.515c-.33.12-.735 0-.915-.33l-3-5.19a.74.74 0 0 1 .18-.96l3.165-2.49L3.75 15l.105-1.5L.69 11.055a.74.74 0 0 1-.18-.96l3-5.19a.737.737 0 0 1 .915-.33l3.735 1.5c.78-.585 1.59-1.095 2.535-1.47L11.25.63c.06-.36.375-.63.75-.63h6c.375 0 .69.27.75.63l.555 3.975c.945.375 1.755.885 2.535 1.47l3.735-1.5c.33-.135.735 0 .915.33l3 5.19a.74.74 0 0 1-.18.96L26.145 13.5l.105 1.5-.105 1.5 3.165 2.445a.74.74 0 0 1 .18.96l-3 5.19a.737.737 0 0 1-.915.33l-3.735-1.5c-.78.585-1.59 1.095-2.535 1.47l-.555 3.975A.758.758 0 0 1 18 30h-6zm1.875-27l-.555 3.915a8.239 8.239 0 0 0-4.545 2.67L5.16 8.025l-1.125 1.95L7.2 12.3c-.6 1.755-.6 3.66 0 5.4l-3.18 2.34 1.125 1.95 3.645-1.56a8.166 8.166 0 0 0 4.515 2.64L13.86 27h2.28l.555-3.915a8.277 8.277 0 0 0 4.515-2.655l3.645 1.56 1.125-1.95-3.18-2.325c.6-1.755.6-3.66 0-5.415l3.165-2.325-1.125-1.95-3.615 1.56A8.13 8.13 0 0 0 16.68 6.93L16.125 3h-2.25z" />
    </symbol>
    <symbol id="q-icon01" viewBox="0 0 54 54">
        <path fill="#F5F5F5"
            d="M28.5 13h-9l-2 1.5V40l2 1H51l.5-7.5-2.5-1-2-2-1.5-2.5.5-2.5 1.5-2.5 3-2v-7.5l-1-.5h-21z" />
        <path fill="#FF5B53"
            d="M15.711 13.106l1.236.618a1 1 0 0 1 .553.894v24.764a1 1 0 0 1-.553.894l-1.236.618a.999.999 0 0 1-.447.106H4.5a1 1 0 0 1-1-1v-5.736c0-.451.303-.842.723-1.007C6.153 32.496 9 30.524 9 27c0-3.524-2.846-5.496-4.777-6.257-.42-.165-.723-.556-.723-1.007V14a1 1 0 0 1 1-1h10.764c.155 0 .308.036.447.106z" />
        <path fill="#FF5B53" fill-rule="evenodd"
            d="M2.5 14a2 2 0 0 1 2-2h10.764a2 2 0 0 1 .894.211l1.236.618a2 2 0 0 1 1.106 1.789v24.764a2 2 0 0 1-1.106 1.789l-1.236.618a2 2 0 0 1-.894.211H4.5a2 2 0 0 1-2-2v-5.736c0-.918.61-1.643 1.356-1.937C5.653 31.618 8 29.9 8 27s-2.347-4.618-4.144-5.327C3.11 21.38 2.5 20.654 2.5 19.736V14zm12.764 26l1.236-.618V14.618L15.264 14H4.5v5.738l.01.017a.182.182 0 0 0 .08.058C6.654 20.627 10 22.85 10 27c0 4.149-3.346 6.373-5.41 7.187a.184.184 0 0 0-.08.058.067.067 0 0 0-.01.017V40h10.764zM4.5 19.736z"
            clip-rule="evenodd" />
        <path fill="#34332E" fill-rule="evenodd"
            d="M20.206 12.002h30.612a1.467 1.467 0 0 1 1.467 1.467v7.488a1.464 1.464 0 0 1-1.349 1.462h-.003a4.602 4.602 0 0 0 0 9.179h.003a1.464 1.464 0 0 1 1.349 1.463v.004l-1-.005 1 .001v7.488a1.467 1.467 0 0 1-1.466 1.466l-30.609-.003c-.55 0-1.097-.285-1.485-.682A2.581 2.581 0 0 1 18 39.5V36a1 1 0 1 1 2 0v3.5c0 .224.08.355.155.431.04.042.08.068.108.081h-.051a.27.27 0 0 1 .066.007.154.154 0 0 1-.014-.006l-.001-.001 30.022.003v.533h.533v-.533h-.533v-6.48c.164.026.33.045.497.057l.075-.997-.079.997a.536.536 0 0 1-.493-.532v.476a6.602 6.602 0 0 1 0-13.054v.476a.536.536 0 0 1 .493-.532l.08.997-.076-.998a6.604 6.604 0 0 0-.497.057v-6.48h.533a.534.534 0 0 1-.533-.533v.533h-30.03a.158.158 0 0 1 .014-.006.256.256 0 0 1-.062.005h.047a.377.377 0 0 0-.104.077c-.07.07-.149.195-.148.418v.003L20 18a1 1 0 1 1-2 0l.002-3.501v.001l1-.002h-1m32.816 25.517v.534h-.533a.533.533 0 0 1 .533-.534zm1.467-19.058h-1l1-.004v.004z"
            clip-rule="evenodd" />
        <path fill="#34332E" fill-rule="evenodd"
            d="M18.67 32.682a1 1 0 0 1-1-1v-1.867a1 1 0 1 1 2 0v1.867a1 1 0 0 1-1 1zm.002-7.467a1 1 0 0 1-1-1l.001-1.868a1 1 0 0 1 2 .001v1.868a1 1 0 0 1-1.001 1z"
            clip-rule="evenodd" />
        <path fill="#34332E"
            d="M34.603 29.703c.588-.52 1.293-.781 2.116-.781.823 0 1.522.26 2.095.78.588.521.882 1.259.882 2.213 0 .94-.294 1.67-.882 2.191-.573.521-1.272.782-2.095.782-.823 0-1.528-.26-2.116-.782-.588-.52-.882-1.25-.882-2.19 0-.955.294-1.693.882-2.213zm3.285.91c-.309-.303-.698-.455-1.169-.455-.47 0-.86.152-1.168.456-.309.304-.463.73-.463 1.28s.154.983.463 1.301c.308.304.698.456 1.168.456s.86-.152 1.169-.456c.309-.318.463-.752.463-1.301 0-.55-.154-.976-.463-1.28zm-11.31-9.718c.588-.52 1.293-.78 2.116-.78.823 0 1.521.26 2.095.78.587.52.881 1.258.881 2.213 0 .94-.294 1.67-.881 2.191-.574.52-1.272.781-2.095.781-.823 0-1.528-.26-2.116-.781-.588-.52-.882-1.251-.882-2.191 0-.955.294-1.692.882-2.213zm3.285.911c-.31-.303-.699-.455-1.169-.455-.47 0-.86.152-1.168.455-.31.304-.463.73-.463 1.28s.154.984.463 1.302c.308.304.698.455 1.168.455s.86-.151 1.169-.455c.308-.318.463-.752.463-1.302s-.155-.976-.463-1.28zm9.171-1.822c.206.174.309.354.309.542 0 .174-.08.355-.243.543L27.768 34.454c-.206.245-.411.368-.617.368a.765.765 0 0 1-.551-.238c-.147-.16-.22-.318-.22-.478 0-.159.08-.34.242-.542l11.332-13.406c.191-.232.367-.347.53-.347.175 0 .36.057.55.173z" />
        <path fill="#34332E" fill-rule="evenodd"
            d="M27.526 21.806c-.31.304-.463.73-.463 1.28s.154.984.463 1.302c.308.304.698.455 1.168.455s.86-.151 1.169-.455c.308-.318.463-.752.463-1.302s-.155-.976-.463-1.28c-.31-.303-.699-.455-1.169-.455-.47 0-.86.152-1.168.455zm2.124 2.37c.24-.249.376-.6.376-1.09 0-.492-.137-.833-.374-1.066-.247-.243-.559-.37-.958-.37-.399 0-.71.127-.958.37-.237.233-.373.574-.373 1.066 0 .49.135.841.375 1.09.247.242.558.367.956.367.398 0 .709-.125.956-.366zm9.56-4.436l.018.015c.243.205.415.462.415.771 0 .27-.126.518-.314.737l-.001.001-11.33 13.382c-.23.276-.513.476-.847.476-.293 0-.55-.116-.762-.324l-.005-.005-.005-.006c-.18-.194-.3-.422-.3-.68 0-.259.129-.505.308-.73l.005-.007 11.332-13.405c.202-.245.456-.454.76-.454.243 0 .48.08.706.216l.02.013zm-1.256.418L26.622 33.564c-.162.203-.243.383-.243.542 0 .16.074.319.22.478a.767.767 0 0 0 .552.238c.206 0 .411-.123.617-.368L39.1 21.069c.162-.188.243-.369.243-.543 0-.188-.103-.368-.309-.542a1.067 1.067 0 0 0-.55-.173c-.163 0-.339.115-.53.347zm-3.55 9.32c.645-.572 1.423-.856 2.315-.856.892 0 1.663.284 2.295.857.665.59.982 1.417.982 2.437 0 1.006-.318 1.825-.982 2.414-.632.573-1.403.858-2.295.858-.892 0-1.67-.285-2.315-.857-.665-.589-.983-1.408-.983-2.416 0-1.02.317-1.847.983-2.437zm4.41 4.628c.588-.52.882-1.25.882-2.19 0-.955-.294-1.693-.882-2.213-.573-.52-1.272-.781-2.095-.781-.823 0-1.528.26-2.116.78-.588.521-.882 1.259-.882 2.213 0 .94.294 1.67.882 2.191.588.521 1.293.782 2.116.782.823 0 1.522-.26 2.095-.782zm-1.137-3.278c-.247-.244-.559-.37-.958-.37-.399 0-.71.126-.958.37-.237.233-.373.574-.373 1.066 0 .49.135.84.376 1.09.247.242.558.367.955.367.398 0 .709-.125.956-.367.24-.25.376-.6.376-1.09 0-.492-.137-.833-.374-1.066zm.21 2.367c-.308.304-.697.456-1.168.456-.47 0-.86-.152-1.168-.456-.309-.318-.463-.752-.463-1.301 0-.55.154-.976.463-1.28.308-.304.698-.456 1.168-.456s.86.152 1.169.456c.309.304.463.73.463 1.28s-.154.983-.463 1.301zM26.38 20.671c.645-.572 1.423-.857 2.315-.857.892 0 1.663.285 2.295.858.665.59.982 1.416.982 2.436 0 1.007-.318 1.826-.982 2.414-.632.574-1.403.858-2.295.858-.892 0-1.67-.285-2.315-.856-.665-.59-.983-1.409-.983-2.416 0-1.02.317-1.848.983-2.437zm4.41 4.628c.587-.52.881-1.251.881-2.191 0-.955-.294-1.692-.881-2.213-.574-.52-1.272-.78-2.095-.78-.823 0-1.528.26-2.116.78-.588.52-.882 1.258-.882 2.213 0 .94.294 1.67.882 2.191.588.52 1.293.781 2.116.781.823 0 1.521-.26 2.095-.781z"
            clip-rule="evenodd" />
    </symbol>
    <symbol id="instagram-icon" viewBox="0 0 24 24">
        <path fill="#999"
            d="M12 8.834c-1.712 0-3.167 1.455-3.167 3.166 0 1.712 1.455 3.167 3.167 3.167 1.712 0 3.167-1.455 3.167-3.167 0-1.711-1.455-3.166-3.167-3.166z" />
        <path fill="#999"
            d="M16.06 2.5H8.026C4.918 2.5 2.5 4.918 2.5 7.94v8.033c0 3.109 2.418 5.527 5.527 5.527h8.032c3.023 0 5.441-2.418 5.441-5.527V7.94a5.418 5.418 0 0 0-5.44-5.44zM12 17.01c-2.764 0-4.923-2.246-4.923-4.924 0-2.677 2.16-5.009 4.923-5.009 2.764 0 4.923 2.246 4.923 4.923s-2.16 5.01-4.923 5.01zm5.096-8.896a1.143 1.143 0 0 1-1.123-1.123c0-.605.518-1.123 1.123-1.123.604 0 1.122.518 1.122 1.123 0 .604-.518 1.123-1.122 1.123z" />
    </symbol>
    <symbol id="location-icon" viewBox="0 0 24 32">
        <path fill="#999"
            d="M12 3c3.3 0 6 2.7 6 6 0 3.15-3.15 8.25-6 11.85C9.15 17.1 6 12.15 6 9c0-3.3 2.7-6 6-6zm0-3C7.05 0 3 4.05 3 9c0 6.75 9 16.5 9 16.5s9-9.9 9-16.5c0-4.95-4.05-9-9-9zm0 6c-1.65 0-3 1.35-3 3s1.35 3 3 3 3-1.35 3-3-1.35-3-3-3zm12 19.5c0 3.3-5.4 6-12 6s-12-2.7-12-6c0-1.95 1.8-3.6 4.65-4.8l.9 1.35C4.05 22.8 3 23.7 3 24.75c0 2.1 4.05 3.75 9 3.75s9-1.65 9-3.75c0-1.05-1.05-1.95-2.7-2.7l.9-1.35c3 1.2 4.8 2.85 4.8 4.8z" />
    </symbol>
    <symbol id="q-icon02" viewBox="0 0 52 54">
        <path fill="#34332E" fill-rule="evenodd"
            d="M19.5 3.29v28h17v-28h-17zm-1-2a1 1 0 0 0-1 1v30a1 1 0 0 0 1 1h19a1 1 0 0 0 1-1v-30a1 1 0 0 0-1-1h-19z"
            clip-rule="evenodd" />
        <path fill="#FF5B53" d="M17.5 1.764a1 1 0 0 1 1-1h19a1 1 0 0 1 1 1v13h-21v-13z" />
        <path stroke="#34332E" stroke-width="2" d="M18.932 15.79h19" />
        <path fill="#34332E" d="M30.932 16.29h5v2h-5v-2z" />
        <path fill="#F5F5F5"
            d="M16.629 30.29c-.85 0-4.368 2.892-6.109 4.427l8.942 9.03 14.253-.354 17.353-9.827c-.425-2.975-3.365-2.95-4.781-2.567-.213.07-7.186 3.393-10.646 5.046 1.027-1.838-.463-3.435-1.483-4.072-.567-.284-7.732-.118-11.244 0-.425-.425-1.711-1.299-2.301-1.682h-3.984z" />
        <path fill="#34332E" fill-rule="evenodd"
            d="M11.983 34.773l7.885 7.964 13.569-.337 14.48-8.326a1.869 1.869 0 0 0-.33-.56 1.878 1.878 0 0 0-.85-.541c-.7-.23-1.547-.172-2.134-.023a5.646 5.646 0 0 1-.028.012l-.168.075a439.108 439.108 0 0 0-2.802 1.298 824.022 824.022 0 0 0-5.267 2.485c-.186.28-.411.552-.676.818a1 1 0 0 1-.675.292l-11.156.354a1 1 0 1 1-.063-1.999l10.733-.34c.113-.138.2-.267.267-.388.32-.573.258-1.069.013-1.534-.24-.46-.655-.861-1.03-1.121a4.156 4.156 0 0 0-.181-.02c-.229-.02-.546-.035-.942-.046a86.313 86.313 0 0 0-2.978-.014c-2.29.02-4.951.091-6.702.15a1 1 0 0 1-.74-.292c-.145-.145-.505-.423-.963-.75a36.302 36.302 0 0 0-.932-.64h-3.615a1.27 1.27 0 0 0-.091.038c-.127.058-.3.152-.52.288-.437.271-.982.659-1.573 1.108a61.451 61.451 0 0 0-2.531 2.05zm21.86-1.856zm3.11 1.397a886.07 886.07 0 0 1 5.961-2.794c.276-.127.504-.231.671-.306l.007-.003c.13-.059.291-.132.379-.16a.96.96 0 0 1 .054-.017c.83-.225 2.129-.359 3.337.04.62.203 1.236.555 1.732 1.125.5.573.834 1.316.963 2.226a1 1 0 0 1-.491 1.008L34.214 44.26a1 1 0 0 1-.474.133l-14.254.354a1 1 0 0 1-.735-.296l-8.942-9.03a1 1 0 0 1 .05-1.454 66.612 66.612 0 0 1 3.444-2.835 23.222 23.222 0 0 1 1.73-1.216 6.99 6.99 0 0 1 .747-.409c.203-.092.516-.216.849-.216h3.984a1 1 0 0 1 .545.161c.304.198.785.52 1.248.85.292.208.61.442.873.658 1.75-.056 4.209-.119 6.353-.138a88.41 88.41 0 0 1 3.052.015c.41.011.773.028 1.059.053.142.012.28.028.401.049.09.015.281.05.461.14a.673.673 0 0 1 .083.046c.615.384 1.389 1.062 1.865 1.969.194.37.338.781.4 1.22z"
            clip-rule="evenodd" />
        <path fill="#34332E" fill-rule="evenodd"
            d="M8.145 32.57a1 1 0 0 1 1.408.021L21.68 44.986a1 1 0 0 1-.012 1.41l-6.64 6.552a1 1 0 0 1-1.407-.002L1.228 40.64a1 1 0 0 1 .011-1.43l6.906-6.64zm-4.782 7.372L14.33 50.829l5.226-5.156-10.74-10.975-5.453 5.244z"
            clip-rule="evenodd" />
    </symbol>
    <symbol id="plus-icon" viewBox="0 0 14 14">
        <path fill="#fff" fill-rule="evenodd"
            d="M7 .25a.75.75 0 0 1 .75.75v4.917H13a.75.75 0 0 1 0 1.5H7.75V13a.75.75 0 0 1-1.5 0V7.417H1a.75.75 0 0 1 0-1.5h5.25V1A.75.75 0 0 1 7 .25z"
            clip-rule="evenodd" />
    </symbol>
    <symbol id="q-icon03" viewBox="0 0 45 42">
        <path fill="#FF5B53"
            d="M28.204 24.16l-8.815-4.95c-1.061-.597-2.389.15-2.389 1.342v9.896c0 1.192 1.328 1.94 2.389 1.342l8.815-4.95a1.526 1.526 0 0 0 0-2.68z" />
        <path fill="#222" fill-rule="evenodd"
            d="M32.78.04a1.145 1.145 0 0 1 .864.107 1.118 1.118 0 0 1 .428 1.533l-3.978 6.96h7.82c3.634 0 6.587 2.94 6.585 6.54v20.28c0 3.603-2.951 6.54-6.587 6.54H7.087C3.451 42 .5 39.063.5 35.46V15.182c0-3.604 2.951-6.54 6.587-6.54h7.94l-3.976-6.963a1.118 1.118 0 0 1 .427-1.531 1.148 1.148 0 0 1 1.55.424L17.443 8.3l.006.009.008.017.013.027.134.29h9.917l.134-.29c.008-.018.02-.038.038-.073L32.094.57a1.127 1.127 0 0 1 .685-.53zm9.45 15.142v19.78h.002v.5c0 2.37-1.939 4.291-4.316 4.291H7.087c-2.377 0-4.316-1.92-4.316-4.29V15.181c0-2.37 1.939-4.291 4.316-4.291h30.826c2.377 0 4.316 1.92 4.316 4.29z"
            clip-rule="evenodd" />
    </symbol>
    <symbol id="q-icon06" viewBox="0 0 47 47">
        <path fill="#FF5B53" stroke="#FF5B53" stroke-width="2"
            d="M17.057 6.831c-.21.21-.494.328-.791.328H8.63c-.813 0-1.473.66-1.473 1.472v7.639c0 .297-.118.582-.327.791l-5.399 5.4.707.706-.707-.707c-.354.354-.432.77-.432 1.04 0 .271.078.687.432 1.04l5.399 5.4c.21.21.327.494.327.79v7.64c0 .812.66 1.472 1.473 1.472h7.635c.297 0 .582.118.79.327h.001l5.402 5.4a1.47 1.47 0 0 0 2.08 0l5.399-5.4c.21-.21.494-.327.79-.327h7.639c.813 0 1.472-.66 1.472-1.472v-7.64c0-.297.118-.581.328-.79l5.401-5.4a1.47 1.47 0 0 0 0-2.08l-5.401-5.402a1.119 1.119 0 0 1-.328-.791V8.631c0-.812-.66-1.472-1.472-1.472h-7.638c-.298 0-.582-.118-.791-.328l-5.4-5.399-.706.707.707-.707A1.463 1.463 0 0 0 23.499 1c-.271 0-.687.079-1.04.432l-5.402 5.4z" />
        <path fill="#F7F7F7"
            d="M32.477 27.842v-6.745h-2.275v-1.686h6.586v1.686h-2.286v6.745h-2.025zM26.86 28c-1.098 0-2.275-.407-3.147-1.21l1.154-1.393c.589.51 1.37.86 2.037.86.747 0 1.098-.283 1.098-.735 0-.487-.464-.645-1.188-.95l-1.075-.453c-.883-.351-1.709-1.087-1.709-2.31 0-1.414 1.267-2.545 3.055-2.545.974 0 2.003.373 2.74 1.109l-1.008 1.267c-.555-.419-1.075-.645-1.732-.645-.622 0-.995.25-.995.69 0 .476.52.657 1.267.951l1.053.419c1.04.419 1.663 1.12 1.663 2.308 0 1.404-1.177 2.637-3.214 2.637zm-9.46-.158V19.41h5.341v1.686h-3.315v1.562h2.817v1.697h-2.817v1.788h3.44v1.698H17.4zm-7.585 0V19.41h2.942c1.743 0 3.135.475 3.135 2.093 0 .747-.42 1.562-1.098 1.822v.046c.848.226 1.494.86 1.494 1.98 0 1.72-1.46 2.49-3.293 2.49h-3.18zm2.025-5.081h.838c.86 0 1.244-.374 1.244-.951 0-.6-.396-.849-1.244-.849h-.838v1.8zm0 3.53h1.007c.974 0 1.472-.35 1.472-1.075 0-.69-.487-.973-1.472-.973H11.84v2.048z" />
    </symbol>
    <symbol id="q-icon04" viewBox="0 0 47.67 48.47">
        <defs>
            <style>.cls-1{fill:#f15d57}.cls-2{fill:none}.cls-3{fill:#222323}</style>
        </defs>
        <g id="Layer_1-2">
            <path
                d="M44.28 17.7l1.21-1.21-1.2 1.2-.01.01zM15.95 38.67l-.05-.02.1.04-.05-.02zM5.04 28.91l1.86.74-.07-.03-1.79-.71z"
                class="cls-2" />
            <path
                d="M23.54 46.26c-.32.13-.67.21-1.02.21v2c.61 0 1.21-.12 1.77-.35.58-.23 1.11-.58 1.55-1.02l-1.41-1.41c-.25.25-.55.45-.89.58zm-1.04.21c-.55 0-1.08-.21-1.49-.58l-.07.08.07-.08c-.43-.39-.65-.9-.65-1.53h-2c0 1.14.42 2.21 1.31 3.01.77.71 1.78 1.1 2.82 1.1h.02v-2h-.02zM4.7 30.57v.18c.02 1.06.39 2.07 1.19 2.87.82.82 1.87 1.19 2.97 1.19.14 0 .28 0 .42-.02-.01.14-.02.28-.02.42 0 1.13.42 2.14 1.22 2.94.77.78 1.81 1.22 2.9 1.22h.03c.14 0 .29 0 .43-.02-.01.14-.02.28-.02.41-.01 1.11.42 2.17 1.21 2.95.8.8 1.82 1.21 2.94 1.21.14 0 .28 0 .42-.02-.02.15-.03.31-.03.46h2c0-.3.07-.64.2-1 .12-.36.33-.68.59-.95l8.59-8.59-1.29-1.29-8.58 8.59c-.26.26-.56.46-.89.59-.32.13-.66.2-1.01.2-.6 0-1.11-.21-1.53-.63-.41-.4-.64-.95-.63-1.53s-.02 0-.02 0h.02c0-.36.07-.71.22-1.05.13-.32.32-.6.56-.85l8.59-8.59-1.28-1.28-8.59 8.58c-.25.25-.55.44-.87.57-.33.14-.69.22-1.05.22-.59 0-1.1-.21-1.52-.63-.41-.4-.64-.95-.63-1.52 0-.34.07-.68.2-1.01.13-.33.33-.63.59-.89l-1.27-1.27c-.22.22-.51.41-.86.56l.05.13-.05-.13.05.13-.05-.13c-.35.15-.7.22-1.06.22-.63 0-1.15-.2-1.55-.61-.4-.4-.6-.92-.6-1.55 0-.34.07-.68.2-1.01l-1.86-.73c-.21.53-.32 1.09-.34 1.66zm11.2 8.08l.05.02.05.02-.1-.04z"
                class="cls-3" />
            <path
                d="M47.67 22.05c0-1.08-.18-2.12-.58-3.1-.36-.92-.91-1.75-1.6-2.46l-1.21 1.21.02-.02 1.19-1.19-10-10c-.73-.73-1.61-1.3-2.58-1.66a8.21 8.21 0 0 0-2.98-.56c-.99 0-1.97.2-2.91.57-.94.36-1.81.91-2.53 1.62l-1.73 1.7 2 1.37.98.67 5.05 4.8c.26.26.42.52.53.79.13.35.19.66.19.94 0 .67-.2 1.08-.53 1.41-.35.35-.78.54-1.42.54-.33 0-.67-.05-1.01-.17l-.4 1.22-.06.19.46-1.41c-.25-.09-.48-.23-.66-.42s-5.03-5.04-5.03-5.04l-.14.14.14-.14-1.43-1.43-1.42 1.45L6.06 27.35c-.44.44-.79.96-1.02 1.55s1.79.71 1.79.71l.07.03c.13-.33.33-.63.59-.89l-.03-.03.03.03 13.95-14.28 5.03 5.04c.43.43.91.73 1.45.91s.06-.18.06-.18l-.06.18c.54.18 1.08.27 1.64.27 1.12 0 2.06-.37 2.82-1.11.75-.74 1.13-1.69 1.13-2.84 0-.54-.11-1.09-.32-1.65a4.38 4.38 0 0 0-.98-1.5l-5.2-4.95-1.11-.76c.53-.52 1.17-.92 1.86-1.18.69-.28 1.43-.43 2.18-.43.77 0 1.53.14 2.26.43.71.27 1.35.68 1.88 1.21l.32-.32-.32.32 10 10c.49.49.88 1.09 1.16 1.8.29.71.43 1.49.43 2.35 0 .76-.14 1.51-.44 2.21a5.34 5.34 0 0 1-1.16 1.76L24.42 45.69l1.41 1.41 19.65-19.66c.68-.69 1.22-1.51 1.59-2.4.39-.94.6-1.95.59-2.98z"
                class="cls-3" />
            <path d="M10.77 32.03l1.28 1.28 8.05-8.06-1.29-1.27-8.04 8.05z" class="cls-3" />
            <path
                d="M33.57 15.21c-.23-.55-.55-1.05-.97-1.47L21.25 2.19A7.476 7.476 0 0 0 18.89.57C18 .2 17.05 0 16.09 0h-.07c-.98 0-1.93.21-2.8.63-.81.39-1.55.92-2.18 1.56s-8.92 8.94-8.92 8.94c-.68.68-1.18 1.52-1.55 2.45-.39.99-.57 2.06-.57 3.18 0 1.1.21 2.21.6 3.29.4 1.11 1.03 2.12 1.86 2.96s2.32 2.59 2.32 2.59l.74-.67-.74.67 1.41 1.57 1.49-1.49 12.33-12.36 6.59 6.42c.43.43.94.78 1.52 1.02h.03l.03.02c.53.2 1.09.3 1.66.3 1.08 0 2.14-.4 2.92-1.21s0-.02 0-.02c.76-.79 1.15-1.84 1.14-2.91 0-.61-.14-1.19-.36-1.72zM.61 20.05l-.01-.01.01.01z"
                class="cls-1" />
        </g>
    </symbol>
    <symbol id="q-icon05" viewBox="0 0 32 36">
        <path fill="#FF5B53" d="M1 1h30v3H1zm0 31h30v3H1z" />
        <path fill="#F7F7F7" d="M3 4.5h26v27H3z" />
        <path fill="#34332E" fill-rule="evenodd"
            d="M28.5 5.333h-25v25.778h25V5.333zm-27-1.777v28.433h29V3.556h-29z" clip-rule="evenodd" />
        <path fill="#FF5B53" fill-rule="evenodd"
            d="M2 1.778v1.778h28V1.778H2zM1 0C.448 0 0 .398 0 .889v3.555c0 .491.448.89 1 .89h30c.552 0 1-.399 1-.89V.89c0-.492-.448-.89-1-.89H1zm29 34.222v-1.778H2v1.778h28zM31 36c.552 0 1-.398 1-.889v-3.555c0-.491-.448-.89-1-.89H1c-.552 0-1 .399-1 .89v3.555C0 35.602.448 36 1 36h30z"
            clip-rule="evenodd" />
        <path fill="#34332E" fill-rule="evenodd"
            d="M5 17.333V4.89h2v12.444h2V4.89h2v12.444h2V4.89h2v12.444h2V4.89h2v12.444h2V4.89h2v12.444h2V4.89h2v12.444h2.5v1.778H27v12.445h-2V19.11h-2v12.445h-2V19.11h-2v12.445h-2V19.11h-2v12.445h-2V19.11h-2v12.445H9V19.11H7v12.445H5V19.11H2.5v-1.778H5z"
            clip-rule="evenodd" />
    </symbol>
    <symbol id="q-icon08" viewBox="0 0 40 38">
        <path fill="#FF5B53"
            d="M36.688 1H4.312c-1.186 0-2.164.936-2.296 2.146L2 3.429v24.276c0 1.245.893 2.273 2.042 2.412l.27.017h8.825c.55 0 1.082.205 1.498.578.128.068.25.15.361.242l.201.19L20.777 37l5.666-5.868c.186-.27.425-.497.7-.667.276-.17.582-.277.9-.317l.27-.014h8.375c1.186 0 2.164-.936 2.296-2.146l.016-.283V3.429c0-1.248-.893-2.273-2.042-2.412L36.688 1z" />
        <path fill="#FF5B53" fill-rule="evenodd"
            d="M20.368 37.998a3.17 3.17 0 0 1-2.189-.77l-.2-.188-4.991-5.049H5.3a5.26 5.26 0 0 1-3.632-1.46A5.405 5.405 0 0 1 .01 26.948L0 26.604V5.374c0-1.375.519-2.695 1.448-3.692A5.27 5.27 0 0 1 4.975.01l.34-.01H34.7a5.26 5.26 0 0 1 3.632 1.46 5.404 5.404 0 0 1 1.658 3.583l.01.344v21.23a5.413 5.413 0 0 1-1.448 3.691 5.27 5.27 0 0 1-3.527 1.673l-.34.01H27.58l-5.066 5.057-.005.005a3.178 3.178 0 0 1-2.14.945zm14.667-35.73l-.305-.02H5.3a3.091 3.091 0 0 0-2.064.794A3.132 3.132 0 0 0 2.221 5.01l-.003.028-.018.307v21.274c0 .762.277 1.499.78 2.071a3.089 3.089 0 0 0 1.956 1.031l.029.004.305.018h8.044c.269 0 .516.099.708.264l.09.077.106.054a.938.938 0 0 1 .139.088l.136.123 5.752 5.82 5.914-5.9.048-.067a1.11 1.11 0 0 1 .735-.448l.182-.01H34.7c.763 0 1.497-.284 2.064-.794s.926-1.21 1.015-1.967l.003-.028.018-.307V5.373c0-.762-.276-1.499-.78-2.071a3.092 3.092 0 0 0-1.956-1.031l-.029-.004z"
            clip-rule="evenodd" />
        <path fill="#fff"
            d="M18.723 23c-.037 0-.074 0-.111-.003a3.414 3.414 0 0 1-2.408-1.111l-.024-.029-4.805-5.582a1.538 1.538 0 0 1 .19-2.197 1.6 1.6 0 0 1 1.162-.362 1.617 1.617 0 0 1 1.082.549l4.787 5.561a.19.19 0 0 0 .127.055c.053.007.098-.016.136-.052l9.414-9.364a1.618 1.618 0 0 1 2.251-.018c.629.602.634 1.59.019 2.205l-9.43 9.38a3.46 3.46 0 0 1-2.39.968z" />
    </symbol>
    <symbol id="cs-icon" viewBox="0 0 43 49">
        <path fill="#fff" fill-rule="evenodd"
            d="M36.155 6.46a21.18 21.18 0 0 1 6.177 13.917c.054.2.086.406.094.614v7.893a4.6 4.6 0 0 1-.012.308c.05.181.055.374.012.56a21.157 21.157 0 0 1-16.431 15.963h-.111a4.727 4.727 0 1 1 .527-2.458 18.95 18.95 0 0 0 12.297-9.905 4.57 4.57 0 0 1-.92.08h-.512a4.57 4.57 0 0 1-4.57-4.46v-6.175a4.46 4.46 0 0 1 4.57-4.459h2.23c.123-.007.246-.006.369.004a18.95 18.95 0 0 0-37.384-.047c.17-.03.344-.046.518-.046h2.609a4.102 4.102 0 0 1 4.102 4.08v6.911a4.102 4.102 0 0 1-4.102 4.192h-1.45a4.1 4.1 0 0 1-4.1-4.192v-7.422A1.115 1.115 0 0 1 0 21.437 21.18 21.18 0 0 1 36.155 6.46zM16.03 12.698h.557c.743 0 1.115.372 1.115 1.115v3.3c0 .743-.372 1.114-1.115 1.114h-.557c-.744 0-1.115-.371-1.115-1.115v-3.3c0-.742.372-1.114 1.115-1.114zm9.81 0h.557c.743 0 1.115.372 1.115 1.115v3.3c0 .743-.372 1.114-1.115 1.114h-.558c-.743 0-1.114-.371-1.114-1.115v-3.3c0-.742.371-1.114 1.114-1.114zM3.01 20.479a.713.713 0 0 0-.714.713v8.048a1.873 1.873 0 0 0 1.873 1.873h1.449A1.873 1.873 0 0 0 7.49 29.24v-6.91a1.873 1.873 0 0 0-1.873-1.851H3.009zm34.266 0a2.231 2.231 0 0 0-2.341 2.23v6.085a2.229 2.229 0 0 0 2.34 2.23h.514a2.23 2.23 0 0 0 2.23-2.23v-7.803a.513.513 0 0 0-.536-.512h-2.207zM21.714 41.056a2.497 2.497 0 1 0-.044 4.995 2.497 2.497 0 0 0 .044-4.995zM16.016 29.5a9.653 9.653 0 0 0 5.186 1.523 9.676 9.676 0 0 0 8.761-5.596.87.87 0 0 0-.446-1.181.914.914 0 0 0-1.181.423 7.848 7.848 0 0 1-14.268 0 .891.891 0 0 0-1.182-.423.87.87 0 0 0-.424 1.181 9.653 9.653 0 0 0 3.554 4.073z"
            clip-rule="evenodd" />
    </symbol>
    <symbol id="repair-icon" viewBox="0 0 30 30">
        <path fill="#999"
            d="M16.5.045v3.03c6.585.81 11.25 6.795 10.44 13.38-.69 5.46-4.98 9.795-10.44 10.44v3c8.25-.825 14.25-8.145 13.425-16.395C29.25 6.375 23.595.75 16.5.045zm-3 .045c-2.925.285-5.715 1.41-7.995 3.3L7.65 5.61a11.993 11.993 0 0 1 5.85-2.52v-3zM3.39 5.505C1.5 7.785.375 10.56.075 13.5h3a12.025 12.025 0 0 1 2.46-5.85L3.39 5.505zM.09 16.5a15.06 15.06 0 0 0 3.315 7.995l2.13-2.145A12.003 12.003 0 0 1 3.09 16.5h-3zm7.56 8.055L5.505 26.61A14.991 14.991 0 0 0 13.5 30v-3a12.004 12.004 0 0 1-5.85-2.445zm14.58-4.77l-6.165-6.165c.615-1.56.27-3.39-1.02-4.665-1.35-1.365-3.375-1.635-5.01-.885l2.91 2.91-2.025 2.04-2.985-2.925c-.81 1.635-.435 3.66.885 5.025 1.29 1.29 3.12 1.62 4.68 1.02l6.165 6.15a.63.63 0 0 0 .945 0l1.56-1.545c.33-.27.33-.75.06-.96z" />
    </symbol>
    <symbol id="ribbon" viewBox="0 0 26 37">
        <path fill="#F3332B"
            d="M0 0h26v35.382a1 1 0 0 1-1.447.894l-11.106-5.552a1 1 0 0 0-.894 0L1.447 36.276A1 1 0 0 1 0 35.382V0z" />
    </symbol>
    <symbol id="stop-icon" viewBox="0 0 10 14">
        <path fill="#fff" fill-rule="evenodd"
            d="M.75.25A.75.75 0 0 1 1.5 1v12A.75.75 0 0 1 0 13V1A.75.75 0 0 1 .75.25zm8 0A.75.75 0 0 1 9.5 1v12A.75.75 0 0 1 8 13V1a.75.75 0 0 1 .75-.75z"
            clip-rule="evenodd" />
    </symbol>
    <symbol id="search-icon" viewBox="0 0 19 19">
        <path fill="#312F2D" fill-rule="evenodd"
            d="M7.375 2a5.375 5.375 0 1 0 0 10.75 5.375 5.375 0 0 0 0-10.75zM0 7.375a7.375 7.375 0 1 1 14.75 0 7.375 7.375 0 0 1-14.75 0z"
            clip-rule="evenodd" />
        <path fill="#312F2D" fill-rule="evenodd"
            d="M18.707 18.707a1 1 0 0 1-1.414 0l-5.667-5.667a1 1 0 0 1 1.414-1.414l5.667 5.667a1 1 0 0 1 0 1.414z"
            clip-rule="evenodd" />
    </symbol>
    <symbol id="q-icon07" viewBox="0 0 40 41">
        <path fill="#F7F7F7" d="M2 10h36v7H2z" />
        <path fill="#34332E" fill-rule="evenodd"
            d="M8.094 1.122A.915.915 0 0 1 9.248.547l10.185 3.369L30.114.544a.915.915 0 0 1 1.147.593.908.908 0 0 1-.595 1.14L19.703 5.741h-.002a.893.893 0 0 1-.564-.005L8.671 2.272a.913.913 0 0 1-.623-.797.903.903 0 0 1 .045-.352v-.001zM.375 12.519a3.889 3.889 0 0 1 3.892-3.878h31.219c2.147 0 3.891 1.742 3.889 3.878v1.888a3.873 3.873 0 0 1-2.238 3.505l-.288.135v15.438c0 3.865-3.157 7.015-7.039 7.015H10.482c-3.882 0-7.04-3.15-7.04-7.015v-15.27l-.349-.111a3.886 3.886 0 0 1-2.718-3.697V12.52zm18.586-2.062H4.267a2.072 2.072 0 0 0-1.459.604 2.06 2.06 0 0 0-.606 1.455v.5h.003v1.392c0 .546.218 1.07.605 1.456.387.385.912.602 1.459.603H18.96v-6.01zm16.525.003H20.79v6.004h14.695a2.061 2.061 0 0 0 2.064-2.06v-1.887a2.062 2.062 0 0 0-2.064-2.057zm-16.522 7.825H5.272v15.2c0 2.868 2.34 5.197 5.212 5.2h8.48v-20.4zm16.06 0H20.792v20.397h9.022c2.873 0 5.212-2.33 5.212-5.197v-15.2z"
            clip-rule="evenodd" />
        <rect width="40" height="11" fill="#FF5B53" rx="4" transform="matrix(1 0 0 -1 0 19)" />
        <path fill="#34332E" fill-rule="evenodd" d="M19 39V8h2v31h-2z" clip-rule="evenodd" />
    </symbol>
    <symbol id="top-arrow" viewBox="0 0 28 34">
        <path fill="#272727" fill-rule="evenodd"
            d="M.778 11.703a1 1 0 0 1 .148-1.406L13.371.223a1 1 0 0 1 1.258 0l12.445 10.074a1 1 0 0 1-1.259 1.554L15 3.096V33a1 1 0 1 1-2 0V3.096L2.185 11.851a1 1 0 0 1-1.407-.148z"
            clip-rule="evenodd" />
    </symbol>
    <symbol id="user-icon" viewBox="0 0 17 20">
        <path fill="#333" fill-rule="evenodd"
            d="M9 1.995c-1.798 0-3.2 1.403-3.2 3.065S7.202 8.125 9 8.125c1.799 0 3.2-1.403 3.2-3.065S10.799 1.995 9 1.995zM3.8 5.06C3.8 2.232 6.16-.005 9-.005c2.84 0 5.2 2.237 5.2 5.065 0 2.828-2.36 5.064-5.2 5.064-2.84 0-5.2-2.236-5.2-5.064zm1.106 7.44h7.189c.835 0 1.455-.001 1.99.15a4 4 0 0 1 2.765 2.764c.15.536.15 1.156.15 1.991V19a1 1 0 1 1-2 0v-1.45c0-1.044-.01-1.36-.075-1.593a2 2 0 0 0-1.382-1.382c-.233-.066-.549-.075-1.593-.075h-6.9c-1.044 0-1.36.01-1.593.075a2 2 0 0 0-1.382 1.382C2.01 16.19 2 16.506 2 17.55V19a1 1 0 1 1-2 0v-1.595c0-.835 0-1.455.15-1.99a4 4 0 0 1 2.764-2.765c.536-.151 1.156-.15 1.992-.15z"
            clip-rule="evenodd" />
    </symbol>
    <symbol id="x-icon" viewBox="0 0 24 24">
        <g clip-path="url(#a)">
            <path fill="#999"
                d="M17.176 3h2.76l-6.03 7.625L21 21h-5.554l-4.35-6.293L6.116 21H3.355l6.45-8.155L3 3h5.695l3.933 5.752L17.176 3zm-.969 16.172h1.53L7.864 4.732h-1.64l9.983 14.44z" />
        </g>
        <defs>
            <clipPath id="a">
                <path fill="#fff" d="M0 0h24v24H0z" />
            </clipPath>
        </defs>
    </symbol>
    <symbol id="youtube-icon" viewBox="0 0 24 24">
        <path fill="#999" fill-rule="evenodd"
            d="M20.598 4.716a2.752 2.752 0 0 1 1.944 1.956C23 8.399 22.996 12 22.996 12s0 3.601-.458 5.328c-.252.95-.997 1.7-1.944 1.956-1.715.462-8.596.462-8.596.462s-6.88 0-8.596-.462a2.751 2.751 0 0 1-1.944-1.956C1 15.601 1 12 1 12s0-3.601.462-5.332c.252-.951.997-1.7 1.944-1.956 1.715-.462 8.596-.462 8.596-.462s6.877 0 8.596.466zM9.75 8.728v6.543L15.502 12l-5.75-3.272z"
            clip-rule="evenodd" />
    </symbol>
    <symbol id="cuckoo-homesys-logo" viewBox="0 0 190.54 28.76">
        <defs>
            <style>.cls-1{fill:#585856}</style>
        </defs>
        <g id="Layer_1-2">
            <path
                d="M45.59 22.7v-.12c.06-.38-.05-.76-.29-1.02-.25-.28-.62-.42-1.1-.42h-5.36v.9h5.24c.19 0 .33.05.41.14.08.09.12.23.1.41 0 .11-.02.22-.04.34-1.34.09-3.17.15-5.05.15h-.52v.9h1.54c1.34 0 2.75 0 3.92-.12-.03.21-.06.45-.09.69-.03.23-.05.46-.08.64h-6.34v.9h3.76v2.67h.96v-2.67h3.78v-.9h-1.17c.1-.61.21-1.57.32-2.49zm-9.15 0v-.12c.06-.38-.05-.76-.29-1.02-.25-.28-.62-.42-1.1-.42h-5.36v.9h5.24c.19 0 .33.05.41.14.08.09.11.23.1.41 0 .11-.02.22-.04.34-1.34.09-3.17.15-5.05.15h-.51v.9h1.54c1.35 0 2.75 0 3.92-.12-.03.21-.06.45-.09.69-.03.23-.05.46-.08.64H28.8v.9h3.76v2.67h.96v-2.67h3.78v-.9h-1.17c.1-.61.21-1.57.32-2.49zm15.62 2.05c1.66-.1 2.75-.6 2.75-1.47 0-.58-.41-1-1.22-1.23h1.49v-.83h-3.02v-.63h-.97v.63h-3.02v.83h1.41c-.79.23-1.19.64-1.19 1.23 0 .9 1.08 1.39 2.79 1.48v.25h-3.77v.9h8.53v-.9h-3.77v-.25zm-2.74-1.56c0-.45.92-.71 2.22-.71s2.2.26 2.2.71c0 .41-.95.72-2.2.72s-2.22-.31-2.22-.72zm-1.09 4.29c0 .82.51 1.26 1.36 1.26h3.95c.85 0 1.36-.44 1.36-1.26v-1.29h-6.67v1.29zm.95-.43h4.77v.43c0 .26-.15.4-.4.4h-3.96c-.25 0-.4-.14-.4-.4v-.43zm13.95-5.93h.96v7.63h-.96zm1.98 5.98h8.3v.9h-8.3zm-5.35-3.79a.53.53 0 0 1-.08-.27v-1.76h-1v1.76c0 .08-.04.2-.09.27-.06.08-1.98 2.96-2.06 3.09l-.04.06.81.55.04-.06s1.78-2.7 1.83-2.76v-.01l.01.01c.04.06 1.19 1.84 1.79 2.78l.04.06.81-.55-.04-.06s-2-3.02-2.05-3.1zm6.82 3.2c.11-.11 2.62-2.7 2.68-2.77 0 0 .02-.01.02-.02l.02.02c.05.06 2.54 2.67 2.64 2.78l.05.05.68-.65-.05-.05c-.11-.12-2.71-2.84-2.78-2.91-.04-.04-.07-.15-.07-.25v-1.42h-1v1.42c0 .08-.03.2-.08.26s-1.84 1.92-2.78 2.89l-.05.05.68.64.05-.05zm108.49-16.09l-4.21-5.64h-1.71l5.21 6.96v4.18h1.43v-4.19l5.22-6.95h-1.71l-4.23 5.64zm-33.89-.08l-4.57-5.56h-1.6v11.14h1.43v-9.1l4.74 5.82 4.74-5.82v9.1h1.44V4.78h-1.6l-4.58 5.56zM117 4.77v4.81h-6.43V4.77h-1.42v11.06h1.42v-4.91H117v4.91h1.42V4.77H117zm9.66 11.24c-3.64 0-6.61-2.56-6.61-5.71s2.96-5.71 6.61-5.71 6.61 2.56 6.61 5.71-2.96 5.71-6.61 5.71m0-10.11c-2.87 0-5.2 1.98-5.2 4.41s2.33 4.41 5.2 4.41 5.2-1.98 5.2-4.41-2.33-4.41-5.2-4.41m37.61 10.2c-2.53 0-4.95-1.71-5.05-1.78l.9-.99s2.14 1.48 4.15 1.48c.89 0 2.98-.09 3.09-1.66.05-.74-.13-1.45-3.06-2.1-2.6-.57-4.58-1.15-4.58-3.25s1.67-3.14 4.35-3.14c2.39 0 4.29 1.34 4.37 1.4l-.9 1s-1.6-1.1-3.48-1.1c-1.1 0-2.94.17-2.94 1.71 0 .96.53 1.46 3.5 2.11 2.24.49 4.29 1.23 4.14 3.43-.13 1.93-1.83 2.89-4.49 2.89m21.77 0c-2.53 0-4.95-1.71-5.05-1.78l.9-.99s2.14 1.48 4.16 1.48c.89 0 2.98-.09 3.09-1.66.05-.74-.13-1.45-3.06-2.1-2.6-.57-4.58-1.15-4.58-3.25s1.66-3.14 4.35-3.14c2.39 0 4.29 1.34 4.37 1.4l-.9 1s-1.6-1.1-3.47-1.1c-1.1 0-2.94.17-2.94 1.71 0 .96.53 1.46 3.5 2.11 2.24.49 4.29 1.23 4.14 3.43-.13 1.93-1.83 2.89-4.49 2.89M34.86 6.92c1.5 0 2.79.62 3.49 1.19l1.5-1.99c-1.29-1-3.09-1.57-5.03-1.57-3.88 0-6.63 2.5-6.63 5.82s2.75 5.83 6.63 5.83c2.03 0 3.85-.59 5.15-1.66l-1.57-1.93-.08.06c-.71.56-1.99 1.16-3.47 1.16-2.39 0-4.18-1.38-4.18-3.46s1.79-3.46 4.18-3.46m25.72.01c1.5 0 2.79.62 3.5 1.19l1.5-1.99c-1.29-1-3.09-1.57-5.03-1.57-3.88 0-6.63 2.5-6.63 5.82s2.75 5.83 6.63 5.83c2.03 0 3.85-.59 5.15-1.66l-1.57-1.93-.08.06c-.71.56-1.99 1.16-3.47 1.16-2.39 0-4.17-1.38-4.17-3.46s1.79-3.46 4.17-3.46m24.16-2.36c-3.87 0-6.78 2.5-6.78 5.82s2.91 5.83 6.78 5.83 6.78-2.5 6.78-5.83-2.91-5.82-6.78-5.82m0 9.29c-2.47 0-4.19-1.42-4.19-3.46s1.72-3.46 4.19-3.46 4.19 1.42 4.19 3.46-1.72 3.46-4.19 3.46m15.11-9.29c-3.86 0-6.78 2.5-6.78 5.82s2.92 5.83 6.78 5.83 6.78-2.5 6.78-5.83-2.91-5.82-6.78-5.82m0 9.29c-2.47 0-4.19-1.42-4.19-3.46s1.72-3.46 4.19-3.46 4.19 1.42 4.19 3.46-1.72 3.46-4.19 3.46"
                class="cls-1" />
            <path
                d="M78.68 4.79h-3.49l-5.55 5.19V4.79h-2.45v11.12h2.45v-5.25l5.7 5.26h3.52l-6.16-5.68 5.98-5.45zm-28.71 6.62c0 .99-.57 2.4-3.18 2.4-3.02 0-3.05-1.99-3.05-2.4V4.79h-2.45v7.09c0 1.9 1.65 4.33 5.5 4.33s5.63-2.48 5.63-4.33V4.79h-2.45v6.62zm100.86 3.21v-3.58h5.86V9.71h-5.86V6.12h7.25V4.81h-8.68v11.12h8.68l.01-1.31h-7.26zM3.25 7.79L0 20.56h6.85L3.51 7.79h-.26zM.61 2.78c0 1.54 1.25 2.78 2.78 2.78s2.78-1.25 2.78-2.78a2.78 2.78 0 0 0-5.56 0m12.91 10.18L10.25.19h6.85l-3.36 12.77h-.22zm-2.66 5.01c0-1.54 1.25-2.78 2.78-2.78s2.78 1.25 2.78 2.78-1.25 2.79-2.78 2.79-2.78-1.25-2.78-2.79"
                class="cls-1" />
        </g>
    </symbol>
    <symbol id="cuckoo-logo" viewBox="0 0 78.42 11.65">
        <defs>
            <style>.cls-1{fill:#585856}</style>
        </defs>
        <g id="Layer_1-2">
            <path
                d="M6.67 2.36c1.5 0 2.79.62 3.49 1.19l1.5-1.99C10.37.56 8.57-.01 6.63-.01 2.75 0 0 2.5 0 5.82s2.75 5.83 6.63 5.83c2.03 0 3.85-.59 5.15-1.66l-1.57-1.93-.08.06c-.71.56-1.99 1.16-3.47 1.16-2.39 0-4.18-1.38-4.18-3.46s1.79-3.46 4.18-3.46m25.71 0c1.5 0 2.79.62 3.5 1.19l1.5-1.99c-1.29-1-3.09-1.57-5.03-1.57-3.88 0-6.63 2.5-6.63 5.82s2.75 5.83 6.63 5.83c2.03 0 3.85-.59 5.15-1.66l-1.57-1.93-.08.06c-.71.56-1.99 1.16-3.47 1.16-2.39 0-4.17-1.38-4.17-3.46s1.79-3.46 4.17-3.46M56.53 0c-3.87 0-6.78 2.5-6.78 5.82s2.91 5.83 6.78 5.83 6.78-2.5 6.78-5.83S60.4 0 56.53 0m0 9.29c-2.47 0-4.19-1.42-4.19-3.46s1.72-3.46 4.19-3.46 4.19 1.42 4.19 3.46S59 9.29 56.53 9.29M71.65 0c-3.86 0-6.78 2.5-6.78 5.82s2.92 5.83 6.78 5.83 6.78-2.5 6.78-5.83S75.52 0 71.65 0m0 9.29c-2.47 0-4.19-1.42-4.19-3.46s1.72-3.46 4.19-3.46 4.19 1.42 4.19 3.46-1.72 3.46-4.19 3.46"
                class="cls-1" />
            <path
                d="M50.48.23H47l-5.56 5.19V.23H39v11.13h2.44V6.11l5.71 5.26h3.52L44.5 5.69 50.48.23zm-28.7 6.63c0 .99-.57 2.4-3.18 2.4-3.02 0-3.05-1.99-3.05-2.4V.24H13.1v7.09c0 1.9 1.65 4.33 5.5 4.33s5.63-2.48 5.63-4.33V.24h-2.45v6.62z"
                class="cls-1" />
        </g>
    </symbol>
    <symbol id="cuckoo-eletronics-logo" viewBox="0 0 229.3 28.89">
        <defs>
            <style>.cls-1{fill:#585856}</style>
        </defs>
        <g id="Layer_1-2">
            <path
                d="M45.52 22.82l.02-.13c.04-.38-.07-.76-.3-1.02-.25-.28-.62-.42-1.1-.42h-5.36v.9h5.24c.19 0 .33.05.41.14.08.09.12.23.1.4 0 .11-.02.22-.04.34-1.34.09-3.18.15-5.05.15h-.51v.9h1.54c1.35 0 2.75 0 3.92-.12-.03.21-.06.45-.09.69-.03.23-.06.46-.08.64h-6.33v.9h3.76v2.67h.96v-2.67h3.78v-.9h-1.17c.1-.61.21-1.56.32-2.48m-9.16.01l.02-.13c.04-.38-.07-.76-.3-1.02-.25-.28-.62-.42-1.1-.42h-5.36v.9h5.24c.19 0 .33.05.41.14.08.09.12.23.1.4-.01.11-.02.22-.04.34-1.34.09-3.18.15-5.06.15h-.5v.9h1.54c1.35 0 2.76 0 3.92-.12-.03.21-.06.45-.09.69-.03.23-.05.46-.08.64h-6.33v.9h3.76v2.67h.96v-2.67h3.78v-.9h-1.17c.1-.61.21-1.56.32-2.48m26.82-1.56h-.96v7.64h.96v-4.3h1.47v-.93h-1.47v-2.41zM52.2 23.86h1.74v2.73h.95v-5.36h-.95v1.7H52.2v.93zm-2.63 3.39v-1.16h-.94v1.2c0 .98.66 1.59 1.71 1.59h4.61v-.9h-4.58c-.5 0-.79-.27-.79-.73"
                class="cls-1" />
            <path
                d="M51.97 26.08l.05.05.7-.71-.05-.05c-.73-.71-2.11-2.08-2.14-2.11a.152.152 0 0 1-.04-.08v-.93h1.96v-.89h-4.91v.89h1.97v.92s-.01.06-.04.09c-.04.04-1.43 1.39-2.15 2.1l-.05.05.7.71.05-.05s1.95-1.89 2-1.92c.04.04 1.29 1.28 1.95 1.93m7.35-2.62a.53.53 0 0 1-.08-.27v-.86h1.95v-.89h-4.91v.89h1.96v.87c0 .08-.04.2-.08.27-.06.08-2.17 2.96-2.26 3.09l-.04.06.81.55.04-.06s1.98-2.7 2.02-2.76l.01-.01.01.01c.04.06 1.39 1.84 1.99 2.78l.04.06.81-.55-.04-.06s-2.19-3.02-2.24-3.1m123.08-7.38c-3.69 0-6.69-2.58-6.69-5.75s3-5.75 6.69-5.75 6.69 2.58 6.69 5.75-3 5.75-6.69 5.75m0-10.2c-2.9 0-5.27 2-5.27 4.45s2.36 4.45 5.27 4.45 5.27-2 5.27-4.45-2.36-4.45-5.27-4.45m21.13-1.13h1.44v11.15h-1.44zm-75.89 11.16h-7.7V4.77h1.44v9.85h6.26v1.31zm18.48.17c-3.69 0-6.69-2.58-6.69-5.75s3-5.75 6.69-5.75c1.59 0 3.13.49 4.34 1.37l-.92 1.01c-.95-.68-2.16-1.06-3.42-1.06-2.9 0-5.27 1.93-5.27 4.43s2.36 4.44 5.27 4.44c1.26 0 2.48-.38 3.43-1.07l.93 1c-1.21.89-2.76 1.39-4.36 1.39m67.68-.01c-3.69 0-6.69-2.58-6.69-5.75s3-5.75 6.69-5.75c1.59 0 3.13.49 4.34 1.37l-.92.99c-.95-.68-2.17-1.06-3.42-1.06-2.91 0-5.27 1.95-5.27 4.45s2.36 4.45 5.27 4.45c1.26 0 2.48-.38 3.43-1.07l.93.99c-1.21.89-2.76 1.39-4.36 1.39m-13.06-.19h.71V4.77h-1.43v9.13l-7.54-9.12h-1.6v11.14h1.43V6.78l7.55 9.14h.88zM162.39 4.79h-10.15v1.34h4.29v9.79h1.43V6.13h4.43V4.79zm-51.64 9.82v-3.58h5.87V9.7h-5.87V6.1h7.27V4.79h-8.7v11.14h8.69l.01-1.32h-7.27zm20.36 0v-3.58h5.87V9.7h-5.87V6.1h7.26V4.79h-8.7v11.14h8.7v-1.32h-7.26zm43.66 1.31l-3.42-4.4c1.88-.42 2.99-1.59 2.99-3.28 0-2.13-1.77-3.45-4.61-3.45h-5.43v11.13h1.44v-4.23h4.02l3.29 4.24h1.73zm-9.04-9.82h4c1.19 0 3.17.28 3.17 2.13s-1.98 2.13-3.17 2.13h-4V6.09zm59.06 9.95c-2.53 0-4.96-1.71-5.06-1.79l.9-.99s2.14 1.48 4.16 1.48c.89 0 2.98-.09 3.09-1.67.05-.74-.13-1.45-3.06-2.1-2.6-.57-4.59-1.15-4.59-3.25s1.67-3.15 4.35-3.15c2.4 0 4.3 1.35 4.38 1.4l-.9 1s-1.6-1.1-3.48-1.1c-1.1 0-2.95.18-2.95 1.72 0 .96.53 1.46 3.51 2.11 2.24.49 4.29 1.23 4.14 3.44-.13 1.93-1.84 2.9-4.5 2.9M34.84 6.91c1.51 0 2.79.62 3.5 1.19l1.5-1.99c-1.29-1-3.1-1.57-5.04-1.57-3.89 0-6.64 2.51-6.64 5.83s2.75 5.83 6.64 5.83c2.03 0 3.85-.58 5.16-1.66l-1.57-1.93-.08.07c-.71.56-1.99 1.16-3.47 1.16-2.39 0-4.18-1.38-4.18-3.47s1.79-3.47 4.18-3.47m25.74.01c1.5 0 2.79.62 3.5 1.19l1.5-1.99c-1.29-1-3.09-1.57-5.04-1.57-3.89 0-6.64 2.51-6.64 5.83s2.75 5.83 6.64 5.83c2.03 0 3.85-.58 5.16-1.66l-1.57-1.93-.08.07c-.71.56-2 1.16-3.47 1.16-2.39 0-4.18-1.38-4.18-3.47s1.79-3.47 4.18-3.47m24.19-2.36c-3.87 0-6.79 2.51-6.79 5.83s2.92 5.83 6.79 5.83 6.79-2.5 6.79-5.83-2.92-5.83-6.79-5.83m0 9.3c-2.47 0-4.2-1.42-4.2-3.46s1.73-3.46 4.2-3.46 4.2 1.42 4.2 3.46-1.73 3.46-4.2 3.46m15.14-9.3c-3.87 0-6.79 2.51-6.79 5.83s2.92 5.83 6.79 5.83 6.79-2.5 6.79-5.83-2.92-5.83-6.79-5.83m0 9.3c-2.47 0-4.2-1.42-4.2-3.46s1.73-3.46 4.2-3.46 4.2 1.42 4.2 3.46-1.73 3.46-4.2 3.46"
                class="cls-1" />
            <path
                d="M78.72 4.78h-3.49l-5.57 5.19V4.78h-2.45v11.14h2.45v-5.26l5.72 5.27h3.52l-6.17-5.69 5.99-5.46zm-28.75 6.63c0 .99-.57 2.41-3.19 2.41-3.02 0-3.05-1.99-3.05-2.41V4.78h-2.45v7.1c0 1.9 1.66 4.33 5.5 4.33s5.63-2.48 5.63-4.33v-7.1h-2.45v6.63zM3.25 7.79L0 20.56h6.85L3.5 7.79h-.25zM.61 2.78c0 1.54 1.25 2.78 2.78 2.78s2.78-1.25 2.78-2.78a2.78 2.78 0 0 0-5.56 0m12.91 10.18L10.25.19h6.85l-3.36 12.77h-.22zm-2.66 5.01c0-1.54 1.25-2.78 2.78-2.78s2.79 1.25 2.79 2.78-1.25 2.79-2.79 2.79-2.78-1.25-2.78-2.79"
                class="cls-1" />
        </g>
    </symbol>
    <symbol id="cuckoo-holdings-logo" viewBox="0 0 195.3 28.97">
        <defs>
            <style>.cls-1{fill:#585856}</style>
        </defs>
        <g id="Layer_1-2">
            <path
                d="M51.95 24.59c1.66-.1 2.75-.4 2.75-1.28 0-.96-1.09-1.36-3.27-1.36s-3.25.39-3.25 1.36c0 .9 1.08 1.2 2.79 1.28v.25H47.2v.87h8.53v-.87h-3.78v-.25zm-2.74-1.36c0-.45 1.02-.65 2.22-.65s2.2.19 2.2.65c0 .41-1.05.56-2.2.56s-2.22-.15-2.22-.56"
                class="cls-1" />
            <path
                d="M54.97 21.35h-3.02v-.63h-.98v.63h-3.01v.83h7.01v-.83zm-9.52 1.45v-.12c.06-.38-.06-.76-.29-1.02-.25-.28-.62-.42-1.1-.42H38.7v.9h5.24c.19 0 .33.05.41.14.08.09.12.23.1.41 0 .11-.02.23-.04.34-1.34.09-3.17.15-5.05.15h-.52v.9h1.54c1.35 0 2.75 0 3.92-.12-.03.21-.06.46-.09.69-.03.23-.05.46-.08.64H37.8v.9h3.76v2.67h.95v-2.67h3.78v-.9h-1.17c.11-.61.21-1.57.32-2.49m-9.14 0v-.12c.06-.38-.05-.76-.29-1.02-.25-.28-.62-.42-1.1-.42h-5.36v.9h5.24c.19 0 .33.05.41.14.08.09.12.23.1.41 0 .11-.02.23-.04.34-1.34.09-3.17.15-5.05.15h-.52v.9h1.54c1.34 0 2.75 0 3.92-.12-.03.21-.06.46-.09.69-.03.23-.06.46-.08.64h-6.33v.9h3.75v2.67h.96v-2.67h3.78v-.9h-1.17c.11-.61.21-1.57.32-2.49m28.32 4.41h8.3v.9h-8.3zm1.47-.6c.11-.11 2.62-2.7 2.68-2.77 0 0 .02-.01.02-.02l.02.02c.05.06 2.54 2.67 2.65 2.78l.05.05.68-.65-.05-.05c-.11-.12-2.71-2.84-2.78-2.91-.04-.04-.07-.15-.07-.25v-1.42h-1v1.42c0 .08-.03.2-.08.26s-1.84 1.92-2.78 2.89l-.05.05.67.64.05-.05zm-4.07-1.78v-.86s-2.19.18-3.86.18c-.22 0-.32-.09-.32-.3V22.2h3.38v-.84h-4.38v2.48c0 .81.47 1.18 1.3 1.18 1.64 0 3.88-.2 3.88-.2m.64-3.85h1.02v4.55h-1.02zm-2.12 4.58c-2.36 0-3.2.89-3.2 1.72 0 1.07 1.2 1.7 3.2 1.7 2.8 0 3.21-1.07 3.21-1.7s-.42-1.72-3.21-1.72m.01 2.59c-1.3 0-2.17-.35-2.17-.86 0-.55.85-.9 2.17-.9s2.18.35 2.18.9c0 .52-.85.86-2.18.86m-11.36-.28h5.63v-1.83h-6.68v.78h5.64v.3h-5.64v.92c0 .55.35.88.86.88h5.85v-.76h-5.48c-.11 0-.17-.03-.17-.15v-.13zM156.79 4.83h1.43v11.14h-1.43zm-14.08 11.15h-7.66V4.83h1.42v9.76h6.24v1.39zM117.06 4.83v4.83h-6.48V4.83h-1.43v11.13h1.43v-4.94h6.48v4.94h1.43V4.83h-1.43zm9.6 11.32c-3.67 0-6.66-2.58-6.66-5.75s2.99-5.75 6.66-5.75 6.66 2.58 6.66 5.75-2.99 5.75-6.66 5.75m0-10.19c-2.89 0-5.24 1.99-5.24 4.44s2.35 4.44 5.24 4.44 5.24-1.99 5.24-4.44-2.35-4.44-5.24-4.44m22.88 10.02h-5.5V4.85h5.5c3.55 0 5.81 2.49 5.81 5.55s-2.27 5.59-5.81 5.59m-4.07-1.36h3.98c2.76 0 4.48-1.89 4.48-4.23s-1.72-4.21-4.48-4.21h-3.98v8.44zm33.79 1.52c-3.67 0-6.66-2.58-6.66-5.75s2.99-5.75 6.66-5.75c1.68 0 3.28.54 4.52 1.53l-.96.96c-.97-.76-2.23-1.18-3.55-1.18-2.89 0-5.24 1.94-5.24 4.44s2.35 4.44 5.24 4.44c1.39 0 2.73-.47 3.71-1.3v-2.33H179V9.87h5.4v4.21l-.18.17c-1.26 1.21-3.06 1.9-4.95 1.9m11.5 0c-2.55 0-4.99-1.72-5.09-1.8l.9-1s2.16 1.49 4.19 1.49c.9 0 3-.09 3.11-1.68.05-.75-.13-1.46-3.08-2.11-2.62-.58-4.62-1.16-4.62-3.27s1.68-3.17 4.38-3.17c2.41 0 4.33 1.35 4.41 1.41l-.91 1s-1.61-1.11-3.5-1.11c-1.11 0-2.96.18-2.96 1.73 0 .97.53 1.47 3.53 2.13 2.26.5 4.32 1.24 4.17 3.46-.13 1.94-1.85 2.91-4.53 2.91m-20.58-.18h.71V4.83h-1.43v9.11l-7.5-9.11h-1.6v11.13h1.43V6.85l7.51 9.12h.87l.01-.01zM34.86 6.94c1.5 0 2.79.62 3.49 1.19 0 0 1.5-1.98 1.5-1.99-1.29-1-3.09-1.57-5.03-1.57-3.88 0-6.63 2.5-6.63 5.82s2.75 5.82 6.63 5.82c2.03 0 3.85-.58 5.15-1.66l-1.56-1.93-.08.07c-.71.56-1.99 1.16-3.46 1.16-2.39 0-4.17-1.38-4.17-3.46s1.79-3.46 4.17-3.46m25.68.01c1.5 0 2.79.62 3.49 1.19 0 0 1.5-1.98 1.5-1.99-1.29-1-3.09-1.57-5.03-1.57-3.88 0-6.63 2.5-6.63 5.82s2.74 5.82 6.63 5.82c2.03 0 3.85-.58 5.15-1.66l-1.56-1.93-.08.07c-.71.56-1.99 1.16-3.47 1.16-2.39 0-4.17-1.38-4.17-3.46s1.78-3.46 4.17-3.46M84.7 4.58c-3.86 0-6.78 2.5-6.78 5.82s2.91 5.82 6.78 5.82 6.77-2.5 6.77-5.82-2.91-5.82-6.77-5.82m0 9.28c-2.47 0-4.19-1.42-4.19-3.46s1.72-3.46 4.19-3.46 4.19 1.42 4.19 3.46-1.72 3.46-4.19 3.46m15.1-9.28c-3.86 0-6.77 2.5-6.77 5.82s2.91 5.82 6.77 5.82 6.77-2.5 6.77-5.82-2.91-5.82-6.77-5.82m0 9.28c-2.46 0-4.19-1.42-4.19-3.46s1.72-3.46 4.19-3.46 4.19 1.42 4.19 3.46-1.72 3.46-4.19 3.46"
                class="cls-1" />
            <path
                d="M78.65 4.81h-3.48L69.62 10V4.81h-2.45v11.12h2.45v-5.25l5.7 5.26h3.52l-6.17-5.68 5.98-5.45zm-28.69 6.63c0 .99-.57 2.4-3.18 2.4-3.02 0-3.05-1.99-3.05-2.4V4.82h-2.45v7.08c0 1.9 1.65 4.32 5.5 4.32s5.62-2.48 5.62-4.32V4.82h-2.44v6.62zM3.25 7.79L0 20.56h6.85L3.5 7.79h-.25zM.61 2.78c0 1.54 1.25 2.78 2.78 2.78s2.78-1.25 2.78-2.78a2.78 2.78 0 0 0-5.56 0m12.91 10.18L10.25.19h6.85l-3.36 12.77h-.22zm-2.66 5.01c0-1.54 1.25-2.78 2.78-2.78s2.79 1.24 2.79 2.78-1.25 2.78-2.79 2.78-2.78-1.25-2.78-2.78"
                class="cls-1" />
        </g>
    </symbol>
</svg>