<svg xmlns="http://www.w3.org/2000/svg">
    <symbol id="b2b-02-04" viewBox="0 0 60 40">
        <path fill="#34332E" fill-rule="evenodd"
            d="M.13 21.614a1 1 0 0 1 1-1h18.43a1 1 0 0 1 1 1v17.277a1 1 0 1 1-2 0V22.614H2.13v16.277a1 1 0 1 1-2 0V21.614z"
            clip-rule="evenodd" />
        <path fill="#34332E" fill-rule="evenodd"
            d="M7.398 20.614a1 1 0 0 1 1 1v4.867h4.268v-4.867a1 1 0 1 1 2 0v5.867a1 1 0 0 1-1 1H7.398a1 1 0 0 1-1-1v-5.867a1 1 0 0 1 1-1zm11.162 1a1 1 0 0 1 1-1h18.438a1 1 0 0 1 1 1v17.277a1 1 0 1 1-2 0V22.614H19.56a1 1 0 0 1-1-1z"
            clip-rule="evenodd" />
        <path fill="#34332E" fill-rule="evenodd"
            d="M25.828 20.614a1 1 0 0 1 1 1v4.867h4.268v-4.867a1 1 0 1 1 2 0v5.867a1 1 0 0 1-1 1h-6.268a1 1 0 0 1-1-1v-5.867a1 1 0 0 1 1-1zm11.17 1a1 1 0 0 1 1-1h18.43a1 1 0 0 1 1 1v17.277a1 1 0 1 1-2 0V22.614h-17.43a1 1 0 0 1-1-1z"
            clip-rule="evenodd" />
        <path fill="#34332E" fill-rule="evenodd"
            d="M44.259 20.614a1 1 0 0 1 1 1v4.867h4.268v-4.867a1 1 0 1 1 2 0v5.867a1 1 0 0 1-1 1h-6.268a1 1 0 0 1-1-1v-5.867a1 1 0 0 1 1-1zM9.348 1.123a1 1 0 0 1 1-1h18.43a1 1 0 0 1 1 1V18.4a1 1 0 1 1-2 0V2.123h-16.43V18.4a1 1 0 1 1-2 0V1.123z"
            clip-rule="evenodd" />
        <path fill="#34332E" fill-rule="evenodd"
            d="M16.61.123a1 1 0 0 1 1 1v4.866h4.268V1.123a1 1 0 1 1 2 0v5.866a1 1 0 0 1-1 1h-6.269a1 1 0 0 1-1-1V1.123a1 1 0 0 1 1-1zm11.169 1a1 1 0 0 1 1-1h18.43a1 1 0 0 1 1 1V18.4a1 1 0 1 1-2 0V2.123H28.78a1 1 0 0 1-1-1z"
            clip-rule="evenodd" />
        <path fill="#34332E" fill-rule="evenodd"
            d="M35.047.123a1 1 0 0 1 1 1v4.866h4.268V1.123a1 1 0 1 1 2 0v5.866a1 1 0 0 1-1 1h-6.268a1 1 0 0 1-1-1V1.123a1 1 0 0 1 1-1z"
            clip-rule="evenodd" />
        <path fill="#FF5B53"
            d="M47.337 36.575c6.65 0 12.042-5.36 12.042-11.972 0-6.611-5.392-11.971-12.042-11.971-6.651 0-12.043 5.36-12.043 11.972 0 6.611 5.392 11.971 12.043 11.971z" />
        <path fill="#F7F7F7" fill-rule="evenodd"
            d="M51.004 18.162a.75.75 0 0 1 .28 1.023l-6.592 11.58a.75.75 0 1 1-1.304-.743l6.593-11.58a.75.75 0 0 1 1.023-.28zm-8.708 2.728a1.34 1.34 0 0 0-1.346 1.335 1.34 1.34 0 0 0 1.346 1.334 1.34 1.34 0 0 0 1.347-1.334 1.34 1.34 0 0 0-1.347-1.335zm-2.846 1.335a2.84 2.84 0 0 1 2.846-2.835 2.84 2.84 0 0 1 2.847 2.835 2.84 2.84 0 0 1-2.847 2.834 2.84 2.84 0 0 1-2.846-2.834zm12.933 3.423a1.34 1.34 0 0 0-1.346 1.335 1.34 1.34 0 0 0 1.346 1.334 1.34 1.34 0 0 0 1.347-1.334 1.34 1.34 0 0 0-1.346-1.335zm-2.846 1.335a2.84 2.84 0 0 1 2.846-2.835 2.84 2.84 0 0 1 2.847 2.835 2.84 2.84 0 0 1-2.846 2.834 2.84 2.84 0 0 1-2.847-2.834z"
            clip-rule="evenodd" />
    </symbol>
    <symbol id="b2b-01-03" viewBox="0 0 52 50">
        <path fill="#34332E" fill-rule="evenodd"
            d="M.494 48.504a1 1 0 0 1 1-1h49.022a1 1 0 1 1 0 2H1.494a1 1 0 0 1-1-1z"
            clip-rule="evenodd" />
        <path fill="#34332E" fill-rule="evenodd"
            d="M20.812 5.306a1 1 0 0 1 1-1h24.625a1 1 0 0 1 1 1v43.198a1 1 0 0 1-1 1H21.812a1 1 0 0 1-1-1V5.306zm2 1v41.198h22.625V6.306H22.812z"
            clip-rule="evenodd" />
        <path fill="#34332E" fill-rule="evenodd"
            d="M24.516 1.496a1 1 0 0 1 1-1H42.99a1 1 0 0 1 1 1v3.82a1 1 0 0 1-1.141.99H25.516a1 1 0 0 1-1-1v-3.81zm17.473 2.81v-1.81H26.516v1.81H41.99zM30.04 39.178a.75.75 0 0 1 .75-.75h6.5a.75.75 0 0 1 .75.75v9.326a.75.75 0 0 1-.75.75h-6.5a.75.75 0 0 1-.75-.75v-9.326zm1.5.75v7.826h5v-7.826h-5z"
            clip-rule="evenodd" />
        <path fill="#FF5B53" fill-rule="evenodd"
            d="M26.445 10.892a.75.75 0 0 1 .75-.75h4.228a.75.75 0 0 1 .75.75v4.246a.75.75 0 0 1-.75.75h-4.228a.75.75 0 0 1-.75-.75v-4.246zm1.5.75v2.746h2.728v-2.746h-2.728zm7.835-.75a.75.75 0 0 1 .75-.75h4.227a.75.75 0 0 1 .75.75v4.246a.75.75 0 0 1-.75.75H36.53a.75.75 0 0 1-.75-.75v-4.246zm1.5.75v2.746h2.727v-2.746H37.28zm-10.835 8a.75.75 0 0 1 .75-.75h4.228a.75.75 0 0 1 .75.75v4.247a.75.75 0 0 1-.75.75h-4.228a.75.75 0 0 1-.75-.75v-4.247zm1.5.75v2.747h2.728v-2.747h-2.728zm7.835-.75a.75.75 0 0 1 .75-.75h4.227a.75.75 0 0 1 .75.75v4.247a.75.75 0 0 1-.75.75H36.53a.75.75 0 0 1-.75-.75v-4.247zm1.5.75v2.747h2.727v-2.747H37.28zm-10.835 8.001a.75.75 0 0 1 .75-.75h4.228a.75.75 0 0 1 .75.75v4.246a.75.75 0 0 1-.75.75h-4.228a.75.75 0 0 1-.75-.75v-4.246zm1.5.75v2.747h2.728v-2.747h-2.728zm7.835-.75a.75.75 0 0 1 .75-.75h4.227a.75.75 0 0 1 .75.75v4.246a.75.75 0 0 1-.75.75H36.53a.75.75 0 0 1-.75-.75v-4.246zm1.5.75v2.747h2.727v-2.747H37.28z"
            clip-rule="evenodd" />
        <path fill="#34332E" fill-rule="evenodd"
            d="M4.139 21.934a1 1 0 0 1 1-1h16.663a1 1 0 0 1 1 1v26.429a1 1 0 0 1-.99 1.141H5.139a1 1 0 0 1-1-1v-26.57zm16.663 25.57H6.139v-24.57h14.663v24.57z"
            clip-rule="evenodd" />
        <path fill="#34332E" fill-rule="evenodd"
            d="M4.148 17.787a1 1 0 0 1 1-1h6.865a1 1 0 0 1 1 1v4.147a1 1 0 0 1-1 1H5.148a1 1 0 0 1-1-1v-4.147zm2 1v2.147h4.865v-2.147H6.148zm4.306 24.141a.75.75 0 0 1 .75-.75h4.415a.75.75 0 0 1 .75.75v5.576a.75.75 0 0 1-.75.75h-4.415a.75.75 0 0 1-.75-.75v-5.576zm1.5.75v4.076h2.915v-4.076h-2.915z"
            clip-rule="evenodd" />
        <path fill="#FF5B53" fill-rule="evenodd"
            d="M9.327 25.49a.75.75 0 0 1 .75.75v12.54a.75.75 0 0 1-1.5 0V26.24a.75.75 0 0 1 .75-.75zm4.079 0a.75.75 0 0 1 .75.75v12.54a.75.75 0 1 1-1.5 0V26.24a.75.75 0 0 1 .75-.75zm4.08 0a.75.75 0 0 1 .75.75v12.54a.75.75 0 0 1-1.5 0V26.24a.75.75 0 0 1 .75-.75z"
            clip-rule="evenodd" />
    </symbol>
    <symbol id="b2b-02-01" viewBox="0 0 49 49">
        <path fill="#34332E" fill-rule="evenodd"
            d="M39.752 9.251c-5.26-5.257-12.447-7.418-19.289-6.485a1 1 0 1 1-.27-1.982c7.434-1.013 15.25 1.334 20.973 7.053 5.713 5.718 8.071 13.53 7.05 20.968a1 1 0 1 1-1.982-.272c.94-6.843-1.228-14.024-6.482-19.282z"
            clip-rule="evenodd" />
        <path fill="#34332E" fill-rule="evenodd"
            d="M35.115 13.893a16.29 16.29 0 0 0-14.591-4.485 1 1 0 1 1-.375-1.965c5.748-1.095 11.927.585 16.38 5.036 4.454 4.45 6.127 10.626 5.031 16.37a1 1 0 1 1-1.965-.375c.978-5.122-.515-10.618-4.48-14.58z"
            clip-rule="evenodd" />
        <path fill="#34332E" fill-rule="evenodd"
            d="M30.272 18.733a9.449 9.449 0 0 0-9.482-2.346 1 1 0 0 1-.59-1.91 11.449 11.449 0 0 1 11.486 2.841 11.437 11.437 0 0 1 2.844 11.481 1 1 0 1 1-1.91-.592 9.436 9.436 0 0 0-2.348-9.474z"
            clip-rule="evenodd" />
        <path fill="#FF5B53"
            d="M41.124 40.523c-3.094-1.882-9.211-5.599-11.632-7.07a1.745 1.745 0 0 0-1.97.119l-.507.395a5.49 5.49 0 0 1-7.035-.213 56.809 56.809 0 0 1-4.732-4.729 5.503 5.503 0 0 1-.213-7.038c.142-.182.269-.348.395-.506.443-.57.49-1.352.119-1.969L8.467 7.864a1.738 1.738 0 0 0-2.706-.332c-.887.878-1.417 1.415-3.023 3.036A9.5 9.5 0 0 0 .95 21.386a57.353 57.353 0 0 0 26.658 26.657c3.624 1.756 7.969 1.052 10.825-1.787a306.373 306.373 0 0 0 3.023-3.037 1.737 1.737 0 0 0-.332-2.696z" />
    </symbol>
    <symbol id="b2b-01-04" viewBox="0 0 38 50">
        <path fill="#FF5B53" fill-rule="evenodd"
            d="M.964 1.459a1 1 0 0 1 1-1h34.072a1 1 0 0 1 1 1V48.55a1 1 0 1 1-2 0V2.459H2.964V48.55a1 1 0 1 1-2 0V1.46z"
            clip-rule="evenodd" />
        <path fill="#34332E" fill-rule="evenodd"
            d="M5.341 5.751a1 1 0 0 1 1-1H31.66a1 1 0 0 1 1 1v42.79a1 1 0 0 1-1 1H6.341a1 1 0 0 1-1-1V5.751zm2 1v40.79H30.66V6.751H7.341z"
            clip-rule="evenodd" />
        <path fill="#34332E" fill-rule="evenodd"
            d="M6.341 22.695H31.66v1.5H6.341v-1.5zm18.095-10.844a.75.75 0 0 1 .75-.75h2.467a.75.75 0 0 1 .75.75v7.246a.75.75 0 0 1-.75.75h-2.467a.75.75 0 0 1-.75-.75v-7.246zm1.5.75v5.746h.967v-5.746h-.967zm-1.5 14.963a.75.75 0 0 1 .75-.75h2.467a.75.75 0 0 1 .75.75v7.246a.75.75 0 0 1-.75.75h-2.467a.75.75 0 0 1-.75-.75v-7.246zm1.5.75v5.746h.967v-5.746h-.967z"
            clip-rule="evenodd" />
    </symbol>
    <symbol id="b2b-01-01" viewBox="0 0 51 64">
        <path fill="#34332E" fill-rule="evenodd"
            d="M11.983 45.483l7.885 7.963 13.569-.337 14.48-8.326a1.869 1.869 0 0 0-.33-.56 1.877 1.877 0 0 0-.851-.54c-.7-.231-1.547-.173-2.133-.024a3.238 3.238 0 0 1-.028.013l-.168.074a443.554 443.554 0 0 0-2.802 1.298 826.592 826.592 0 0 0-5.267 2.486 5.34 5.34 0 0 1-.676.817 1 1 0 0 1-.676.292l-11.155.354a1 1 0 1 1-.063-1.998l10.733-.341c.112-.138.2-.267.267-.387.32-.573.257-1.07.013-1.535-.24-.459-.655-.86-1.03-1.12a4.166 4.166 0 0 0-.182-.02 16.96 16.96 0 0 0-.941-.046 86.313 86.313 0 0 0-2.979-.014c-2.29.02-4.95.09-6.701.15a1 1 0 0 1-.74-.293c-.145-.144-.505-.423-.963-.749a36.128 36.128 0 0 0-.932-.64h-3.615a1.27 1.27 0 0 0-.091.038 4.79 4.79 0 0 0-.52.288c-.437.27-.982.658-1.573 1.108a61.317 61.317 0 0 0-2.531 2.049zm21.86-1.856zm3.11 1.396a886.229 886.229 0 0 1 5.961-2.793c.276-.127.504-.232.671-.307l.007-.003c.13-.058.291-.131.379-.16a.96.96 0 0 1 .054-.017c.83-.224 2.129-.358 3.337.04.62.204 1.236.556 1.732 1.126.5.573.833 1.315.963 2.225a1 1 0 0 1-.491 1.009L34.214 54.97a1 1 0 0 1-.474.132l-14.254.355a1 1 0 0 1-.735-.297l-8.942-9.03a1 1 0 0 1 .05-1.454 66.588 66.588 0 0 1 3.444-2.834 23.222 23.222 0 0 1 1.73-1.216c.258-.16.512-.303.747-.41.202-.091.516-.216.848-.216h3.984a1 1 0 0 1 .545.162c.305.197.786.52 1.248.849.293.208.611.442.874.659 1.75-.057 4.209-.12 6.352-.138a88.404 88.404 0 0 1 3.053.014c.41.012.773.029 1.059.054.142.012.28.027.4.048.091.015.282.05.462.14.028.014.056.03.083.046.615.385 1.389 1.063 1.864 1.97.195.37.339.78.401 1.22z"
            clip-rule="evenodd" />
        <path fill="#34332E" fill-rule="evenodd"
            d="M8.145 43.28a1 1 0 0 1 1.408.02L21.68 55.696a1 1 0 0 1-.012 1.411l-6.64 6.552a1 1 0 0 1-1.407-.002L1.228 51.35a1 1 0 0 1 .011-1.43l6.906-6.64zm-4.782 7.37L14.33 61.54l5.226-5.157-10.74-10.975-5.453 5.242z"
            clip-rule="evenodd" />
        <path fill="#FF5B53" fill-rule="evenodd"
            d="M28.126 10.017h-.003c-5.504.07-9.899 4.518-9.822 9.803.051 3.364 1.885 6.333 4.644 8.026 1.49.914 2.456 2.483 2.507 4.236h5.642a5.116 5.116 0 0 1 2.45-4.199l.007-.004c2.825-1.71 4.684-4.745 4.684-8.196 0-5.356-4.513-9.744-10.11-9.666zm-4.672 24.065v-1.854c0-1.072-.578-2.079-1.556-2.678-3.302-2.027-5.534-5.606-5.597-9.7-.094-6.441 5.237-11.75 11.797-11.833 6.659-.092 12.137 5.143 12.137 11.666 0 4.195-2.263 7.858-5.648 9.907a3.116 3.116 0 0 0-1.496 2.666v1.826h-9.637z"
            clip-rule="evenodd" />
        <path fill="#34332E" fill-rule="evenodd"
            d="M28.273.179a1 1 0 0 1 1 1v4.175a1 1 0 1 1-2 0V1.179a1 1 0 0 1 1-1zM11.958 8.092a1 1 0 0 1 1.414 0l3.277 3.273a1 1 0 0 1-1.413 1.415l-3.277-3.274a1 1 0 0 1-.001-1.414zm32.63 0a1 1 0 0 1-.002 1.415l-3.287 3.274a1 1 0 0 1-1.411-1.417l3.286-3.274a1 1 0 0 1 1.415.003zm-21.134 24.98a1 1 0 0 1 1-1h7.609a1 1 0 0 1 1 1v2.524a3.333 3.333 0 0 1-2.1 3.098v.024a2.317 2.317 0 0 1-2.32 2.32h-.74a2.317 2.317 0 0 1-2.321-2.32v-.012a3.334 3.334 0 0 1-2.128-3.11v-2.524zm3.236 3.855a1.334 1.334 0 0 1-1.236-1.33v-1.525h5.609v1.524c0 .738-.596 1.335-1.337 1.335h-2.935c-.034 0-.068-.001-.101-.004zm.971 2.004a.319.319 0 0 0 .241.106h.741a.32.32 0 0 0 .24-.106h-1.221z"
            clip-rule="evenodd" />
        <path fill="#34332E" fill-rule="evenodd"
            d="M23.75 35.815a.75.75 0 0 1 .75-.75h7.61a.75.75 0 0 1 0 1.5H24.5a.75.75 0 0 1-.75-.75z"
            clip-rule="evenodd" />
    </symbol>
    <symbol id="b2b-02-03" viewBox="0 0 51 52">
        <path fill="#FF5B53"
            d="M36.935 12.579c0-.632-.06-1.25-.181-1.847l2.69-2.036a12.6 12.6 0 0 0-2.596-4.535l-3.093 1.33a9.235 9.235 0 0 0-3.166-1.846L30.185.278A12.611 12.611 0 0 0 27.59.007c-.887 0-1.755.095-2.595.271l-.403 3.367a9.347 9.347 0 0 0-3.167 1.847l-3.093-1.33a12.602 12.602 0 0 0-2.595 4.534l2.69 2.036a9.822 9.822 0 0 0-.182 1.847c0 .631.06 1.249.182 1.846l-2.69 2.037a12.602 12.602 0 0 0 2.595 4.534l3.093-1.33a9.237 9.237 0 0 0 3.167 1.846l.403 3.367a12.568 12.568 0 0 0 5.19 0l.404-3.367a9.345 9.345 0 0 0 3.166-1.846l3.093 1.33a12.6 12.6 0 0 0 2.595-4.534l-2.689-2.037a9.822 9.822 0 0 0 .181-1.846zm-9.345 4.724c-2.581 0-4.672-2.11-4.672-4.718 0-2.606 2.09-4.717 4.672-4.717s4.673 2.11 4.673 4.717c0 2.607-2.091 4.718-4.673 4.718z" />
        <path fill="#34332E" fill-rule="evenodd"
            d="M11.983 33.483l7.885 7.963 13.569-.337 14.48-8.326a1.869 1.869 0 0 0-.33-.56 1.877 1.877 0 0 0-.851-.54c-.7-.231-1.547-.173-2.133-.024a3.238 3.238 0 0 1-.028.013l-.168.074a443.554 443.554 0 0 0-2.802 1.298 826.592 826.592 0 0 0-5.267 2.486 5.34 5.34 0 0 1-.676.817 1 1 0 0 1-.676.292l-11.155.354a1 1 0 1 1-.063-1.998l10.733-.341c.112-.138.2-.267.267-.387.32-.573.257-1.07.013-1.535-.24-.459-.655-.86-1.03-1.12a4.166 4.166 0 0 0-.182-.02 16.96 16.96 0 0 0-.941-.046 86.313 86.313 0 0 0-2.979-.014c-2.29.02-4.95.09-6.701.15a1 1 0 0 1-.74-.293c-.145-.144-.505-.423-.963-.749a36.128 36.128 0 0 0-.932-.64h-3.615a1.27 1.27 0 0 0-.091.038 4.79 4.79 0 0 0-.52.288c-.437.27-.982.658-1.573 1.108a61.317 61.317 0 0 0-2.531 2.049zm21.86-1.856zm3.11 1.396a886.229 886.229 0 0 1 5.961-2.793c.276-.127.504-.232.671-.307l.007-.003c.13-.058.291-.131.379-.16a.96.96 0 0 1 .054-.017c.83-.224 2.129-.358 3.337.04.62.204 1.236.556 1.732 1.126.5.573.833 1.315.963 2.225a1 1 0 0 1-.491 1.009L34.214 42.97a1 1 0 0 1-.474.132l-14.254.355a1 1 0 0 1-.735-.297l-8.942-9.03a1 1 0 0 1 .05-1.454 66.588 66.588 0 0 1 3.444-2.834 23.222 23.222 0 0 1 1.73-1.216c.258-.16.512-.303.747-.41.202-.091.516-.216.848-.216h3.984a1 1 0 0 1 .545.162c.305.198.786.52 1.248.849.293.208.611.442.874.659 1.75-.057 4.209-.12 6.352-.138a88.404 88.404 0 0 1 3.053.014c.41.012.773.029 1.059.054.142.012.28.027.4.048.091.015.282.05.462.14.028.014.056.03.083.046.615.385 1.389 1.063 1.864 1.97.195.37.339.78.401 1.22z"
            clip-rule="evenodd" />
        <path fill="#34332E" fill-rule="evenodd"
            d="M8.145 31.28a1 1 0 0 1 1.408.02L21.68 43.696a1 1 0 0 1-.012 1.411l-6.64 6.552a1 1 0 0 1-1.407-.002L1.228 39.35a1 1 0 0 1 .011-1.43l6.906-6.64zm-4.782 7.37L14.33 49.54l5.226-5.157-10.74-10.975-5.453 5.242z"
            clip-rule="evenodd" />
    </symbol>
    <symbol id="b2b-02-02" viewBox="0 0 46 49">
        <path fill="#FF5B53"
            d="M43.093 37.124c0-.599-.059-1.183-.169-1.745l2.576-1.921a11.765 11.765 0 0 0-2.488-4.28l-2.957 1.256a8.882 8.882 0 0 0-3.031-1.746l-.39-3.177a12.114 12.114 0 0 0-2.487-.255c-.851 0-1.68.087-2.488.255l-.389 3.177a8.882 8.882 0 0 0-3.03 1.746l-2.958-1.256a11.89 11.89 0 0 0-2.488 4.28l2.576 1.92a9.085 9.085 0 0 0 0 3.492l-2.576 1.92a11.768 11.768 0 0 0 2.488 4.28l2.958-1.256a8.882 8.882 0 0 0 3.03 1.746l.39 3.177a12.179 12.179 0 0 0 4.976 0l.388-3.177a8.882 8.882 0 0 0 3.03-1.746l2.958 1.257a11.887 11.887 0 0 0 2.488-4.28l-2.576-1.921a9.1 9.1 0 0 0 .169-1.746zm-8.946 4.455c-2.473 0-4.476-1.993-4.476-4.455 0-2.461 2.003-4.455 4.476-4.455s4.477 1.994 4.477 4.455c0 2.462-2.004 4.455-4.477 4.455z" />
        <path fill="#34332E" fill-rule="evenodd"
            d="M.028 1.526a1 1 0 0 1 1-1h23.88a1 1 0 0 1 .706.292l8.69 8.67a1 1 0 0 1 .293.707v12.307a1 1 0 1 1-2 0V10.61l-8.103-8.084H2.028V39.06h18.675a1 1 0 0 1 0 2H1.028a1 1 0 0 1-1-1V1.526z"
            clip-rule="evenodd" />
        <path fill="#34332E" fill-rule="evenodd"
            d="M24.798.526a1 1 0 0 1 1 1v7.808h7.799a1 1 0 1 1 0 2h-8.8a1 1 0 0 1-1-1V1.526a1 1 0 0 1 1-1zM7.587 15.505a1 1 0 0 1 1-1h17.459a1 1 0 1 1 0 2H8.587a1 1 0 0 1-1-1zm0 4.843a1 1 0 0 1 1-1h17.459a1 1 0 1 1 0 2H8.587a1 1 0 0 1-1-1zm0 4.842a1 1 0 0 1 1-1h17.459a1 1 0 1 1 0 2H8.587a1 1 0 0 1-1-1z"
            clip-rule="evenodd" />
    </symbol>
    <symbol id="b2b-01-05" viewBox="0 0 50 50">
        <path fill="#FF5B53" fill-rule="evenodd"
            d="M49.247.847a1 1 0 0 1 .29.788L48.363 16.1a1 1 0 0 1-1.703.627l-3.142-3.142-4.954 4.954a1 1 0 0 1-1.414-1.415l5.66-5.66a1 1 0 0 1 1.415 0l2.32 2.32.903-11.14-11.138.904 2.32 2.32a1 1 0 0 1 0 1.413l-3.304 3.314a1 1 0 1 1-1.416-1.412l2.6-2.607-3.144-3.143a1 1 0 0 1 .627-1.703L48.459.557a1 1 0 0 1 .788.29zm-1.629 32.288a1 1 0 0 1 .651.858l1.174 14.466a1 1 0 0 1-1.078 1.078L33.9 48.363a1 1 0 0 1-.626-1.704l3.15-3.142-4.962-4.953a1 1 0 0 1 1.413-1.415l5.67 5.66a1 1 0 0 1 0 1.416l-2.325 2.32 11.135.903-.903-11.139-2.32 2.32a1 1 0 0 1-1.414 0l-3.211-3.21a1 1 0 0 1 1.414-1.414l2.504 2.503 3.142-3.142a1 1 0 0 1 1.052-.231zm-45.33-.094a1 1 0 0 1 1.053.231l3.15 3.15 2.41-2.416a1 1 0 1 1 1.416 1.412L7.2 38.544a1 1 0 0 1-1.415.001l-2.328-2.328-.896 11.137 11.13-.903-2.32-2.32a1 1 0 0 1 0-1.415l5.642-5.633a1 1 0 0 1 1.413 1.416l-4.933 4.925 3.14 3.142a1 1 0 0 1-.625 1.703L1.55 49.443a1 1 0 0 1-1.077-1.077l1.164-14.467a1 1 0 0 1 .651-.858zM.847.763a1 1 0 0 1 .787-.29l14.467 1.164a1 1 0 0 1 .628 1.703l-3.144 3.15 2.758 2.758a1 1 0 0 1-1.414 1.414L11.464 7.2a1 1 0 0 1 0-1.413l2.323-2.329L2.646 2.56l.903 11.13 2.32-2.32a1 1 0 0 1 1.414 0l5.642 5.633a1 1 0 0 1-1.413 1.415l-4.935-4.927-3.142 3.143a1 1 0 0 1-1.704-.626L.557 1.55a1 1 0 0 1 .29-.787z"
            clip-rule="evenodd" />
        <path fill="#34332E" fill-rule="evenodd"
            d="M13.425 17.819a13.726 13.726 0 0 0-1.014 1.987A13.605 13.605 0 0 0 13.26 31.9c1.523-.924 3.416-1.645 5.525-2.13a38.29 38.29 0 0 1-.291-4.766c0-1.797.12-3.527.34-5.14-2.052-.468-3.903-1.164-5.409-2.046zm-1.185-1.833a15.678 15.678 0 0 0-1.678 3.058c-2.076 5.036-1.327 10.533 1.515 14.73a1.014 1.014 0 0 0 .128.185 15.553 15.553 0 0 0 6.85 5.487 15.581 15.581 0 0 0 6.081 1.182c6.093-.052 11.852-3.688 14.32-9.675 3.289-7.979-.513-17.113-8.492-20.402-6.783-2.795-14.4-.467-18.552 5.194a1.012 1.012 0 0 0-.172.24zm2.367.205c1.238.698 2.787 1.285 4.56 1.7a23.44 23.44 0 0 1 1.005-3.581c.343-.91.74-1.736 1.188-2.44a13.65 13.65 0 0 0-6.753 4.321zm14.04-4.326c.45.706.847 1.533 1.19 2.445a23.34 23.34 0 0 1 1.003 3.571c1.776-.41 3.324-.998 4.562-1.7a13.57 13.57 0 0 0-5.2-3.78 13.777 13.777 0 0 0-1.555-.536zm7.938 5.943c-1.505.885-3.353 1.583-5.411 2.048.222 1.615.341 3.349.341 5.149 0 1.658-.101 3.26-.29 4.765 2.11.481 4.004 1.21 5.531 2.137.319-.544.604-1.116.851-1.716a13.608 13.608 0 0 0-1.022-12.383zm-.968 15.748c-1.258-.746-2.857-1.372-4.703-1.805-.276 1.457-.64 2.79-1.077 3.949-.34.904-.734 1.726-1.18 2.428a13.645 13.645 0 0 0 6.96-4.572zm-10.533 5.072c.361-.026.808-.237 1.319-.812.549-.616 1.089-1.564 1.563-2.822.391-1.039.724-2.254.98-3.602a27.193 27.193 0 0 0-3.941-.28c-1.373 0-2.696.096-3.942.28.256 1.348.59 2.563.98 3.603.475 1.257 1.015 2.205 1.563 2.821.512.575.958.786 1.32.812h.158zm-3.733-.502c-.445-.701-.838-1.523-1.179-2.426-.436-1.16-.8-2.49-1.076-3.948-1.851.438-3.448 1.058-4.698 1.799a13.565 13.565 0 0 0 5.419 4.045c.506.21 1.019.386 1.534.53zm-.595-8.71a29.18 29.18 0 0 1 4.249-.304c1.47 0 2.896.104 4.248.303.17-1.382.262-2.864.262-4.41 0-1.684-.11-3.292-.309-4.776a28.6 28.6 0 0 1-4.201.303c-1.455 0-2.865-.104-4.202-.303a35.94 35.94 0 0 0-.309 4.776c0 1.546.093 3.028.262 4.41zm.378-11.16c1.224.18 2.523.276 3.87.276 1.349 0 2.648-.096 3.871-.276a21.358 21.358 0 0 0-.91-3.241c-.473-1.258-1.013-2.206-1.562-2.822-.55-.617-1.024-.814-1.398-.814-.374 0-.849.197-1.399.814-.548.616-1.088 1.564-1.562 2.822a21.37 21.37 0 0 0-.91 3.24z"
            clip-rule="evenodd" />
    </symbol>
    <symbol id="b2b-01-02" viewBox="0 0 46 46">
        <mask id="a" width="41" height="41" x="4.78" y="4.12" maskUnits="userSpaceOnUse">
            <path fill="#fff" d="M4.78 4.12h41v41h-41z" />
            <path
                d="M21.607 43.046a2.07 2.07 0 0 1-1.41-.536c-.406-.354-.609-.821-.609-1.401 0-.277.062-.584.186-.922.124-.337.31-.626.556-.867l8.057-7.89-1.208-1.183-8.043 7.89a2.45 2.45 0 0 1-.838.544 2.57 2.57 0 0 1-.947.182 1.97 1.97 0 0 1-1.433-.576 1.88 1.88 0 0 1-.586-1.402c0-.33.068-.652.205-.966.139-.314.313-.575.523-.782l8.056-7.89-1.196-1.172-8.055 7.881a2.54 2.54 0 0 1-.815.525 2.496 2.496 0 0 1-.98.201 1.965 1.965 0 0 1-1.427-.58 1.885 1.885 0 0 1-.593-1.397c0-.315.062-.624.184-.928.123-.305.308-.578.556-.82l7.551-7.398-1.207-1.17-7.539 7.397c-.21.206-.477.377-.802.512a2.593 2.593 0 0 1-.993.202c-.593 0-1.077-.185-1.455-.555-.376-.369-.564-.843-.564-1.423a2.434 2.434 0 0 1 .74-1.748l13.076-13.118 4.712 4.629c.4.393.854.67 1.358.833a4.944 4.944 0 0 0 1.536.247c1.054 0 1.935-.34 2.642-1.02.707-.68 1.061-1.55 1.061-2.608 0-.5-.098-1.004-.295-1.513a3.896 3.896 0 0 0-.921-1.376l-4.878-4.542-1.042-.7a5.135 5.135 0 0 1 1.744-1.087 5.638 5.638 0 0 1 2.043-.394 5.91 5.91 0 0 1 2.122.394c.69.261 1.278.631 1.765 1.11l9.371 9.184c.46.452.824 1.002 1.092 1.65.268.647.403 1.365.403 2.154 0 .714-.137 1.39-.41 2.025a4.956 4.956 0 0 1-1.084 1.618L23.395 42.318c-.237.231-.514.41-.832.535a2.53 2.53 0 0 1-.953.191" />
        </mask>
        <path fill="#F7F7F7"
            d="M21.607 43.046a2.07 2.07 0 0 1-1.41-.536c-.406-.354-.609-.821-.609-1.401 0-.277.062-.584.186-.922.124-.337.31-.626.556-.867l8.057-7.89-1.208-1.183-8.043 7.89a2.45 2.45 0 0 1-.838.544 2.57 2.57 0 0 1-.947.182 1.97 1.97 0 0 1-1.433-.576 1.88 1.88 0 0 1-.586-1.402c0-.33.068-.652.205-.966.139-.314.313-.575.523-.782l8.056-7.89-1.196-1.172-8.055 7.881a2.54 2.54 0 0 1-.815.525 2.496 2.496 0 0 1-.98.201 1.965 1.965 0 0 1-1.427-.58 1.885 1.885 0 0 1-.593-1.397c0-.315.062-.624.184-.928.123-.305.308-.578.556-.82l7.551-7.398-1.207-1.17-7.539 7.397c-.21.206-.477.377-.802.512a2.593 2.593 0 0 1-.993.202c-.593 0-1.077-.185-1.455-.555-.376-.369-.564-.843-.564-1.423a2.434 2.434 0 0 1 .74-1.748l13.076-13.118 4.712 4.629c.4.393.854.67 1.358.833a4.944 4.944 0 0 0 1.536.247c1.054 0 1.935-.34 2.642-1.02.707-.68 1.061-1.55 1.061-2.608 0-.5-.098-1.004-.295-1.513a3.896 3.896 0 0 0-.921-1.376l-4.878-4.542-1.042-.7a5.135 5.135 0 0 1 1.744-1.087 5.638 5.638 0 0 1 2.043-.394 5.91 5.91 0 0 1 2.122.394c.69.261 1.278.631 1.765 1.11l9.371 9.184c.46.452.824 1.002 1.092 1.65.268.647.403 1.365.403 2.154 0 .714-.137 1.39-.41 2.025a4.956 4.956 0 0 1-1.084 1.618L23.395 42.318c-.237.231-.514.41-.832.535a2.53 2.53 0 0 1-.953.191" />
        <path fill="#34332E"
            d="M20.197 42.51l1.322-1.5-.006-.006-1.317 1.506zm.133-3.19l-1.4-1.43v.001l1.4 1.429zm8.057-7.89l1.399 1.429a2 2 0 0 0 0-2.858l-1.4 1.429zm-1.208-1.183l1.4-1.429a2 2 0 0 0-2.8.001l1.4 1.428zm-8.043 7.89l1.4 1.428-1.4-1.428zm-.838.544l-.721-1.865-.008.002.729 1.863zm-2.966-1.796l2 .006v-.006h-2zm.205-.966l-1.83-.807-.003.007 1.833.8zm.523-.782l-1.4-1.43-.005.006 1.405 1.424zm8.056-7.89l1.4 1.429a2 2 0 0 0 0-2.858l-1.4 1.429zm-1.196-1.172l1.4-1.429a2 2 0 0 0-2.799 0l1.399 1.429zm-8.055 7.881l-1.398-1.43-.001.001 1.4 1.43zm-1.795.726l.008-2h-.008v2zm-1.28-3.726l-1.4-1.429 1.4 1.43zm7.551-7.397l1.4 1.429a2 2 0 0 0-.008-2.865l-1.392 1.436zm-1.207-1.17l1.391-1.436a2 2 0 0 0-2.792.009l1.4 1.427zm-7.539 7.397l1.4 1.429.001-.001-1.4-1.428zm-.802.512l.76 1.85.01-.004-.77-1.846zm-2.448-.353l1.4-1.429-1.4 1.429zm-.38-2.351l-1.853-.755-.003.008 1.855.747zm.555-.82l1.404 1.424.012-.013-1.416-1.412zm13.077-13.118l1.401-1.427a2 2 0 0 0-2.818.015l1.417 1.412zm4.712 4.629l-1.402 1.427.002.001 1.4-1.428zm1.358.833l.618-1.902-.004-.001-.614 1.903zm4.944-4.894l1.865-.722V13.5l-1.865.724zm-.921-1.376l1.402-1.426a1.973 1.973 0 0 0-.04-.037l-1.362 1.463zm-4.878-4.542l1.363-1.463a2.007 2.007 0 0 0-.246-.196l-1.117 1.66zm-1.042-.7l-1.386-1.442a2 2 0 0 0 .27 3.1l1.116-1.659zm1.744-1.087l.717 1.867.003-.001-.72-1.866zm4.165 0l-.712 1.869.003.001.709-1.87zm1.765 1.11l-1.401 1.427.001.001 1.4-1.428zm9.371 9.184l1.402-1.426-.002-.002-1.4 1.428zm1.092 1.65l-1.848.765v.001l1.848-.766zm-.006 4.179l-1.839-.789-.001.004 1.84.785zm-1.086 1.618l-1.399-1.429 1.4 1.429zm-18.42 18.058l1.4 1.428-1.4-1.428zm-.832.535l-.735-1.86-.013.006.748 1.854zm-.956-1.807a.224.224 0 0 1-.04-.003h-.004l-.007-.004a.28.28 0 0 1-.038-.03l-2.644 3.002a4.068 4.068 0 0 0 2.733 1.035v-4zm-.095-.042a.333.333 0 0 1 .077.138c.002.005 0-.005 0-.033h-4c0 1.107.415 2.141 1.291 2.907l2.633-3.012zm.076.105c0 .017-.002-.053.063-.231l-3.754-1.38a4.68 4.68 0 0 0-.309 1.611h4zm.063-.231a.32.32 0 0 1 .079-.13l-2.8-2.857a4.316 4.316 0 0 0-1.033 1.606l3.754 1.38zm.078-.13l8.057-7.89-2.799-2.857-8.056 7.89 2.798 2.858zm8.057-10.747l-1.208-1.183-2.799 2.858 1.208 1.182 2.799-2.857zm-4.008-1.182l-8.043 7.89 2.801 2.856 8.043-7.89-2.8-2.856zm-8.042 7.89a.455.455 0 0 1-.159.106l1.441 3.732a4.449 4.449 0 0 0 1.517-.981l-2.799-2.858zm-.166.11a.586.586 0 0 1-.22.044v4c.58 0 1.142-.11 1.676-.32l-1.456-3.725zm-.22.044a.253.253 0 0 1-.043-.002l.01.003a.099.099 0 0 1 .016.008l-.016-.014-2.799 2.858a3.97 3.97 0 0 0 2.832 1.147v-4zm-.033-.005l-.01-.011a.18.18 0 0 1 .025.06v-.016l-4-.01a3.879 3.879 0 0 0 1.186 2.834l2.8-2.857zm.014.027c0-.044.008-.094.04-.166l-3.667-1.6a4.394 4.394 0 0 0-.373 1.766h4zm.036-.16a.554.554 0 0 1 .097-.164l-2.809-2.848c-.416.41-.724.892-.948 1.4l3.66 1.613zm.092-.16l8.057-7.89-2.799-2.857-8.056 7.89 2.798 2.858zm8.057-10.747l-1.196-1.172-2.8 2.857 1.197 1.173 2.799-2.858zm-3.995-1.173l-8.054 7.882 2.797 2.859 8.055-7.882-2.798-2.859zm-8.055 7.882a.598.598 0 0 1-.187.108l1.54 3.692a4.553 4.553 0 0 0 1.446-.942l-2.799-2.858zm-.187.108a.509.509 0 0 1-.2.048l-.018 4a4.496 4.496 0 0 0 1.759-.356l-1.54-3.692zm-.21.047l-.032-.001h.004a.107.107 0 0 1 .024.011s-.007-.004-.022-.019l-2.8 2.858a3.963 3.963 0 0 0 2.827 1.151v-4zm-.026-.009l-.017-.018a.172.172 0 0 1 .024.059c.002.008 0 .005 0-.01h-4c0 1.092.422 2.07 1.194 2.827l2.799-2.858zm.008.032c0-.047.007-.104.039-.181L9.379 31.03a4.465 4.465 0 0 0-.328 1.675h4zm.039-.181a.401.401 0 0 1 .1-.14l-2.8-2.857c-.433.425-.78.928-1.011 1.503l3.71 1.494zm.1-.14l7.55-7.396-2.798-2.858-7.552 7.397 2.8 2.858zm7.543-10.261l-1.208-1.17-2.783 2.872 1.207 1.17 2.784-2.872zm-4-1.162L9.195 28.36l2.801 2.855 7.538-7.397-2.801-2.855zm-7.537 7.396c.004-.003-.037.039-.174.096l1.541 3.691a4.508 4.508 0 0 0 1.432-.93l-2.799-2.857zm-.164.091a.597.597 0 0 1-.232.052v4a4.59 4.59 0 0 0 1.753-.352l-1.52-3.7zM8.8 28.5a.515.515 0 0 1-.086-.006l-.01-.002a.146.146 0 0 1 .026.014l.014.01-2.799 2.857c.798.782 1.808 1.127 2.855 1.127v-4zm-.056.016l.005.005a.217.217 0 0 1 .032.054c.005.012.005.017.004.01a.38.38 0 0 1-.004-.063h-4c0 1.058.363 2.067 1.164 2.851l2.8-2.857zm.037.006c0-.047.007-.104.039-.181l-3.711-1.494a4.464 4.464 0 0 0-.328 1.675h4zm.035-.173a.441.441 0 0 1 .108-.151l-2.808-2.85c-.43.424-.772.922-1.004 1.491l3.704 1.51zm.12-.164l13.077-13.117-2.833-2.824L6.104 25.361l2.832 2.824zm10.26-13.102l4.711 4.629 2.803-2.854-4.712-4.629-2.803 2.854zm4.713 4.63a5.429 5.429 0 0 0 2.144 1.309l1.228-3.807a1.435 1.435 0 0 1-.573-.359l-2.799 2.857zm2.14 1.308c.7.227 1.42.344 2.154.344v-4c-.302 0-.606-.048-.918-.149l-1.236 3.805zm2.154.344c1.529 0 2.919-.512 4.028-1.578l-2.772-2.884c-.305.293-.676.462-1.256.462v4zm4.028-1.578c1.133-1.09 1.675-2.495 1.675-4.05h-4c0 .562-.165.895-.447 1.166l2.772 2.884zm1.675-4.05c0-.769-.152-1.517-.43-2.235l-3.73 1.444c.116.3.16.56.16.79h4zm-.43-2.237a5.896 5.896 0 0 0-1.384-2.078l-2.804 2.853c.23.226.372.45.458.673l3.73-1.448zm-1.423-2.115l-4.878-4.542L24.45 9.77l4.878 4.542 2.726-2.927zm-5.124-4.738l-1.042-.701-2.233 3.319 1.042.7 2.233-3.318zm-.772 2.4a3.14 3.14 0 0 1 1.074-.66l-1.434-3.735a7.133 7.133 0 0 0-2.413 1.512l2.773 2.883zm1.077-.662c.468-.18.905-.26 1.323-.26v-4a7.64 7.64 0 0 0-2.763.528l1.44 3.732zm1.323-.26c.477 0 .943.085 1.41.263L31.39 4.65a7.912 7.912 0 0 0-2.834-.525v4zm1.413.264c.452.171.799.398 1.073.667l2.803-2.854a7.02 7.02 0 0 0-2.458-1.553l-1.418 3.74zm1.074.668l9.372 9.185 2.8-2.857L33.843 6.2l-2.8 2.856zm9.37 9.183c.25.247.47.565.645.988l3.696-1.53a6.91 6.91 0 0 0-1.538-2.311l-2.803 2.853zm.646.99c.155.375.25.828.25 1.387h4c0-1.019-.175-2.001-.555-2.92L41.06 19.23zm.25 1.387c0 .452-.085.858-.248 1.236l3.677 1.577a7.081 7.081 0 0 0 .57-2.813h-4zm-.249 1.24a2.962 2.962 0 0 1-.645.974l2.8 2.857a6.953 6.953 0 0 0 1.524-2.261l-3.679-1.57zm-.645.974L21.995 40.89l2.8 2.857 18.42-18.058-2.8-2.857zM21.995 40.89a.475.475 0 0 1-.167.104l1.47 3.72a4.472 4.472 0 0 0 1.496-.967l-2.799-2.857zm-.18.11a.535.535 0 0 1-.205.045v4a4.53 4.53 0 0 0 1.702-.336l-1.497-3.71z"
            mask="url(#a)" />
        <path fill="#FF5B53" fill-rule="evenodd"
            d="M6.307 25.447l-3.482-3.8a7.433 7.433 0 0 1-1.756-2.734v-.001A8.638 8.638 0 0 1 .5 15.887c0-1.022.169-2.002.538-2.916.344-.85.815-1.62 1.452-2.247l8.342-8.218c.6-.59 1.281-1.07 2.04-1.428A6.126 6.126 0 0 1 15.515.5c.936 0 1.84.165 2.686.521.83.347 1.57.85 2.215 1.485l.008.008 10.635 10.591c.403.398.7.862.913 1.358.21.49.345 1.025.345 1.593 0 .995-.348 1.926-1.072 2.67l-.007.007c-.747.757-1.712 1.123-2.751 1.123-.55 0-1.087-.099-1.6-.295l-.01-.004a4.26 4.26 0 0 1-1.434-.935l-6.175-5.897-12.96 12.722z"
            clip-rule="evenodd" />
    </symbol>
    <symbol id="b2b-01-06" viewBox="0 0 60 42">
        <path fill="#FF5B53" fill-rule="evenodd"
            d="M8.969 27.712v-5.048h-2v6.048a1 1 0 0 0 1 1h6.449a1 1 0 0 0 1-1v-6.048h-2v5.048h-4.45zm18.99 0v-5.048h-2v6.048a1 1 0 0 0 1 1h6.46a1 1 0 0 0 1-1v-6.048h-2v5.048h-4.46zm18.991 0v-5.048h-2v6.048a1 1 0 0 0 1 1h6.458a1 1 0 0 0 1-1v-6.048h-2v5.048H46.95zM18.464 6.555V1.507h-2v6.048a1 1 0 0 0 1 1h6.459a1 1 0 0 0 1-1V1.507h-2v5.048h-4.46zm18.99 0V1.507h-2v6.048a1 1 0 0 0 1 1h6.46a1 1 0 0 0 1-1V1.507h-2v5.048h-4.46z"
            clip-rule="evenodd" />
        <path fill="#34332E" fill-rule="evenodd"
            d="M10.005 1.507a1 1 0 0 1 1-1h18.99a1 1 0 0 1 1 1v17.829a1 1 0 1 1-2 0V2.507h-16.99v16.829a1 1 0 1 1-2 0V1.507z"
            clip-rule="evenodd" />
        <path fill="#34332E" fill-rule="evenodd"
            d="M28.995 1.507a1 1 0 0 1 1-1h19a1 1 0 0 1 1 1v17.829a1 1 0 1 1-2 0V2.507h-18a1 1 0 0 1-1-1zM.51 22.664a1 1 0 0 1 1-1H20.5a1 1 0 0 1 1 1v17.829a1 1 0 1 1-2 0V23.664H2.51v16.829a1 1 0 1 1-2 0V22.664z"
            clip-rule="evenodd" />
        <path fill="#34332E" fill-rule="evenodd"
            d="M19.5 22.664a1 1 0 0 1 1-1h18.99a1 1 0 0 1 1 1v17.829a1 1 0 1 1-2 0V23.664H20.5a1 1 0 0 1-1-1z"
            clip-rule="evenodd" />
        <path fill="#34332E" fill-rule="evenodd"
            d="M38.49 22.664a1 1 0 0 1 1-1h19a1 1 0 0 1 1 1v17.829a1 1 0 1 1-2 0V23.664h-17v16.829a1 1 0 1 1-2 0V22.664z"
            clip-rule="evenodd" />
    </symbol>
</svg>