<svg xmlns="http://www.w3.org/2000/svg">
    <symbol id="d" viewBox="0 0 25 32">
        <path fill="currentColor"
            d="M22 31v1H3v-1h19zm2-2V3a2 2 0 0 0-2-2H3a2 2 0 0 0-2 2v26a2 2 0 0 0 2 2v1a3 3 0 0 1-3-3V3A3 3 0 0 1 2.846.004L3 0h19l.154.004A3 3 0 0 1 25 3v26a3 3 0 0 1-3 3v-1a2 2 0 0 0 2-2z" />
        <path fill="currentColor" d="M24.447 9.431a.5.5 0 1 1 .003 1L1 10.5a.5.5 0 0 1 0-1l23.448-.069z" />
        <path fill="currentColor"
            d="M24.167 10.47l-19.714 7a.5.5 0 0 1-.613-.244l-3.286-6.5.892-.452 3.087 6.107 19.3-6.852.334.942zM14.07 6.724v1h-3.311v-1h3.31zm1.757-1.758c0-.91-.691-1.66-1.578-1.75l-.18-.01h-3.31a1.759 1.759 0 0 0 0 3.518v1l-.282-.014a2.76 2.76 0 0 1-2.462-2.462L8 4.966a2.759 2.759 0 0 1 2.477-2.744l.282-.015h3.31l.282.015a2.758 2.758 0 0 1 2.476 2.744l-.014.282a2.76 2.76 0 0 1-2.462 2.462l-.282.014v-1c.971 0 1.758-.787 1.758-1.758z" />
    </symbol>
    <symbol id="k" viewBox="0 0 29 32">
        <path fill="currentColor"
            d="M26 31v1H3v-1h23zm2-2V3a2 2 0 0 0-1.796-1.99L26 1H3a2 2 0 0 0-2 2v26a2 2 0 0 0 2 2v1l-.154-.004A3 3 0 0 1 0 29V3A3 3 0 0 1 2.846.004L3 0h23a3 3 0 0 1 3 3v26a3 3 0 0 1-3 3v-1a2 2 0 0 0 2-2z" />
        <path fill="currentColor" d="M28 9.5l.1.01a.5.5 0 0 1 0 .98l-.1.01H1a.5.5 0 0 1 0-1h27z" />
        <path fill="currentColor"
            d="M28.145 10.479l-23.143 7a.5.5 0 0 1-.575-.224l-3.857-6.5.86-.51 3.657 6.162 22.768-6.886.29.957zM11.07 6.724v1H7.758v-1h3.31zm1.757-1.758c0-.91-.691-1.66-1.578-1.75l-.18-.01H7.76a1.759 1.759 0 0 0 0 3.518v1l-.282-.014a2.76 2.76 0 0 1-2.462-2.462L5 4.966a2.759 2.759 0 0 1 2.477-2.744l.282-.015h3.31l.282.015a2.758 2.758 0 0 1 2.476 2.744l-.014.282a2.76 2.76 0 0 1-2.462 2.462l-.282.014v-1c.971 0 1.758-.787 1.758-1.758zm9.277 1.759v1h-3.31v-1h3.31zm1.758-1.76a1.76 1.76 0 0 0-1.578-1.75l-.18-.008h-3.31a1.759 1.759 0 0 0 0 3.518v1l-.283-.015a2.76 2.76 0 0 1-2.462-2.462l-.015-.282a2.759 2.759 0 0 1 2.477-2.744l.282-.015h3.31l.282.015a2.758 2.758 0 0 1 2.477 2.744l-.014.282a2.76 2.76 0 0 1-2.463 2.462l-.281.015v-1a1.76 1.76 0 0 0 1.758-1.76z" />
    </symbol>
    <symbol id="lk" viewBox="0 0 32 32">
        <path fill="currentColor"
            d="M29 31v1H3v-1h26zm2-2V3a2 2 0 0 0-2-2H3a2 2 0 0 0-2 2v26a2 2 0 0 0 2 2v1a3 3 0 0 1-3-3V3a3 3 0 0 1 3-3h26a3 3 0 0 1 3 3v26a3 3 0 0 1-3 3v-1a2 2 0 0 0 2-2z" />
        <path fill="currentColor" d="M31.448 9.431a.5.5 0 0 1 0 1H.552a.5.5 0 1 1 0-1h30.896z" />
        <path fill="currentColor"
            d="M31.13 10.482l-25.713 7a.5.5 0 0 1-.558-.221l-4.286-7 .854-.522 4.089 6.68 25.353-6.901.262.964zM11.587 6.724v1H8.276v-1h3.31zm1.757-1.758c0-.91-.691-1.66-1.578-1.75l-.18-.01h-3.31a1.759 1.759 0 0 0 0 3.518v1l-.282-.014a2.76 2.76 0 0 1-2.462-2.462l-.015-.282a2.759 2.759 0 0 1 2.477-2.744l.282-.015h3.31l.282.015a2.758 2.758 0 0 1 2.476 2.744l-.013.282a2.76 2.76 0 0 1-2.463 2.462l-.281.014v-1c.97 0 1.757-.787 1.757-1.758zm10.38 1.759v1h-3.31v-1h3.31zm1.758-1.76a1.76 1.76 0 0 0-1.578-1.75l-.18-.008h-3.31a1.759 1.759 0 0 0 0 3.518v1l-.282-.015a2.76 2.76 0 0 1-2.462-2.462l-.015-.282a2.759 2.759 0 0 1 2.477-2.744l.282-.015h3.31l.282.015a2.758 2.758 0 0 1 2.476 2.744l-.013.282a2.76 2.76 0 0 1-2.463 2.462l-.282.015v-1c.971 0 1.758-.788 1.758-1.76z" />
    </symbol>
    <symbol id="ss" viewBox="0 0 22 32">
        <path fill="currentColor"
            d="M19 31v1H3v-1h16zm2-2V3a2 2 0 0 0-2-2H3a2 2 0 0 0-2 2v26a2 2 0 0 0 2 2v1l-.154-.004A3 3 0 0 1 0 29V3a3 3 0 0 1 3-3h16a3 3 0 0 1 3 3v26a3 3 0 0 1-2.846 2.996L19 32v-1a2 2 0 0 0 2-2z" />
        <path fill="currentColor" d="M21 9.5l.1.01a.5.5 0 0 1 0 .98l-.1.01H1a.5.5 0 0 1 0-1h20z" />
        <path fill="currentColor"
            d="M21.19 10.463l-17.144 7a.5.5 0 0 1-.647-.262l-2.857-6.5.916-.402 2.66 6.053 16.693-6.815.378.926zm-8.12-3.739v1H9.758v-1h3.31zm1.757-1.758c0-.91-.691-1.66-1.578-1.75l-.18-.01H9.76a1.759 1.759 0 0 0 0 3.518v1l-.282-.014a2.76 2.76 0 0 1-2.462-2.462L7 4.966a2.759 2.759 0 0 1 2.477-2.744l.282-.015h3.31l.282.015a2.758 2.758 0 0 1 2.476 2.744l-.014.282a2.76 2.76 0 0 1-2.462 2.462l-.282.014v-1c.971 0 1.758-.787 1.758-1.758z" />
    </symbol>
    <symbol id="q" viewBox="0 0 27 32">
        <path fill="currentColor"
            d="M24 31v1H3v-1h21zm2-2V3a2 2 0 0 0-2-2H3a2 2 0 0 0-2 2v26a2 2 0 0 0 2 2v1l-.154-.004A3 3 0 0 1 0 29V3a3 3 0 0 1 3-3h21a3 3 0 0 1 3 3v26a3 3 0 0 1-2.846 2.996L24 32v-1a2 2 0 0 0 2-2z" />
        <path fill="currentColor" d="M26 9.5a.5.5 0 0 1 0 1H1a.5.5 0 0 1 0-1h25z" />
        <path fill="currentColor"
            d="M26.155 10.476l-21.428 7a.5.5 0 0 1-.594-.235l-3.571-6.5.876-.482 3.372 6.136 21.035-6.87.31.95zM10.07 6.724v1H6.758v-1h3.31zm1.757-1.758c0-.91-.691-1.66-1.578-1.75l-.18-.01H6.76a1.759 1.759 0 0 0 0 3.518v1l-.282-.014a2.76 2.76 0 0 1-2.462-2.462L4 4.966a2.759 2.759 0 0 1 2.477-2.744l.282-.015h3.31l.282.015a2.758 2.758 0 0 1 2.476 2.744l-.014.282a2.76 2.76 0 0 1-2.462 2.462l-.282.014v-1c.971 0 1.758-.787 1.758-1.758zM20 6.725v1h-3.31v-1H20zm1.758-1.76a1.76 1.76 0 0 0-1.578-1.75L20 3.208h-3.31a1.759 1.759 0 0 0 0 3.518v1l-.282-.015a2.76 2.76 0 0 1-2.462-2.462l-.015-.282a2.759 2.759 0 0 1 2.477-2.744l.282-.015H20l.282.015a2.758 2.758 0 0 1 2.476 2.744l-.014.282a2.76 2.76 0 0 1-2.462 2.462L20 7.725v-1c.971 0 1.758-.788 1.758-1.76z" />
    </symbol>
    <symbol id="s" viewBox="0 0 20 32">
        <path fill="currentColor"
            d="M16.872 31v1h-13v-1h13zm2-2V3a2 2 0 0 0-2-2h-13a2 2 0 0 0-2 2v26a2 2 0 0 0 2 2v1a3 3 0 0 1-3-3V3a3 3 0 0 1 3-3h13a3 3 0 0 1 3 3v26a3 3 0 0 1-3 3v-1a2 2 0 0 0 2-2z" />
        <path fill="currentColor"
            d="M19 9.5a.5.5 0 0 1 0 1H1.5a.5.5 0 0 1 0-1H19zm-7.058-2.776v1h-3.31v-1h3.31zM13.7 4.966a1.76 1.76 0 0 0-1.758-1.76h-3.31a1.759 1.759 0 0 0 0 3.518v1l-.283-.014a2.76 2.76 0 0 1-2.462-2.462l-.015-.282A2.759 2.759 0 0 1 8.35 2.222l.282-.015h3.31l.282.015A2.758 2.758 0 0 1 14.7 4.966l-.013.282a2.76 2.76 0 0 1-2.463 2.462l-.281.014v-1a1.76 1.76 0 0 0 1.758-1.758z" />
        <path fill="currentColor"
            d="M19.072 10.459l-15 6.5a.502.502 0 0 1-.662-.267l-2.5-6 .924-.384 2.305 5.53 14.534-6.297.399.918z" />
    </symbol>
</svg>