<svg xmlns="http://www.w3.org/2000/svg" id="icon">
    <symbol id="cart-icon" viewBox="0 0 20 19">
        <path fill="currentColor" fill-rule="evenodd"
            d="M2.627 3.009c-.161-.02-.391-.022-.822-.022H1a1 1 0 1 1 0-2h.854c.362 0 .72 0 1.02.037.342.043.727.145 1.072.437.344.292.508.655.606.985.05.167.09.355.128.553l10.539-.006c.805 0 1.49 0 2.04.059.574.062 1.142.202 1.629.587.348.276.631.625.828 1.024.275.556.293 1.14.234 1.716-.056.549-.2 1.219-.368 2.007l-.02.094c-.114.532-.213.995-.33 1.372-.127.403-.297.789-.598 1.13a3.001 3.001 0 0 1-.784.635c-.397.222-.81.308-1.23.347-.393.036-.867.036-1.41.036H6.18l.028.164c.07.425.11.651.157.807 0 .002 0 .004.002.006l.006.001c.161.02.391.022.822.022H17.5a1 1 0 0 1 0 2H7.146c-.362 0-.72 0-1.02-.037-.342-.043-.727-.146-1.072-.437-.344-.292-.508-.655-.606-.985a8.726 8.726 0 0 1-.205-1l-.008-.048-.218-1.31a1.051 1.051 0 0 1-.006-.035l-1.22-7.325c-.07-.425-.11-.652-.156-.807 0-.002 0-.004-.002-.006l-.006-.001zM5.847 10h9.32c.598 0 .979-.001 1.269-.028.273-.025.377-.067.436-.1a.999.999 0 0 0 .261-.211c.045-.05.108-.144.19-.406.086-.278.167-.65.292-1.235.183-.855.302-1.417.346-1.845.042-.414-.005-.558-.038-.626a1 1 0 0 0-.276-.341c-.06-.047-.19-.123-.605-.168-.427-.046-1.002-.047-1.877-.047L5.015 5l.833 5z"
            clip-rule="evenodd" />
        <path fill="#333"
            d="M18 17.5a1.5 1.5 0 1 1-3 0 1.5 1.5 0 0 1 3 0zm-9.5 0a1.5 1.5 0 1 1-3 0 1.5 1.5 0 0 1 3 0z" />
    </symbol>
    <symbol id="arrow-bottom" viewBox="0 0 12 8">
        <path fill="currentColor" fill-rule="evenodd"
            d="M.293.993a1 1 0 0 1 1.414 0L6 5.286 10.293.993a1 1 0 1 1 1.414 1.414l-5 5a1 1 0 0 1-1.414 0l-5-5a1 1 0 0 1 0-1.414z"
            clip-rule="evenodd" />
    </symbol>
    <symbol id="clock-icon" viewBox="0 0 24 24">
        <g clip-path="url(#a)">
            <path fill="currentColor" 
                d="M24 12a12 12 0 1 1-24 0 12 12 0 0 1 24 0zM12 5.25a.75.75 0 1 0-1.5 0v8.25a.75.75 0 0 0 .378.651l5.25 3a.75.75 0 0 0 .744-1.302L12 13.065V5.25z" />
        </g>
        <defs>
            <clipPath id="a">
                <path fill="#fff" d="M0 0h24v24H0z" />
            </clipPath>
        </defs>
    </symbol>
    <symbol id="close-x" viewBox="0 0 16 16">
        <path fill="currentColor" fill-rule="evenodd"
            d="M15.707.293a1 1 0 0 1 0 1.414L9.414 8l6.293 6.293a1 1 0 0 1-1.414 1.414L8 9.414l-6.293 6.293a1 1 0 0 1-1.414-1.414L6.586 8 .293 1.707A1 1 0 0 1 1.707.293L8 6.586 14.293.293a1 1 0 0 1 1.414 0z"
            clip-rule="evenodd" />
    </symbol>
    <symbol id="arrow-right" viewBox="0 0 9 15">
        <path fill="currentColor" fill-rule="evenodd"
            d="M.793 14.207a1 1 0 0 1 0-1.414L6.086 7.5.793 2.207A1 1 0 0 1 2.207.793l6 6a1 1 0 0 1 0 1.414l-6 6a1 1 0 0 1-1.414 0z"
            clip-rule="evenodd" />
    </symbol>
    <symbol id="cs-icon" viewBox="0 0 43 49">
        <path fill="currentColor" fill-rule="evenodd"
            d="M36.155 6.46a21.18 21.18 0 0 1 6.177 13.917c.054.2.086.406.094.614v7.893a4.6 4.6 0 0 1-.012.308c.05.181.055.374.012.56a21.157 21.157 0 0 1-16.431 15.963h-.111a4.727 4.727 0 1 1 .527-2.458 18.95 18.95 0 0 0 12.297-9.905 4.57 4.57 0 0 1-.92.08h-.512a4.57 4.57 0 0 1-4.57-4.46v-6.175a4.46 4.46 0 0 1 4.57-4.459h2.23c.123-.007.246-.006.369.004a18.95 18.95 0 0 0-37.384-.047c.17-.03.344-.046.518-.046h2.609a4.102 4.102 0 0 1 4.102 4.08v6.911a4.102 4.102 0 0 1-4.102 4.192h-1.45a4.1 4.1 0 0 1-4.1-4.192v-7.422A1.115 1.115 0 0 1 0 21.437 21.18 21.18 0 0 1 36.155 6.46zM16.03 12.698h.557c.743 0 1.115.372 1.115 1.115v3.3c0 .743-.372 1.114-1.115 1.114h-.557c-.744 0-1.115-.371-1.115-1.115v-3.3c0-.742.372-1.114 1.115-1.114zm9.81 0h.557c.743 0 1.115.372 1.115 1.115v3.3c0 .743-.372 1.114-1.115 1.114h-.558c-.743 0-1.114-.371-1.114-1.115v-3.3c0-.742.371-1.114 1.114-1.114zM3.01 20.479a.713.713 0 0 0-.714.713v8.048a1.873 1.873 0 0 0 1.873 1.873h1.449A1.873 1.873 0 0 0 7.49 29.24v-6.91a1.873 1.873 0 0 0-1.873-1.851H3.009zm34.266 0a2.231 2.231 0 0 0-2.341 2.23v6.085a2.229 2.229 0 0 0 2.34 2.23h.514a2.23 2.23 0 0 0 2.23-2.23v-7.803a.513.513 0 0 0-.536-.512h-2.207zM21.714 41.056a2.497 2.497 0 1 0-.044 4.995 2.497 2.497 0 0 0 .044-4.995zM16.016 29.5a9.653 9.653 0 0 0 5.186 1.523 9.676 9.676 0 0 0 8.761-5.596.87.87 0 0 0-.446-1.181.914.914 0 0 0-1.181.423 7.848 7.848 0 0 1-14.268 0 .891.891 0 0 0-1.182-.423.87.87 0 0 0-.424 1.181 9.653 9.653 0 0 0 3.554 4.073z"
            clip-rule="evenodd" />
    </symbol>
    <symbol id="bag-icon" viewBox="0 0 30 28">
        <path fill="currentColor"
            d="M27 6.5h-6v-3l-3-3h-6l-3 3v3H3c-1.65 0-3 1.35-3 3V17c0 1.125.6 2.07 1.5 2.595V24.5c0 1.665 1.335 3 3 3h21c1.665 0 3-1.335 3-3v-4.92c.885-.525 1.5-1.485 1.5-2.58V9.5c0-1.65-1.35-3-3-3zm-15-3h6v3h-6v-3zm-9 6h24V17h-7.5v-4.5h-9V17H3V9.5zm13.5 9h-3v-3h3v3zm9 6h-21V20h6v1.5h9V20h6v4.5z" />
    </symbol>
    <symbol id="cuckoo-holdings-logo" viewBox="0 0 195.3 28.97">
        <defs>
            <style>.cls-1{fill:#585856}</style>
        </defs>
        <g id="Layer_1-2">
            <path fill="currentColor"
                d="M51.95 24.59c1.66-.1 2.75-.4 2.75-1.28 0-.96-1.09-1.36-3.27-1.36s-3.25.39-3.25 1.36c0 .9 1.08 1.2 2.79 1.28v.25H47.2v.87h8.53v-.87h-3.78v-.25zm-2.74-1.36c0-.45 1.02-.65 2.22-.65s2.2.19 2.2.65c0 .41-1.05.56-2.2.56s-2.22-.15-2.22-.56"
                class="" />
            <path fill="currentColor"
                d="M54.97 21.35h-3.02v-.63h-.98v.63h-3.01v.83h7.01v-.83zm-9.52 1.45v-.12c.06-.38-.06-.76-.29-1.02-.25-.28-.62-.42-1.1-.42H38.7v.9h5.24c.19 0 .33.05.41.14.08.09.12.23.1.41 0 .11-.02.23-.04.34-1.34.09-3.17.15-5.05.15h-.52v.9h1.54c1.35 0 2.75 0 3.92-.12-.03.21-.06.46-.09.69-.03.23-.05.46-.08.64H37.8v.9h3.76v2.67h.95v-2.67h3.78v-.9h-1.17c.11-.61.21-1.57.32-2.49m-9.14 0v-.12c.06-.38-.05-.76-.29-1.02-.25-.28-.62-.42-1.1-.42h-5.36v.9h5.24c.19 0 .33.05.41.14.08.09.12.23.1.41 0 .11-.02.23-.04.34-1.34.09-3.17.15-5.05.15h-.52v.9h1.54c1.34 0 2.75 0 3.92-.12-.03.21-.06.46-.09.69-.03.23-.06.46-.08.64h-6.33v.9h3.75v2.67h.96v-2.67h3.78v-.9h-1.17c.11-.61.21-1.57.32-2.49m28.32 4.41h8.3v.9h-8.3zm1.47-.6c.11-.11 2.62-2.7 2.68-2.77 0 0 .02-.01.02-.02l.02.02c.05.06 2.54 2.67 2.65 2.78l.05.05.68-.65-.05-.05c-.11-.12-2.71-2.84-2.78-2.91-.04-.04-.07-.15-.07-.25v-1.42h-1v1.42c0 .08-.03.2-.08.26s-1.84 1.92-2.78 2.89l-.05.05.67.64.05-.05zm-4.07-1.78v-.86s-2.19.18-3.86.18c-.22 0-.32-.09-.32-.3V22.2h3.38v-.84h-4.38v2.48c0 .81.47 1.18 1.3 1.18 1.64 0 3.88-.2 3.88-.2m.64-3.85h1.02v4.55h-1.02zm-2.12 4.58c-2.36 0-3.2.89-3.2 1.72 0 1.07 1.2 1.7 3.2 1.7 2.8 0 3.21-1.07 3.21-1.7s-.42-1.72-3.21-1.72m.01 2.59c-1.3 0-2.17-.35-2.17-.86 0-.55.85-.9 2.17-.9s2.18.35 2.18.9c0 .52-.85.86-2.18.86m-11.36-.28h5.63v-1.83h-6.68v.78h5.64v.3h-5.64v.92c0 .55.35.88.86.88h5.85v-.76h-5.48c-.11 0-.17-.03-.17-.15v-.13zM156.79 4.83h1.43v11.14h-1.43zm-14.08 11.15h-7.66V4.83h1.42v9.76h6.24v1.39zM117.06 4.83v4.83h-6.48V4.83h-1.43v11.13h1.43v-4.94h6.48v4.94h1.43V4.83h-1.43zm9.6 11.32c-3.67 0-6.66-2.58-6.66-5.75s2.99-5.75 6.66-5.75 6.66 2.58 6.66 5.75-2.99 5.75-6.66 5.75m0-10.19c-2.89 0-5.24 1.99-5.24 4.44s2.35 4.44 5.24 4.44 5.24-1.99 5.24-4.44-2.35-4.44-5.24-4.44m22.88 10.02h-5.5V4.85h5.5c3.55 0 5.81 2.49 5.81 5.55s-2.27 5.59-5.81 5.59m-4.07-1.36h3.98c2.76 0 4.48-1.89 4.48-4.23s-1.72-4.21-4.48-4.21h-3.98v8.44zm33.79 1.52c-3.67 0-6.66-2.58-6.66-5.75s2.99-5.75 6.66-5.75c1.68 0 3.28.54 4.52 1.53l-.96.96c-.97-.76-2.23-1.18-3.55-1.18-2.89 0-5.24 1.94-5.24 4.44s2.35 4.44 5.24 4.44c1.39 0 2.73-.47 3.71-1.3v-2.33H179V9.87h5.4v4.21l-.18.17c-1.26 1.21-3.06 1.9-4.95 1.9m11.5 0c-2.55 0-4.99-1.72-5.09-1.8l.9-1s2.16 1.49 4.19 1.49c.9 0 3-.09 3.11-1.68.05-.75-.13-1.46-3.08-2.11-2.62-.58-4.62-1.16-4.62-3.27s1.68-3.17 4.38-3.17c2.41 0 4.33 1.35 4.41 1.41l-.91 1s-1.61-1.11-3.5-1.11c-1.11 0-2.96.18-2.96 1.73 0 .97.53 1.47 3.53 2.13 2.26.5 4.32 1.24 4.17 3.46-.13 1.94-1.85 2.91-4.53 2.91m-20.58-.18h.71V4.83h-1.43v9.11l-7.5-9.11h-1.6v11.13h1.43V6.85l7.51 9.12h.87l.01-.01zM34.86 6.94c1.5 0 2.79.62 3.49 1.19 0 0 1.5-1.98 1.5-1.99-1.29-1-3.09-1.57-5.03-1.57-3.88 0-6.63 2.5-6.63 5.82s2.75 5.82 6.63 5.82c2.03 0 3.85-.58 5.15-1.66l-1.56-1.93-.08.07c-.71.56-1.99 1.16-3.46 1.16-2.39 0-4.17-1.38-4.17-3.46s1.79-3.46 4.17-3.46m25.68.01c1.5 0 2.79.62 3.49 1.19 0 0 1.5-1.98 1.5-1.99-1.29-1-3.09-1.57-5.03-1.57-3.88 0-6.63 2.5-6.63 5.82s2.74 5.82 6.63 5.82c2.03 0 3.85-.58 5.15-1.66l-1.56-1.93-.08.07c-.71.56-1.99 1.16-3.47 1.16-2.39 0-4.17-1.38-4.17-3.46s1.78-3.46 4.17-3.46M84.7 4.58c-3.86 0-6.78 2.5-6.78 5.82s2.91 5.82 6.78 5.82 6.77-2.5 6.77-5.82-2.91-5.82-6.77-5.82m0 9.28c-2.47 0-4.19-1.42-4.19-3.46s1.72-3.46 4.19-3.46 4.19 1.42 4.19 3.46-1.72 3.46-4.19 3.46m15.1-9.28c-3.86 0-6.77 2.5-6.77 5.82s2.91 5.82 6.77 5.82 6.77-2.5 6.77-5.82-2.91-5.82-6.77-5.82m0 9.28c-2.46 0-4.19-1.42-4.19-3.46s1.72-3.46 4.19-3.46 4.19 1.42 4.19 3.46-1.72 3.46-4.19 3.46"
                class="" />
            <path fill="currentColor"
                d="M78.65 4.81h-3.48L69.62 10V4.81h-2.45v11.12h2.45v-5.25l5.7 5.26h3.52l-6.17-5.68 5.98-5.45zm-28.69 6.63c0 .99-.57 2.4-3.18 2.4-3.02 0-3.05-1.99-3.05-2.4V4.82h-2.45v7.08c0 1.9 1.65 4.32 5.5 4.32s5.62-2.48 5.62-4.32V4.82h-2.44v6.62zM3.25 7.79L0 20.56h6.85L3.5 7.79h-.25zM.61 2.78c0 1.54 1.25 2.78 2.78 2.78s2.78-1.25 2.78-2.78a2.78 2.78 0 0 0-5.56 0m12.91 10.18L10.25.19h6.85l-3.36 12.77h-.22zm-2.66 5.01c0-1.54 1.25-2.78 2.78-2.78s2.79 1.24 2.79 2.78-1.25 2.78-2.79 2.78-2.78-1.25-2.78-2.78"
                class="" />
        </g>
    </symbol>
    <symbol id="facebook-icon" viewBox="0 0 24 24">
        <path fill="currentColor" fill-rule="evenodd"
            d="M9.778 12.8V20h3.358v-7.1h2.271l.593-3h-2.864V7.7c0-.3.099-.7.592-.7h1.58V4h-3.061c-.988 0-2.47 1.3-2.47 2.8v3.1H8v3l1.778-.1z"
            clip-rule="evenodd" />
    </symbol>
    <symbol id="cuckoo-eletronics-logo" viewBox="0 0 229.3 28.89">
        <defs>
            <style>.cls-1{fill:#585856}</style>
        </defs>
        <g id="Layer_1-2">
            <path fill="currentColor"
                d="M45.52 22.82l.02-.13c.04-.38-.07-.76-.3-1.02-.25-.28-.62-.42-1.1-.42h-5.36v.9h5.24c.19 0 .33.05.41.14.08.09.12.23.1.4 0 .11-.02.22-.04.34-1.34.09-3.18.15-5.05.15h-.51v.9h1.54c1.35 0 2.75 0 3.92-.12-.03.21-.06.45-.09.69-.03.23-.06.46-.08.64h-6.33v.9h3.76v2.67h.96v-2.67h3.78v-.9h-1.17c.1-.61.21-1.56.32-2.48m-9.16.01l.02-.13c.04-.38-.07-.76-.3-1.02-.25-.28-.62-.42-1.1-.42h-5.36v.9h5.24c.19 0 .33.05.41.14.08.09.12.23.1.4-.01.11-.02.22-.04.34-1.34.09-3.18.15-5.06.15h-.5v.9h1.54c1.35 0 2.76 0 3.92-.12-.03.21-.06.45-.09.69-.03.23-.05.46-.08.64h-6.33v.9h3.76v2.67h.96v-2.67h3.78v-.9h-1.17c.1-.61.21-1.56.32-2.48m26.82-1.56h-.96v7.64h.96v-4.3h1.47v-.93h-1.47v-2.41zM52.2 23.86h1.74v2.73h.95v-5.36h-.95v1.7H52.2v.93zm-2.63 3.39v-1.16h-.94v1.2c0 .98.66 1.59 1.71 1.59h4.61v-.9h-4.58c-.5 0-.79-.27-.79-.73"
                class="" />
            <path fill="currentColor"
                d="M51.97 26.08l.05.05.7-.71-.05-.05c-.73-.71-2.11-2.08-2.14-2.11a.152.152 0 0 1-.04-.08v-.93h1.96v-.89h-4.91v.89h1.97v.92s-.01.06-.04.09c-.04.04-1.43 1.39-2.15 2.1l-.05.05.7.71.05-.05s1.95-1.89 2-1.92c.04.04 1.29 1.28 1.95 1.93m7.35-2.62a.53.53 0 0 1-.08-.27v-.86h1.95v-.89h-4.91v.89h1.96v.87c0 .08-.04.2-.08.27-.06.08-2.17 2.96-2.26 3.09l-.04.06.81.55.04-.06s1.98-2.7 2.02-2.76l.01-.01.01.01c.04.06 1.39 1.84 1.99 2.78l.04.06.81-.55-.04-.06s-2.19-3.02-2.24-3.1m123.08-7.38c-3.69 0-6.69-2.58-6.69-5.75s3-5.75 6.69-5.75 6.69 2.58 6.69 5.75-3 5.75-6.69 5.75m0-10.2c-2.9 0-5.27 2-5.27 4.45s2.36 4.45 5.27 4.45 5.27-2 5.27-4.45-2.36-4.45-5.27-4.45m21.13-1.13h1.44v11.15h-1.44zm-75.89 11.16h-7.7V4.77h1.44v9.85h6.26v1.31zm18.48.17c-3.69 0-6.69-2.58-6.69-5.75s3-5.75 6.69-5.75c1.59 0 3.13.49 4.34 1.37l-.92 1.01c-.95-.68-2.16-1.06-3.42-1.06-2.9 0-5.27 1.93-5.27 4.43s2.36 4.44 5.27 4.44c1.26 0 2.48-.38 3.43-1.07l.93 1c-1.21.89-2.76 1.39-4.36 1.39m67.68-.01c-3.69 0-6.69-2.58-6.69-5.75s3-5.75 6.69-5.75c1.59 0 3.13.49 4.34 1.37l-.92.99c-.95-.68-2.17-1.06-3.42-1.06-2.91 0-5.27 1.95-5.27 4.45s2.36 4.45 5.27 4.45c1.26 0 2.48-.38 3.43-1.07l.93.99c-1.21.89-2.76 1.39-4.36 1.39m-13.06-.19h.71V4.77h-1.43v9.13l-7.54-9.12h-1.6v11.14h1.43V6.78l7.55 9.14h.88zM162.39 4.79h-10.15v1.34h4.29v9.79h1.43V6.13h4.43V4.79zm-51.64 9.82v-3.58h5.87V9.7h-5.87V6.1h7.27V4.79h-8.7v11.14h8.69l.01-1.32h-7.27zm20.36 0v-3.58h5.87V9.7h-5.87V6.1h7.26V4.79h-8.7v11.14h8.7v-1.32h-7.26zm43.66 1.31l-3.42-4.4c1.88-.42 2.99-1.59 2.99-3.28 0-2.13-1.77-3.45-4.61-3.45h-5.43v11.13h1.44v-4.23h4.02l3.29 4.24h1.73zm-9.04-9.82h4c1.19 0 3.17.28 3.17 2.13s-1.98 2.13-3.17 2.13h-4V6.09zm59.06 9.95c-2.53 0-4.96-1.71-5.06-1.79l.9-.99s2.14 1.48 4.16 1.48c.89 0 2.98-.09 3.09-1.67.05-.74-.13-1.45-3.06-2.1-2.6-.57-4.59-1.15-4.59-3.25s1.67-3.15 4.35-3.15c2.4 0 4.3 1.35 4.38 1.4l-.9 1s-1.6-1.1-3.48-1.1c-1.1 0-2.95.18-2.95 1.72 0 .96.53 1.46 3.51 2.11 2.24.49 4.29 1.23 4.14 3.44-.13 1.93-1.84 2.9-4.5 2.9M34.84 6.91c1.51 0 2.79.62 3.5 1.19l1.5-1.99c-1.29-1-3.1-1.57-5.04-1.57-3.89 0-6.64 2.51-6.64 5.83s2.75 5.83 6.64 5.83c2.03 0 3.85-.58 5.16-1.66l-1.57-1.93-.08.07c-.71.56-1.99 1.16-3.47 1.16-2.39 0-4.18-1.38-4.18-3.47s1.79-3.47 4.18-3.47m25.74.01c1.5 0 2.79.62 3.5 1.19l1.5-1.99c-1.29-1-3.09-1.57-5.04-1.57-3.89 0-6.64 2.51-6.64 5.83s2.75 5.83 6.64 5.83c2.03 0 3.85-.58 5.16-1.66l-1.57-1.93-.08.07c-.71.56-2 1.16-3.47 1.16-2.39 0-4.18-1.38-4.18-3.47s1.79-3.47 4.18-3.47m24.19-2.36c-3.87 0-6.79 2.51-6.79 5.83s2.92 5.83 6.79 5.83 6.79-2.5 6.79-5.83-2.92-5.83-6.79-5.83m0 9.3c-2.47 0-4.2-1.42-4.2-3.46s1.73-3.46 4.2-3.46 4.2 1.42 4.2 3.46-1.73 3.46-4.2 3.46m15.14-9.3c-3.87 0-6.79 2.51-6.79 5.83s2.92 5.83 6.79 5.83 6.79-2.5 6.79-5.83-2.92-5.83-6.79-5.83m0 9.3c-2.47 0-4.2-1.42-4.2-3.46s1.73-3.46 4.2-3.46 4.2 1.42 4.2 3.46-1.73 3.46-4.2 3.46"
                class="" />
            <path fill="currentColor"
                d="M78.72 4.78h-3.49l-5.57 5.19V4.78h-2.45v11.14h2.45v-5.26l5.72 5.27h3.52l-6.17-5.69 5.99-5.46zm-28.75 6.63c0 .99-.57 2.41-3.19 2.41-3.02 0-3.05-1.99-3.05-2.41V4.78h-2.45v7.1c0 1.9 1.66 4.33 5.5 4.33s5.63-2.48 5.63-4.33v-7.1h-2.45v6.63zM3.25 7.79L0 20.56h6.85L3.5 7.79h-.25zM.61 2.78c0 1.54 1.25 2.78 2.78 2.78s2.78-1.25 2.78-2.78a2.78 2.78 0 0 0-5.56 0m12.91 10.18L10.25.19h6.85l-3.36 12.77h-.22zm-2.66 5.01c0-1.54 1.25-2.78 2.78-2.78s2.79 1.25 2.79 2.78-1.25 2.79-2.79 2.79-2.78-1.25-2.78-2.79"
                class="" />
        </g>
    </symbol>
    <symbol id="arrow-left" viewBox="0 0 9 15">
        <path fill="currentColor" fill-rule="evenodd"
            d="M8.207.793a1 1 0 0 1 0 1.414L2.914 7.5l5.293 5.293a1 1 0 1 1-1.414 1.414l-6-6a1 1 0 0 1 0-1.414l6-6a1 1 0 0 1 1.414 0z"
            clip-rule="evenodd" />
    </symbol>
    <symbol id="cuckoo-homesys-logo" viewBox="0 0 190.54 28.76">
        <defs>
            <style>.cls-1{fill:#585856}</style>
        </defs>
        <g id="Layer_1-2">
            <path fill="currentColor"
                d="M45.59 22.7v-.12c.06-.38-.05-.76-.29-1.02-.25-.28-.62-.42-1.1-.42h-5.36v.9h5.24c.19 0 .33.05.41.14.08.09.12.23.1.41 0 .11-.02.22-.04.34-1.34.09-3.17.15-5.05.15h-.52v.9h1.54c1.34 0 2.75 0 3.92-.12-.03.21-.06.45-.09.69-.03.23-.05.46-.08.64h-6.34v.9h3.76v2.67h.96v-2.67h3.78v-.9h-1.17c.1-.61.21-1.57.32-2.49zm-9.15 0v-.12c.06-.38-.05-.76-.29-1.02-.25-.28-.62-.42-1.1-.42h-5.36v.9h5.24c.19 0 .33.05.41.14.08.09.11.23.1.41 0 .11-.02.22-.04.34-1.34.09-3.17.15-5.05.15h-.51v.9h1.54c1.35 0 2.75 0 3.92-.12-.03.21-.06.45-.09.69-.03.23-.05.46-.08.64H28.8v.9h3.76v2.67h.96v-2.67h3.78v-.9h-1.17c.1-.61.21-1.57.32-2.49zm15.62 2.05c1.66-.1 2.75-.6 2.75-1.47 0-.58-.41-1-1.22-1.23h1.49v-.83h-3.02v-.63h-.97v.63h-3.02v.83h1.41c-.79.23-1.19.64-1.19 1.23 0 .9 1.08 1.39 2.79 1.48v.25h-3.77v.9h8.53v-.9h-3.77v-.25zm-2.74-1.56c0-.45.92-.71 2.22-.71s2.2.26 2.2.71c0 .41-.95.72-2.2.72s-2.22-.31-2.22-.72zm-1.09 4.29c0 .82.51 1.26 1.36 1.26h3.95c.85 0 1.36-.44 1.36-1.26v-1.29h-6.67v1.29zm.95-.43h4.77v.43c0 .26-.15.4-.4.4h-3.96c-.25 0-.4-.14-.4-.4v-.43zm13.95-5.93h.96v7.63h-.96zm1.98 5.98h8.3v.9h-8.3zm-5.35-3.79a.53.53 0 0 1-.08-.27v-1.76h-1v1.76c0 .08-.04.2-.09.27-.06.08-1.98 2.96-2.06 3.09l-.04.06.81.55.04-.06s1.78-2.7 1.83-2.76v-.01l.01.01c.04.06 1.19 1.84 1.79 2.78l.04.06.81-.55-.04-.06s-2-3.02-2.05-3.1zm6.82 3.2c.11-.11 2.62-2.7 2.68-2.77 0 0 .02-.01.02-.02l.02.02c.05.06 2.54 2.67 2.64 2.78l.05.05.68-.65-.05-.05c-.11-.12-2.71-2.84-2.78-2.91-.04-.04-.07-.15-.07-.25v-1.42h-1v1.42c0 .08-.03.2-.08.26s-1.84 1.92-2.78 2.89l-.05.05.68.64.05-.05zm108.49-16.09l-4.21-5.64h-1.71l5.21 6.96v4.18h1.43v-4.19l5.22-6.95h-1.71l-4.23 5.64zm-33.89-.08l-4.57-5.56h-1.6v11.14h1.43v-9.1l4.74 5.82 4.74-5.82v9.1h1.44V4.78h-1.6l-4.58 5.56zM117 4.77v4.81h-6.43V4.77h-1.42v11.06h1.42v-4.91H117v4.91h1.42V4.77H117zm9.66 11.24c-3.64 0-6.61-2.56-6.61-5.71s2.96-5.71 6.61-5.71 6.61 2.56 6.61 5.71-2.96 5.71-6.61 5.71m0-10.11c-2.87 0-5.2 1.98-5.2 4.41s2.33 4.41 5.2 4.41 5.2-1.98 5.2-4.41-2.33-4.41-5.2-4.41m37.61 10.2c-2.53 0-4.95-1.71-5.05-1.78l.9-.99s2.14 1.48 4.15 1.48c.89 0 2.98-.09 3.09-1.66.05-.74-.13-1.45-3.06-2.1-2.6-.57-4.58-1.15-4.58-3.25s1.67-3.14 4.35-3.14c2.39 0 4.29 1.34 4.37 1.4l-.9 1s-1.6-1.1-3.48-1.1c-1.1 0-2.94.17-2.94 1.71 0 .96.53 1.46 3.5 2.11 2.24.49 4.29 1.23 4.14 3.43-.13 1.93-1.83 2.89-4.49 2.89m21.77 0c-2.53 0-4.95-1.71-5.05-1.78l.9-.99s2.14 1.48 4.16 1.48c.89 0 2.98-.09 3.09-1.66.05-.74-.13-1.45-3.06-2.1-2.6-.57-4.58-1.15-4.58-3.25s1.66-3.14 4.35-3.14c2.39 0 4.29 1.34 4.37 1.4l-.9 1s-1.6-1.1-3.47-1.1c-1.1 0-2.94.17-2.94 1.71 0 .96.53 1.46 3.5 2.11 2.24.49 4.29 1.23 4.14 3.43-.13 1.93-1.83 2.89-4.49 2.89M34.86 6.92c1.5 0 2.79.62 3.49 1.19l1.5-1.99c-1.29-1-3.09-1.57-5.03-1.57-3.88 0-6.63 2.5-6.63 5.82s2.75 5.83 6.63 5.83c2.03 0 3.85-.59 5.15-1.66l-1.57-1.93-.08.06c-.71.56-1.99 1.16-3.47 1.16-2.39 0-4.18-1.38-4.18-3.46s1.79-3.46 4.18-3.46m25.72.01c1.5 0 2.79.62 3.5 1.19l1.5-1.99c-1.29-1-3.09-1.57-5.03-1.57-3.88 0-6.63 2.5-6.63 5.82s2.75 5.83 6.63 5.83c2.03 0 3.85-.59 5.15-1.66l-1.57-1.93-.08.06c-.71.56-1.99 1.16-3.47 1.16-2.39 0-4.17-1.38-4.17-3.46s1.79-3.46 4.17-3.46m24.16-2.36c-3.87 0-6.78 2.5-6.78 5.82s2.91 5.83 6.78 5.83 6.78-2.5 6.78-5.83-2.91-5.82-6.78-5.82m0 9.29c-2.47 0-4.19-1.42-4.19-3.46s1.72-3.46 4.19-3.46 4.19 1.42 4.19 3.46-1.72 3.46-4.19 3.46m15.11-9.29c-3.86 0-6.78 2.5-6.78 5.82s2.92 5.83 6.78 5.83 6.78-2.5 6.78-5.83-2.91-5.82-6.78-5.82m0 9.29c-2.47 0-4.19-1.42-4.19-3.46s1.72-3.46 4.19-3.46 4.19 1.42 4.19 3.46-1.72 3.46-4.19 3.46"
                class="" />
            <path fill="currentColor"
                d="M78.68 4.79h-3.49l-5.55 5.19V4.79h-2.45v11.12h2.45v-5.25l5.7 5.26h3.52l-6.16-5.68 5.98-5.45zm-28.71 6.62c0 .99-.57 2.4-3.18 2.4-3.02 0-3.05-1.99-3.05-2.4V4.79h-2.45v7.09c0 1.9 1.65 4.33 5.5 4.33s5.63-2.48 5.63-4.33V4.79h-2.45v6.62zm100.86 3.21v-3.58h5.86V9.71h-5.86V6.12h7.25V4.81h-8.68v11.12h8.68l.01-1.31h-7.26zM3.25 7.79L0 20.56h6.85L3.51 7.79h-.26zM.61 2.78c0 1.54 1.25 2.78 2.78 2.78s2.78-1.25 2.78-2.78a2.78 2.78 0 0 0-5.56 0m12.91 10.18L10.25.19h6.85l-3.36 12.77h-.22zm-2.66 5.01c0-1.54 1.25-2.78 2.78-2.78s2.78 1.25 2.78 2.78-1.25 2.79-2.78 2.79-2.78-1.25-2.78-2.79"
                class="" />
        </g>
    </symbol>
    <symbol id="location-icon" viewBox="0 0 24 32">
        <path fill="currentColor" d="M12 3c3.3 0 6 2.7 6 6 0 3.15-3.15 8.25-6 11.85C9.15 17.1 6 12.15 6 9c0-3.3 2.7-6 6-6zm0-3C7.05 0 3 4.05 3 9c0 6.75 9 16.5 9 16.5s9-9.9 9-16.5c0-4.95-4.05-9-9-9zm0 6c-1.65 0-3 1.35-3 3s1.35 3 3 3 3-1.35 3-3-1.35-3-3-3zm12 19.5c0 3.3-5.4 6-12 6s-12-2.7-12-6c0-1.95 1.8-3.6 4.65-4.8l.9 1.35C4.05 22.8 3 23.7 3 24.75c0 2.1 4.05 3.75 9 3.75s9-1.65 9-3.75c0-1.05-1.05-1.95-2.7-2.7l.9-1.35c3 1.2 4.8 2.85 4.8 4.8z" />
    </symbol>
    <symbol id="blog-icon" viewBox="0 0 24 24">
        <path fill="currentColor" 
            d="M5.768 9.893a.811.811 0 0 0-.613.27.88.88 0 0 0-.253.648c0 .256.08.458.253.647.173.176.373.27.613.27s.452-.094.626-.27a.892.892 0 0 0 .266-.647.892.892 0 0 0-.266-.648.794.794 0 0 0-.626-.27zm7.47-.013a.811.811 0 0 0-.612.27.88.88 0 0 0-.253.647c0 .256.08.459.253.648.173.175.373.27.612.27.24 0 .453-.095.626-.27a.892.892 0 0 0 .267-.648.915.915 0 0 0-.267-.648c-.16-.189-.373-.27-.626-.27zm4.994.013a.811.811 0 0 0-.612.27.88.88 0 0 0-.253.648c0 .256.08.458.253.647a.83.83 0 0 0 .612.27c.24 0 .453-.094.626-.27a.892.892 0 0 0 .267-.647.892.892 0 0 0-.267-.648.812.812 0 0 0-.626-.27z" />
        <path fill="currentColor" 
            d="M20.443 3.228H3.557C2.265 3.228 1.2 4.307 1.2 5.616v9.675c0 1.308 1.065 2.388 2.357 2.388h6.632s1.278 3.549 1.744 3.549c.466 0 1.851-3.55 1.851-3.55h6.659c1.292 0 2.357-1.079 2.357-2.388V5.617c0-1.309-1.065-2.388-2.357-2.388zM7.473 12.16c-.334.378-.853.54-1.412.54-.506 0-.88-.149-1.146-.364h-.013v.27H3.637v-5.6h1.265V9.15h.027c.346-.297.799-.391 1.331-.418.453-.014.933.27 1.226.607.28.337.492.864.492 1.444 0 .634-.16.998-.506 1.376zm2.73.5H8.91V9.191c0-.797-.625-.904-.625-.904v-1.39s1.81.108 1.917 2.334v3.427zm5.073-1.067a1.955 1.955 0 0 1-.48.675c-.2.189-.439.337-.705.445a2.213 2.213 0 0 1-.84.162c-.292 0-.572-.054-.825-.162a2.252 2.252 0 0 1-.706-.445 2.09 2.09 0 0 1-.48-.675 1.976 1.976 0 0 1-.159-.796c0-.283.053-.54.16-.796.106-.243.266-.472.48-.675a2.42 2.42 0 0 1 .705-.445 2.213 2.213 0 0 1 1.665 0c.266.108.506.257.705.445.214.203.36.419.48.675.106.257.16.513.16.796 0 .284-.054.54-.16.796zm5.087.554c0 .985-.186 1.578-.613 1.997-.519.499-1.251.526-1.864.445v-1.012c.52.054 1.225-.297 1.225-.972v-.256h-.013c-.293.405-.706.553-1.279.553-.519 0-.972-.189-1.278-.553-.306-.364-.453-.85-.453-1.457 0-.688.173-1.228.506-1.633.346-.405.826-.594 1.385-.594.493 0 .813.122 1.119.405h.013v-.31h1.265v3.387h-.013z" />
    </symbol>
    <symbol id="plus-icon" viewBox="0 0 14 14">
        <path fill="currentColor" fill-rule="evenodd"
            d="M7 .25a.75.75 0 0 1 .75.75v4.917H13a.75.75 0 0 1 0 1.5H7.75V13a.75.75 0 0 1-1.5 0V7.417H1a.75.75 0 0 1 0-1.5h5.25V1A.75.75 0 0 1 7 .25z"
            clip-rule="evenodd" />
    </symbol>
    <symbol id="instagram-icon" viewBox="0 0 24 24">
        <path fill="currentColor" 
            d="M12 8.834c-1.712 0-3.167 1.455-3.167 3.166 0 1.712 1.455 3.167 3.167 3.167 1.712 0 3.167-1.455 3.167-3.167 0-1.711-1.455-3.166-3.167-3.166z" />
        <path fill="currentColor" 
            d="M16.06 2.5H8.026C4.918 2.5 2.5 4.918 2.5 7.94v8.033c0 3.109 2.418 5.527 5.527 5.527h8.032c3.023 0 5.441-2.418 5.441-5.527V7.94a5.418 5.418 0 0 0-5.44-5.44zM12 17.01c-2.764 0-4.923-2.246-4.923-4.924 0-2.677 2.16-5.009 4.923-5.009 2.764 0 4.923 2.246 4.923 4.923s-2.16 5.01-4.923 5.01zm5.096-8.896a1.143 1.143 0 0 1-1.123-1.123c0-.605.518-1.123 1.123-1.123.604 0 1.122.518 1.122 1.123 0 .604-.518 1.123-1.122 1.123z" />
    </symbol>
    <symbol id="cuckoo-logo" viewBox="0 0 78.42 11.65">
        <defs>
            <!-- <style>.cls-1{fill:#585856}</style> -->
        </defs>
        <g id="Layer_1-2">
            <path fill="currentColor"
                d="M6.67 2.36c1.5 0 2.79.62 3.49 1.19l1.5-1.99C10.37.56 8.57-.01 6.63-.01 2.75 0 0 2.5 0 5.82s2.75 5.83 6.63 5.83c2.03 0 3.85-.59 5.15-1.66l-1.57-1.93-.08.06c-.71.56-1.99 1.16-3.47 1.16-2.39 0-4.18-1.38-4.18-3.46s1.79-3.46 4.18-3.46m25.71 0c1.5 0 2.79.62 3.5 1.19l1.5-1.99c-1.29-1-3.09-1.57-5.03-1.57-3.88 0-6.63 2.5-6.63 5.82s2.75 5.83 6.63 5.83c2.03 0 3.85-.59 5.15-1.66l-1.57-1.93-.08.06c-.71.56-1.99 1.16-3.47 1.16-2.39 0-4.17-1.38-4.17-3.46s1.79-3.46 4.17-3.46M56.53 0c-3.87 0-6.78 2.5-6.78 5.82s2.91 5.83 6.78 5.83 6.78-2.5 6.78-5.83S60.4 0 56.53 0m0 9.29c-2.47 0-4.19-1.42-4.19-3.46s1.72-3.46 4.19-3.46 4.19 1.42 4.19 3.46S59 9.29 56.53 9.29M71.65 0c-3.86 0-6.78 2.5-6.78 5.82s2.92 5.83 6.78 5.83 6.78-2.5 6.78-5.83S75.52 0 71.65 0m0 9.29c-2.47 0-4.19-1.42-4.19-3.46s1.72-3.46 4.19-3.46 4.19 1.42 4.19 3.46-1.72 3.46-4.19 3.46"
                class="" />
            <path fill="currentColor"
                d="M50.48.23H47l-5.56 5.19V.23H39v11.13h2.44V6.11l5.71 5.26h3.52L44.5 5.69 50.48.23zm-28.7 6.63c0 .99-.57 2.4-3.18 2.4-3.02 0-3.05-1.99-3.05-2.4V.24H13.1v7.09c0 1.9 1.65 4.33 5.5 4.33s5.63-2.48 5.63-4.33V.24h-2.45v6.62z"
                class="" />
        </g>
    </symbol>
    <symbol id="ribbon" viewBox="0 0 26 37">
        <path fill="currentColor"
            d="M0 0h26v35.382a1 1 0 0 1-1.447.894l-11.106-5.552a1 1 0 0 0-.894 0L1.447 36.276A1 1 0 0 1 0 35.382V0z" />
    </symbol>
    <symbol id="gear-icon" viewBox="0 0 30 30">
        <path fill="currentColor"
            d="M15 9a6 6 0 1 1 0 12 6 6 0 0 1 0-12zm0 3a3 3 0 1 0 0 6 3 3 0 0 0 0-6zm-3 18a.758.758 0 0 1-.75-.63l-.555-3.975C9.75 25.02 8.94 24.51 8.16 23.91l-3.735 1.515c-.33.12-.735 0-.915-.33l-3-5.19a.74.74 0 0 1 .18-.96l3.165-2.49L3.75 15l.105-1.5L.69 11.055a.74.74 0 0 1-.18-.96l3-5.19a.737.737 0 0 1 .915-.33l3.735 1.5c.78-.585 1.59-1.095 2.535-1.47L11.25.63c.06-.36.375-.63.75-.63h6c.375 0 .69.27.75.63l.555 3.975c.945.375 1.755.885 2.535 1.47l3.735-1.5c.33-.135.735 0 .915.33l3 5.19a.74.74 0 0 1-.18.96L26.145 13.5l.105 1.5-.105 1.5 3.165 2.445a.74.74 0 0 1 .18.96l-3 5.19a.737.737 0 0 1-.915.33l-3.735-1.5c-.78.585-1.59 1.095-2.535 1.47l-.555 3.975A.758.758 0 0 1 18 30h-6zm1.875-27l-.555 3.915a8.239 8.239 0 0 0-4.545 2.67L5.16 8.025l-1.125 1.95L7.2 12.3c-.6 1.755-.6 3.66 0 5.4l-3.18 2.34 1.125 1.95 3.645-1.56a8.166 8.166 0 0 0 4.515 2.64L13.86 27h2.28l.555-3.915a8.277 8.277 0 0 0 4.515-2.655l3.645 1.56 1.125-1.95-3.18-2.325c.6-1.755.6-3.66 0-5.415l3.165-2.325-1.125-1.95-3.615 1.56A8.13 8.13 0 0 0 16.68 6.93L16.125 3h-2.25z" />
    </symbol>
    <symbol id="repair-icon" viewBox="0 0 30 30">
        <path fill="currentColor" 
            d="M16.5.045v3.03c6.585.81 11.25 6.795 10.44 13.38-.69 5.46-4.98 9.795-10.44 10.44v3c8.25-.825 14.25-8.145 13.425-16.395C29.25 6.375 23.595.75 16.5.045zm-3 .045c-2.925.285-5.715 1.41-7.995 3.3L7.65 5.61a11.993 11.993 0 0 1 5.85-2.52v-3zM3.39 5.505C1.5 7.785.375 10.56.075 13.5h3a12.025 12.025 0 0 1 2.46-5.85L3.39 5.505zM.09 16.5a15.06 15.06 0 0 0 3.315 7.995l2.13-2.145A12.003 12.003 0 0 1 3.09 16.5h-3zm7.56 8.055L5.505 26.61A14.991 14.991 0 0 0 13.5 30v-3a12.004 12.004 0 0 1-5.85-2.445zm14.58-4.77l-6.165-6.165c.615-1.56.27-3.39-1.02-4.665-1.35-1.365-3.375-1.635-5.01-.885l2.91 2.91-2.025 2.04-2.985-2.925c-.81 1.635-.435 3.66.885 5.025 1.29 1.29 3.12 1.62 4.68 1.02l6.165 6.15a.63.63 0 0 0 .945 0l1.56-1.545c.33-.27.33-.75.06-.96z" />
    </symbol>
    <symbol id="user-icon" viewBox="0 0 17 20">
        <path fill="currentColor" fill-rule="evenodd"
            d="M9 1.995c-1.798 0-3.2 1.403-3.2 3.065S7.202 8.125 9 8.125c1.799 0 3.2-1.403 3.2-3.065S10.799 1.995 9 1.995zM3.8 5.06C3.8 2.232 6.16-.005 9-.005c2.84 0 5.2 2.237 5.2 5.065 0 2.828-2.36 5.064-5.2 5.064-2.84 0-5.2-2.236-5.2-5.064zm1.106 7.44h7.189c.835 0 1.455-.001 1.99.15a4 4 0 0 1 2.765 2.764c.15.536.15 1.156.15 1.991V19a1 1 0 1 1-2 0v-1.45c0-1.044-.01-1.36-.075-1.593a2 2 0 0 0-1.382-1.382c-.233-.066-.549-.075-1.593-.075h-6.9c-1.044 0-1.36.01-1.593.075a2 2 0 0 0-1.382 1.382C2.01 16.19 2 16.506 2 17.55V19a1 1 0 1 1-2 0v-1.595c0-.835 0-1.455.15-1.99a4 4 0 0 1 2.764-2.765c.536-.151 1.156-.15 1.992-.15z"
            clip-rule="evenodd" />
    </symbol>
    <symbol id="user-icon-on" viewBox="0 0 17 20">
        <path fill="currentColor"
            d="M13.2 5.06c0 2.245-1.88 4.065-4.2 4.065-2.32 0-4.2-1.82-4.2-4.065S6.68.995 9 .995c2.32 0 4.2 1.82 4.2 4.065zM16 19H1v-1.45c0-.977 0-1.465.113-1.864a3 3 0 0 1 2.073-2.073c.399-.113.887-.113 1.864-.113h6.9c.977 0 1.465 0 1.864.113a3 3 0 0 1 2.073 2.073c.113.399.113.887.113 1.864V19z" />
        <path fill="currentColor" fill-rule="evenodd"
            d="M9 1.995c-1.798 0-3.2 1.403-3.2 3.065S7.202 8.125 9 8.125c1.799 0 3.2-1.403 3.2-3.065S10.799 1.995 9 1.995zM3.8 5.06C3.8 2.232 6.16-.005 9-.005c2.84 0 5.2 2.237 5.2 5.065 0 2.828-2.36 5.064-5.2 5.064-2.84 0-5.2-2.236-5.2-5.064zm1.106 7.44h7.188c.836 0 1.456-.001 1.992.15a4 4 0 0 1 2.764 2.764c.15.536.15 1.156.15 1.991V19a1 1 0 0 1-1 1H1a1 1 0 0 1-1-1v-1.595c0-.835 0-1.455.15-1.99a4 4 0 0 1 2.764-2.765c.536-.151 1.156-.15 1.992-.15zm.144 2c-1.044 0-1.36.01-1.593.075a2 2 0 0 0-1.382 1.382C2.01 16.19 2 16.506 2 17.55V18h13v-.45c0-1.044-.01-1.36-.075-1.593a2 2 0 0 0-1.382-1.382c-.233-.066-.549-.075-1.593-.075h-6.9z"
            clip-rule="evenodd" />
    </symbol>
    <symbol id="top-arrow" viewBox="0 0 28 34">
        <path fill="currentColor" fill-rule="evenodd"
            d="M.778 11.703a1 1 0 0 1 .148-1.406L13.371.223a1 1 0 0 1 1.258 0l12.445 10.074a1 1 0 0 1-1.259 1.554L15 3.096V33a1 1 0 1 1-2 0V3.096L2.185 11.851a1 1 0 0 1-1.407-.148z"
            clip-rule="evenodd" />
    </symbol>
    <symbol id="search-icon" viewBox="0 0 19 19">
        <path fill="currentColor" fill-rule="evenodd"
            d="M7.375 2a5.375 5.375 0 1 0 0 10.75 5.375 5.375 0 0 0 0-10.75zM0 7.375a7.375 7.375 0 1 1 14.75 0 7.375 7.375 0 0 1-14.75 0z"
            clip-rule="evenodd" />
        <path fill="currentColor" fill-rule="evenodd"
            d="M18.707 18.707a1 1 0 0 1-1.414 0l-5.667-5.667a1 1 0 0 1 1.414-1.414l5.667 5.667a1 1 0 0 1 0 1.414z"
            clip-rule="evenodd" />
    </symbol>
    <symbol id="youtube-icon" viewBox="0 0 24 24">
        <path fill="currentColor" fill-rule="evenodd"
            d="M20.598 4.716a2.752 2.752 0 0 1 1.944 1.956C23 8.399 22.996 12 22.996 12s0 3.601-.458 5.328c-.252.95-.997 1.7-1.944 1.956-1.715.462-8.596.462-8.596.462s-6.88 0-8.596-.462a2.751 2.751 0 0 1-1.944-1.956C1 15.601 1 12 1 12s0-3.601.462-5.332c.252-.951.997-1.7 1.944-1.956 1.715-.462 8.596-.462 8.596-.462s6.877 0 8.596.466zM9.75 8.728v6.543L15.502 12l-5.75-3.272z"
            clip-rule="evenodd" />
    </symbol>
    <symbol id="stop-icon" viewBox="0 0 10 14">
        <path fill="currentColor" fill-rule="evenodd"
            d="M.75.25A.75.75 0 0 1 1.5 1v12A.75.75 0 0 1 0 13V1A.75.75 0 0 1 .75.25zm8 0A.75.75 0 0 1 9.5 1v12A.75.75 0 0 1 8 13V1a.75.75 0 0 1 .75-.75z"
            clip-rule="evenodd" />
    </symbol>
    <symbol id="x-icon" viewBox="0 0 24 24">
        <g clip-path="url(#a)">
            <path fill="currentColor" 
                d="M17.176 3h2.76l-6.03 7.625L21 21h-5.554l-4.35-6.293L6.116 21H3.355l6.45-8.155L3 3h5.695l3.933 5.752L17.176 3zm-.969 16.172h1.53L7.864 4.732h-1.64l9.983 14.44z" />
        </g>
        <defs>
            <clipPath id="a">
                <path fill="#fff" d="M0 0h24v24H0z" />
            </clipPath>
        </defs>
    </symbol>
    <symbol id="play-icon" viewBox="0 0 18 18">
        <path fill="currentColor" fill-rule="evenodd"
        d="M7.223 3.301l6.103 3.56c.629.367 1.15.67 1.508.958.37.296.681.664.681 1.181s-.312.885-.681 1.181c-.359.287-.88.591-1.508.957l-6.103 3.56c-.637.372-1.164.68-1.595.852-.444.178-.923.27-1.375.01-.453-.26-.615-.72-.685-1.193-.068-.46-.068-1.07-.068-1.807V5.44c0-.737 0-1.348.068-1.807.07-.473.232-.933.685-1.193.452-.26.931-.168 1.375.01.431.172.958.48 1.595.851zm-1.967.077c-.35-.14-.456-.099-.505-.07-.05.028-.138.099-.194.472-.056.377-.057.912-.057 1.702v7.036c0 .79.001 1.325.057 1.702.056.373.145.444.194.473.05.028.155.069.505-.071.354-.142.817-.41 1.5-.808l6.03-3.518c.674-.393 1.129-.66 1.423-.895.29-.232.306-.344.306-.401 0-.057-.017-.169-.306-.4-.294-.236-.749-.503-1.422-.896L6.756 4.186c-.683-.398-1.146-.666-1.5-.808z"
        clip-rule="evenodd" />
    </symbol>
    <symbol id="viewing-icon" viewBox="0 0 18 18">
        <g fill="currentColor" fill-rule="evenodd" clip-path="url(#a)" clip-rule="evenodd">
            <path
                d="M3.012 7.776C2.652 8.292 2.5 8.718 2.5 9c0 .282.152.708.512 1.224.35.503.86 1.04 1.485 1.531 1.256.99 2.9 1.745 4.503 1.745 1.603 0 3.247-.756 4.503-1.745.624-.492 1.135-1.028 1.485-1.53.36-.517.512-.943.512-1.225 0-.282-.152-.708-.512-1.224-.35-.503-.86-1.04-1.485-1.531C12.247 5.255 10.603 4.5 9 4.5c-1.603 0-3.247.756-4.503 1.745-.624.492-1.135 1.028-1.485 1.53zm.866-2.316C5.248 4.38 7.103 3.5 9 3.5c1.897 0 3.753.88 5.122 1.96.688.542 1.271 1.148 1.687 1.744.406.583.691 1.214.691 1.796 0 .582-.285 1.213-.691 1.796-.416.596-.999 1.202-1.687 1.745C12.752 13.618 10.897 14.5 9 14.5c-1.897 0-3.753-.88-5.122-1.96-.688-.542-1.271-1.148-1.687-1.744C1.785 10.213 1.5 9.582 1.5 9c0-.582.285-1.213.691-1.796.416-.596.999-1.202 1.687-1.744z" />
            <path
                d="M9 7.5a1.5 1.5 0 1 0 0 3 1.5 1.5 0 0 0 0-3zM6.5 9a2.5 2.5 0 1 1 5 0 2.5 2.5 0 0 1-5 0z" />
        </g>
        <defs>
            <clipPath id="a">
                <path fill="currentColor" d="M0 0h18v18H0z" />
            </clipPath>
        </defs>
    </symbol>
    <symbol id="linkedin-icon" viewBox="0 0 14 15">
        <path fill="currentColor"
            d="M3.13 5.166H.21V14.5h2.92V5.166zm10.52 4.329V14.5h-2.92V9.834c0-1.227-.146-2.22-1.576-2.22-1.429 0-1.574.995-1.574 2.22V14.5H4.66V5.166h2.92V6.5c.44-.97 1.27-1.584 2.808-1.584.119 0 .233.005.343.011 2.636.157 2.92 2.14 2.92 4.567zM3.344 2.171a1.672 1.672 0 1 0-3.34.002 1.672 1.672 0 0 0 3.338-.002h.002z" />
    </symbol>
    <symbol id="weibo-icon" viewBox="0 0 20 17">
        <path fill="currentColor"
            d="M14.613.4a5.32 5.32 0 0 0-1.016.115.766.766 0 0 0 .32 1.496 3.763 3.763 0 1 1 4.369 4.84.765.765 0 0 0 1.456.473V7.32a5.282 5.282 0 0 0-1.107-5.174A5.276 5.276 0 0 0 14.614.399zM8.406 2.684C6.996 2.66 4.87 3.778 2.981 5.667 1.096 7.552 0 9.553 0 11.283c0 3.306 4.242 5.319 8.39 5.319 5.439 0 9.057-3.16 9.057-5.669.002-1.517-1.275-2.38-2.423-2.735-.282-.086-.475-.14-.33-.51.32-.804.354-1.496.007-1.993-.649-.927-2.426-.877-4.463-.025 0 0-.64.279-.474-.226.312-1.007.265-1.85-.22-2.338-.277-.276-.668-.412-1.138-.42zm6.42.436a2.57 2.57 0 0 0-.66.055.658.658 0 1 0 .273 1.289 1.26 1.26 0 0 1 1.463 1.62.66.66 0 0 0 1.255.406 2.576 2.576 0 0 0-2.331-3.37zM8.238 7.504c3.043-.099 5.568 1.346 5.768 3.382.218 2.175-2.294 4.203-5.602 4.529-3.312.328-6.172-1.17-6.387-3.342-.215-2.175 2.296-4.2 5.605-4.53a9.25 9.25 0 0 1 .616-.04zm-.406 1.604c-1.305.014-2.585.744-3.141 1.872-.698 1.415-.022 2.989 1.568 3.502 1.65.532 3.593-.284 4.269-1.81.668-1.496-.166-3.033-1.797-3.455a3.417 3.417 0 0 0-.899-.11zm.44 1.848a.383.383 0 0 1 .153.027c.199.072.27.295.16.496-.115.199-.372.293-.571.21-.198-.08-.259-.303-.146-.497a.491.491 0 0 1 .404-.236zm-1.519.466c.14.002.277.028.405.082.52.223.685.812.37 1.328-.32.51-1.007.734-1.523.5-.508-.232-.66-.825-.34-1.325.238-.373.67-.59 1.088-.585z" />
    </symbol>
    <symbol id="tiktok-icon" viewBox="0 0 18 21">
        <g clip-path="url(#a)">
            <path fill="currentColor"
                d="M17.754 5.503V8.77s-2.823.153-5.058-1.71v7.482c0 .29-.027.57-.081.86-.271 1.33-1.402 4.695-5.854 5.084a4.247 4.247 0 0 1-.678 0c-1.267-.108-5.058-.814-5.81-5.374a4.895 4.895 0 0 1-.017-1.583c.226-1.556 1.837-5.836 7.13-5.32v3.248s-2.272-.543-3.375 1.212a3.108 3.108 0 0 0-.154 3.05c.37.741 1.122 1.501 2.587 1.556.616 0 2.57-.218 3.004-2.633V.5h3.248s0 4.687 5.067 5.003h-.009z" />
        </g>
        <defs>
            <clipPath id="a">
                <path fill="#fff" d="M0 0h18v21H0z" />
            </clipPath>
        </defs>
    </symbol>
    <symbol id="pinterest-icon" viewBox="0 0 16 19">
        <path fill="currentColor"
            d="M13.027 2.345C11.787 1.155 10.073.5 8.199.5 5.335.5 3.574 1.674 2.6 2.658 1.401 3.872.714 5.483.714 7.078c0 2.004.838 3.542 2.242 4.114a.742.742 0 0 0 .282.058c.296 0 .53-.193.612-.504.047-.178.157-.618.204-.81.103-.376.02-.558-.203-.82-.406-.48-.595-1.049-.595-1.788 0-2.195 1.635-4.529 4.665-4.529 2.404 0 3.898 1.367 3.898 3.566 0 1.388-.3 2.674-.842 3.62-.377.658-1.041 1.441-2.06 1.441-.44 0-.836-.18-1.086-.496-.236-.298-.313-.684-.218-1.085.107-.454.253-.927.394-1.384.258-.836.502-1.625.502-2.255 0-1.077-.662-1.8-1.647-1.8-1.252 0-2.233 1.272-2.233 2.895 0 .796.211 1.392.307 1.62l-1.273 5.392c-.103.437-.722 3.891.303 4.167 1.152.31 2.181-3.055 2.286-3.435.085-.31.382-1.479.564-2.197.557.535 1.452.897 2.323.897 1.642 0 3.12-.739 4.159-2.08 1.008-1.302 1.564-3.116 1.564-5.108 0-1.558-.67-3.093-1.835-4.212z" />
    </symbol>
    <symbol id="link-icon" viewBox="0 0 18 19">
        <path fill="currentColor" fill-rule="evenodd"
            d="M9.716 2.516c1.688-1.688 4.48-1.688 6.168 0 1.688 1.688 1.688 4.48 0 6.168l-3.081 3.08c-1.466 1.588-3.853 1.672-5.496.576a1.25 1.25 0 0 1 1.386-2.08c.748.498 1.746.388 2.282-.2a.576.576 0 0 1 .041-.044l3.1-3.1c.712-.712.712-1.92 0-2.632-.686-.686-1.834-.711-2.554-.074l-.122.183a1.25 1.25 0 1 1-2.08-1.386l.2-.3a1.25 1.25 0 0 1 .156-.19z"
            clip-rule="evenodd" />
        <path fill="currentColor" fill-rule="evenodd"
            d="M5.16 7.175c1.471-1.338 3.737-1.69 5.49-.375a1.25 1.25 0 1 1-1.5 2c-.64-.48-1.559-.438-2.283.201l-3.07 3.169-.013.014c-.712.712-.712 1.92 0 2.632.712.712 1.92.712 2.632 0l.884.884-.884-.884.3-.3a1.25 1.25 0 1 1 1.768 1.768l-.3.3c-1.688 1.688-4.48 1.688-6.168 0-1.686-1.686-1.688-4.471-.008-6.16L5.102 7.23l.057-.055z"
            clip-rule="evenodd" />
    </symbol>
</svg>