<svg width="30" height="35" viewBox="0 0 30 35" fill="none" xmlns="http://www.w3.org/2000/svg">
<path fill-rule="evenodd" clip-rule="evenodd" d="M9.23588 0.0905949C9.53656 -0.0235187 18.1086 -0.0330278 18.4849 0.0803321C18.7958 0.174104 19.307 0.605204 19.4685 0.90986C19.5383 1.04151 19.5955 1.35777 19.6182 1.73558L19.6552 2.34812L25.6046 2.41615L25.9232 2.60469C26.0986 2.70847 26.3219 2.89845 26.4192 3.02693C26.7713 3.49143 26.7877 3.66019 26.7877 6.80541L26.6167 21.2346H25.4354V6.80335C25.4354 4.30707 25.4225 3.94397 25.3294 3.85001C25.2362 3.75624 24.8782 3.74298 22.4221 3.74298H19.6211V3.98196C19.6211 4.56078 19.0765 5.22309 18.4456 5.41172C17.9332 5.56474 9.80302 5.56088 9.2886 5.40732C8.68777 5.22774 8.26365 4.74978 8.12417 4.09514L8.04903 3.74298H5.25125C2.55451 3.74298 2.45104 3.7478 2.38357 3.87464C2.33598 3.96488 2.31367 8.50087 2.31367 18.0523C2.31367 31.5719 2.31814 32.1026 2.43716 32.2111C2.55115 32.315 3.44274 32.3237 13.8863 32.3237C24.7723 32.3237 25.216 32.3187 25.3235 32.1991C25.4257 32.0854 25.4354 31.5891 25.4354 26.4672V21.2346H26.6167V32.6618C26.4671 33.0509 26.2069 33.3161 25.8009 33.5189C25.5435 33.6475 25.2566 33.6511 14.0127 33.6685C1.05305 33.6885 2.01287 33.7256 1.47253 33.1817C0.913614 32.6191 0.957947 33.9961 0.977689 17.8948L0.995164 3.57291L1.14108 3.3008C1.33213 2.94453 1.60048 2.69463 1.97552 2.52376C2.26617 2.39134 2.40868 2.38503 5.16999 2.3836L8.06039 2.38213V2.02264C8.06039 1.0639 8.47726 0.378579 9.23588 0.0905949ZM9.51782 1.51243C9.43304 1.63424 9.41238 1.87914 9.41238 2.77153C9.41238 3.78805 9.42353 3.89022 9.54753 4.01509C9.67983 4.14827 9.77304 4.15144 13.8453 4.15144C16.5851 4.15144 18.0522 4.12712 18.1383 4.08078C18.2603 4.01504 18.2691 3.92643 18.2691 2.76743C18.2691 1.89151 18.245 1.50051 18.1878 1.44294C18.1258 1.3812 17.0728 1.36142 13.8648 1.36142H9.62296L9.51782 1.51243Z" fill="#BBBBBB"/>
<path fill-rule="evenodd" clip-rule="evenodd" d="M5.65842 23.069C7.24853 23.069 7.42059 23.1025 7.57399 23.4414C7.62704 23.5588 7.65467 24.0392 7.65467 24.8404V26.0611L7.26031 26.5056L5.91938 26.5267C4.37539 26.5513 4.21774 26.5322 3.9776 26.2904L3.8011 26.1127V23.4669L3.99857 23.2678L4.19633 23.069H5.65842ZM4.85485 25.4787H6.60062V24.1296H4.85485V25.4787Z" fill="#BBBBBB"/>
<path d="M13.5907 24.095C17.9566 24.0892 22.1985 24.0892 22.3777 24.4264C22.5155 24.6856 22.4605 25.0394 22.2495 25.2518L22.0521 25.4509H13.6396C9.07523 25.4509 9.17842 25.4596 9.00987 25.05C8.86691 24.7024 9.05854 24.2681 9.41238 24.1378C9.46816 24.1173 11.3485 24.0979 13.5907 24.095Z" fill="#BBBBBB"/>
<path fill-rule="evenodd" clip-rule="evenodd" d="M7.45691 17.8922L7.65467 18.091V20.6977L7.45691 20.8965L7.25944 21.0956H4.15118L3.97614 20.8863C3.80124 20.6772 3.8011 20.6755 3.8011 19.3838V18.091L4.19633 17.6931H7.25944L7.45691 17.8922ZM4.85485 20.0348H6.60062V18.754H4.85485V20.0348Z" fill="#BBBBBB"/>
<path d="M22.1211 18.7478L22.2842 18.9387C22.5236 19.2188 22.5089 19.6148 22.2495 19.8758L22.0521 20.0749H9.41471L9.1954 19.8776C9.01395 19.7144 8.97609 19.6312 8.97609 19.3944C8.97609 19.1572 9.01381 19.0743 9.19686 18.9097L9.41792 18.7109L22.1211 18.7478Z" fill="#BBBBBB"/>
<path fill-rule="evenodd" clip-rule="evenodd" d="M7.45691 12.5162L7.65467 12.715V15.3218L7.25944 15.7197H4.19633L3.99857 15.5209L3.8011 15.3218V14.029C3.8011 12.7372 3.80124 12.7356 3.97614 12.5265L4.15118 12.3171H7.25944L7.45691 12.5162ZM4.85485 14.6591H6.60062V13.378H4.85485V14.6591Z" fill="#BBBBBB"/>
<path d="M22.2495 13.5369C22.5913 13.881 22.4937 14.4423 22.0605 14.623C21.9221 14.6807 16.512 14.697 13.4905 14.6834L9.35559 14.665L9.18229 14.501C8.84955 14.1863 8.91534 13.6064 9.30549 13.4158C9.39514 13.372 10.9618 13.3454 13.6262 13.3425L22.0521 13.3378L22.2495 13.5369Z" fill="#BBBBBB"/>
<path fill-rule="evenodd" clip-rule="evenodd" d="M4.17914 6.97518C4.34201 6.88794 4.62171 6.8733 5.81803 6.88868L7.26031 6.90745L7.65467 7.35168V8.57237C7.65467 9.37348 7.62703 9.85392 7.57399 9.97134C7.42059 10.3103 7.24853 10.3437 5.65842 10.3437H4.19633L3.8011 9.94612L3.80314 8.63072C3.80544 7.212 3.81489 7.1701 4.17914 6.97518ZM4.85485 9.28314H6.60062V7.93402H4.85485V9.28314Z" fill="#BBBBBB"/>
<path d="M22.2394 8.1384C22.4142 8.2865 22.4473 8.36266 22.4473 8.61753C22.4473 8.98021 22.2476 9.22356 21.8971 9.28754C21.7721 9.3104 15.6236 9.3199 13.4232 9.30894C9.50421 9.28935 9.41834 9.28624 9.23559 9.14885C8.88591 8.88597 8.86009 8.44394 9.1756 8.12638L9.3387 7.96217H22.0314L22.2394 8.1384Z" fill="#BBBBBB"/>
<ellipse cx="22.8579" cy="28.626" rx="6.17432" ry="6.17426" fill="#FF5B53"/>
<path d="M25.344 26.5594C25.5554 26.3818 25.8714 26.4095 26.049 26.621C26.2264 26.8324 26.1989 27.1475 25.9875 27.3251L21.9787 30.6932C21.7879 30.8536 21.5078 30.8482 21.3225 30.6815L19.718 29.2381C19.5131 29.0534 19.4964 28.7372 19.6809 28.5321C19.8656 28.3268 20.1827 28.3102 20.3879 28.495L21.6682 29.6473L25.344 26.5594Z" fill="white"/>
</svg>
