<svg width="37" height="34" viewBox="0 0 37 34" fill="none" xmlns="http://www.w3.org/2000/svg">
<path d="M32.9531 14.4764C32.7342 14.4764 32.5243 14.4001 32.3695 14.2644C32.2147 14.1286 32.1277 13.9445 32.1277 13.7525C32.1277 10.4891 30.6494 7.35928 28.0179 5.05166C25.3864 2.74404 21.8173 1.44764 18.0958 1.44764C14.3743 1.44764 10.8052 2.74404 8.17375 5.05166C5.54226 7.35928 4.0639 10.4891 4.0639 13.7525C4.0639 13.9445 3.97694 14.1286 3.82214 14.2644C3.66735 14.4001 3.4574 14.4764 3.23849 14.4764C3.01958 14.4764 2.80964 14.4001 2.65484 14.2644C2.50005 14.1286 2.41309 13.9445 2.41309 13.7525C2.41309 10.1051 4.06537 6.60713 7.00645 4.02803C9.94753 1.44892 13.9365 0 18.0958 0C22.2551 0 26.2441 1.44892 29.1852 4.02803C32.1263 6.60713 33.7785 10.1051 33.7785 13.7525C33.7785 13.8476 33.7572 13.9417 33.7157 14.0295C33.6742 14.1174 33.6134 14.1971 33.5368 14.2644C33.4601 14.3316 33.3691 14.3849 33.269 14.4213C33.1689 14.4576 33.0615 14.4764 32.9531 14.4764Z" fill="#BBBBBB"/>
<path d="M3.37243 22.9566H2.49223C2.16041 22.9566 1.83192 22.8895 1.52604 22.7592C1.22015 22.6289 0.943035 22.4379 0.710943 22.1975C0.47885 21.9572 0.296461 21.6722 0.174478 21.3595C0.0524949 21.0467 -0.0066245 20.7124 0.000588875 20.3761V15.4211C0.000588875 15.1831 0.0468233 14.9475 0.136653 14.7277C0.226482 14.5079 0.358147 14.3082 0.52413 14.1399C0.690112 13.9717 0.887163 13.8382 1.10403 13.7472C1.3209 13.6561 1.55333 13.6093 1.78807 13.6093H3.37243C4.03091 13.6092 4.66263 13.8734 5.12951 14.3441C5.5964 14.8148 5.86049 15.4536 5.86407 16.1211V20.3761C5.87128 20.7124 5.81216 21.0467 5.69018 21.3595C5.56819 21.6722 5.3858 21.9572 5.15371 22.1975C4.92162 22.4379 4.6445 22.6289 4.33861 22.7592C4.03273 22.8895 3.70424 22.9566 3.37243 22.9566ZM1.78807 14.9818C1.67314 14.9818 1.56292 15.0281 1.48166 15.1105C1.40039 15.1929 1.35474 15.3046 1.35474 15.4211V20.3761C1.35474 20.6819 1.47458 20.9752 1.6879 21.1914C1.90122 21.4076 2.19055 21.5291 2.49223 21.5291H3.37243C3.67411 21.5291 3.96343 21.4076 4.17675 21.1914C4.39007 20.9752 4.50991 20.6819 4.50991 20.3761V16.1211C4.50635 15.8177 4.38494 15.5279 4.172 15.3147C3.95907 15.1014 3.67178 14.9818 3.37243 14.9818H1.78807ZM33.3743 22.9566H33.0628C32.3382 22.9568 31.6421 22.6698 31.1234 22.1568C30.6047 21.6439 30.3045 20.9457 30.2868 20.2114V16.4093C30.2867 16.043 30.3589 15.6803 30.4992 15.3427C30.6396 15.0051 30.8451 14.6994 31.1038 14.4435C31.3625 14.1877 31.6691 13.9869 32.0056 13.8531C32.342 13.7192 32.7015 13.655 33.0628 13.6642H34.417C34.6397 13.6512 34.8628 13.6834 35.0731 13.7589C35.2835 13.8343 35.4769 13.9515 35.6421 14.1036C35.8072 14.2556 35.9408 14.4395 36.035 14.6445C36.1293 14.8496 36.1823 15.0715 36.1909 15.2975V20.1565C36.1892 20.5283 36.1147 20.8961 35.9719 21.2387C35.829 21.5812 35.6206 21.8916 35.3587 22.1519C35.0968 22.4123 34.7866 22.6175 34.4459 22.7556C34.1053 22.8937 33.7411 22.962 33.3743 22.9566ZM33.0628 14.9818C32.8794 14.9725 32.696 15.0011 32.5238 15.0659C32.3516 15.1307 32.1942 15.2304 32.0612 15.3588C31.9282 15.4872 31.8224 15.6416 31.7501 15.8128C31.6779 15.984 31.6407 16.1683 31.641 16.3544V20.1016C31.6407 20.2878 31.6779 20.472 31.7501 20.6432C31.8224 20.8144 31.9282 20.9688 32.0612 21.0972C32.1942 21.2256 32.3516 21.3253 32.5238 21.3901C32.696 21.4549 32.8794 21.4835 33.0628 21.4742H33.3743C33.7334 21.4742 34.0778 21.3296 34.3318 21.0721C34.5858 20.8147 34.7284 20.4656 34.7284 20.1016V15.2975C34.7285 15.2549 34.72 15.2127 34.7035 15.1735C34.687 15.1342 34.6628 15.0988 34.6325 15.0693C34.6021 15.0398 34.5661 15.0168 34.5268 15.0018C34.4874 14.9868 34.4454 14.98 34.4034 14.9818H33.0628ZM18.4461 33.9666C17.8772 33.9693 17.3203 33.8006 16.8461 33.4819C16.3719 33.1632 16.0019 32.7089 15.7829 32.1766C15.5639 31.6444 15.5059 31.0582 15.6163 30.4924C15.7266 29.9267 16.0003 29.4069 16.4026 28.9992C16.8049 28.5914 17.3177 28.314 17.8758 28.2021C18.434 28.0903 19.0123 28.1491 19.5374 28.371C20.0625 28.5929 20.5108 28.968 20.8252 29.4487C21.1396 29.9293 21.306 30.4938 21.3034 31.0704C21.2998 31.8374 20.9976 32.572 20.4625 33.1144C19.9275 33.6567 19.2028 33.963 18.4461 33.9666ZM18.4461 29.5332C18.1456 29.5304 17.851 29.6183 17.5998 29.7855C17.3486 29.9528 17.1521 30.1919 17.0353 30.4726C16.9184 30.7532 16.8864 31.0628 16.9434 31.3619C17.0004 31.661 17.1438 31.9362 17.3553 32.1525C17.5669 32.3689 17.8371 32.5167 18.1317 32.5771C18.4262 32.6376 18.7319 32.6079 19.0098 32.492C19.2877 32.3761 19.5254 32.179 19.6926 31.9259C19.8599 31.6728 19.9492 31.3751 19.9492 31.0704C19.9492 30.6651 19.7913 30.2761 19.5098 29.9882C19.2283 29.7003 18.846 29.5368 18.4461 29.5332Z" fill="#BBBBBB"/>
<path d="M21.2054 31.7014C21.0019 31.7188 20.7986 31.6665 20.6403 31.5563C20.482 31.446 20.3816 31.2867 20.3613 31.1135C20.3409 30.9402 20.4022 30.7672 20.5318 30.6324C20.6613 30.4977 20.8484 30.4122 21.0519 30.3949C23.5138 29.9847 25.7845 28.9789 27.592 27.4982C29.3995 26.0174 30.6672 24.1245 31.2432 22.0461C31.29 21.8728 31.4157 21.7225 31.5928 21.6282C31.7698 21.5338 31.9836 21.5032 32.1871 21.5431C32.3906 21.5829 32.5672 21.69 32.678 21.8406C32.7889 21.9913 32.8248 22.1733 32.778 22.3466C32.1465 24.6657 30.744 26.7811 28.7382 28.44C26.7323 30.0989 24.2078 31.2311 21.4663 31.7014H21.2054Z" fill="#BBBBBB"/>
<path d="M27.6504 15.8335C27.6504 10.6262 23.429 6.4048 18.2217 6.40479C13.0144 6.40479 8.79297 10.6262 8.79297 15.8335C8.79298 21.0408 13.0144 25.2622 18.2217 25.2622C23.429 25.2622 27.6504 21.0408 27.6504 15.8335ZM29.1504 15.8335C29.1504 21.8692 24.2574 26.7622 18.2217 26.7622C12.1859 26.7622 7.29298 21.8692 7.29297 15.8335C7.29297 9.79775 12.1859 4.90479 18.2217 4.90479C24.2574 4.9048 29.1504 9.79775 29.1504 15.8335Z" fill="#BBBBBB"/>
<path d="M14.7917 11.3096H15.131C15.5833 11.3096 15.8094 11.4891 15.8094 11.8481V13.4423C15.8094 13.8014 15.5833 13.9809 15.131 13.9809H14.7917C14.3394 13.9809 14.1133 13.8014 14.1133 13.4423V11.8481C14.1133 11.4891 14.3394 11.3096 14.7917 11.3096Z" fill="#FF5B53"/>
<path d="M20.7654 11.3096H21.1046C21.5569 11.3096 21.783 11.4891 21.783 11.8481V13.4423C21.783 13.8014 21.5569 13.9809 21.1046 13.9809H20.7654C20.3131 13.9809 20.0869 13.8014 20.0869 13.4423V11.8481C20.0869 11.4891 20.3131 11.3096 20.7654 11.3096Z" fill="#FF5B53"/>
<path d="M14.7849 19.4276C15.7272 19.9066 16.8221 20.162 17.941 20.1638C19.0618 20.1627 20.159 19.9077 21.1036 19.4288C22.0482 18.9499 22.801 18.2669 23.2736 17.4602C23.3051 17.4088 23.323 17.3529 23.3262 17.2958C23.3295 17.2388 23.3181 17.1818 23.2927 17.1284C23.2673 17.0749 23.2285 17.0262 23.1785 16.9851C23.1286 16.944 23.0686 16.9114 23.0023 16.8893C22.8721 16.8441 22.7251 16.8401 22.5914 16.8781C22.4577 16.9162 22.3474 16.9934 22.2831 17.0939C21.9021 17.754 21.2904 18.3133 20.5207 18.7054C19.7509 19.0975 18.8556 19.3059 17.941 19.3059C17.0264 19.3059 16.1311 19.0975 15.3614 18.7054C14.5916 18.3133 13.9799 17.754 13.5989 17.0939C13.5372 16.9915 13.427 16.9125 13.2924 16.8742C13.1577 16.8358 13.0094 16.8413 12.8798 16.8893C12.8146 16.9124 12.756 16.9457 12.7075 16.9873C12.659 17.0288 12.6215 17.0777 12.5974 17.1311C12.5734 17.1844 12.5631 17.241 12.5673 17.2976C12.5715 17.3542 12.5901 17.4095 12.6219 17.4602C13.0922 18.2661 13.8426 18.9487 14.7849 19.4276Z" fill="#FF5B53"/>
</svg>
