<svg width="41" height="40" viewBox="0 0 41 40" fill="none" xmlns="http://www.w3.org/2000/svg">
<path d="M5.24693 25.2189C4.52186 23.3717 4.16312 21.3405 4.25878 19.2228C4.3428 17.3635 4.77192 15.603 5.47626 14C2.56245 14.0229 0.141487 16.3658 0.00593228 19.363C-0.133787 22.455 2.21149 25.0738 5.24693 25.2189Z" fill="#FF5B53"/>
<path d="M35.2293 25.2189C35.9544 23.3717 36.3131 21.3405 36.2175 19.2228C36.1335 17.3635 35.7043 15.603 35 14C37.9138 14.0229 40.3348 16.3658 40.4703 19.363C40.61 22.455 38.2648 25.0738 35.2293 25.2189Z" fill="#FF5B53"/>
<path d="M20.2197 5.16479C28.3869 5.16484 35.0078 11.7857 35.0078 19.9529C35.0078 27.2083 29.7822 33.2418 22.8896 34.4988L20.8936 38.8533C20.704 39.2668 20.1164 39.2668 19.9268 38.8533L17.9619 34.5691C10.8664 33.4821 5.43168 27.3524 5.43164 19.9529C5.43164 11.7857 12.0525 5.16479 20.2197 5.16479Z" fill="#FF5B53"/>
<path d="M30.9579 19.797C30.9579 25.4306 26.1962 26.7906 20.3222 26.7906C14.4482 26.7906 9.68652 25.4306 9.68652 19.797C9.68652 14.1634 14.4482 9.59631 20.3222 9.59631C26.1962 9.59631 30.9579 14.1634 30.9579 19.797Z" fill="white"/>
<path d="M20.3216 21.6034C19.922 21.6034 19.3444 21.5095 18.8624 21.0852C18.3198 20.6071 18.0449 19.8605 18.0449 18.7944H18.7934C18.7934 19.632 18.9814 20.1875 19.3527 20.5145C19.6604 20.7852 20.0496 20.8377 20.322 20.8377C20.7 20.8377 21.8506 20.8504 21.8506 18.7949H22.5991C22.5991 21.2315 21.1724 21.6038 20.322 21.6038L20.3216 21.6034Z" fill="#222222"/>
<path d="M16.9099 17.9024C17.0281 17.1231 16.5029 16.3939 15.7368 16.2736C14.9708 16.1534 14.254 16.6877 14.1359 17.467C14.0177 18.2463 14.5429 18.9755 15.3089 19.0957C16.0749 19.216 16.7917 18.6817 16.9099 17.9024Z" fill="#222222"/>
<path d="M26.5236 17.6853C26.5236 18.4739 25.8953 19.1131 25.1202 19.1131C24.3451 19.1131 23.7168 18.4739 23.7168 17.6853C23.7168 16.8968 24.3451 16.2576 25.1202 16.2576C25.8953 16.2576 26.5236 16.8968 26.5236 17.6853Z" fill="#222222"/>
<path d="M24.9794 0.382262C25.6135 0.552168 25.9962 1.18058 25.834 1.78565C25.6719 2.39073 25.0263 2.74359 24.3922 2.57369C24.3705 2.56789 24.3497 2.56008 24.3287 2.55324L22.4183 5.9055L22.027 5.69402L23.9374 2.34175C23.5913 2.06247 23.4199 1.61085 23.5379 1.17041C23.7 0.565377 24.3453 0.212439 24.9794 0.382262Z" fill="#FF5B53"/>
<path d="M15.1486 0.547057C14.5145 0.716963 14.1318 1.34538 14.2939 1.95045C14.456 2.55552 15.1017 2.90839 15.7358 2.73848C15.7574 2.73269 15.7782 2.72488 15.7992 2.71804L17.7096 6.0703L18.1009 5.85881L16.1905 2.50655C16.5367 2.22727 16.708 1.77564 16.59 1.3352C16.4279 0.730172 15.7826 0.377234 15.1486 0.547057Z" fill="#FF5B53"/>
</svg>
