<svg width="22" height="16" viewBox="0 0 22 16" fill="none" xmlns="http://www.w3.org/2000/svg">
<path d="M0.90918 7.99954C0.909274 5.22454 2.06635 2.71635 3.92383 0.917509C4.32058 0.533538 4.95376 0.544292 5.33789 0.940946C5.72186 1.3377 5.71208 1.97088 5.31543 2.35501C3.82695 3.79651 2.90927 5.79339 2.90918 7.99954C2.90918 10.1653 3.79308 12.13 5.2334 13.565C5.62453 13.9547 5.62592 14.5878 5.23633 14.979C4.84665 15.3702 4.21354 15.3714 3.82227 14.982C2.02438 13.1907 0.90918 10.7234 0.90918 7.99954Z" fill="#FF5B53"/>
<path d="M21.0908 8.00047C21.0907 10.7755 19.9337 13.2837 18.0762 15.0825C17.6794 15.4665 17.0462 15.4557 16.6621 15.0591C16.2781 14.6623 16.2879 14.0291 16.6846 13.645C18.1731 12.2035 19.0907 10.2066 19.0908 8.00047C19.0908 5.83469 18.2069 3.87006 16.7666 2.43504C16.3755 2.0453 16.3741 1.41222 16.7637 1.02098C17.1534 0.629857 17.7865 0.628615 18.1777 1.01805C19.9756 2.80931 21.0908 5.2766 21.0908 8.00047Z" fill="#FF5B53"/>
<path d="M4.31836 8.00027C4.31836 6.15916 5.08625 4.49531 6.31641 3.30398C6.71315 2.91988 7.34629 2.93072 7.73047 3.32742C8.11457 3.72416 8.10471 4.35731 7.70801 4.74148C6.84693 5.57546 6.31836 6.72807 6.31836 8.00027C6.31843 9.24913 6.82804 10.3822 7.66113 11.2122C8.05224 11.602 8.05273 12.235 7.66309 12.6262C7.27328 13.0175 6.64027 13.019 6.24902 12.6292C5.05841 11.4429 4.31844 9.80719 4.31836 8.00027Z" fill="#FF5B53"/>
<path d="M17.6816 7.99974C17.6816 9.84085 16.9138 11.5047 15.6836 12.696C15.2869 13.0801 14.6537 13.0693 14.2695 12.6726C13.8854 12.2758 13.8953 11.6427 14.292 11.2585C15.1531 10.4246 15.6816 9.27194 15.6816 7.99974C15.6816 6.75088 15.172 5.61785 14.3389 4.78782C13.9478 4.39805 13.9473 3.76498 14.3369 3.37376C14.7267 2.98252 15.3597 2.98103 15.751 3.37083C16.9416 4.5571 17.6816 6.19282 17.6816 7.99974Z" fill="#FF5B53"/>
<path d="M13.2728 8.00003C13.2728 9.23355 12.2553 10.2335 11.0001 10.2335C9.74489 10.2335 8.72736 9.23355 8.72736 8.00003C8.72736 6.76652 9.74489 5.76656 11.0001 5.76656C12.2553 5.76656 13.2728 6.76652 13.2728 8.00003Z" fill="#FF5B53"/>
</svg>
