<svg width="18" height="18" viewBox="0 0 18 18" fill="none" xmlns="http://www.w3.org/2000/svg">
<path d="M14.4992 6.99847C14.7322 7.26625 14.7041 7.67191 14.4364 7.905L9.42286 12.2706C9.18088 12.4813 8.81984 12.4813 8.57786 12.2706L3.56432 7.905C3.29655 7.67188 3.26844 7.26625 3.50154 6.99847C3.73467 6.73069 4.1403 6.70256 4.40807 6.93569L8.35687 10.3735V0.64272C8.35687 0.287847 8.64492 0.000133926 8.99973 -0.000137329C9.35477 -0.000137329 9.64259 0.28768 9.64259 0.64272V10.3747L13.5926 6.93569C13.8604 6.70256 14.266 6.73069 14.4992 6.99847Z" fill="#312F2D"/>
<path d="M0 14.7859V10.6713C0 10.3163 0.287817 10.0285 0.642857 10.0285C0.997897 10.0285 1.28571 10.3163 1.28571 10.6713V14.7859L1.29199 15.5706C1.29733 15.7866 1.30718 15.9618 1.32715 16.1105C1.36464 16.3893 1.42511 16.4772 1.47405 16.5261C1.52301 16.575 1.61105 16.6355 1.88965 16.673C2.18693 16.7129 2.59037 16.7144 3.21429 16.7144H14.7857C15.4096 16.7144 15.8131 16.7129 16.1104 16.673C16.3889 16.6355 16.477 16.575 16.5259 16.5261C16.5749 16.4772 16.6354 16.3893 16.6729 16.1105C16.7128 15.8132 16.7143 15.4098 16.7143 14.7859V10.6713C16.7143 10.3163 17.0021 10.0285 17.3571 10.0285C17.7122 10.0285 18 10.3163 18 10.6713V14.7859C18 15.3737 18.0014 15.8797 17.9473 16.2825C17.8906 16.7037 17.7625 17.1076 17.435 17.4351C17.1074 17.7626 16.7037 17.8907 16.2824 17.9474C15.8795 18.0016 15.3736 18.0001 14.7857 18.0001H3.21429C2.62637 18.0001 2.12054 18.0016 1.71763 17.9474C1.29635 17.8907 0.892585 17.7626 0.565011 17.4351C0.237487 17.1076 0.109421 16.7037 0.0527344 16.2825C0.025651 16.0811 0.0127082 15.8535 0.0062779 15.6032L0 14.7859Z" fill="#312F2D"/>
</svg>
