<svg width="20" height="18" viewBox="0 0 20 18" fill="none" xmlns="http://www.w3.org/2000/svg">
<path d="M14.5457 0C13.6243 0.0563299 12.7296 0.342872 11.9381 0.835188C11.156 1.32163 10.4975 1.99471 10.0173 2.79819C10.0096 2.81118 10.0057 2.81767 10 2.81767C9.99433 2.81767 9.99045 2.81118 9.98268 2.79819C9.50248 1.99471 8.84398 1.32163 8.0619 0.835188C7.27037 0.342872 6.37573 0.0563299 5.45429 0C4.00772 0 2.6204 0.595762 1.59752 1.65622C0.574646 2.71669 0 4.15498 0 5.6547C0 11.0547 10 18 10 18C10 18 20 11.1272 20 5.6547C20 4.15498 19.4254 2.71669 18.4025 1.65622C17.3796 0.595762 15.9923 0 14.5457 0Z" fill="white"/>
</svg>
