<svg width="180" height="180" viewBox="0 0 180 180" fill="none" xmlns="http://www.w3.org/2000/svg">
<circle cx="90" cy="90" r="90" fill="#303030"/>
<path d="M165.572 90C165.572 48.2628 131.737 14.428 90 14.428C48.2628 14.428 14.428 48.2628 14.428 90C14.428 131.737 48.2628 165.572 90 165.572V170C45.8172 170 10 134.183 10 90C10 45.8172 45.8172 10 90 10C134.183 10 170 45.8172 170 90C170 134.183 134.183 170 90 170V165.572C131.737 165.572 165.572 131.737 165.572 90Z" fill="#b5c3fe"/>
<path d="M90.2483 23.0028C90.338 22.7324 90.7286 22.7324 90.8184 23.0028L92.5015 28.0765C92.5416 28.1974 92.6566 28.2793 92.7865 28.2793H98.2331C98.5234 28.2793 98.6441 28.6431 98.4092 28.8103L94.0028 31.946C93.8978 32.0207 93.8538 32.1532 93.894 32.2741L95.5771 37.3478C95.6668 37.6182 95.3508 37.8431 95.1159 37.6759L90.7095 34.5403C90.6044 34.4655 90.4622 34.4655 90.3572 34.5403L85.9508 37.6759C85.7159 37.8431 85.3999 37.6182 85.4896 37.3478L87.1727 32.2741C87.2128 32.1532 87.1689 32.0207 87.0638 31.946L82.6575 28.8103C82.4226 28.6431 82.5433 28.2793 82.8336 28.2793H88.2802C88.41 28.2793 88.5251 28.1974 88.5652 28.0765L90.2483 23.0028Z" fill="#BFBCFF"/>
<path d="M62.3107 28.2276C62.322 27.9361 62.6849 27.8389 62.8404 28.0857L65.2631 31.9315C65.3326 32.0418 65.4614 32.0947 65.582 32.0624L69.7855 30.9361C70.0552 30.8638 70.2644 31.1959 70.0908 31.4207L67.3846 34.9238C67.3069 35.0243 67.3014 35.1672 67.371 35.2775L69.7936 39.1233C69.9491 39.3701 69.7154 39.6726 69.4526 39.5648L65.3575 37.884C65.2399 37.8358 65.1078 37.8712 65.0301 37.9717L62.3239 41.4749C62.1503 41.6997 61.7967 41.5546 61.8079 41.2631L61.9831 36.7212C61.9881 36.5908 61.912 36.4699 61.7944 36.4217L57.6993 34.741C57.4364 34.6331 57.4516 34.2409 57.7213 34.1686L61.9248 33.0423C62.0454 33.01 62.1305 32.8998 62.1355 32.7695L62.3107 28.2276Z" fill="#BFBCFF"/>
<path d="M117.125 27.6881C117.281 27.4413 117.644 27.5385 117.655 27.83L117.83 32.3719C117.835 32.5023 117.92 32.6124 118.041 32.6447L122.245 33.771C122.514 33.8433 122.529 34.2355 122.267 34.3434L118.171 36.0241C118.054 36.0723 117.978 36.1933 117.983 36.3236L118.158 40.8655C118.169 41.157 117.816 41.3021 117.642 41.0773L114.936 37.5742C114.858 37.4736 114.726 37.4382 114.608 37.4864L110.513 39.1672C110.25 39.275 110.017 38.9725 110.172 38.7257L112.595 34.8799C112.664 34.7696 112.659 34.6268 112.581 34.5262L109.875 31.0231C109.701 30.7983 109.911 30.4662 110.18 30.5385L114.384 31.6648C114.505 31.6971 114.633 31.6442 114.703 31.5339L117.125 27.6881Z" fill="#BFBCFF"/>
<path d="M140.174 44.3133C140.432 44.1774 140.698 44.4432 140.562 44.7012L138.984 47.6974C138.923 47.8128 138.942 47.9507 139.03 48.0391L141.324 50.3331C141.522 50.5307 141.339 50.8778 141.057 50.8398L137.788 50.3975C137.662 50.3804 137.535 50.447 137.475 50.5624L135.896 53.5586C135.76 53.8167 135.381 53.7654 135.343 53.4839L134.901 50.2143C134.884 50.0884 134.787 49.9916 134.661 49.9745L131.392 49.5323C131.11 49.4942 131.059 49.1153 131.317 48.9794L134.313 47.401C134.428 47.3402 134.495 47.2138 134.478 47.0879L134.036 43.8183C133.998 43.5368 134.345 43.3539 134.542 43.5514L136.836 45.8455C136.925 45.9338 137.063 45.9525 137.178 45.8917L140.174 44.3133Z" fill="#BFBCFF"/>
<path d="M39.4573 46.3741C39.3214 46.1161 39.5872 45.8503 39.8452 45.9862L42.8414 47.5646C42.9568 47.6254 43.0947 47.6068 43.1831 47.5184L45.4772 45.2243C45.6747 45.0268 46.0218 45.2097 45.9838 45.4912L45.5415 48.7608C45.5244 48.8867 45.591 49.0131 45.7064 49.0739L48.7027 50.6523C48.9607 50.7883 48.9094 51.1671 48.6279 51.2052L45.3583 51.6475C45.2324 51.6645 45.1356 51.7613 45.1186 51.8872L44.6763 55.1568C44.6382 55.4383 44.2594 55.4896 44.1234 55.2316L42.545 52.2353C42.4842 52.1199 42.3578 52.0534 42.2319 52.0704L38.9623 52.5127C38.6808 52.5508 38.4979 52.2036 38.6954 52.0061L40.9895 49.712C41.0778 49.6237 41.0965 49.4857 41.0357 49.3703L39.4573 46.3741Z" fill="#BFBCFF"/>
<path d="M89.7517 156.997C89.662 157.268 89.2714 157.268 89.1816 156.997L87.4986 151.924C87.4584 151.803 87.3434 151.721 87.2135 151.721H81.7669C81.4766 151.721 81.3559 151.357 81.5908 151.19L85.9972 148.054C86.1022 147.979 86.1462 147.847 86.106 147.726L84.4229 142.652C84.3332 142.382 84.6493 142.157 84.8841 142.324L89.2905 145.46C89.3956 145.534 89.5378 145.534 89.6428 145.46L94.0492 142.324C94.2841 142.157 94.6001 142.382 94.5104 142.652L92.8273 147.726C92.7872 147.847 92.8311 147.979 92.9362 148.054L97.3426 151.19C97.5774 151.357 97.4567 151.721 97.1664 151.721H91.7198C91.59 151.721 91.4749 151.803 91.4348 151.924L89.7517 156.997Z" fill="#BFBCFF"/>
<path d="M117.985 151.815C117.974 152.107 117.611 152.204 117.455 151.957L115.033 148.111C114.963 148.001 114.834 147.948 114.714 147.98L110.51 149.107C110.241 149.179 110.031 148.847 110.205 148.622L112.911 145.119C112.989 145.018 112.994 144.876 112.925 144.765L110.502 140.919C110.347 140.673 110.58 140.37 110.843 140.478L114.938 142.159C115.056 142.207 115.188 142.172 115.266 142.071L117.972 138.568C118.146 138.343 118.499 138.488 118.488 138.78L118.313 143.322C118.308 143.452 118.384 143.573 118.501 143.621L122.597 145.302C122.859 145.41 122.844 145.802 122.575 145.874L118.371 147C118.25 147.033 118.165 147.143 118.16 147.273L117.985 151.815Z" fill="#BFBCFF"/>
<path d="M63.1704 152.355C63.0149 152.601 62.6519 152.504 62.6407 152.213L62.4655 147.671C62.4604 147.54 62.3754 147.43 62.2547 147.398L58.0513 146.272C57.7815 146.199 57.7664 145.807 58.0292 145.699L62.1244 144.019C62.2419 143.97 62.3181 143.849 62.313 143.719L62.1378 139.177C62.1266 138.886 62.4802 138.741 62.6539 138.965L65.36 142.469C65.4377 142.569 65.5699 142.605 65.6874 142.556L69.7826 140.876C70.0454 140.768 70.279 141.07 70.1236 141.317L67.7009 145.163C67.6314 145.273 67.6369 145.416 67.7145 145.517L70.4207 149.02C70.5944 149.244 70.3852 149.577 70.1154 149.504L65.912 148.378C65.7913 148.346 65.6626 148.398 65.593 148.509L63.1704 152.355Z" fill="#BFBCFF"/>
<path d="M40.1215 135.729C39.8635 135.865 39.5977 135.6 39.7336 135.342L41.312 132.345C41.3728 132.23 41.3542 132.092 41.2658 132.004L38.9717 129.71C38.7742 129.512 38.9571 129.165 39.2386 129.203L42.5082 129.645C42.6341 129.662 42.7605 129.596 42.8213 129.48L44.3997 126.484C44.5357 126.226 44.9145 126.277 44.9526 126.559L45.3949 129.828C45.4119 129.954 45.5087 130.051 45.6346 130.068L48.9042 130.51C49.1857 130.549 49.237 130.927 48.979 131.063L45.9827 132.642C45.8673 132.703 45.8008 132.829 45.8178 132.955L46.2601 136.224C46.2982 136.506 45.951 136.689 45.7535 136.491L43.4594 134.197C43.371 134.109 43.2331 134.09 43.1177 134.151L40.1215 135.729Z" fill="#BFBCFF"/>
<path d="M140.836 133.669C140.972 133.927 140.707 134.192 140.449 134.057L137.452 132.478C137.337 132.417 137.199 132.436 137.111 132.524L134.817 134.818C134.619 135.016 134.272 134.833 134.31 134.551L134.752 131.282C134.769 131.156 134.703 131.03 134.587 130.969L131.591 129.39C131.333 129.254 131.384 128.876 131.666 128.838L134.935 128.395C135.061 128.378 135.158 128.281 135.175 128.156L135.617 124.886C135.656 124.604 136.034 124.553 136.17 124.811L137.749 127.807C137.81 127.923 137.936 127.989 138.062 127.972L141.331 127.53C141.613 127.492 141.796 127.839 141.598 128.037L139.304 130.331C139.216 130.419 139.197 130.557 139.258 130.672L140.836 133.669Z" fill="#BFBCFF"/>
</svg>
