<svg xmlns="http://www.w3.org/2000/svg">
    <symbol id="b2b-01-02" viewBox="0 0 47 49">
        <path fill="#F7F7F7"
            d="M22.607 44.046a2.07 2.07 0 0 1-1.41-.536c-.406-.354-.609-.821-.609-1.401 0-.277.062-.584.186-.922.124-.337.31-.626.556-.867l8.057-7.89-1.208-1.183-8.043 7.89a2.45 2.45 0 0 1-.838.544 2.57 2.57 0 0 1-.947.182 1.97 1.97 0 0 1-1.433-.576 1.88 1.88 0 0 1-.587-1.402c0-.33.069-.652.206-.966.139-.314.313-.575.523-.782l8.056-7.89-1.196-1.172-8.055 7.881a2.54 2.54 0 0 1-.815.525 2.496 2.496 0 0 1-.98.201 1.965 1.965 0 0 1-1.427-.58 1.885 1.885 0 0 1-.593-1.397c0-.315.062-.624.184-.928.123-.305.308-.578.556-.82l7.551-7.398-1.207-1.17-7.539 7.397c-.21.206-.477.377-.802.512a2.593 2.593 0 0 1-.993.202c-.593 0-1.077-.185-1.455-.555-.376-.369-.564-.843-.564-1.423a2.434 2.434 0 0 1 .74-1.748l13.076-13.118 4.712 4.629c.4.393.854.67 1.358.833a4.944 4.944 0 0 0 1.536.247c1.054 0 1.935-.34 2.642-1.02.708-.68 1.061-1.55 1.061-2.608 0-.5-.098-1.004-.295-1.513a3.896 3.896 0 0 0-.921-1.376l-4.878-4.542-1.042-.7a5.135 5.135 0 0 1 1.744-1.087 5.638 5.638 0 0 1 2.043-.394 5.91 5.91 0 0 1 2.122.394c.69.261 1.278.631 1.765 1.11l9.371 9.184c.46.452.824 1.002 1.092 1.65.268.647.403 1.365.403 2.154 0 .714-.137 1.39-.41 2.025a4.956 4.956 0 0 1-1.084 1.618L24.395 43.318c-.237.231-.514.41-.832.535a2.53 2.53 0 0 1-.953.191" />
        <path fill="#34332E"
            d="M18.588 42.11c0-.086.003-.17.009-.255a3.97 3.97 0 0 1-3.08-1.14 3.88 3.88 0 0 1-1.186-2.834c0-.07.002-.139.005-.208a4.37 4.37 0 0 1-.266.008v.001h-.01a3.962 3.962 0 0 1-2.818-1.151 3.885 3.885 0 0 1-1.188-3.04 4.49 4.49 0 0 1-.255.009c-.982 0-1.931-.304-2.703-.986l-.151-.14c-.801-.785-1.165-1.794-1.165-2.852 0-.581.114-1.144.328-1.675l.003-.008 1.852.755-.08.229c-.069.23-.103.463-.103.7l.008.211c.041.485.227.888.556 1.211.33.324.743.505 1.237.546l.218.009c.335 0 .666-.067.992-.201.325-.136.594-.308.804-.513l7.538-7.397 1.207 1.17-7.55 7.397a2.397 2.397 0 0 0-.556.821 2.466 2.466 0 0 0-.185.928l.01.2c.043.46.238.858.584 1.197.395.387.87.58 1.426.58.328.002.655-.065.98-.2.325-.137.597-.312.816-.526l8.054-7.881 1.196 1.172-8.056 7.89a2.5 2.5 0 0 0-.523.782 2.397 2.397 0 0 0-.206.966 1.88 1.88 0 0 0 .586 1.402c.344.336.753.525 1.227.567l.207.009a2.57 2.57 0 0 0 1.785-.727l8.043-7.89 1.207 1.183-8.056 7.891c-.246.241-.431.53-.555.867l-.082.248c-.07.242-.105.466-.105.674l.01.212c.044.483.244.88.599 1.19.354.312.759.488 1.212.527l.199.005v2.004a4.07 4.07 0 0 1-2.734-1.036c-.872-.766-1.286-1.798-1.286-2.902zm1.743-29.003a2 2 0 0 1 2.667.122l4.71 4.627.144.127a1.4 1.4 0 0 0 .286.176l.143.056.003.002.233.065c.231.056.459.083.685.083v2l-.193-.004a4.967 4.967 0 0 1-1.342-.243 3.387 3.387 0 0 1-1.206-.691l-.152-.142-4.712-4.63L8.52 27.774a2.437 2.437 0 0 0-.556.821l-1.851-.755a4.437 4.437 0 0 1 1.003-1.49L20.18 13.243l.151-.137zm10.576 3.63c0-.232-.046-.492-.162-.791v-.001a1.896 1.896 0 0 0-.447-.66l-4.736-4.41-.908-.61a2.001 2.001 0 0 1-.27-3.101l.265-.241a7.211 7.211 0 0 1 2.145-1.269v-.001a7.638 7.638 0 0 1 2.763-.528c.973 0 1.921.177 2.834.525l-.001.001a7.018 7.018 0 0 1 2.454 1.55l9.371 9.183.002.002.243.252a6.96 6.96 0 0 1 1.294 2.059l.134.348a7.69 7.69 0 0 1 .422 2.572c0 .975-.189 1.917-.57 2.808v.002a6.956 6.956 0 0 1-1.525 2.26l.001.001-18.422 18.058a4.476 4.476 0 0 1-1.495.968v-.001a4.524 4.524 0 0 1-1.69.33v-2c.321 0 .64-.063.955-.19.238-.094.454-.218.646-.372l.185-.164 18.42-18.058a4.957 4.957 0 0 0 1.086-1.617 5.046 5.046 0 0 0 .402-1.76l.007-.265A5.69 5.69 0 0 0 44 19.71l-.093-.246a4.918 4.918 0 0 0-1.092-1.65l-9.371-9.185a4.941 4.941 0 0 0-1.512-1.007l-.254-.103a5.927 5.927 0 0 0-1.85-.388l-.272-.006a5.64 5.64 0 0 0-2.043.394 5.133 5.133 0 0 0-1.743 1.086l1.042.701 4.877 4.542c.417.41.724.87.92 1.376a4.17 4.17 0 0 1 .297 1.513l-.005.196c-.042.97-.394 1.774-1.057 2.411l-.135.124c-.683.598-1.52.897-2.508.897v-2c.58 0 .952-.168 1.257-.462.282-.271.448-.604.448-1.166z" />
        <path fill="#F7F7F7"
            d="M17.015 1c.936 0 1.84.165 2.686.521.83.347 1.57.85 2.215 1.485l.008.008 9.636 9.59c.402.398.7.863.912 1.359a4.04 4.04 0 0 1 .345 1.593c0 .995-.347 1.927-1.072 2.67l-.008.006c-.746.757-1.712 1.123-2.75 1.123a4.46 4.46 0 0 1-1.6-.294l-.011-.004a4.262 4.262 0 0 1-1.434-.936l-6.173-5.895L7 25l-2.675-2.852a7.434 7.434 0 0 1-1.757-2.735C2.198 18.415 2 17.404 2 16.387c0-1.022.169-2.003.538-2.917.343-.85.815-1.62 1.452-2.247l8.342-8.218c.6-.59 1.281-1.07 2.04-1.428A6.127 6.127 0 0 1 17.015 1z" />
        <path fill="#FF5B53"
            d="M26.633 17.398l.009.008.122.114c.289.258.614.464.975.605l.005.002c.398.152.814.228 1.242.229.794 0 1.496-.275 2.04-.826l.016-.017a2.743 2.743 0 0 0 .775-1.957c0-.305-.054-.607-.152-.904l-.112-.296a3.235 3.235 0 0 0-.696-1.04l-.002-.003-9.636-9.59-.004-.004L21 3.518a5.965 5.965 0 0 0-1.424-.957l-.262-.117h-.002A5.88 5.88 0 0 0 17.016 2c-.787 0-1.53.158-2.215.482h-.002a6.39 6.39 0 0 0-1.765 1.237l-8.34 8.216-.002.002c-.455.447-.82.998-1.107 1.631l-.12.278c-.314.78-.464 1.63-.464 2.542l.008.332a7.65 7.65 0 0 0 .38 2.008l.118.336.135.336c.285.66.664 1.255 1.14 1.779l.246.257.014.013.014.015 1.967 2.099 12.73-12.736 6.88 6.57zm7.184-1.842c0 1.24-.439 2.427-1.356 3.368l-.027.028-.03.026c-.944.932-2.153 1.377-3.418 1.377A5.45 5.45 0 0 1 27.045 20l-.032-.01a5.26 5.26 0 0 1-1.761-1.145l-5.468-5.221L6.978 26.438 3.596 22.83a8.438 8.438 0 0 1-1.965-3.07l-.063-.168v-.013a9.737 9.737 0 0 1-.557-2.763L1 16.387c0-1.132.188-2.243.611-3.291l.15-.353c.371-.817.868-1.583 1.528-2.232l8.34-8.217.002-.001.259-.244A8.354 8.354 0 0 1 13.944.675 7.13 7.13 0 0 1 17.014 0c1.055 0 2.091.187 3.072.6V.599a7.922 7.922 0 0 1 2.252 1.431l.28.263.01.012 9.634 9.588.183.191c.413.454.721.962.946 1.485l.09.224c.202.532.336 1.125.336 1.763z" />
    </symbol>
    <symbol id="b2b-01-03" viewBox="0 0 52 50">
        <path fill="#34332E" fill-rule="evenodd"
            d="M.494 48.504a1 1 0 0 1 1-1h49.022a1 1 0 1 1 0 2H1.494a1 1 0 0 1-1-1z"
            clip-rule="evenodd" />
        <path fill="#34332E" fill-rule="evenodd"
            d="M20.812 5.306a1 1 0 0 1 1-1h24.625a1 1 0 0 1 1 1v43.198a1 1 0 0 1-1 1H21.812a1 1 0 0 1-1-1V5.306zm2 1v41.198h22.625V6.306H22.812z"
            clip-rule="evenodd" />
        <path fill="#34332E" fill-rule="evenodd"
            d="M24.516 1.496a1 1 0 0 1 1-1H42.99a1 1 0 0 1 1 1v3.82a1 1 0 0 1-1.141.99H25.516a1 1 0 0 1-1-1v-3.81zm17.473 2.81v-1.81H26.516v1.81H41.99zM30.04 39.178a.75.75 0 0 1 .75-.75h6.5a.75.75 0 0 1 .75.75v9.326a.75.75 0 0 1-.75.75h-6.5a.75.75 0 0 1-.75-.75v-9.326zm1.5.75v7.826h5v-7.826h-5z"
            clip-rule="evenodd" />
        <path fill="#FF5B53" fill-rule="evenodd"
            d="M26.445 10.892a.75.75 0 0 1 .75-.75h4.228a.75.75 0 0 1 .75.75v4.246a.75.75 0 0 1-.75.75h-4.228a.75.75 0 0 1-.75-.75v-4.246zm1.5.75v2.746h2.728v-2.746h-2.728zm7.835-.75a.75.75 0 0 1 .75-.75h4.227a.75.75 0 0 1 .75.75v4.246a.75.75 0 0 1-.75.75H36.53a.75.75 0 0 1-.75-.75v-4.246zm1.5.75v2.746h2.727v-2.746H37.28zm-10.835 8a.75.75 0 0 1 .75-.75h4.228a.75.75 0 0 1 .75.75v4.247a.75.75 0 0 1-.75.75h-4.228a.75.75 0 0 1-.75-.75v-4.247zm1.5.75v2.747h2.728v-2.747h-2.728zm7.835-.75a.75.75 0 0 1 .75-.75h4.227a.75.75 0 0 1 .75.75v4.247a.75.75 0 0 1-.75.75H36.53a.75.75 0 0 1-.75-.75v-4.247zm1.5.75v2.747h2.727v-2.747H37.28zm-10.835 8.001a.75.75 0 0 1 .75-.75h4.228a.75.75 0 0 1 .75.75v4.246a.75.75 0 0 1-.75.75h-4.228a.75.75 0 0 1-.75-.75v-4.246zm1.5.75v2.747h2.728v-2.747h-2.728zm7.835-.75a.75.75 0 0 1 .75-.75h4.227a.75.75 0 0 1 .75.75v4.246a.75.75 0 0 1-.75.75H36.53a.75.75 0 0 1-.75-.75v-4.246zm1.5.75v2.747h2.727v-2.747H37.28z"
            clip-rule="evenodd" />
        <path fill="#34332E" fill-rule="evenodd"
            d="M4.139 21.934a1 1 0 0 1 1-1h16.663a1 1 0 0 1 1 1v26.429a1 1 0 0 1-.99 1.141H5.139a1 1 0 0 1-1-1v-26.57zm16.663 25.57H6.139v-24.57h14.663v24.57z"
            clip-rule="evenodd" />
        <path fill="#34332E" fill-rule="evenodd"
            d="M4.148 17.787a1 1 0 0 1 1-1h6.865a1 1 0 0 1 1 1v4.147a1 1 0 0 1-1 1H5.148a1 1 0 0 1-1-1v-4.147zm2 1v2.147h4.865v-2.147H6.148zm4.306 24.141a.75.75 0 0 1 .75-.75h4.415a.75.75 0 0 1 .75.75v5.576a.75.75 0 0 1-.75.75h-4.415a.75.75 0 0 1-.75-.75v-5.576zm1.5.75v4.076h2.915v-4.076h-2.915z"
            clip-rule="evenodd" />
        <path fill="#FF5B53" fill-rule="evenodd"
            d="M9.327 25.49a.75.75 0 0 1 .75.75v12.54a.75.75 0 0 1-1.5 0V26.24a.75.75 0 0 1 .75-.75zm4.079 0a.75.75 0 0 1 .75.75v12.54a.75.75 0 1 1-1.5 0V26.24a.75.75 0 0 1 .75-.75zm4.08 0a.75.75 0 0 1 .75.75v12.54a.75.75 0 0 1-1.5 0V26.24a.75.75 0 0 1 .75-.75z"
            clip-rule="evenodd" />
    </symbol>
    <symbol id="b2b-01-04" viewBox="0 0 38 50">
        <path fill="#FF5B53" fill-rule="evenodd"
            d="M.964 1.459a1 1 0 0 1 1-1h34.072a1 1 0 0 1 1 1V48.55a1 1 0 1 1-2 0V2.459H2.964V48.55a1 1 0 1 1-2 0V1.46z"
            clip-rule="evenodd" />
        <path fill="#34332E" fill-rule="evenodd"
            d="M5.341 5.751a1 1 0 0 1 1-1H31.66a1 1 0 0 1 1 1v42.79a1 1 0 0 1-1 1H6.341a1 1 0 0 1-1-1V5.751zm2 1v40.79H30.66V6.751H7.341z"
            clip-rule="evenodd" />
        <path fill="#34332E" fill-rule="evenodd"
            d="M6.341 22.695H31.66v1.5H6.341v-1.5zm18.095-10.844a.75.75 0 0 1 .75-.75h2.467a.75.75 0 0 1 .75.75v7.246a.75.75 0 0 1-.75.75h-2.467a.75.75 0 0 1-.75-.75v-7.246zm1.5.75v5.746h.967v-5.746h-.967zm-1.5 14.963a.75.75 0 0 1 .75-.75h2.467a.75.75 0 0 1 .75.75v7.246a.75.75 0 0 1-.75.75h-2.467a.75.75 0 0 1-.75-.75v-7.246zm1.5.75v5.746h.967v-5.746h-.967z"
            clip-rule="evenodd" />
    </symbol>
    <symbol id="b2b-01-05" viewBox="0 0 50 50">
        <path fill="#FF5B53" fill-rule="evenodd"
            d="M49.247.847a1 1 0 0 1 .29.788L48.363 16.1a1 1 0 0 1-1.703.627l-3.142-3.142-4.954 4.954a1 1 0 0 1-1.414-1.415l5.66-5.66a1 1 0 0 1 1.415 0l2.32 2.32.903-11.14-11.138.904 2.32 2.32a1 1 0 0 1 0 1.413l-3.304 3.314a1 1 0 1 1-1.416-1.412l2.6-2.607-3.144-3.143a1 1 0 0 1 .627-1.703L48.459.557a1 1 0 0 1 .788.29zm-1.629 32.288a1 1 0 0 1 .651.858l1.174 14.466a1 1 0 0 1-1.078 1.078L33.9 48.363a1 1 0 0 1-.626-1.704l3.15-3.142-4.962-4.953a1 1 0 0 1 1.413-1.415l5.67 5.66a1 1 0 0 1 0 1.416l-2.325 2.32 11.135.903-.903-11.139-2.32 2.32a1 1 0 0 1-1.414 0l-3.211-3.21a1 1 0 0 1 1.414-1.414l2.504 2.503 3.142-3.142a1 1 0 0 1 1.052-.231zm-45.33-.094a1 1 0 0 1 1.053.231l3.15 3.15 2.41-2.416a1 1 0 1 1 1.416 1.412L7.2 38.544a1 1 0 0 1-1.415.001l-2.328-2.328-.896 11.137 11.13-.903-2.32-2.32a1 1 0 0 1 0-1.415l5.642-5.633a1 1 0 0 1 1.413 1.416l-4.933 4.925 3.14 3.142a1 1 0 0 1-.625 1.703L1.55 49.443a1 1 0 0 1-1.077-1.077l1.164-14.467a1 1 0 0 1 .651-.858zM.847.763a1 1 0 0 1 .787-.29l14.467 1.164a1 1 0 0 1 .628 1.703l-3.144 3.15 2.758 2.758a1 1 0 0 1-1.414 1.414L11.464 7.2a1 1 0 0 1 0-1.413l2.323-2.329L2.646 2.56l.903 11.13 2.32-2.32a1 1 0 0 1 1.414 0l5.642 5.633a1 1 0 0 1-1.413 1.415l-4.935-4.927-3.142 3.143a1 1 0 0 1-1.704-.626L.557 1.55a1 1 0 0 1 .29-.787z"
            clip-rule="evenodd" />
        <path fill="#34332E" fill-rule="evenodd"
            d="M13.425 17.819a13.726 13.726 0 0 0-1.014 1.987A13.605 13.605 0 0 0 13.26 31.9c1.523-.924 3.416-1.645 5.525-2.13a38.29 38.29 0 0 1-.291-4.766c0-1.797.12-3.527.34-5.14-2.052-.468-3.903-1.164-5.409-2.046zm-1.185-1.833a15.678 15.678 0 0 0-1.678 3.058c-2.076 5.036-1.327 10.533 1.515 14.73a1.014 1.014 0 0 0 .128.185 15.553 15.553 0 0 0 6.85 5.487 15.581 15.581 0 0 0 6.081 1.182c6.093-.052 11.852-3.688 14.32-9.675 3.289-7.979-.513-17.113-8.492-20.402-6.783-2.795-14.4-.467-18.552 5.194a1.012 1.012 0 0 0-.172.24zm2.367.205c1.238.698 2.787 1.285 4.56 1.7a23.44 23.44 0 0 1 1.005-3.581c.343-.91.74-1.736 1.188-2.44a13.65 13.65 0 0 0-6.753 4.321zm14.04-4.326c.45.706.847 1.533 1.19 2.445a23.34 23.34 0 0 1 1.003 3.571c1.776-.41 3.324-.998 4.562-1.7a13.57 13.57 0 0 0-5.2-3.78 13.777 13.777 0 0 0-1.555-.536zm7.938 5.943c-1.505.885-3.353 1.583-5.411 2.048.222 1.615.341 3.349.341 5.149 0 1.658-.101 3.26-.29 4.765 2.11.481 4.004 1.21 5.531 2.137.319-.544.604-1.116.851-1.716a13.608 13.608 0 0 0-1.022-12.383zm-.968 15.748c-1.258-.746-2.857-1.372-4.703-1.805-.276 1.457-.64 2.79-1.077 3.949-.34.904-.734 1.726-1.18 2.428a13.645 13.645 0 0 0 6.96-4.572zm-10.533 5.072c.361-.026.808-.237 1.319-.812.549-.616 1.089-1.564 1.563-2.822.391-1.039.724-2.254.98-3.602a27.193 27.193 0 0 0-3.941-.28c-1.373 0-2.696.096-3.942.28.256 1.348.59 2.563.98 3.603.475 1.257 1.015 2.205 1.563 2.821.512.575.958.786 1.32.812h.158zm-3.733-.502c-.445-.701-.838-1.523-1.179-2.426-.436-1.16-.8-2.49-1.076-3.948-1.851.438-3.448 1.058-4.698 1.799a13.565 13.565 0 0 0 5.419 4.045c.506.21 1.019.386 1.534.53zm-.595-8.71a29.18 29.18 0 0 1 4.249-.304c1.47 0 2.896.104 4.248.303.17-1.382.262-2.864.262-4.41 0-1.684-.11-3.292-.309-4.776a28.6 28.6 0 0 1-4.201.303c-1.455 0-2.865-.104-4.202-.303a35.94 35.94 0 0 0-.309 4.776c0 1.546.093 3.028.262 4.41zm.378-11.16c1.224.18 2.523.276 3.87.276 1.349 0 2.648-.096 3.871-.276a21.358 21.358 0 0 0-.91-3.241c-.473-1.258-1.013-2.206-1.562-2.822-.55-.617-1.024-.814-1.398-.814-.374 0-.849.197-1.399.814-.548.616-1.088 1.564-1.562 2.822a21.37 21.37 0 0 0-.91 3.24z"
            clip-rule="evenodd" />
    </symbol>
    <symbol id="b2b-02-01" viewBox="0 0 49 49">
        <path fill="#34332E" fill-rule="evenodd"
            d="M39.752 9.251c-5.26-5.257-12.447-7.418-19.289-6.485a1 1 0 1 1-.27-1.982c7.434-1.013 15.25 1.334 20.973 7.053 5.713 5.718 8.071 13.53 7.05 20.968a1 1 0 1 1-1.982-.272c.94-6.843-1.228-14.024-6.482-19.282z"
            clip-rule="evenodd" />
        <path fill="#34332E" fill-rule="evenodd"
            d="M35.115 13.893a16.29 16.29 0 0 0-14.591-4.485 1 1 0 1 1-.375-1.965c5.748-1.095 11.927.585 16.38 5.036 4.454 4.45 6.127 10.626 5.031 16.37a1 1 0 1 1-1.965-.375c.978-5.122-.515-10.618-4.48-14.58z"
            clip-rule="evenodd" />
        <path fill="#34332E" fill-rule="evenodd"
            d="M30.272 18.733a9.449 9.449 0 0 0-9.482-2.346 1 1 0 0 1-.59-1.91 11.449 11.449 0 0 1 11.486 2.841 11.437 11.437 0 0 1 2.844 11.481 1 1 0 1 1-1.91-.592 9.436 9.436 0 0 0-2.348-9.474z"
            clip-rule="evenodd" />
        <path fill="#FF5B53"
            d="M41.124 40.523c-3.094-1.882-9.211-5.599-11.632-7.07a1.745 1.745 0 0 0-1.97.119l-.507.395a5.49 5.49 0 0 1-7.035-.213 56.809 56.809 0 0 1-4.732-4.729 5.503 5.503 0 0 1-.213-7.038c.142-.182.269-.348.395-.506.443-.57.49-1.352.119-1.969L8.467 7.864a1.738 1.738 0 0 0-2.706-.332c-.887.878-1.417 1.415-3.023 3.036A9.5 9.5 0 0 0 .95 21.386a57.353 57.353 0 0 0 26.658 26.657c3.624 1.756 7.969 1.052 10.825-1.787a306.373 306.373 0 0 0 3.023-3.037 1.737 1.737 0 0 0-.332-2.696z" />
    </symbol>
    <symbol id="b2b-01-01" viewBox="0 0 51 64">
        <path fill="#34332E" fill-rule="evenodd"
            d="M11.983 45.483l7.885 7.963 13.569-.337 14.48-8.326a1.869 1.869 0 0 0-.33-.56 1.877 1.877 0 0 0-.851-.54c-.7-.231-1.547-.173-2.133-.024a3.238 3.238 0 0 1-.028.013l-.168.074a443.554 443.554 0 0 0-2.802 1.298 826.592 826.592 0 0 0-5.267 2.486 5.34 5.34 0 0 1-.676.817 1 1 0 0 1-.676.292l-11.155.354a1 1 0 1 1-.063-1.998l10.733-.341c.112-.138.2-.267.267-.387.32-.573.257-1.07.013-1.535-.24-.459-.655-.86-1.03-1.12a4.166 4.166 0 0 0-.182-.02 16.96 16.96 0 0 0-.941-.046 86.313 86.313 0 0 0-2.979-.014c-2.29.02-4.95.09-6.701.15a1 1 0 0 1-.74-.293c-.145-.144-.505-.423-.963-.749a36.128 36.128 0 0 0-.932-.64h-3.615a1.27 1.27 0 0 0-.091.038 4.79 4.79 0 0 0-.52.288c-.437.27-.982.658-1.573 1.108a61.317 61.317 0 0 0-2.531 2.049zm21.86-1.856zm3.11 1.396a886.229 886.229 0 0 1 5.961-2.793c.276-.127.504-.232.671-.307l.007-.003c.13-.058.291-.131.379-.16a.96.96 0 0 1 .054-.017c.83-.224 2.129-.358 3.337.04.62.204 1.236.556 1.732 1.126.5.573.833 1.315.963 2.225a1 1 0 0 1-.491 1.009L34.214 54.97a1 1 0 0 1-.474.132l-14.254.355a1 1 0 0 1-.735-.297l-8.942-9.03a1 1 0 0 1 .05-1.454 66.588 66.588 0 0 1 3.444-2.834 23.222 23.222 0 0 1 1.73-1.216c.258-.16.512-.303.747-.41.202-.091.516-.216.848-.216h3.984a1 1 0 0 1 .545.162c.305.197.786.52 1.248.849.293.208.611.442.874.659 1.75-.057 4.209-.12 6.352-.138a88.404 88.404 0 0 1 3.053.014c.41.012.773.029 1.059.054.142.012.28.027.4.048.091.015.282.05.462.14.028.014.056.03.083.046.615.385 1.389 1.063 1.864 1.97.195.37.339.78.401 1.22z"
            clip-rule="evenodd" />
        <path fill="#34332E" fill-rule="evenodd"
            d="M8.145 43.28a1 1 0 0 1 1.408.02L21.68 55.696a1 1 0 0 1-.012 1.411l-6.64 6.552a1 1 0 0 1-1.407-.002L1.228 51.35a1 1 0 0 1 .011-1.43l6.906-6.64zm-4.782 7.37L14.33 61.54l5.226-5.157-10.74-10.975-5.453 5.242z"
            clip-rule="evenodd" />
        <path fill="#FF5B53" fill-rule="evenodd"
            d="M28.126 10.017h-.003c-5.504.07-9.899 4.518-9.822 9.803.051 3.364 1.885 6.333 4.644 8.026 1.49.914 2.456 2.483 2.507 4.236h5.642a5.116 5.116 0 0 1 2.45-4.199l.007-.004c2.825-1.71 4.684-4.745 4.684-8.196 0-5.356-4.513-9.744-10.11-9.666zm-4.672 24.065v-1.854c0-1.072-.578-2.079-1.556-2.678-3.302-2.027-5.534-5.606-5.597-9.7-.094-6.441 5.237-11.75 11.797-11.833 6.659-.092 12.137 5.143 12.137 11.666 0 4.195-2.263 7.858-5.648 9.907a3.116 3.116 0 0 0-1.496 2.666v1.826h-9.637z"
            clip-rule="evenodd" />
        <path fill="#34332E" fill-rule="evenodd"
            d="M28.273.179a1 1 0 0 1 1 1v4.175a1 1 0 1 1-2 0V1.179a1 1 0 0 1 1-1zM11.958 8.092a1 1 0 0 1 1.414 0l3.277 3.273a1 1 0 0 1-1.413 1.415l-3.277-3.274a1 1 0 0 1-.001-1.414zm32.63 0a1 1 0 0 1-.002 1.415l-3.287 3.274a1 1 0 0 1-1.411-1.417l3.286-3.274a1 1 0 0 1 1.415.003zm-21.134 24.98a1 1 0 0 1 1-1h7.609a1 1 0 0 1 1 1v2.524a3.333 3.333 0 0 1-2.1 3.098v.024a2.317 2.317 0 0 1-2.32 2.32h-.74a2.317 2.317 0 0 1-2.321-2.32v-.012a3.334 3.334 0 0 1-2.128-3.11v-2.524zm3.236 3.855a1.334 1.334 0 0 1-1.236-1.33v-1.525h5.609v1.524c0 .738-.596 1.335-1.337 1.335h-2.935c-.034 0-.068-.001-.101-.004zm.971 2.004a.319.319 0 0 0 .241.106h.741a.32.32 0 0 0 .24-.106h-1.221z"
            clip-rule="evenodd" />
        <path fill="#34332E" fill-rule="evenodd"
            d="M23.75 35.815a.75.75 0 0 1 .75-.75h7.61a.75.75 0 0 1 0 1.5H24.5a.75.75 0 0 1-.75-.75z"
            clip-rule="evenodd" />
    </symbol>
    <symbol id="b2b-02-04" viewBox="0 0 60 40">
        <path fill="#34332E" fill-rule="evenodd"
            d="M.13 21.614a1 1 0 0 1 1-1h18.43a1 1 0 0 1 1 1v17.277a1 1 0 1 1-2 0V22.614H2.13v16.277a1 1 0 1 1-2 0V21.614z"
            clip-rule="evenodd" />
        <path fill="#34332E" fill-rule="evenodd"
            d="M7.398 20.614a1 1 0 0 1 1 1v4.867h4.268v-4.867a1 1 0 1 1 2 0v5.867a1 1 0 0 1-1 1H7.398a1 1 0 0 1-1-1v-5.867a1 1 0 0 1 1-1zm11.162 1a1 1 0 0 1 1-1h18.438a1 1 0 0 1 1 1v17.277a1 1 0 1 1-2 0V22.614H19.56a1 1 0 0 1-1-1z"
            clip-rule="evenodd" />
        <path fill="#34332E" fill-rule="evenodd"
            d="M25.828 20.614a1 1 0 0 1 1 1v4.867h4.268v-4.867a1 1 0 1 1 2 0v5.867a1 1 0 0 1-1 1h-6.268a1 1 0 0 1-1-1v-5.867a1 1 0 0 1 1-1zm11.17 1a1 1 0 0 1 1-1h18.43a1 1 0 0 1 1 1v17.277a1 1 0 1 1-2 0V22.614h-17.43a1 1 0 0 1-1-1z"
            clip-rule="evenodd" />
        <path fill="#34332E" fill-rule="evenodd"
            d="M44.259 20.614a1 1 0 0 1 1 1v4.867h4.268v-4.867a1 1 0 1 1 2 0v5.867a1 1 0 0 1-1 1h-6.268a1 1 0 0 1-1-1v-5.867a1 1 0 0 1 1-1zM9.348 1.123a1 1 0 0 1 1-1h18.43a1 1 0 0 1 1 1V18.4a1 1 0 1 1-2 0V2.123h-16.43V18.4a1 1 0 1 1-2 0V1.123z"
            clip-rule="evenodd" />
        <path fill="#34332E" fill-rule="evenodd"
            d="M16.61.123a1 1 0 0 1 1 1v4.866h4.268V1.123a1 1 0 1 1 2 0v5.866a1 1 0 0 1-1 1h-6.269a1 1 0 0 1-1-1V1.123a1 1 0 0 1 1-1zm11.169 1a1 1 0 0 1 1-1h18.43a1 1 0 0 1 1 1V18.4a1 1 0 1 1-2 0V2.123H28.78a1 1 0 0 1-1-1z"
            clip-rule="evenodd" />
        <path fill="#34332E" fill-rule="evenodd"
            d="M35.047.123a1 1 0 0 1 1 1v4.866h4.268V1.123a1 1 0 1 1 2 0v5.866a1 1 0 0 1-1 1h-6.268a1 1 0 0 1-1-1V1.123a1 1 0 0 1 1-1z"
            clip-rule="evenodd" />
        <path fill="#FF5B53"
            d="M47.337 36.575c6.65 0 12.042-5.36 12.042-11.972 0-6.611-5.392-11.971-12.042-11.971-6.651 0-12.043 5.36-12.043 11.972 0 6.611 5.392 11.971 12.043 11.971z" />
        <path fill="#F7F7F7" fill-rule="evenodd"
            d="M51.004 18.162a.75.75 0 0 1 .28 1.023l-6.592 11.58a.75.75 0 1 1-1.304-.743l6.593-11.58a.75.75 0 0 1 1.023-.28zm-8.708 2.728a1.34 1.34 0 0 0-1.346 1.335 1.34 1.34 0 0 0 1.346 1.334 1.34 1.34 0 0 0 1.347-1.334 1.34 1.34 0 0 0-1.347-1.335zm-2.846 1.335a2.84 2.84 0 0 1 2.846-2.835 2.84 2.84 0 0 1 2.847 2.835 2.84 2.84 0 0 1-2.847 2.834 2.84 2.84 0 0 1-2.846-2.834zm12.933 3.423a1.34 1.34 0 0 0-1.346 1.335 1.34 1.34 0 0 0 1.346 1.334 1.34 1.34 0 0 0 1.347-1.334 1.34 1.34 0 0 0-1.346-1.335zm-2.846 1.335a2.84 2.84 0 0 1 2.846-2.835 2.84 2.84 0 0 1 2.847 2.835 2.84 2.84 0 0 1-2.846 2.834 2.84 2.84 0 0 1-2.847-2.834z"
            clip-rule="evenodd" />
    </symbol>
    <symbol id="b2b-01-06" viewBox="0 0 60 42">
        <path fill="#FF5B53" fill-rule="evenodd"
            d="M8.969 27.712v-5.048h-2v6.048a1 1 0 0 0 1 1h6.449a1 1 0 0 0 1-1v-6.048h-2v5.048h-4.45zm18.99 0v-5.048h-2v6.048a1 1 0 0 0 1 1h6.46a1 1 0 0 0 1-1v-6.048h-2v5.048h-4.46zm18.991 0v-5.048h-2v6.048a1 1 0 0 0 1 1h6.458a1 1 0 0 0 1-1v-6.048h-2v5.048H46.95zM18.464 6.555V1.507h-2v6.048a1 1 0 0 0 1 1h6.459a1 1 0 0 0 1-1V1.507h-2v5.048h-4.46zm18.99 0V1.507h-2v6.048a1 1 0 0 0 1 1h6.46a1 1 0 0 0 1-1V1.507h-2v5.048h-4.46z"
            clip-rule="evenodd" />
        <path fill="#34332E" fill-rule="evenodd"
            d="M10.005 1.507a1 1 0 0 1 1-1h18.99a1 1 0 0 1 1 1v17.829a1 1 0 1 1-2 0V2.507h-16.99v16.829a1 1 0 1 1-2 0V1.507z"
            clip-rule="evenodd" />
        <path fill="#34332E" fill-rule="evenodd"
            d="M28.995 1.507a1 1 0 0 1 1-1h19a1 1 0 0 1 1 1v17.829a1 1 0 1 1-2 0V2.507h-18a1 1 0 0 1-1-1zM.51 22.664a1 1 0 0 1 1-1H20.5a1 1 0 0 1 1 1v17.829a1 1 0 1 1-2 0V23.664H2.51v16.829a1 1 0 1 1-2 0V22.664z"
            clip-rule="evenodd" />
        <path fill="#34332E" fill-rule="evenodd"
            d="M19.5 22.664a1 1 0 0 1 1-1h18.99a1 1 0 0 1 1 1v17.829a1 1 0 1 1-2 0V23.664H20.5a1 1 0 0 1-1-1z"
            clip-rule="evenodd" />
        <path fill="#34332E" fill-rule="evenodd"
            d="M38.49 22.664a1 1 0 0 1 1-1h19a1 1 0 0 1 1 1v17.829a1 1 0 1 1-2 0V23.664h-17v16.829a1 1 0 1 1-2 0V22.664z"
            clip-rule="evenodd" />
    </symbol>
    <symbol id="b2b-a-02" viewBox="0 0 100 100">
        <rect width="100" height="100" fill="#F7F7F7" rx="50" />
        <mask id="a" width="41" height="41" x="31.78" y="31.12" maskUnits="userSpaceOnUse">
            <path fill="#fff" d="M31.78 31.12h41v41h-41z" />
            <path
                d="M48.607 70.046a2.07 2.07 0 0 1-1.41-.536c-.406-.354-.609-.821-.609-1.401 0-.277.062-.584.186-.921.124-.338.31-.627.556-.868l8.056-7.89-1.207-1.183-8.044 7.89a2.45 2.45 0 0 1-.837.544c-.31.121-.627.182-.948.182a1.97 1.97 0 0 1-1.432-.576 1.88 1.88 0 0 1-.587-1.402c0-.33.069-.652.206-.966.139-.314.313-.575.523-.782l8.056-7.89-1.196-1.172-8.055 7.881a2.54 2.54 0 0 1-.815.525 2.496 2.496 0 0 1-.98.201 1.965 1.965 0 0 1-1.427-.58 1.885 1.885 0 0 1-.593-1.397c0-.315.062-.624.184-.928.123-.305.308-.578.556-.82l7.551-7.398-1.207-1.17-7.538 7.397c-.21.206-.478.377-.803.512a2.593 2.593 0 0 1-.993.202c-.592 0-1.077-.185-1.455-.555-.376-.369-.564-.843-.564-1.423a2.433 2.433 0 0 1 .74-1.748l13.076-13.118 4.712 4.629c.4.393.854.67 1.358.833a4.944 4.944 0 0 0 1.536.247c1.054 0 1.935-.34 2.642-1.02.708-.68 1.061-1.55 1.061-2.608 0-.5-.098-1.004-.295-1.513a3.896 3.896 0 0 0-.921-1.376l-4.878-4.542-1.041-.7a5.135 5.135 0 0 1 1.743-1.087 5.637 5.637 0 0 1 2.043-.394 5.91 5.91 0 0 1 2.122.394c.69.261 1.278.631 1.765 1.11l9.371 9.184c.46.452.824 1.002 1.092 1.65.268.647.403 1.365.403 2.154 0 .714-.137 1.39-.41 2.025a4.956 4.956 0 0 1-1.085 1.618l-18.42 18.057a2.48 2.48 0 0 1-.832.536 2.53 2.53 0 0 1-.953.191" />
        </mask>
        <path fill="#F7F7F7"
            d="M48.607 70.046a2.07 2.07 0 0 1-1.41-.536c-.406-.354-.609-.821-.609-1.401 0-.277.062-.584.186-.921.124-.338.31-.627.556-.868l8.056-7.89-1.207-1.183-8.044 7.89a2.45 2.45 0 0 1-.837.544c-.31.121-.627.182-.948.182a1.97 1.97 0 0 1-1.432-.576 1.88 1.88 0 0 1-.587-1.402c0-.33.069-.652.206-.966.139-.314.313-.575.523-.782l8.056-7.89-1.196-1.172-8.055 7.881a2.54 2.54 0 0 1-.815.525 2.496 2.496 0 0 1-.98.201 1.965 1.965 0 0 1-1.427-.58 1.885 1.885 0 0 1-.593-1.397c0-.315.062-.624.184-.928.123-.305.308-.578.556-.82l7.551-7.398-1.207-1.17-7.538 7.397c-.21.206-.478.377-.803.512a2.593 2.593 0 0 1-.993.202c-.592 0-1.077-.185-1.455-.555-.376-.369-.564-.843-.564-1.423a2.433 2.433 0 0 1 .74-1.748l13.076-13.118 4.712 4.629c.4.393.854.67 1.358.833a4.944 4.944 0 0 0 1.536.247c1.054 0 1.935-.34 2.642-1.02.708-.68 1.061-1.55 1.061-2.608 0-.5-.098-1.004-.295-1.513a3.896 3.896 0 0 0-.921-1.376l-4.878-4.542-1.041-.7a5.135 5.135 0 0 1 1.743-1.087 5.637 5.637 0 0 1 2.043-.394 5.91 5.91 0 0 1 2.122.394c.69.261 1.278.631 1.765 1.11l9.371 9.184c.46.452.824 1.002 1.092 1.65.268.647.403 1.365.403 2.154 0 .714-.137 1.39-.41 2.025a4.956 4.956 0 0 1-1.085 1.618l-18.42 18.057a2.48 2.48 0 0 1-.832.536 2.53 2.53 0 0 1-.953.191" />
        <path
            d="M47.197 69.51l1.322-1.5-.006-.006-1.316 1.506zm.133-3.19l-1.4-1.43v.001l1.4 1.429zm8.056-7.89l1.4 1.429a2 2 0 0 0 0-2.858l-1.4 1.429zm-1.207-1.183l1.4-1.429a2 2 0 0 0-2.8.001l1.4 1.428zm-8.044 7.89l1.4 1.428h.001l-1.4-1.428zm-.837.544l-.721-1.865-.008.002.729 1.863zm-2.967-1.796l2 .006v-.006h-2zm.206-.966l-1.83-.807-.003.007 1.833.8zm.523-.782l-1.4-1.43-.005.006 1.405 1.424zm8.056-7.89l1.4 1.429a2 2 0 0 0 0-2.858l-1.4 1.429zm-1.196-1.172l1.4-1.429a2 2 0 0 0-2.799 0l1.399 1.429zm-8.055 7.881l-1.398-1.43-.001.001 1.4 1.43zm-1.795.726l.008-2h-.008v2zm-1.28-3.726l-1.4-1.429 1.4 1.43zm7.551-7.397l1.4 1.429a2 2 0 0 0-.008-2.865l-1.392 1.436zm-1.207-1.17l1.391-1.436a2 2 0 0 0-2.792.008l1.4 1.428zm-7.538 7.397l1.4 1.429v-.001l-1.4-1.428zm-.803.512l.76 1.85.01-.004-.77-1.846zm-2.448-.353l1.4-1.429-1.4 1.429zm-.38-2.351l-1.853-.755-.003.008 1.855.747zm.555-.82l1.404 1.424.012-.013-1.416-1.412zm13.077-13.118l1.401-1.427a2 2 0 0 0-2.818.015l1.417 1.412zm4.712 4.629l-1.402 1.427.002.001 1.4-1.428zm1.358.833l.618-1.902-.004-.001-.614 1.903zm4.944-4.894l1.865-.722V40.5l-1.865.724zm-.921-1.376l1.402-1.426a1.973 1.973 0 0 0-.04-.037l-1.362 1.463zm-4.878-4.542l1.363-1.463a2.014 2.014 0 0 0-.246-.196l-1.117 1.66zm-1.041-.7l-1.387-1.442a2 2 0 0 0 .27 3.1l1.116-1.659zm1.743-1.087l.717 1.867.003-.001-.72-1.866zm4.165 0l-.712 1.869.003.001.709-1.87zm1.765 1.11l-1.401 1.427.001.001 1.4-1.428zm9.371 9.184l1.402-1.426-.002-.002-1.4 1.428zm1.092 1.65l-1.848.765v.001l1.848-.766zm-.007 4.179l-1.838-.789-.001.004 1.84.785zm-1.085 1.618l-1.399-1.429 1.4 1.429zm-18.42 18.057l1.4 1.43v-.001l-1.4-1.428zm-.832.536l-.735-1.86-.013.006.748 1.854zm-.956-1.807a.224.224 0 0 1-.04-.003h-.004l-.007-.004a.28.28 0 0 1-.037-.03l-2.645 3.002a4.068 4.068 0 0 0 2.733 1.035v-4zm-.094-.042c0 .001.01.01.025.03a.333.333 0 0 1 .052.109c0 .004-.002-.006-.002-.034h-4c0 1.107.416 2.141 1.292 2.907l2.633-3.012zm.075.105c0 .017-.002-.053.063-.231l-3.754-1.38a4.68 4.68 0 0 0-.309 1.611h4zm.063-.231a.32.32 0 0 1 .078-.13l-2.799-2.857a4.316 4.316 0 0 0-1.033 1.606l3.754 1.38zm.078-.13l8.057-7.89-2.799-2.857-8.056 7.89 2.798 2.858zm8.057-10.747l-1.208-1.183-2.799 2.858 1.208 1.182 2.799-2.857zm-4.008-1.182l-8.043 7.89 2.801 2.856 8.044-7.89-2.802-2.856zm-8.042 7.89a.455.455 0 0 1-.159.106l1.441 3.732a4.449 4.449 0 0 0 1.517-.981l-2.799-2.858zm-.166.11a.586.586 0 0 1-.22.044v4c.58 0 1.142-.11 1.676-.32l-1.457-3.725zm-.22.044a.253.253 0 0 1-.043-.002l.01.003a.099.099 0 0 1 .016.008l-.016-.014-2.799 2.858a3.97 3.97 0 0 0 2.832 1.147v-4zm-.033-.005l-.01-.011a.18.18 0 0 1 .025.06v-.016l-4-.01a3.879 3.879 0 0 0 1.186 2.835l2.8-2.858zm.014.027c0-.044.008-.094.04-.166l-3.667-1.6a4.394 4.394 0 0 0-.373 1.766h4zm.036-.16a.554.554 0 0 1 .097-.164l-2.809-2.848c-.416.41-.724.892-.948 1.4l3.66 1.613zm.092-.16l8.057-7.89-2.799-2.857-8.056 7.89 2.798 2.858zm8.057-10.747l-1.197-1.172-2.799 2.857 1.197 1.173 2.799-2.858zm-3.995-1.173l-8.054 7.882 2.797 2.859 8.055-7.882-2.798-2.859zm-8.055 7.882a.598.598 0 0 1-.187.108l1.54 3.692a4.553 4.553 0 0 0 1.446-.942l-2.799-2.858zm-.187.108a.509.509 0 0 1-.2.048l-.018 4a4.496 4.496 0 0 0 1.759-.356l-1.54-3.692zm-.21.047l-.032-.001h.004a.107.107 0 0 1 .024.011s-.007-.004-.022-.019l-2.8 2.858a3.963 3.963 0 0 0 2.827 1.151v-4zm-.026-.009l-.017-.018a.172.172 0 0 1 .024.059c.002.008 0 .005 0-.01h-4c0 1.092.422 2.07 1.194 2.827l2.799-2.858zm.008.032c0-.047.007-.104.039-.181l-3.711-1.494a4.463 4.463 0 0 0-.328 1.675h4zm.039-.181a.401.401 0 0 1 .1-.14l-2.8-2.857c-.433.425-.78.928-1.011 1.503l3.71 1.494zm.1-.14l7.55-7.396-2.798-2.858-7.552 7.397 2.8 2.858zm7.543-10.261l-1.208-1.17-2.783 2.872 1.207 1.17 2.784-2.872zm-4-1.161l-7.538 7.397 2.801 2.855 7.538-7.398-2.801-2.855zm-7.537 7.395c.004-.003-.037.039-.173.096l1.54 3.691a4.508 4.508 0 0 0 1.432-.93l-2.799-2.857zm-.164.092a.597.597 0 0 1-.232.05v4c.61 0 1.198-.123 1.753-.35l-1.52-3.7zm-.232.05a.515.515 0 0 1-.086-.005l-.01-.002a.145.145 0 0 1 .026.014l.015.01-2.8 2.857c.798.782 1.807 1.127 2.855 1.127v-4zm-.055.017l.004.005a.191.191 0 0 1 .032.054c.005.012.005.017.004.01a.378.378 0 0 1-.004-.063h-4c0 1.058.363 2.067 1.164 2.851l2.8-2.857zm.036.006c0-.047.007-.104.039-.181l-3.711-1.494a4.463 4.463 0 0 0-.329 1.675h4zm.035-.173a.44.44 0 0 1 .108-.151l-2.808-2.85c-.43.424-.772.922-1.004 1.491l3.704 1.51zm.12-.164l13.077-13.117-2.833-2.824-13.077 13.117 2.833 2.824zm10.26-13.102l4.711 4.629 2.803-2.854-4.712-4.629-2.803 2.854zm4.713 4.63a5.429 5.429 0 0 0 2.144 1.309l1.228-3.807a1.435 1.435 0 0 1-.573-.359l-2.799 2.857zm2.14 1.308c.7.227 1.42.344 2.154.344v-4c-.303 0-.606-.048-.918-.149l-1.235 3.805zm2.154.344c1.528 0 2.919-.512 4.028-1.579l-2.772-2.883c-.305.293-.676.462-1.256.462v4zm4.028-1.579c1.133-1.088 1.675-2.494 1.675-4.05h-4c0 .563-.165.896-.447 1.167l2.772 2.883zm1.675-4.05c0-.768-.152-1.516-.43-2.234l-3.73 1.444c.115.3.16.56.16.79h4zm-.43-2.236a5.896 5.896 0 0 0-1.384-2.078l-2.804 2.853c.23.226.372.45.458.673l3.73-1.448zm-1.423-2.115l-4.878-4.542-2.726 2.927 4.878 4.542 2.726-2.927zm-5.124-4.738l-1.042-.701-2.233 3.319 1.042.7 2.233-3.318zm-.772 2.4a3.139 3.139 0 0 1 1.074-.66l-1.434-3.735a7.134 7.134 0 0 0-2.413 1.512l2.773 2.883zm1.077-.662c.468-.18.905-.26 1.323-.26v-4c-.945 0-1.869.183-2.763.528l1.44 3.732zm1.323-.26c.477 0 .943.085 1.41.263l1.424-3.738a7.912 7.912 0 0 0-2.834-.525v4zm1.413.264c.452.171.799.397 1.073.667l2.803-2.854a7.02 7.02 0 0 0-2.458-1.553l-1.418 3.74zm1.074.668l9.372 9.185 2.8-2.857-9.372-9.184-2.8 2.856zm9.37 9.183c.25.246.47.565.645.988l3.696-1.53a6.91 6.91 0 0 0-1.538-2.311l-2.803 2.853zm.646.99c.155.375.25.828.25 1.387h4c0-1.019-.175-2.001-.555-2.92L68.06 46.23zm.25 1.387c0 .452-.085.858-.248 1.236l3.677 1.577a7.081 7.081 0 0 0 .57-2.813h-4zm-.249 1.24a2.962 2.962 0 0 1-.645.974l2.8 2.857a6.953 6.953 0 0 0 1.524-2.261l-3.679-1.57zm-.646.974L48.995 67.89l2.8 2.857 18.42-18.058-2.8-2.857zM48.995 67.89a.475.475 0 0 1-.167.104l1.47 3.72a4.472 4.472 0 0 0 1.496-.967l-2.799-2.857zm-.18.11a.535.535 0 0 1-.205.045v4a4.53 4.53 0 0 0 1.702-.336l-1.497-3.71z"
            mask="url(#a)" />
        <path fill="#FF5B53" fill-rule="evenodd"
            d="M33.307 52.447l-3.482-3.8a7.434 7.434 0 0 1-1.756-2.734v-.001c-.37-.996-.569-2.008-.569-3.025 0-1.022.169-2.002.538-2.916.344-.85.815-1.62 1.452-2.247l8.342-8.218c.6-.59 1.281-1.07 2.04-1.428a6.126 6.126 0 0 1 2.643-.578c.936 0 1.84.165 2.686.521.83.347 1.57.85 2.215 1.485l.008.008 10.635 10.591c.403.398.7.863.913 1.358.21.49.345 1.025.345 1.593 0 .995-.348 1.926-1.072 2.67l-.007.007c-.747.757-1.712 1.123-2.751 1.123-.55 0-1.087-.099-1.6-.295l-.01-.004a4.26 4.26 0 0 1-1.434-.936l-6.175-5.896-12.96 12.722z"
            clip-rule="evenodd" />
    </symbol>
    <symbol id="b2b-02-03" viewBox="0 0 51 52">
        <path fill="#FF5B53"
            d="M36.935 12.579c0-.632-.06-1.25-.181-1.847l2.69-2.036a12.6 12.6 0 0 0-2.596-4.535l-3.093 1.33a9.235 9.235 0 0 0-3.166-1.846L30.185.278A12.611 12.611 0 0 0 27.59.007c-.887 0-1.755.095-2.595.271l-.403 3.367a9.347 9.347 0 0 0-3.167 1.847l-3.093-1.33a12.602 12.602 0 0 0-2.595 4.534l2.69 2.036a9.822 9.822 0 0 0-.182 1.847c0 .631.06 1.249.182 1.846l-2.69 2.037a12.602 12.602 0 0 0 2.595 4.534l3.093-1.33a9.237 9.237 0 0 0 3.167 1.846l.403 3.367a12.568 12.568 0 0 0 5.19 0l.404-3.367a9.345 9.345 0 0 0 3.166-1.846l3.093 1.33a12.6 12.6 0 0 0 2.595-4.534l-2.689-2.037a9.822 9.822 0 0 0 .181-1.846zm-9.345 4.724c-2.581 0-4.672-2.11-4.672-4.718 0-2.606 2.09-4.717 4.672-4.717s4.673 2.11 4.673 4.717c0 2.607-2.091 4.718-4.673 4.718z" />
        <path fill="#34332E" fill-rule="evenodd"
            d="M11.983 33.483l7.885 7.963 13.569-.337 14.48-8.326a1.869 1.869 0 0 0-.33-.56 1.877 1.877 0 0 0-.851-.54c-.7-.231-1.547-.173-2.133-.024a3.238 3.238 0 0 1-.028.013l-.168.074a443.554 443.554 0 0 0-2.802 1.298 826.592 826.592 0 0 0-5.267 2.486 5.34 5.34 0 0 1-.676.817 1 1 0 0 1-.676.292l-11.155.354a1 1 0 1 1-.063-1.998l10.733-.341c.112-.138.2-.267.267-.387.32-.573.257-1.07.013-1.535-.24-.459-.655-.86-1.03-1.12a4.166 4.166 0 0 0-.182-.02 16.96 16.96 0 0 0-.941-.046 86.313 86.313 0 0 0-2.979-.014c-2.29.02-4.95.09-6.701.15a1 1 0 0 1-.74-.293c-.145-.144-.505-.423-.963-.749a36.128 36.128 0 0 0-.932-.64h-3.615a1.27 1.27 0 0 0-.091.038 4.79 4.79 0 0 0-.52.288c-.437.27-.982.658-1.573 1.108a61.317 61.317 0 0 0-2.531 2.049zm21.86-1.856zm3.11 1.396a886.229 886.229 0 0 1 5.961-2.793c.276-.127.504-.232.671-.307l.007-.003c.13-.058.291-.131.379-.16a.96.96 0 0 1 .054-.017c.83-.224 2.129-.358 3.337.04.62.204 1.236.556 1.732 1.126.5.573.833 1.315.963 2.225a1 1 0 0 1-.491 1.009L34.214 42.97a1 1 0 0 1-.474.132l-14.254.355a1 1 0 0 1-.735-.297l-8.942-9.03a1 1 0 0 1 .05-1.454 66.588 66.588 0 0 1 3.444-2.834 23.222 23.222 0 0 1 1.73-1.216c.258-.16.512-.303.747-.41.202-.091.516-.216.848-.216h3.984a1 1 0 0 1 .545.162c.305.198.786.52 1.248.849.293.208.611.442.874.659 1.75-.057 4.209-.12 6.352-.138a88.404 88.404 0 0 1 3.053.014c.41.012.773.029 1.059.054.142.012.28.027.4.048.091.015.282.05.462.14.028.014.056.03.083.046.615.385 1.389 1.063 1.864 1.97.195.37.339.78.401 1.22z"
            clip-rule="evenodd" />
        <path fill="#34332E" fill-rule="evenodd"
            d="M8.145 31.28a1 1 0 0 1 1.408.02L21.68 43.696a1 1 0 0 1-.012 1.411l-6.64 6.552a1 1 0 0 1-1.407-.002L1.228 39.35a1 1 0 0 1 .011-1.43l6.906-6.64zm-4.782 7.37L14.33 49.54l5.226-5.157-10.74-10.975-5.453 5.242z"
            clip-rule="evenodd" />
    </symbol>
    <symbol id="b2b-02-02" viewBox="0 0 46 49">
        <path fill="#FF5B53"
            d="M43.093 37.124c0-.599-.059-1.183-.169-1.745l2.576-1.921a11.765 11.765 0 0 0-2.488-4.28l-2.957 1.256a8.882 8.882 0 0 0-3.031-1.746l-.39-3.177a12.114 12.114 0 0 0-2.487-.255c-.851 0-1.68.087-2.488.255l-.389 3.177a8.882 8.882 0 0 0-3.03 1.746l-2.958-1.256a11.89 11.89 0 0 0-2.488 4.28l2.576 1.92a9.085 9.085 0 0 0 0 3.492l-2.576 1.92a11.768 11.768 0 0 0 2.488 4.28l2.958-1.256a8.882 8.882 0 0 0 3.03 1.746l.39 3.177a12.179 12.179 0 0 0 4.976 0l.388-3.177a8.882 8.882 0 0 0 3.03-1.746l2.958 1.257a11.887 11.887 0 0 0 2.488-4.28l-2.576-1.921a9.1 9.1 0 0 0 .169-1.746zm-8.946 4.455c-2.473 0-4.476-1.993-4.476-4.455 0-2.461 2.003-4.455 4.476-4.455s4.477 1.994 4.477 4.455c0 2.462-2.004 4.455-4.477 4.455z" />
        <path fill="#34332E" fill-rule="evenodd"
            d="M.028 1.526a1 1 0 0 1 1-1h23.88a1 1 0 0 1 .706.292l8.69 8.67a1 1 0 0 1 .293.707v12.307a1 1 0 1 1-2 0V10.61l-8.103-8.084H2.028V39.06h18.675a1 1 0 0 1 0 2H1.028a1 1 0 0 1-1-1V1.526z"
            clip-rule="evenodd" />
        <path fill="#34332E" fill-rule="evenodd"
            d="M24.798.526a1 1 0 0 1 1 1v7.808h7.799a1 1 0 1 1 0 2h-8.8a1 1 0 0 1-1-1V1.526a1 1 0 0 1 1-1zM7.587 15.505a1 1 0 0 1 1-1h17.459a1 1 0 1 1 0 2H8.587a1 1 0 0 1-1-1zm0 4.843a1 1 0 0 1 1-1h17.459a1 1 0 1 1 0 2H8.587a1 1 0 0 1-1-1zm0 4.842a1 1 0 0 1 1-1h17.459a1 1 0 1 1 0 2H8.587a1 1 0 0 1-1-1z"
            clip-rule="evenodd" />
    </symbol>
    <symbol id="b2b-a-01" viewBox="0 0 100 100">
        <rect width="100" height="100" fill="#F7F7F7" rx="50" />
        <path fill="#F7F7F7" d="M26 22.5h48v55H26z" />
        <path fill="#F7F7F7"
            d="M46.718 67.29l6.915 1.47c.124.029.257.038.38.038.827 0 1.625-.55 2.052-1.442.675-1.395.219-3.122-.969-3.682a.384.384 0 0 0-.066-.028l-.171-.076 16.548-3.796a1.769 1.769 0 0 1 1.5.323c.913.75.789 2.192-.246 2.77l-17.204 9.651a7.46 7.46 0 0 1-5.5.73l-9.271-2.324h-.01m-6.944-6.946l2.223-2.22a4.223 4.223 0 0 1 2.983-1.234h5.785c.637 0 1.273.114 1.871.341l8.274 2.695-.038.02" />
        <path fill="#F7F7F7" d="M30.994 61.247l-4.52 4.516L37.75 77.029l4.52-4.516-11.277-11.266z" />
        <path stroke="#1C1C1B" stroke-linecap="round" stroke-linejoin="round" stroke-width="2"
            d="M46.718 67.29l6.915 1.47c.124.029.257.038.38.038.827 0 1.625-.55 2.052-1.442.675-1.395.219-3.122-.969-3.682a.384.384 0 0 0-.066-.028l-.171-.076 16.548-3.796a1.769 1.769 0 0 1 1.5.323c.913.75.789 2.192-.246 2.77l-17.204 9.651a7.46 7.46 0 0 1-5.5.73l-9.271-2.324h-.01m-6.944-6.946l2.223-2.22a4.223 4.223 0 0 1 2.983-1.234h5.785c.637 0 1.273.114 1.871.341l8.274 2.695-.038.02m-28.357 2.183l4.52-4.516 11.279 11.266-4.52 4.516-11.279-11.266z" />
        <path fill="#F7F7F7" stroke="#FF5B53" stroke-miterlimit="10" stroke-width="2"
            d="M49.454 51.082v-.854c0-1.443-.78-2.762-2.033-3.53-3.03-1.86-5.063-5.134-5.12-8.863-.086-5.865 4.778-10.742 10.81-10.818 6.127-.085 11.124 4.726 11.124 10.666 0 3.824-2.062 7.174-5.168 9.053a4.116 4.116 0 0 0-1.976 3.52v.826h-7.637z" />
        <path stroke="#1C1C1B" stroke-linecap="round" stroke-linejoin="round" stroke-width="2"
            d="M65.593 30.073l3.287-3.274m-27.937 3.274l-3.278-3.274m15.608-3.445v-4.175m1.691 36.742v.797c0 .731-.59 1.32-1.32 1.32h-.742c-.731 0-1.32-.589-1.32-1.32v-.797m3.154.01H51.79a2.334 2.334 0 0 1-2.337-2.334v-2.525h7.609v2.524a2.334 2.334 0 0 1-2.337 2.335h.01z" />
        <path stroke="#1C1C1B" stroke-linecap="round" stroke-linejoin="round" stroke-width="1.5"
            d="M49.5 53.815h7.61" />
    </symbol>
    <symbol id="b2b-a-05" viewBox="0 0 100 100">
        <rect width="100" height="100" fill="#F7F7F7" rx="50" />
        <path fill="#F7F7F7" d="M26 26h48v48H26z" />
        <path fill="#FF5B53" fill-rule="evenodd"
            d="M74.247 25.847a1 1 0 0 1 .29.788L73.363 41.1a1 1 0 0 1-1.703.627l-3.142-3.142-4.954 4.953a1 1 0 0 1-1.414-1.414l5.66-5.66a1 1 0 0 1 1.415 0l2.32 2.32.903-11.14-11.138.904 2.32 2.32a1 1 0 0 1 0 1.413l-3.304 3.314a1 1 0 1 1-1.416-1.412l2.6-2.607-3.144-3.143a1 1 0 0 1 .627-1.703l14.466-1.174a1 1 0 0 1 .788.29zm-1.629 32.288a1 1 0 0 1 .651.858l1.174 14.466a1 1 0 0 1-1.078 1.078L58.9 73.363a1 1 0 0 1-.626-1.704l3.15-3.142-4.962-4.953a1 1 0 0 1 1.413-1.415l5.67 5.66a1 1 0 0 1 0 1.416l-2.325 2.32 11.135.903-.903-11.138-2.32 2.32a1 1 0 0 1-1.414 0l-3.211-3.211a1 1 0 0 1 1.414-1.414l2.504 2.503 3.142-3.142a1 1 0 0 1 1.052-.231zm-45.33-.094a1 1 0 0 1 1.053.231l3.15 3.15 2.41-2.416a1 1 0 1 1 1.416 1.412L32.2 63.544a1 1 0 0 1-1.415.001l-2.328-2.328-.896 11.137 11.13-.903-2.32-2.32a1 1 0 0 1 0-1.415l5.642-5.633a1 1 0 0 1 1.413 1.416l-4.934 4.925 3.142 3.141a1 1 0 0 1-.626 1.704L26.55 74.443a1 1 0 0 1-1.077-1.077l1.164-14.467a1 1 0 0 1 .651-.858zm-1.441-32.279a1 1 0 0 1 .787-.29l14.467 1.165a1 1 0 0 1 .628 1.703l-3.144 3.151 2.758 2.758a1 1 0 0 1-1.414 1.414L36.464 32.2a1 1 0 0 1 0-1.413l2.323-2.329-11.141-.896.903 11.13 2.32-2.32a1 1 0 0 1 1.414-.001l5.642 5.633a1 1 0 0 1-1.413 1.415l-4.935-4.927-3.143 3.143a1 1 0 0 1-1.703-.626L25.557 26.55a1 1 0 0 1 .29-.788z"
            clip-rule="evenodd" />
        <path fill-rule="evenodd"
            d="M38.425 42.819a13.726 13.726 0 0 0-1.014 1.987A13.605 13.605 0 0 0 38.26 56.9c1.523-.924 3.416-1.645 5.525-2.13a38.29 38.29 0 0 1-.291-4.766c0-1.797.12-3.527.34-5.14-2.052-.468-3.903-1.164-5.409-2.046zm-1.185-1.833a15.678 15.678 0 0 0-1.678 3.058c-2.076 5.036-1.327 10.533 1.515 14.73a1.014 1.014 0 0 0 .128.185 15.553 15.553 0 0 0 6.85 5.487 15.581 15.581 0 0 0 6.081 1.182c6.093-.052 11.852-3.688 14.32-9.675 3.289-7.979-.513-17.113-8.492-20.402-6.783-2.795-14.4-.467-18.552 5.194a1.012 1.012 0 0 0-.172.24zm2.367.205c1.238.698 2.787 1.285 4.56 1.7a23.44 23.44 0 0 1 1.005-3.581c.343-.91.74-1.736 1.188-2.44a13.65 13.65 0 0 0-6.753 4.321zm14.04-4.326c.45.706.847 1.533 1.19 2.445a23.34 23.34 0 0 1 1.003 3.571c1.776-.41 3.324-.998 4.562-1.7a13.57 13.57 0 0 0-5.2-3.78 13.777 13.777 0 0 0-1.555-.536zm7.938 5.943c-1.505.885-3.353 1.583-5.411 2.048.222 1.615.341 3.349.341 5.149 0 1.658-.101 3.26-.29 4.765 2.11.481 4.004 1.21 5.531 2.137.319-.544.604-1.116.851-1.716a13.608 13.608 0 0 0-1.022-12.383zm-.968 15.748c-1.258-.746-2.857-1.372-4.703-1.805-.276 1.458-.64 2.79-1.077 3.949-.34.904-.734 1.726-1.18 2.428a13.645 13.645 0 0 0 6.96-4.572zm-10.533 5.072c.361-.026.807-.237 1.319-.812.549-.616 1.089-1.564 1.563-2.822.391-1.039.724-2.254.98-3.602a27.193 27.193 0 0 0-3.941-.28c-1.373 0-2.696.096-3.942.28.256 1.348.59 2.563.98 3.602.475 1.258 1.015 2.206 1.563 2.822.512.575.959.786 1.32.812h.158zm-3.733-.502c-.445-.701-.838-1.523-1.179-2.426-.436-1.16-.8-2.49-1.076-3.948-1.851.438-3.448 1.058-4.698 1.799a13.565 13.565 0 0 0 5.418 4.045c.507.21 1.02.386 1.535.53zm-.595-8.71a29.18 29.18 0 0 1 4.249-.304c1.47 0 2.896.104 4.248.303.17-1.382.262-2.864.262-4.41 0-1.684-.11-3.292-.309-4.777a28.46 28.46 0 0 1-4.201.304c-1.455 0-2.865-.104-4.202-.303a35.94 35.94 0 0 0-.309 4.776c0 1.546.093 3.028.262 4.41zm.378-11.16c1.224.18 2.523.276 3.87.276 1.349 0 2.648-.096 3.871-.276a21.358 21.358 0 0 0-.91-3.241c-.473-1.258-1.013-2.206-1.562-2.822-.55-.617-1.024-.814-1.398-.814-.374 0-.849.197-1.399.814-.548.616-1.088 1.564-1.562 2.822a21.37 21.37 0 0 0-.91 3.24z"
            clip-rule="evenodd" />
    </symbol>
    <symbol id="b2b-a-04" viewBox="0 0 100 100">
        <rect width="100" height="100" fill="#F7F7F7" rx="50" />
        <path fill="#F7F7F7" d="M32.5 26h35v48h-35z" />
        <path fill="#FF5B53" fill-rule="evenodd"
            d="M31.964 26.459a1 1 0 0 1 1-1h34.072a1 1 0 0 1 1 1V73.55a1 1 0 1 1-2 0V27.46H33.964v46.09a1 1 0 1 1-2 0V26.46z"
            clip-rule="evenodd" />
        <path fill-rule="evenodd"
            d="M36.341 30.751a1 1 0 0 1 1-1H62.66a1 1 0 0 1 1 1v42.79a1 1 0 0 1-1 1H37.341a1 1 0 0 1-1-1v-42.79zm2 1v40.79H61.66v-40.79H38.341z"
            clip-rule="evenodd" />
        <path fill-rule="evenodd"
            d="M37.341 47.695H62.66v1.5H37.341v-1.5zm18.095-10.844a.75.75 0 0 1 .75-.75h2.467a.75.75 0 0 1 .75.75v7.246a.75.75 0 0 1-.75.75h-2.467a.75.75 0 0 1-.75-.75v-7.246zm1.5.75v5.746h.967v-5.746h-.967zm-1.5 14.963a.75.75 0 0 1 .75-.75h2.467a.75.75 0 0 1 .75.75v7.246a.75.75 0 0 1-.75.75h-2.467a.75.75 0 0 1-.75-.75v-7.246zm1.5.75v5.746h.967v-5.746h-.967z"
            clip-rule="evenodd" />
    </symbol>
    <symbol id="b2b-a-03" viewBox="0 0 100 100">
        <rect width="100" height="100" fill="#F7F7F7" rx="50" />
        <path fill="#F7F7F7" d="M25 26h50v48H25z" />
        <path fill-rule="evenodd"
            d="M24.494 73.504a1 1 0 0 1 1-1h49.022a1 1 0 1 1 0 2H25.494a1 1 0 0 1-1-1z"
            clip-rule="evenodd" />
        <path fill-rule="evenodd"
            d="M44.812 30.306a1 1 0 0 1 1-1h24.625a1 1 0 0 1 1 1v43.198a1 1 0 0 1-1 1H45.812a1 1 0 0 1-1-1V30.306zm2 1v41.198h22.625V31.306H46.812z"
            clip-rule="evenodd" />
        <path fill-rule="evenodd"
            d="M48.516 26.496a1 1 0 0 1 1-1H66.99a1 1 0 0 1 1 1v3.82a1 1 0 0 1-1.141.99H49.516a1 1 0 0 1-1-1v-3.81zm17.473 2.81v-1.81H50.516v1.81H65.99zM54.04 64.178a.75.75 0 0 1 .75-.75h6.5a.75.75 0 0 1 .75.75v9.326a.75.75 0 0 1-.75.75h-6.5a.75.75 0 0 1-.75-.75v-9.326zm1.5.75v7.826h5v-7.826h-5z"
            clip-rule="evenodd" />
        <path fill="#FF5B53" fill-rule="evenodd"
            d="M50.445 35.892a.75.75 0 0 1 .75-.75h4.228a.75.75 0 0 1 .75.75v4.246a.75.75 0 0 1-.75.75h-4.228a.75.75 0 0 1-.75-.75v-4.246zm1.5.75v2.746h2.728v-2.746h-2.728zm7.835-.75a.75.75 0 0 1 .75-.75h4.227a.75.75 0 0 1 .75.75v4.246a.75.75 0 0 1-.75.75H60.53a.75.75 0 0 1-.75-.75v-4.246zm1.5.75v2.746h2.727v-2.746H61.28zm-10.835 8a.75.75 0 0 1 .75-.75h4.228a.75.75 0 0 1 .75.75v4.247a.75.75 0 0 1-.75.75h-4.228a.75.75 0 0 1-.75-.75v-4.247zm1.5.75v2.747h2.728v-2.747h-2.728zm7.835-.75a.75.75 0 0 1 .75-.75h4.227a.75.75 0 0 1 .75.75v4.247a.75.75 0 0 1-.75.75H60.53a.75.75 0 0 1-.75-.75v-4.247zm1.5.75v2.747h2.727v-2.747H61.28zm-10.835 8.001a.75.75 0 0 1 .75-.75h4.228a.75.75 0 0 1 .75.75v4.246a.75.75 0 0 1-.75.75h-4.228a.75.75 0 0 1-.75-.75v-4.246zm1.5.75v2.746h2.728v-2.746h-2.728zm7.835-.75a.75.75 0 0 1 .75-.75h4.227a.75.75 0 0 1 .75.75v4.246a.75.75 0 0 1-.75.75H60.53a.75.75 0 0 1-.75-.75v-4.246zm1.5.75v2.746h2.727v-2.746H61.28z"
            clip-rule="evenodd" />
        <path fill-rule="evenodd"
            d="M28.139 46.934a1 1 0 0 1 1-1h16.663a1 1 0 0 1 1 1v26.429a1 1 0 0 1-.99 1.141H29.139a1 1 0 0 1-1-1v-26.57zm16.663 25.57H30.139v-24.57h14.663v24.57z"
            clip-rule="evenodd" />
        <path fill-rule="evenodd"
            d="M28.148 42.787a1 1 0 0 1 1-1h6.865a1 1 0 0 1 1 1v4.147a1 1 0 0 1-1 1h-6.865a1 1 0 0 1-1-1v-4.147zm2 1v2.147h4.865v-2.147h-4.865zm4.306 24.141a.75.75 0 0 1 .75-.75h4.415a.75.75 0 0 1 .75.75v5.576a.75.75 0 0 1-.75.75h-4.415a.75.75 0 0 1-.75-.75v-5.576zm1.5.75v4.076h2.915v-4.076h-2.915z"
            clip-rule="evenodd" />
        <path fill="#FF5B53" fill-rule="evenodd"
            d="M33.327 50.49a.75.75 0 0 1 .75.75v12.54a.75.75 0 0 1-1.5 0V51.24a.75.75 0 0 1 .75-.75zm4.079 0a.75.75 0 0 1 .75.75v12.54a.75.75 0 1 1-1.5 0V51.24a.75.75 0 0 1 .75-.75zm4.08 0a.75.75 0 0 1 .75.75v12.54a.75.75 0 0 1-1.5 0V51.24a.75.75 0 0 1 .75-.75z"
            clip-rule="evenodd" />
    </symbol>
    <symbol id="b2b-a-06" viewBox="0 0 100 100">
        <rect width="100" height="100" fill="#F7F7F7" rx="50" />
        <path fill="#F7F7F7" d="M21 30h58v40H21z" />
        <path fill="#FF5B53" fill-rule="evenodd"
            d="M28.968 56.712v-5.048h-2v6.048a1 1 0 0 0 1 1h6.45a1 1 0 0 0 1-1v-6.048h-2v5.048h-4.45zm18.991 0v-5.048h-2v6.048a1 1 0 0 0 1 1h6.46a1 1 0 0 0 1-1v-6.048h-2v5.048h-4.46zm18.991 0v-5.048h-2v6.048a1 1 0 0 0 1 1h6.458a1 1 0 0 0 1-1v-6.048h-2v5.048H66.95zM38.464 35.555v-5.048h-2v6.048a1 1 0 0 0 1 1h6.459a1 1 0 0 0 1-1v-6.048h-2v5.048h-4.46zm18.99 0v-5.048h-2v6.048a1 1 0 0 0 1 1h6.46a1 1 0 0 0 1-1v-6.048h-2v5.048h-4.46z"
            clip-rule="evenodd" />
        <path fill="#2B2B2B" fill-rule="evenodd"
            d="M30.005 30.507a1 1 0 0 1 1-1h18.99a1 1 0 0 1 1 1v17.829a1 1 0 1 1-2 0V31.507h-16.99v16.829a1 1 0 1 1-2 0V30.507z"
            clip-rule="evenodd" />
        <path fill="#2B2B2B" fill-rule="evenodd"
            d="M48.995 30.507a1 1 0 0 1 1-1h19a1 1 0 0 1 1 1v17.829a1 1 0 1 1-2 0V31.507h-18a1 1 0 0 1-1-1z"
            clip-rule="evenodd" />
        <path stroke="#2B2B2B" stroke-linecap="round" stroke-linejoin="round" stroke-width="2"
            d="M21.51 69.493V51.664H40.5v17.829" />
        <path fill="#2B2B2B" fill-rule="evenodd"
            d="M39.5 51.664a1 1 0 0 1 1-1h18.99a1 1 0 0 1 1 1v17.829a1 1 0 1 1-2 0V52.664H40.5a1 1 0 0 1-1-1z"
            clip-rule="evenodd" />
        <path stroke="#2B2B2B" stroke-linecap="round" stroke-linejoin="round" stroke-width="2"
            d="M59.49 51.664h19v17.829" />
    </symbol>
    <symbol id="b2b-b-01" viewBox="0 0 100 100">
        <rect width="100" height="100" fill="#F7F7F7" rx="50" />
        <path fill="#2B2B2B" fill-rule="evenodd"
            d="M65.752 34.251c-5.26-5.257-12.447-7.417-19.288-6.485a1 1 0 1 1-.27-1.982c7.433-1.013 15.25 1.334 20.972 7.053 5.714 5.718 8.071 13.53 7.05 20.968a1 1 0 1 1-1.982-.272c.94-6.843-1.228-14.024-6.482-19.282z"
            clip-rule="evenodd" />
        <path fill="#2B2B2B" fill-rule="evenodd"
            d="M61.115 38.893a16.29 16.29 0 0 0-14.591-4.485 1 1 0 1 1-.375-1.965c5.748-1.095 11.927.585 16.38 5.035 4.454 4.452 6.127 10.627 5.031 16.37a1 1 0 1 1-1.965-.374c.978-5.121-.515-10.618-4.48-14.58z"
            clip-rule="evenodd" />
        <path fill="#2B2B2B" fill-rule="evenodd"
            d="M56.272 43.733a9.449 9.449 0 0 0-9.482-2.346 1 1 0 0 1-.59-1.91 11.449 11.449 0 0 1 11.486 2.841 11.437 11.437 0 0 1 2.844 11.481 1 1 0 1 1-1.91-.592 9.436 9.436 0 0 0-2.348-9.474z"
            clip-rule="evenodd" />
        <path fill="#FF5B53"
            d="M67.124 65.523c-3.094-1.882-9.211-5.599-11.632-7.07a1.745 1.745 0 0 0-1.97.119l-.507.395a5.49 5.49 0 0 1-7.035-.213 56.809 56.809 0 0 1-4.732-4.729 5.503 5.503 0 0 1-.213-7.038c.142-.182.269-.348.395-.506.443-.57.49-1.352.119-1.969l-7.082-11.648a1.738 1.738 0 0 0-2.706-.332c-.887.878-1.417 1.415-3.023 3.036a9.5 9.5 0 0 0-1.788 10.818 57.353 57.353 0 0 0 26.658 26.657c3.624 1.756 7.969 1.052 10.825-1.787a306.373 306.373 0 0 0 3.023-3.037 1.737 1.737 0 0 0-.332-2.696z" />
    </symbol>
    <symbol id="b2b-b-02" viewBox="0 0 100 100">
        <rect width="100" height="100" fill="#F7F7F7" rx="50" />
        <path fill="#F7F7F7" d="M27.5 26h45v48h-45z" />
        <path fill="#FF5B53"
            d="M70.093 62.124c0-.599-.059-1.183-.169-1.745l2.576-1.921a11.765 11.765 0 0 0-2.488-4.28l-2.957 1.256a8.883 8.883 0 0 0-3.031-1.746l-.39-3.177a12.114 12.114 0 0 0-2.487-.255c-.851 0-1.68.087-2.488.255l-.389 3.177a8.883 8.883 0 0 0-3.03 1.746l-2.958-1.256a11.89 11.89 0 0 0-2.488 4.28l2.576 1.92a9.083 9.083 0 0 0 0 3.492l-2.576 1.92a11.768 11.768 0 0 0 2.488 4.28l2.958-1.256a8.883 8.883 0 0 0 3.03 1.746l.39 3.177a12.186 12.186 0 0 0 4.976 0l.388-3.177a8.883 8.883 0 0 0 3.03-1.746l2.958 1.257a11.887 11.887 0 0 0 2.488-4.28l-2.576-1.921a9.1 9.1 0 0 0 .169-1.746zm-8.946 4.455c-2.473 0-4.476-1.993-4.476-4.455 0-2.461 2.003-4.455 4.476-4.455s4.477 1.994 4.477 4.455c0 2.461-2.004 4.455-4.477 4.455z" />
        <path fill="#2B2B2B" fill-rule="evenodd"
            d="M27.028 26.526a1 1 0 0 1 1-1h23.88a1 1 0 0 1 .706.292l8.69 8.67a1 1 0 0 1 .293.707v12.307a1 1 0 1 1-2 0V35.61l-8.103-8.084H29.028V64.06h18.675a1 1 0 0 1 0 2H28.028a1 1 0 0 1-1-1V26.526z"
            clip-rule="evenodd" />
        <path fill="#2B2B2B" fill-rule="evenodd"
            d="M51.798 25.526a1 1 0 0 1 1 1v7.808h7.799a1 1 0 0 1 0 2h-8.8a1 1 0 0 1-1-1v-8.808a1 1 0 0 1 1-1zM34.587 40.505a1 1 0 0 1 1-1h17.458a1 1 0 1 1 0 2H35.587a1 1 0 0 1-1-1zm0 4.842a1 1 0 0 1 1-1h17.458a1 1 0 1 1 0 2H35.587a1 1 0 0 1-1-1zm0 4.843a1 1 0 0 1 1-1h17.458a1 1 0 1 1 0 2H35.587a1 1 0 0 1-1-1z"
            clip-rule="evenodd" />
    </symbol>
    <symbol id="b2b-b-04" viewBox="0 0 100 100">
        <rect width="100" height="100" fill="#F7F7F7" rx="50" />
        <path fill="#F7F7F7" d="M20 30h60v40H20z" />
        <path fill="#2B2B2B" fill-rule="evenodd"
            d="M20.13 51.614a1 1 0 0 1 1-1h18.43a1 1 0 0 1 1 1v17.277a1 1 0 1 1-2 0V52.614H22.13v16.277a1 1 0 1 1-2 0V51.614z"
            clip-rule="evenodd" />
        <path fill="#2B2B2B" fill-rule="evenodd"
            d="M27.398 50.614a1 1 0 0 1 1 1v4.867h4.268v-4.867a1 1 0 0 1 2 0v5.867a1 1 0 0 1-1 1h-6.268a1 1 0 0 1-1-1v-5.867a1 1 0 0 1 1-1zm11.162 1a1 1 0 0 1 1-1h18.438a1 1 0 0 1 1 1v17.277a1 1 0 1 1-2 0V52.614H39.56a1 1 0 0 1-1-1z"
            clip-rule="evenodd" />
        <path fill="#2B2B2B" fill-rule="evenodd"
            d="M45.828 50.614a1 1 0 0 1 1 1v4.867h4.269v-4.867a1 1 0 0 1 2 0v5.867a1 1 0 0 1-1 1h-6.269a1 1 0 0 1-1-1v-5.867a1 1 0 0 1 1-1zm11.17 1a1 1 0 0 1 1-1h18.43a1 1 0 0 1 1 1v17.277a1 1 0 1 1-2 0V52.614h-17.43a1 1 0 0 1-1-1z"
            clip-rule="evenodd" />
        <path fill="#2B2B2B" fill-rule="evenodd"
            d="M64.259 50.614a1 1 0 0 1 1 1v4.867h4.268v-4.867a1 1 0 0 1 2 0v5.867a1 1 0 0 1-1 1h-6.268a1 1 0 0 1-1-1v-5.867a1 1 0 0 1 1-1zM29.348 31.123a1 1 0 0 1 1-1h18.43a1 1 0 0 1 1 1V48.4a1 1 0 1 1-2 0V32.123h-16.43V48.4a1 1 0 1 1-2 0V31.123z"
            clip-rule="evenodd" />
        <path fill="#2B2B2B" fill-rule="evenodd"
            d="M36.61 30.123a1 1 0 0 1 1 1v4.866h4.268v-4.866a1 1 0 1 1 2 0v5.866a1 1 0 0 1-1 1h-6.269a1 1 0 0 1-1-1v-5.866a1 1 0 0 1 1-1zm11.169 1a1 1 0 0 1 1-1h18.43a1 1 0 0 1 1 1V48.4a1 1 0 1 1-2 0V32.123H48.78a1 1 0 0 1-1-1z"
            clip-rule="evenodd" />
        <path fill="#2B2B2B" fill-rule="evenodd"
            d="M55.047 30.123a1 1 0 0 1 1 1v4.866h4.268v-4.866a1 1 0 1 1 2 0v5.866a1 1 0 0 1-1 1h-6.268a1 1 0 0 1-1-1v-5.866a1 1 0 0 1 1-1z"
            clip-rule="evenodd" />
        <path fill="#FF5B53"
            d="M67.337 66.575c6.65 0 12.042-5.36 12.042-11.972 0-6.611-5.392-11.971-12.043-11.971-6.65 0-12.042 5.36-12.042 11.971 0 6.612 5.392 11.972 12.043 11.972z" />
        <path stroke="#F7F7F7" stroke-linecap="round" stroke-linejoin="round" stroke-width="1.5"
            d="M70.633 48.814L64.04 60.393m-1.743-6.084a2.09 2.09 0 0 0 2.096-2.084 2.09 2.09 0 0 0-2.096-2.085 2.09 2.09 0 0 0-2.097 2.085 2.09 2.09 0 0 0 2.097 2.084zm10.087 4.758a2.09 2.09 0 0 0 2.096-2.085 2.09 2.09 0 0 0-2.096-2.084 2.09 2.09 0 0 0-2.097 2.084 2.09 2.09 0 0 0 2.097 2.085z" />
    </symbol>
    <symbol id="b2b-b-03" viewBox="0 0 100 100">
        <rect width="100" height="100" fill="#F7F7F7" rx="50" />
        <path fill="#F7F7F7" d="M27 26h46v48H27z" />
        <path fill="#FF5B53"
            d="M62.935 38.579c0-.632-.06-1.25-.181-1.847l2.69-2.036a12.6 12.6 0 0 0-2.596-4.535l-3.093 1.33a9.235 9.235 0 0 0-3.166-1.846l-.404-3.367a12.61 12.61 0 0 0-2.595-.271c-.887 0-1.755.095-2.595.271l-.403 3.367a9.347 9.347 0 0 0-3.167 1.847l-3.092-1.33a12.602 12.602 0 0 0-2.596 4.534l2.69 2.036a9.822 9.822 0 0 0-.182 1.847c0 .631.06 1.249.182 1.846l-2.69 2.037a12.602 12.602 0 0 0 2.596 4.534l3.092-1.33a9.237 9.237 0 0 0 3.167 1.846l.403 3.367a12.568 12.568 0 0 0 5.19 0l.404-3.367a9.345 9.345 0 0 0 3.166-1.846l3.093 1.33a12.6 12.6 0 0 0 2.595-4.534l-2.689-2.037a9.822 9.822 0 0 0 .181-1.846zm-9.345 4.724c-2.581 0-4.672-2.11-4.672-4.717 0-2.607 2.09-4.718 4.672-4.718s4.673 2.11 4.673 4.718c0 2.606-2.091 4.717-4.673 4.717z" />
        <path fill="#F7F7F7"
            d="M47.718 61.564l6.915 1.47c.124.03.257.039.38.039.827 0 1.625-.55 2.052-1.443.675-1.395.219-3.122-.969-3.681-.019-.01-.038-.02-.066-.029l-.171-.076 16.548-3.796a1.77 1.77 0 0 1 1.5.323c.913.75.789 2.192-.246 2.771l-17.204 9.65a7.461 7.461 0 0 1-5.5.731l-9.271-2.325h-.01m-6.944-6.946l2.223-2.22a4.223 4.223 0 0 1 2.983-1.234h5.785a5.27 5.27 0 0 1 1.871.342l8.274 2.695-.038.019" />
        <path fill="#F7F7F7" d="M31.994 55.521l-4.52 4.516L38.75 71.303l4.52-4.516-11.277-11.266z" />
        <path stroke="#1C1C1B" stroke-linecap="round" stroke-linejoin="round" stroke-width="2"
            d="M47.718 61.564l6.915 1.47c.124.03.257.039.38.039.827 0 1.625-.55 2.052-1.443.675-1.395.219-3.122-.969-3.681-.019-.01-.038-.02-.066-.029l-.171-.076 16.548-3.796a1.77 1.77 0 0 1 1.5.323c.913.75.789 2.192-.246 2.771l-17.204 9.65a7.461 7.461 0 0 1-5.5.731l-9.271-2.325h-.01m-6.944-6.946l2.223-2.22a4.223 4.223 0 0 1 2.983-1.234h5.785a5.27 5.27 0 0 1 1.871.342l8.274 2.695-.038.019m-28.357 2.183l4.52-4.516 11.279 11.266-4.52 4.516-11.279-11.266z" />
    </symbol>
</svg>