<svg xmlns="http://www.w3.org/2000/svg">
    <symbol id="esg-e-06" viewBox="0 0 50 58">
        <path
            d="M10.5 18.003a4 4 0 0 0 3.89-3.07 6.08 6.08 0 0 0 2.23-.82 8.5 8.5 0 1 0-.55-10.53 6 6 0 0 0-8.57 5.42 5.84 5.84 0 0 0 .36 2 4 4 0 0 0 2.64 7zm-.92-5.76a1 1 0 0 0 .49-.59 1.001 1.001 0 0 0-.07-.77 3.92 3.92 0 0 1-.5-1.88 4 4 0 0 1 6.32-3.25 1 1 0 0 0 1.46-.34 6.5 6.5 0 1 1 .35 6.75 1 1 0 0 0-1.122-.39 1 1 0 0 0-.368.21 4 4 0 0 1-2.64 1 1 1 0 0 0-1 1 2 2 0 0 1-4 0 2 2 0 0 1 1.08-1.74zM49 56.003h-1v-11a1 1 0 0 0-2 0v11h-2v-24a1 1 0 0 0-1.45-.89L30 37.383v-5.38a1 1 0 0 0-1.45-.89L16 37.383v-8.38h1a1 1 0 0 0 1-1v-7a1 1 0 0 0-1-1H1a1 1 0 0 0-1 1v7a1 1 0 0 0 1 1h1v27H1a1 1 0 1 0 0 2h48a1 1 0 0 0 0-2zm-47-34h14v5H2v-5zm2 7h10v27H4v-27zm12 27v-16.38l12-6v5.38a1 1 0 0 0 1.45.89L42 33.623v22.38H16z" />
        <path fill="#FF5B53"
            d="M36.25 41.003a1 1 0 0 0-1 .64 1.56 1.56 0 0 1-1.18.87 8.35 8.35 0 0 1-1.26.08 9.375 9.375 0 0 0-1.19 0 6.93 6.93 0 0 0-4.09 1.88 4.382 4.382 0 0 0-1.53 3.62c.082.72.344 1.407.76 2h-.11a5.82 5.82 0 0 1-4.21-.53 1 1 0 0 0-1.469.761 1 1 0 0 0 .51.989 7.81 7.81 0 0 0 3.75 1 7.712 7.712 0 0 0 1.96-.31 7.09 7.09 0 0 0 1.12-.4 4.71 4.71 0 0 0 2.6.79h.22a5.81 5.81 0 0 0 3.56-1.52 8 8 0 0 0 2.06-3.07 10.19 10.19 0 0 0 .41-6.08 1 1 0 0 0-.91-.72zm-1.36 6.11a6.14 6.14 0 0 1-1.53 2.31 3.84 3.84 0 0 1-2.32 1 2.734 2.734 0 0 1-.7-.07 7.479 7.479 0 0 0 1.46-1.71 1 1 0 1 0-1.69-1.06 5.58 5.58 0 0 1-1.5 1.6 2.75 2.75 0 0 1-.61-1.31 2.48 2.48 0 0 1 .93-1.87 4.93 4.93 0 0 1 2.9-1.33 8.51 8.51 0 0 1 1 0c.526.005 1.05-.028 1.57-.1a4.09 4.09 0 0 0 1-.34 8.32 8.32 0 0 1-.51 2.88z" />
    </symbol>
    <symbol id="esg-g-01" viewBox="0 0 26 32">
        <path fill="currentColor"
            d="M20.492 10.102l4.47-6.705a.337.337 0 0 0-.28-.523H14.505V1.19a.337.337 0 0 0-.336-.338H3.41V.517A.337.337 0 0 0 3.074.18H.517A.337.337 0 0 0 .18.517v30.576c0 .186.15.337.337.337h2.557c.186 0 .336-.15.336-.337V15.31h7.264v1.697a.327.327 0 0 0 .01.066l.003.015.008.022.009.022a.355.355 0 0 0 .02.039c.004.004.006.009.009.013a.329.329 0 0 0 .038.046l.01.01c.011.01.023.02.035.028l.018.011a.337.337 0 0 0 .094.04l.02.005a.31.31 0 0 0 .062.006h13.672a.337.337 0 0 0 .28-.523l-4.47-6.705zM2.737 30.757H.853V15.31h1.884v15.447zM13.018 15.31l-1.671 1.07v-1.07h1.671zm-.857 1.347l2.19-1.4.002-.002c.012-.008.023-.018.034-.027l.018-.015c.01-.009.017-.02.025-.03l.017-.02c.008-.011.013-.023.02-.035l.011-.022c.005-.01.008-.023.011-.035l.009-.027.003-.028c.002-.013.004-.025.004-.038V6.224a.336.336 0 1 0-.673 0v8.413H3.41V4.129a.337.337 0 0 0-.673 0v10.508H.853V.853h1.884v1.256a.337.337 0 0 0 .673 0v-.583h10.422v2.401a.336.336 0 1 0 .673 0v-.38h9.548l-4.246 6.368a.336.336 0 0 0 0 .374l4.246 6.368H12.16z" />
        <path fill="currentColor" fill-rule="evenodd"
            d="M10.704 17.132a.19.19 0 0 1-.009-.022l-.003-.009-.005-.013a.074.074 0 0 1-.002-.007l-.001-.008a.359.359 0 0 1-.01-.066V15.31H3.41v15.783c0 .186-.15.337-.336.337H.517a.337.337 0 0 1-.337-.337V.517C.18.33.33.18.517.18h2.557c.186 0 .336.15.336.337v.336h10.76c.186 0 .336.152.336.338v1.683h10.177a.337.337 0 0 1 .28.523l-4.47 6.705 4.47 6.705a.337.337 0 0 1-.28.523H11.01a.335.335 0 0 1-.062-.006l-.02-.005a.336.336 0 0 1-.094-.04l-.004-.002-.014-.009a.347.347 0 0 1-.035-.029l-.01-.01a.329.329 0 0 1-.038-.045l-.005-.007a.355.355 0 0 1-.025-.045zm-.062.224a.517.517 0 0 1-.067-.084l-.004-.008a.53.53 0 0 1-.04-.08l-.003-.007-.001-.004m.115.183a.17.17 0 0 0 .011.01l.007.006a.508.508 0 0 0 .052.043l.028.018m.085.042a.516.516 0 0 0 .058.018h.001l.002.001.005.002a.514.514 0 0 0 .119.015h13.672a.517.517 0 0 0 .43-.804l-4.404-6.605 4.404-6.605a.517.517 0 0 0-.43-.803h-9.997V1.19a.517.517 0 0 0-.516-.518H3.59V.517A.517.517 0 0 0 3.074 0H.517A.517.517 0 0 0 0 .517v30.576c0 .286.231.517.517.517h2.557a.517.517 0 0 0 .516-.517V15.49h6.903v1.504a.224.224 0 0 0 .002.028.416.416 0 0 0 .007.058m3.848-1.823l-2.19 1.4h11.893l-4.246-6.368a.336.336 0 0 1 0-.374l4.246-6.368h-9.548v.38a.336.336 0 1 1-.673 0v-2.4H3.41v.582a.337.337 0 0 1-.673 0V.853H.853v13.784h1.884V4.129a.337.337 0 0 1 .673 0v10.508h10.422V6.224a.336.336 0 1 1 .673 0v8.754l-.003.03v.008l-.002.01a.14.14 0 0 1-.002.018l-.005.018-.004.01-.01.034-.008.014a.223.223 0 0 0-.005.008l-.003.007a.26.26 0 0 1-.016.028l-.01.013-.007.008-.005.006-.02.023-.01.01a.194.194 0 0 0-.008.005l-.002.002a.303.303 0 0 1-.032.025l-.003.002zm.11.143l-.005.004-1.679 1.073h10.94l-4.059-6.088a.517.517 0 0 1 0-.573l4.06-6.09h-9.032v.201a.517.517 0 1 1-1.033 0v-2.22H3.59v.402a.517.517 0 0 1-1.033 0V1.033H1.033v13.424h1.524V4.129a.517.517 0 0 1 1.033 0v10.328h10.063V6.224a.517.517 0 1 1 1.032 0v8.766c-.001.02-.004.039-.005.046v.004l-.001.008a.295.295 0 0 1-.005.033v.002c-.003.014-.008.026-.01.032l-.001.005v.002l-.001.002-.005.017a.377.377 0 0 1-.029.066l-.003.005a.303.303 0 0 1-.05.08l-.003.003-.002.002s-.02.025-.038.044m-.073.06a.34.34 0 0 0 .043-.035h.001M2.737 30.756H.853V15.31h1.884v15.447zm-.18-15.267H1.033v15.087h1.524V15.49zm10.461-.18h-1.671v1.07l1.671-1.07zm-.615.18h-.876v.56l.876-.56z"
            clip-rule="evenodd" />
    </symbol>
    <symbol id="esg-e-03" viewBox="0 0 50 50">
        <path
            d="M38.325 6.62a3.578 3.578 0 0 0 0 5.055 3.564 3.564 0 0 0 2.528 1.045c.915 0 1.83-.349 2.527-1.045a3.578 3.578 0 0 0 0-5.055 3.578 3.578 0 0 0-5.055 0zm3.646 3.646a1.584 1.584 0 0 1-2.237 0 1.584 1.584 0 0 1 0-2.237 1.577 1.577 0 0 1 1.118-.463 1.584 1.584 0 0 1 1.119 2.7z" />
        <path
            d="M48.751 1.249A4.206 4.206 0 0 0 45.033.062L31.357 2.368a10.253 10.253 0 0 0-5.576 2.875L.291 30.733a.996.996 0 0 0 0 1.409l17.567 17.566a.993.993 0 0 0 1.409 0l25.49-25.489a10.254 10.254 0 0 0 2.876-5.575l2.306-13.677a4.208 4.208 0 0 0-1.188-3.718zm-.776 3.386l-2.307 13.677a8.273 8.273 0 0 1-2.32 4.498L18.563 47.596 2.405 31.437 27.19 6.652a8.272 8.272 0 0 1 4.498-2.32l13.677-2.306a2.241 2.241 0 0 1 1.978.631 2.24 2.24 0 0 1 .631 1.978z" />
        <path fill="#FF5B53"
            d="M24.041 33.888c-.32-.32-.752-.431-1.023-.16l-3.66 3.66-2.836-2.834 1.898-1.898c.296-.296.16-.703-.074-.937-.283-.284-.69-.37-.961-.099l-1.898 1.899-2.823-2.823 3.66-3.661c.272-.271.161-.703-.16-1.023-.27-.271-.702-.432-.998-.136l-4.388 4.388c-.284.284-.431.727-.148 1.011l8.148 8.148c.283.283.727.135 1.01-.148l4.389-4.388c.296-.296.135-.728-.136-.999zm4.721-8.048c-.542-.543-.887-.47-1.343-.013-.358.357-.505.727-.21 1.072.493.592 1.233 1.553-.024 2.81-.974.975-2.01 1-3.094-.085l-3.587-3.587c-1.085-1.085-1.06-2.12-.111-3.07 1.27-1.27 2.305-.53 2.761-.123.308.284.69.173 1.085-.222.444-.444.53-.776-.025-1.33-1.306-1.308-3.34-1.123-5.029.566-1.491 1.491-1.984 3.488.012 5.485l3.587 3.587c1.997 1.997 3.982 1.516 5.473.025 1.689-1.69 1.861-3.76.505-5.116zm6.225-7.112L31.4 15.14c-1.997-1.997-3.97-1.529-5.522.024-1.566 1.566-2.01 3.513-.012 5.51l3.587 3.587c1.996 1.997 3.944 1.553 5.51-.012 1.552-1.553 2.02-3.526.024-5.522zm-1.184 4.363c-.924.925-1.96.95-3.044-.135l-3.587-3.587c-1.085-1.085-1.06-2.12-.136-3.045.912-.912 1.973-.961 3.057.123l3.587 3.587c1.085 1.085 1.035 2.145.123 3.057z" />
        <path
            d="M25.455 37.842a.996.996 0 0 0-1.409 0l-5.926 5.926a.996.996 0 0 0 1.409 1.409l5.926-5.927a.996.996 0 0 0 0-1.408zm2.69-2.689a.996.996 0 0 0-1.409 0l-.448.448a.996.996 0 0 0 1.409 1.409l.448-.449a.996.996 0 0 0 0-1.408z" />
    </symbol>
    <symbol id="esg-e-05" viewBox="0 0 35 50">
        <path
            d="M0 47.656A2.346 2.346 0 0 0 2.344 50H32.03a2.346 2.346 0 0 0 2.344-2.344 2.346 2.346 0 0 0-2.344-2.343v-5.47a2.346 2.346 0 0 0 2.344-2.343 2.346 2.346 0 0 0-2.344-2.344V17.97a2.346 2.346 0 0 0 2.344-2.344 2.346 2.346 0 0 0-2.344-2.344v-5.47a2.346 2.346 0 0 0 2.344-2.343 2.346 2.346 0 0 0-2.344-2.344h-3.125v-.781A2.346 2.346 0 0 0 26.563 0h-2.344a2.346 2.346 0 0 0-2.344 2.344v.781H2.344A2.346 2.346 0 0 0 0 5.469a2.346 2.346 0 0 0 2.344 2.343v5.47A2.346 2.346 0 0 0 0 15.624a2.346 2.346 0 0 0 2.344 2.344v17.187A2.346 2.346 0 0 0 0 37.5a2.346 2.346 0 0 0 2.344 2.344v5.468A2.346 2.346 0 0 0 0 47.657zm32.813 0a.783.783 0 0 1-.782.782H2.344a.782.782 0 0 1 0-1.563H32.03c.43 0 .782.35.782.781zM23.437 2.344c0-.431.351-.781.782-.781h2.343c.431 0 .782.35.782.78v.782h-3.907v-.781zM1.563 5.469c0-.431.351-.782.782-.782H32.03a.782.782 0 0 1 0 1.563H2.344a.782.782 0 0 1-.781-.781zm2.344 2.343H30.47v5.47H3.906v-5.47zm-2.344 7.813c0-.431.351-.781.782-.781H32.03a.782.782 0 0 1 0 1.562H2.344a.782.782 0 0 1-.781-.781zm2.344 2.344H30.47v17.187H3.906V17.97zM1.562 37.5c0-.431.351-.781.782-.781H32.03a.782.782 0 0 1 0 1.562H2.344a.782.782 0 0 1-.781-.781zm2.344 2.344H30.47v5.468H3.906v-5.468z" />
        <path fill="#FF5B53"
            d="M15.799 29.253H14.48l.579-.869a.78.78 0 0 0-.3-1.132l-2.779-1.388a.78.78 0 0 0-.959.21l-2.777 3.472a.782.782 0 0 0-.09.838l1.39 2.778a.781.781 0 0 0 .698.432H15.8c.431 0 .781-.35.781-.782v-2.777a.781.781 0 0 0-.781-.782zm-.782 2.778h-4.29l-.95-1.899 2.07-2.588 1.422.71-.898 1.347a.781.781 0 0 0 .65 1.215h1.996v1.215zm3.56-5.381a.78.78 0 0 0 .349-.083l2.778-1.39a.781.781 0 0 0 .3-1.131l-2.778-4.167a.78.78 0 0 0-.65-.348H15.8a.78.78 0 0 0-.65.348l-2.778 4.166a.78.78 0 0 0 .3 1.133l2.778 1.39a.783.783 0 0 0 1-.266l.738-1.109.74 1.109a.78.78 0 0 0 .65.348zm-1.39-3.647a.78.78 0 0 0-.65.348l-1.006 1.51-1.37-.685 2.056-3.082h1.941l2.055 3.082-1.37.685-1.005-1.51a.781.781 0 0 0-.65-.348zm8.944 6.543l-2.778-3.472a.78.78 0 0 0-.96-.21l-2.777 1.388a.78.78 0 0 0-.3 1.133l.579.868h-1.319a.781.781 0 0 0-.78.782v2.777c0 .432.35.782.78.782h5.556a.781.781 0 0 0 .699-.432l1.389-2.778a.782.782 0 0 0-.09-.838zm-2.482 2.485h-4.291v-1.215h1.996a.782.782 0 0 0 .65-1.215l-.898-1.347 1.422-.71 2.07 2.588-.95 1.9z" />
    </symbol>
    <symbol id="esg-g-02" viewBox="0 0 30 32">
        <path fill="currentColor" fill-rule="evenodd"
            d="M9 .491a5.075 5.075 0 0 0-5.07 5.07c0 1.592.749 3.07 1.979 4.016A8.467 8.467 0 0 0 .489 17.5v7.65h1.02V17.5a7.454 7.454 0 0 1 5.757-7.278.509.509 0 0 0 .09-.962 4.055 4.055 0 0 1-2.408-3.699A4.055 4.055 0 0 1 9 1.511 4.056 4.056 0 0 1 12.787 7a5.076 5.076 0 0 0-2.858 4.561c0 1.592.75 3.07 1.98 4.016A8.466 8.466 0 0 0 6.49 23.5v7.65h1.02V23.5a7.454 7.454 0 0 1 5.758-7.278.509.509 0 0 0 .09-.962 4.054 4.054 0 0 1-2.408-3.699A4.055 4.055 0 0 1 15 7.511a4.055 4.055 0 0 1 4.05 4.05 4.053 4.053 0 0 1-2.406 3.7l-.137.061.415.931.137-.06a5.078 5.078 0 0 0 3.012-4.632A5.077 5.077 0 0 0 17.212 7 4.055 4.055 0 0 1 21 1.51a4.055 4.055 0 0 1 4.05 4.051 4.058 4.058 0 0 1-2.404 3.7.508.508 0 0 0 .089.961 7.459 7.459 0 0 1 5.755 7.286v.642h1.021v-.64a8.474 8.474 0 0 0-5.42-7.932 5.077 5.077 0 0 0 1.98-4.017A5.076 5.076 0 0 0 21 .491a5.076 5.076 0 0 0-4.966 6.107 5.244 5.244 0 0 0-2.07 0A5.075 5.075 0 0 0 9 .492zm8.095 6.618l.139-.055A3.644 3.644 0 0 1 17.212 7a5.37 5.37 0 0 0-.054-.026l-.063.135zM12.787 7l.054-.025.064.135-.14-.055.022-.054z"
            clip-rule="evenodd" />
        <path fill="currentColor" fill-rule="evenodd"
            d="M19 17.49a.51.51 0 0 0-.51.51v2.49H15a.51.51 0 0 0-.51.51v10c0 .282.227.51.51.51h14a.51.51 0 0 0 .51-.51V21a.51.51 0 0 0-.51-.51h-3.49V18a.51.51 0 0 0-.51-.51h-6zm.51 3v-1.98h4.978v1.98H19.51zm-4 4v-2.98h12.978v2.98H24.51V24a.51.51 0 0 0-.51-.51h-4a.51.51 0 0 0-.51.51v.49h-3.98zm5 1v-.98h2.978v.98H20.51zm-5 5v-4.98h3.98V26c0 .282.227.51.51.51h4a.51.51 0 0 0 .51-.51v-.49h3.98v4.98H15.51z"
            clip-rule="evenodd" />
    </symbol>
    <symbol id="esg-e-01" viewBox="0 0 50 59">
        <path
            d="M49.656 10.713l-2.06-1.49a.835.835 0 0 0-1.166.19l-1.55 2.147-5.928-4.294a1.208 1.208 0 0 0-1.686.27l-1.241 1.706-.042-.03a1.21 1.21 0 0 0-1.763.39l-1.11 1.988a1.208 1.208 0 0 0 .347 1.567l.163.12-1.55 2.504.019-14.155A1.616 1.616 0 0 0 30.476.008h-2.672a1.615 1.615 0 0 0-1.614 1.615V6.3h-3.868V1.623A1.617 1.617 0 0 0 20.709 0h-2.673a1.615 1.615 0 0 0-1.613 1.615L16.41 16.62l-.56-.559a5.08 5.08 0 0 0-2.852-1.44l-4.771-.715L7.2 12.872l.405-.405a.835.835 0 0 0 0-1.18l-1.48-1.48A1.67 1.67 0 0 0 4.3 9.444a1.66 1.66 0 0 0-.542.365L.49 13.077a1.677 1.677 0 0 0 0 2.37l1.478 1.48a.835.835 0 0 0 .597.245.836.836 0 0 0 .596-.245l.344-.344 1.123 1.122.646 4.621c0 .017.006.034.008.05h-1.79a1.693 1.693 0 0 0-1.701 1.695v2.922a1.693 1.693 0 0 0 1.691 1.691h1.975l3.817 27.704a2.6 2.6 0 0 0 2.567 2.238h24.604a2.6 2.6 0 0 0 2.568-2.245l3.734-27.697h1.964a1.693 1.693 0 0 0 1.692-1.691V24.07a1.693 1.693 0 0 0-1.692-1.691h-2.77l1.613-1.915.344.249a1.206 1.206 0 0 0 1.597-.16l1.542-1.67a1.21 1.21 0 0 0-.181-1.797l-.253-.183 1.237-1.71a1.208 1.208 0 0 0-.27-1.686l-1.34-.97 1.064-1.469 1.382 1.001a.835.835 0 0 0 .98-1.352v-.005zm-27.341-2.75h3.87V9.02a.62.62 0 0 1-.622.632h-2.625a.625.625 0 0 1-.62-.628l-.004-1.06zm-4.223-6.295h2.559l-.006 7.346a2.298 2.298 0 0 0 2.289 2.307h2.624a2.292 2.292 0 0 0 2.29-2.295l.006-7.348h2.559l-.02 20.702h-8.217l-4.1-4.096.016-16.616zM2.902 14.815l-.338.34-.893-.892 3.276-3.27.89.889-1.012 1.011-1.923 1.922zm2.214 1.039l-.442-.443 1.348-1.348.442.443.376.376-1.352 1.342-.372-.37zm1.804 6.245l-.606-4.33L8.46 15.62l4.294.65a3.414 3.414 0 0 1 1.92.968l5.146 5.141H6.97a2.279 2.279 0 0 1-.05-.281zm30.439 34.058a.925.925 0 0 1-.914.799H11.838a.923.923 0 0 1-.913-.796L7.143 28.684H41.06l-3.7 27.473zm7.374-32.087v2.921c0 .003 0 .006-.002.009a.02.02 0 0 1-.012.011.021.021 0 0 1-.008.002H3.482c-.003 0-.006 0-.008-.002A.022.022 0 0 1 3.462 27a.021.021 0 0 1-.001-.009v-2.92a.021.021 0 0 1 .021-.021h41.23a.021.021 0 0 1 .02.021zm-4.974-1.691h-7.69v-3.417l2.907-4.706 7.22 5.225-2.438 2.898zm4.785-3.26l-9.773-7.075.656-1.175 10.029 7.26-.912.99zm.706-3.2l-1.8-1.304-6.07-4.394.966-1.334 7.873 5.698-.969 1.333z" />
        <path fill="#FF5B53"
            d="M13.224 45.607h.984c.206.68.481 1.337.823 1.96l-.702.701a1.569 1.569 0 0 0 0 2.215l1.95 1.95a1.564 1.564 0 0 0 2.215 0l.715-.716c.621.333 1.274.602 1.95.804v1.009a1.57 1.57 0 0 0 1.56 1.568h2.755a1.57 1.57 0 0 0 1.567-1.567v-1.01c.674-.2 1.326-.468 1.946-.8l.716.716a1.566 1.566 0 0 0 2.216 0l1.949-1.949a1.569 1.569 0 0 0 0-2.215l-.706-.706c.34-.623.615-1.28.82-1.96h.983a1.567 1.567 0 0 0 1.567-1.566v-2.757a1.568 1.568 0 0 0-1.566-1.566h-.962a10.333 10.333 0 0 0-.816-1.987l.675-.674a1.569 1.569 0 0 0 0-2.215l-1.949-1.95a1.565 1.565 0 0 0-2.216 0l-.663.664a10.283 10.283 0 0 0-1.997-.835v-.93a1.57 1.57 0 0 0-1.567-1.568h-2.756a1.57 1.57 0 0 0-1.567 1.567v.935c-.694.208-1.363.488-1.997.835l-.661-.668a1.565 1.565 0 0 0-2.216 0l-1.95 1.95a1.568 1.568 0 0 0 0 2.215l.676.674c-.34.632-.614 1.298-.816 1.987h-.962a1.568 1.568 0 0 0-1.566 1.566v2.757a1.568 1.568 0 0 0 1.568 1.566zm.103-4.22h.93a1.572 1.572 0 0 0 1.511-1.132 8.694 8.694 0 0 1 .737-1.796 1.568 1.568 0 0 0-.268-1.85l-.656-.656 1.802-1.802.645.645a1.567 1.567 0 0 0 1.862.263 8.581 8.581 0 0 1 1.8-.75 1.58 1.58 0 0 0 1.131-1.515v-.9h2.55v.898a1.579 1.579 0 0 0 1.131 1.515c.627.181 1.23.434 1.8.752a1.569 1.569 0 0 0 1.862-.266l.646-.646 1.802 1.803-.656.657a1.568 1.568 0 0 0-.27 1.854c.313.568.56 1.17.739 1.795a1.573 1.573 0 0 0 1.51 1.133h.93v2.55h-.954a1.576 1.576 0 0 0-1.508 1.122 8.668 8.668 0 0 1-.74 1.77 1.566 1.566 0 0 0 .264 1.863l.683.683-1.803 1.803-.693-.693a1.568 1.568 0 0 0-1.855-.27 8.61 8.61 0 0 1-1.766.729 1.568 1.568 0 0 0-1.124 1.503v.98h-2.548v-.985a1.567 1.567 0 0 0-1.123-1.503 8.612 8.612 0 0 1-1.767-.729 1.567 1.567 0 0 0-1.855.27l-.693.693-1.802-1.802.682-.683a1.567 1.567 0 0 0 .265-1.862 8.667 8.667 0 0 1-.741-1.771 1.576 1.576 0 0 0-1.508-1.123h-.954l.002-2.546z" />
        <path fill="#FF5B53"
            d="M17.583 45.317h.085l.817-.099a6.032 6.032 0 0 0 5.68 4.023 5.964 5.964 0 0 0 5.317-3.243.835.835 0 0 0-1.483-.767 4.33 4.33 0 0 1-7.795-.218l.873-.105a.715.715 0 0 0 .345-1.284l-1.903-1.42a.716.716 0 0 0-.981.119l-1.507 1.83a.715.715 0 0 0 .552 1.164zm1.461-5.129a.835.835 0 0 0 1.143-.295 4.33 4.33 0 0 1 7.78.653l-.798.095a.715.715 0 0 0-.344 1.284l1.84 1.379a.716.716 0 0 0 .983-.12l1.462-1.776a.716.716 0 0 0-.638-1.165l-.811.097a5.998 5.998 0 0 0-10.912-1.312.835.835 0 0 0 .296 1.16z" />
    </symbol>
    <symbol id="esg-e-02" viewBox="0 0 50 51">
        <path fill="#FF5B53"
            d="M28.8 44.754a.953.953 0 0 1-.286-1.86l10.454-3.271a.953.953 0 0 1 .571 1.816l-10.428 3.27a.896.896 0 0 1-.312.045zm0-4.445a.953.953 0 0 1-.286-1.861l6.687-2.09a.954.954 0 0 1 .585 1.817l-6.675 2.09a.896.896 0 0 1-.312.044z" />
        <path
            d="M49.995 10.91a.326.326 0 0 0 0-.108.54.54 0 0 0 0-.108.712.712 0 0 0-.044-.102.787.787 0 0 0-.197-.267l-.14-.05a.774.774 0 0 0-.184-.109h-.05L32.828 3.18 25.544.075h-.057a.82.82 0 0 0-.165-.051.876.876 0 0 0-.407 0 .82.82 0 0 0-.165.05h-.038L.578 10.11a.823.823 0 0 0-.165.09.42.42 0 0 0-.095.088.152.152 0 0 0-.064.064.908.908 0 0 0-.216.38.85.85 0 0 0-.038.255v30.961a.946.946 0 0 0 .667.908l23.79 7.431.903.108 12.334-3.849 11.603-3.633a.94.94 0 0 0 .635-.908V11.03a.705.705 0 0 0 .063-.12zM24.066 48.17L1.898 41.25V12.27l4.624 1.448V26.57a.96.96 0 0 0 .635.902l.146.05h.139c.055.008.11.008.166 0h.07c.02.007.042.007.063 0a.254.254 0 0 0 .095 0l.146-.043a.381.381 0 0 0 .096-.058.387.387 0 0 0 .101-.076l.051-.044 4.331-3.811 4.446 6.935.057.096a.958.958 0 0 0 .635.431h.28a.177.177 0 0 0 .082 0 .12.12 0 0 0 .064 0h.076a.635.635 0 0 0 .146-.076.787.787 0 0 0 .14-.114l.152-.165a.687.687 0 0 0 .083-.108.595.595 0 0 0 .089-.165.83.83 0 0 0 .057-.178.978.978 0 0 0 0-.19V17.577l5.195 1.62V48.17zm-6.46-32.816l-.063.045-.337.254a.896.896 0 0 0-.235.508.704.704 0 0 0 0 .114V26.71l-3.302-5.17a.16.16 0 0 0 0-.05.636.636 0 0 0-.083-.115 1.138 1.138 0 0 0-.134-.12.502.502 0 0 0-.146-.09l-.088-.044a.405.405 0 0 0-.115-.038l-.178-.013a.804.804 0 0 0-.247 0h-.134a.758.758 0 0 0-.222.095l-.127.09-.076.07-3.703 3.276V13.964a.581.581 0 0 0 .172-.05L19.11 9.538l5.983 2.705-7.488 3.112zM25.1 17.52l-4.407-1.384 7.176-2.986.153-.082a.786.786 0 0 0 .14-.114.882.882 0 0 0 .26-.445.096.096 0 0 0 0-.044.701.701 0 0 0 0-.165c0-.1-.014-.198-.044-.293 0 0 0-.057-.032-.082a1.243 1.243 0 0 0-.064-.134l-.082-.114a.804.804 0 0 0-.127-.127h-.045a.553.553 0 0 0-.165-.102L19.6 7.664h-.044a.908.908 0 0 0-.781 0L7.882 12.18a.87.87 0 0 1 .127.082.595.595 0 0 0-.165-.082.197.197 0 0 0-.083-.038l-4.02-1.27L25.118 1.98l6.987 2.94 14.175 5.99-21.18 6.61zm22.997 23.778L37.16 44.723l-11.19 3.499V19.248l22.127-6.922v28.973z" />
    </symbol>
    <symbol id="esg-g-03" viewBox="0 0 30 30">
        <g fill="currentColor" clip-path="url(#a)">
            <path
                d="M18.297 10.567c-.105-.157-2.628-3.86-7.384-3.86s-7.28 3.703-7.384 3.86l-.231.347.23.347c.106.157 2.629 3.859 7.385 3.859s7.279-3.702 7.384-3.86l.23-.346-.23-.347zm-7.384 3.303c-3.27 0-5.366-2.11-6.076-2.957.706-.85 2.79-2.956 6.076-2.956 3.271 0 5.367 2.11 6.075 2.958-.706.849-2.79 2.955-6.075 2.955z" />
            <path
                d="M10.913 8.701c-1.22 0-2.213.993-2.213 2.213 0 1.22.993 2.212 2.213 2.212 1.22 0 2.212-.992 2.212-2.212 0-1.22-.992-2.213-2.212-2.213zm0 3.175a.963.963 0 0 1 0-1.925.963.963 0 0 1 0 1.925zm.624-8.125h-1.25v2.09h1.25V3.75zm4.056 1.087l-1.044 1.809 1.082.625 1.045-1.81-1.083-.624zm-9.36.003l-1.083.625 1.045 1.81 1.082-.626-1.044-1.809zm5.304 11.146h-1.25v2.09h1.25v-2.09zm4.094-1.431l-1.082.625 1.044 1.809 1.083-.625-1.045-1.809zm-9.441-.002l-1.044 1.809 1.083.625 1.044-1.81-1.082-.624z" />
            <path
                d="M28.812 23.08l-4.892-4.892a1.253 1.253 0 0 0-1.768 0l-.57.571-1.674-1.674a10.827 10.827 0 0 0 1.917-6.171 10.84 10.84 0 0 0-3.197-7.716A10.84 10.84 0 0 0 10.912 0a10.84 10.84 0 0 0-7.716 3.197A10.84 10.84 0 0 0 0 10.914a10.84 10.84 0 0 0 3.196 7.716 10.874 10.874 0 0 0 7.716 3.19c2.16 0 4.317-.643 6.17-1.914l1.676 1.676-.571.571a1.251 1.251 0 0 0 0 1.768l4.892 4.892A4.041 4.041 0 0 0 25.946 30a4.04 4.04 0 0 0 2.866-1.186A4.026 4.026 0 0 0 30 25.947a4.024 4.024 0 0 0-1.188-2.866zM4.08 17.747a9.599 9.599 0 0 1-2.83-6.832 9.599 9.599 0 0 1 2.83-6.832 9.6 9.6 0 0 1 6.832-2.83 9.6 9.6 0 0 1 6.833 2.83 9.599 9.599 0 0 1 2.83 6.832 9.599 9.599 0 0 1-2.83 6.832c-3.768 3.767-9.898 3.767-13.665 0zm13.994 1.385c.187-.163.376-.323.554-.501.178-.178.339-.367.503-.554l1.566 1.567-1.055 1.056-1.568-1.568zm9.854 8.799a2.809 2.809 0 0 1-3.965 0l-4.893-4.892 3.966-3.966 4.892 4.892c.53.53.822 1.234.822 1.983 0 .75-.292 1.453-.822 1.983z" />
            <path
                d="M25.243 24.361l-.885.884.884.884.884-.884-.883-.884zm-1.765-1.766l-.884.884.884.884.883-.884-.883-.884z" />
        </g>
        <defs>
            <clipPath id="a">
                <path fill="#fff" d="M0 0h30v30H0z" />
            </clipPath>
        </defs>
    </symbol>
    <symbol id="esg-e-04" viewBox="0 0 52 52">
        <path stroke="#272727" stroke-width=".5"
            d="M46.827 39.776h2.642A1.53 1.53 0 0 0 51 38.245v-.51a1.53 1.53 0 0 0-1.53-1.53h-1.062a2.66 2.66 0 0 0 1.061-2.042V28.2a4.112 4.112 0 0 0-1.882-3.28l-6.791-6.286V4.57a.51.51 0 0 0 .51-.51V1.51a.51.51 0 0 0-.51-.511h-9.184a.51.51 0 0 0-.51.51V4.06a.51.51 0 0 0 .51.51v14.062l-6.79 6.285a4.112 4.112 0 0 0-1.883 3.281v5.964A2.657 2.657 0 0 0 24 36.204h-7.439a9.694 9.694 0 0 0-1.275-17.857V9.163h.51a.51.51 0 0 0 .51-.51v-2.04a.51.51 0 0 0-.51-.511H8.653a.51.51 0 0 0-.51.51v2.041a.51.51 0 0 0 .51.51h.51v9.184a9.623 9.623 0 0 0-6.607 9.872 9.801 9.801 0 0 0 5.357 7.985h-1.3C3.514 36.204 1 39.638 1 43.857c0 4.22 2.515 7.653 5.612 7.653H49.47A1.531 1.531 0 0 0 51 49.98v-.51a1.53 1.53 0 0 0-1.53-1.531h-2.643a20.001 20.001 0 0 1 0-8.163zM32.122 2.02h8.164v1.531h-8.164v-1.53zM23.96 34.163V28.2a3.087 3.087 0 0 1 1.48-2.47l.05-.04 6.98-6.46a.51.51 0 0 0 .164-.372v-4.082h1.53a.51.51 0 1 0 0-1.02h-1.53v-1.02h1.53a.51.51 0 0 0 0-1.02h-1.53v-1.021h1.53a.51.51 0 0 0 0-1.02h-1.53v-1.02h1.53a.51.51 0 1 0 0-1.021h-1.53V4.57h7.142v14.286a.51.51 0 0 0 .164.373l6.98 6.459.05.04a3.087 3.087 0 0 1 1.48 2.47v5.964c0 1.107-1.423 2.041-3.102 2.041H27.06c-1.678 0-3.102-.934-3.102-2.04zM9.163 7.123h6.123v1.02H9.163v-1.02zm2.041 29.025a8.75 8.75 0 0 1-7.653-8 8.618 8.618 0 0 1 6.265-8.944.51.51 0 0 0 .368-.51v-2.898h1.02a.51.51 0 1 0 0-1.02h-1.02v-1.02h1.02a.51.51 0 0 0 0-1.021h-1.02v-1.02h1.02a.51.51 0 0 0 0-1.021h-1.02v-1.53h4.081v9.55a.51.51 0 0 0 .368.51 8.673 8.673 0 0 1 3.372 14.796 8.566 8.566 0 0 1-5.831 2.184c-.322 0-.633 0-.944-.056h-.026zM49.98 49.469v.51a.51.51 0 0 1-.51.51H6.611c-2.55 0-4.592-2.974-4.592-6.632 0-3.658 2.041-6.633 4.592-6.633H49.47a.51.51 0 0 1 .51.51v.51a.51.51 0 0 1-.51.511H9.357a5.102 5.102 0 1 0 0 10.204H49.47a.51.51 0 0 1 .51.51zM9.357 47.94a4.082 4.082 0 0 1 0-8.163h36.419a21.135 21.135 0 0 0 0 8.163H9.357z" />
        <path stroke="#272727" stroke-width=".5"
            d="M12.414 35.036a7.506 7.506 0 0 0 7.275-7.46 7.368 7.368 0 0 0-.79-3.336.51.51 0 0 0-.455-.28H6.006a.51.51 0 0 0-.455.28 7.454 7.454 0 0 0 6.674 10.8l.189-.004zM5.78 27.893c-.05-1.001.138-2 .551-2.913h11.786c.366.816.553 1.702.55 2.597a6.444 6.444 0 0 1-12.882.29l-.005.026zM9.673 4.061a.51.51 0 0 0 .51-.51v-2.04a.51.51 0 0 0-1.02 0v2.04a.51.51 0 0 0 .51.51zm2.552 0a.51.51 0 0 0 .51-.51v-2.04a.51.51 0 0 0-1.02 0v2.04a.51.51 0 0 0 .51.51zm2.551 0a.51.51 0 0 0 .51-.51v-2.04a.51.51 0 1 0-1.02 0v2.04a.51.51 0 0 0 .51.51z" />
        <path fill="#FF5B53" stroke="#FF5B53" stroke-width=".5"
            d="M37.734 21.918l-1.132-1.3a.509.509 0 0 0-.766 0l-1.163 1.3a6.23 6.23 0 0 0 0 8.24l1.133 1.306a.512.512 0 0 0 .765 0l1.163-1.285a6.23 6.23 0 0 0 0-8.26zm-1.53 8.45l-.745-.858a5.22 5.22 0 0 1 0-6.903l.745-.857.745.857a5.22 5.22 0 0 1 0 6.903l-.745.857zm7.169-1.578l-1.409.108a5.26 5.26 0 0 0-4.867 4.867l-.107 1.419a.51.51 0 0 0 .51.55h.04l1.404-.112a5.255 5.255 0 0 0 4.867-4.862l.108-1.408a.512.512 0 0 0-.546-.546v-.015zm-.577 1.873a4.25 4.25 0 0 1-3.928 3.929l-.812.081.062-.81a4.245 4.245 0 0 1 3.928-3.93l.79-.081-.04.811zm-12.352-1.765l-1.383-.107a.478.478 0 0 0-.398.148.51.51 0 0 0-.148.398l.107 1.408a5.255 5.255 0 0 0 4.867 4.862l1.404.112h.04a.51.51 0 0 0 .51-.55l-.106-1.404a5.26 5.26 0 0 0-4.893-4.867zm3.097 5.694a4.251 4.251 0 0 1-3.929-3.929l-.04-.81.81.06a4.245 4.245 0 0 1 3.929 3.929l.04.831-.81-.081z" />
    </symbol>
    <symbol id="esg-g-04" viewBox="0 0 30 30">
        <g clip-path="url(#a)">
            <path fill="currentColor"
                d="M25.304 14.112a6.536 6.536 0 0 0-.325-.099v-2.772a.616.616 0 0 0-.615-.614h-6.448l-4.83-7.929a.614.614 0 0 0-.523-.295h-.006a.604.604 0 0 0-.523.301L.086 22.894a.61.61 0 0 0 .529.923h6.552l2.003 3.472c.11.19.314.308.535.308h7.02a.617.617 0 0 0 .534-.308l.995-1.72a6.733 6.733 0 0 0 4.844 2.028c.737 0 1.487-.117 2.219-.357a6.828 6.828 0 0 0 3.386-2.514A6.879 6.879 0 0 0 30 20.701c-.012-3-1.893-5.649-4.696-6.59zm-1.56-2.25v1.936c-2.17-.184-4.359.652-5.741 2.225l-.756-1.303a.614.614 0 0 0-.53-.307H14.34v-2.55h9.404zM1.683 22.594l10.88-18.378 3.91 6.417h-2.748a.616.616 0 0 0-.615.615v3.165H9.693a.6.6 0 0 0-.529.307l-3.466 5.956a.61.61 0 0 0 0 .615l.75 1.303H1.683zm15.937 1.604v.006l-1.26 2.17h-6.31l-3.11-5.39 3.11-5.342h6.312l1.045 1.795v.006l2.065 3.546-1.85 3.209zm7.296 1.874c-2.213.732-4.585.08-6.03-1.616l1.826-3.165a.61.61 0 0 0 0-.615l-2.047-3.522c1.199-1.647 3.436-2.464 5.544-2.059.019.006.037.006.055.012a5.1 5.1 0 0 1 .652.173c2.299.774 3.841 2.95 3.841 5.42 0 2.44-1.542 4.604-3.841 5.372z" />
        </g>
        <defs>
            <clipPath id="a">
                <path fill="#fff" d="M0 0h30v30H0z" />
            </clipPath>
        </defs>
    </symbol>
</svg>