<svg xmlns="http://www.w3.org/2000/svg"><symbol id="location-icon" viewBox="0 0 24 32"><path fill="#999" d="M12 3c3.3 0 6 2.7 6 6 0 3.15-3.15 8.25-6 11.85C9.15 17.1 6 12.15 6 9c0-3.3 2.7-6 6-6zm0-3C7.05 0 3 4.05 3 9c0 6.75 9 16.5 9 16.5s9-9.9 9-16.5c0-4.95-4.05-9-9-9zm0 6c-1.65 0-3 1.35-3 3s1.35 3 3 3 3-1.35 3-3-1.35-3-3-3zm12 19.5c0 3.3-5.4 6-12 6s-12-2.7-12-6c0-1.95 1.8-3.6 4.65-4.8l.9 1.35C4.05 22.8 3 23.7 3 24.75c0 2.1 4.05 3.75 9 3.75s9-1.65 9-3.75c0-1.05-1.05-1.95-2.7-2.7l.9-1.35c3 1.2 4.8 2.85 4.8 4.8z"/></symbol><symbol id="cuckoo-logo" viewBox="0 0 78.42 11.65"><defs><style>.cls-1{fill:#585856}</style></defs><g id="Layer_1-2"><path d="M6.67 2.36c1.5 0 2.79.62 3.49 1.19l1.5-1.99C10.37.56 8.57-.01 6.63-.01 2.75 0 0 2.5 0 5.82s2.75 5.83 6.63 5.83c2.03 0 3.85-.59 5.15-1.66l-1.57-1.93-.08.06c-.71.56-1.99 1.16-3.47 1.16-2.39 0-4.18-1.38-4.18-3.46s1.79-3.46 4.18-3.46m25.71 0c1.5 0 2.79.62 3.5 1.19l1.5-1.99c-1.29-1-3.09-1.57-5.03-1.57-3.88 0-6.63 2.5-6.63 5.82s2.75 5.83 6.63 5.83c2.03 0 3.85-.59 5.15-1.66l-1.57-1.93-.08.06c-.71.56-1.99 1.16-3.47 1.16-2.39 0-4.17-1.38-4.17-3.46s1.79-3.46 4.17-3.46M56.53 0c-3.87 0-6.78 2.5-6.78 5.82s2.91 5.83 6.78 5.83 6.78-2.5 6.78-5.83S60.4 0 56.53 0m0 9.29c-2.47 0-4.19-1.42-4.19-3.46s1.72-3.46 4.19-3.46 4.19 1.42 4.19 3.46S59 9.29 56.53 9.29M71.65 0c-3.86 0-6.78 2.5-6.78 5.82s2.92 5.83 6.78 5.83 6.78-2.5 6.78-5.83S75.52 0 71.65 0m0 9.29c-2.47 0-4.19-1.42-4.19-3.46s1.72-3.46 4.19-3.46 4.19 1.42 4.19 3.46-1.72 3.46-4.19 3.46" class="cls-1"/><path d="M50.48.23H47l-5.56 5.19V.23H39v11.13h2.44V6.11l5.71 5.26h3.52L44.5 5.69 50.48.23zm-28.7 6.63c0 .99-.57 2.4-3.18 2.4-3.02 0-3.05-1.99-3.05-2.4V.24H13.1v7.09c0 1.9 1.65 4.33 5.5 4.33s5.63-2.48 5.63-4.33V.24h-2.45v6.62z" class="cls-1"/></g></symbol><symbol id="facebook-icon" viewBox="0 0 24 24"><path fill="#999" fill-rule="evenodd" d="M9.778 12.8V20h3.358v-7.1h2.271l.593-3h-2.864V7.7c0-.3.099-.7.592-.7h1.58V4h-3.061c-.988 0-2.47 1.3-2.47 2.8v3.1H8v3l1.778-.1z" clip-rule="evenodd"/></symbol><symbol id="q-icon03" viewBox="0 0 45 42"><path fill="#FF5B53" d="M28.204 24.16l-8.815-4.95c-1.061-.597-2.389.15-2.389 1.342v9.896c0 1.192 1.328 1.94 2.389 1.342l8.815-4.95a1.526 1.526 0 0 0 0-2.68z"/><path fill="#222" fill-rule="evenodd" d="M32.78.04a1.145 1.145 0 0 1 .864.107 1.118 1.118 0 0 1 .428 1.533l-3.978 6.96h7.82c3.634 0 6.587 2.94 6.585 6.54v20.28c0 3.603-2.951 6.54-6.587 6.54H7.087C3.451 42 .5 39.063.5 35.46V15.182c0-3.604 2.951-6.54 6.587-6.54h7.94l-3.976-6.963a1.118 1.118 0 0 1 .427-1.531 1.148 1.148 0 0 1 1.55.424L17.443 8.3l.006.009.008.017.013.027.134.29h9.917l.134-.29c.008-.018.02-.038.038-.073L32.094.57a1.127 1.127 0 0 1 .685-.53zm9.45 15.142v19.78h.002v.5c0 2.37-1.939 4.291-4.316 4.291H7.087c-2.377 0-4.316-1.92-4.316-4.29V15.181c0-2.37 1.939-4.291 4.316-4.291h30.826c2.377 0 4.316 1.92 4.316 4.29z" clip-rule="evenodd"/></symbol><symbol id="q-icon02" viewBox="0 0 51 53"><mask id="a" fill="#fff"><rect width="21" height="32" x="17" y=".79" rx="1"/></mask><rect width="21" height="32" x="17" y=".79" stroke="#34332E" stroke-width="4" mask="url(#a)" rx="1"/><path fill="#FF5B53" d="M17 1.264a1 1 0 0 1 1-1h19a1 1 0 0 1 1 1v13H17v-13z"/><path stroke="#34332E" stroke-width="2" d="M18.432 15.29h19"/><path fill="#34332E" d="M30.43 15.79h5v2h-5z"/><path fill="#F5F5F5" d="M16.129 29.79c-.85 0-4.368 2.892-6.109 4.427l8.942 9.03 14.253-.354 17.353-9.827c-.425-2.975-3.365-2.95-4.781-2.567-.213.07-7.186 3.393-10.646 5.046 1.027-1.838-.463-3.435-1.483-4.072-.567-.284-7.732-.118-11.244 0-.425-.425-1.711-1.299-2.301-1.682h-3.984z"/><path stroke="#34332E" stroke-linecap="round" stroke-linejoin="round" stroke-width="2" d="M23.3 36.785l11.155-.355c.299-.299.524-.595.686-.885m0 0c1.027-1.838-.463-3.435-1.483-4.072-.567-.284-7.732-.118-11.244 0-.425-.425-1.711-1.299-2.301-1.682h-3.984c-.85 0-4.368 2.891-6.11 4.426l8.943 9.03 14.253-.354 15.353-8.827c-.425-2.975-3.365-2.95-4.781-2.567-.213.07-5.186 2.393-8.646 4.046zm-14.674 9.64L8.337 32.79l-6.905 6.64 12.395 12.306 6.64-6.551z"/></symbol><symbol id="q-icon01" viewBox="0 0 54 54"><path fill="#F5F5F5" d="M28.5 13h-9l-2 1.5V40l2 1H51l.5-7.5-2.5-1-2-2-1.5-2.5.5-2.5 1.5-2.5 3-2v-7.5l-1-.5h-21z"/><g clip-path="url(#a)"><path fill="#FF5B53" stroke="#FF5B53" stroke-width="2" d="M15.711 13.106l1.236.618a1 1 0 0 1 .553.894v24.764a1 1 0 0 1-.553.894l-1.236.618a.999.999 0 0 1-.447.106H4.5a1 1 0 0 1-1-1v-5.736c0-.451.303-.842.723-1.007C6.153 32.496 9 30.524 9 27c0-3.524-2.846-5.496-4.777-6.257-.42-.165-.723-.556-.723-1.007V14a1 1 0 0 1 1-1h10.764c.155 0 .308.036.447.106z"/><path stroke="#34332E" stroke-linecap="round" stroke-miterlimit="10" stroke-width="2" d="M19 18l.002-3.502c-.002-.998.764-1.496 1.204-1.496h30.612a.467.467 0 0 1 .467.467v7.489a.465.465 0 0 1-.428.465 5.603 5.603 0 0 0 0 11.172.465.465 0 0 1 .428.465v7.489a.467.467 0 0 1-.467.466l-30.607-.003C19.77 41.012 19 40.5 19 39.5V36m-.33-6.185v1.867m.003-9.334v1.867"/><path fill="#34332E" stroke="#34332E" stroke-width=".3" d="M39.131 19.87l-.009-.008-.01-.006a1.215 1.215 0 0 0-.629-.196c-.232 0-.447.163-.644.401v.001L26.506 33.467l-.003.004c-.17.213-.275.427-.275.636 0 .208.097.402.26.579l.005.005a.915.915 0 0 0 .657.281c.27 0 .514-.161.732-.422l11.331-13.383c.175-.205.279-.419.279-.64 0-.25-.138-.468-.362-.658zm-2.412 8.902c-.858 0-1.599.272-2.216.818-.627.556-.932 1.338-.932 2.326 0 .973.306 1.748.932 2.303.617.546 1.358.819 2.216.819.858 0 1.592-.273 2.195-.82.626-.555.932-1.33.932-2.303 0-.986-.306-1.769-.932-2.324-.603-.547-1.337-.82-2.195-.82zm0 1.536c.435 0 .785.14 1.064.413.272.268.418.652.418 1.173 0 .52-.145.912-.42 1.196-.277.272-.628.41-1.062.41-.434 0-.784-.138-1.062-.41-.274-.284-.42-.677-.42-1.196 0-.521.146-.905.419-1.173.278-.274.629-.413 1.063-.413zm-8.025-10.344c-.858 0-1.6.273-2.216.819-.627.555-.932 1.338-.932 2.325 0 .974.306 1.749.932 2.303.617.546 1.358.819 2.216.819.858 0 1.592-.272 2.195-.82.626-.554.931-1.329.931-2.302 0-.987-.305-1.77-.931-2.325-.603-.546-1.337-.819-2.195-.819zm0 1.537c.435 0 .785.139 1.063.412.273.269.419.652.419 1.173 0 .52-.145.912-.42 1.196-.278.273-.628.411-1.062.411-.434 0-.784-.138-1.062-.41-.274-.285-.42-.677-.42-1.197s.146-.904.419-1.173c.278-.273.628-.412 1.063-.412z"/></g><defs><clipPath id="a"><path fill="#fff" d="M0 0h53v53H0z" transform="rotate(180 26.75 26.75)"/></clipPath></defs></symbol><symbol id="instagram-icon" viewBox="0 0 24 24"><path fill="#999" d="M12 8.834c-1.712 0-3.167 1.455-3.167 3.166 0 1.712 1.455 3.167 3.167 3.167 1.712 0 3.167-1.455 3.167-3.167 0-1.711-1.455-3.166-3.167-3.166z"/><path fill="#999" d="M16.06 2.5H8.026C4.918 2.5 2.5 4.918 2.5 7.94v8.033c0 3.109 2.418 5.527 5.527 5.527h8.032c3.023 0 5.441-2.418 5.441-5.527V7.94a5.418 5.418 0 0 0-5.44-5.44zM12 17.01c-2.764 0-4.923-2.246-4.923-4.924 0-2.677 2.16-5.009 4.923-5.009 2.764 0 4.923 2.246 4.923 4.923s-2.16 5.01-4.923 5.01zm5.096-8.896a1.143 1.143 0 0 1-1.123-1.123c0-.605.518-1.123 1.123-1.123.604 0 1.122.518 1.122 1.123 0 .604-.518 1.123-1.122 1.123z"/></symbol><symbol id="q-icon06" viewBox="0 0 47 47"><path fill="#FF5B53" stroke="#FF5B53" stroke-width="2" d="M17.057 6.831c-.21.21-.494.328-.791.328H8.63c-.813 0-1.473.66-1.473 1.472v7.639c0 .297-.118.582-.327.791l-5.399 5.4.707.706-.707-.707c-.354.354-.432.77-.432 1.04 0 .271.078.687.432 1.04l5.399 5.4c.21.21.327.494.327.79v7.64c0 .812.66 1.472 1.473 1.472h7.635c.297 0 .582.118.79.327h.001l5.402 5.4a1.47 1.47 0 0 0 2.08 0l5.399-5.4c.21-.21.494-.327.79-.327h7.639c.813 0 1.472-.66 1.472-1.472v-7.64c0-.297.118-.581.328-.79l5.401-5.4a1.47 1.47 0 0 0 0-2.08l-5.401-5.402a1.119 1.119 0 0 1-.328-.791V8.631c0-.812-.66-1.472-1.472-1.472h-7.638c-.298 0-.582-.118-.791-.328l-5.4-5.399-.706.707.707-.707A1.463 1.463 0 0 0 23.499 1c-.271 0-.687.079-1.04.432l-5.402 5.4z"/></symbol><symbol id="plus-icon" viewBox="0 0 14 14"><path stroke="#fff" stroke-linecap="round" stroke-width="1.5" d="M7 1v12M1 6.667h12"/></symbol><symbol id="q-icon04" viewBox="0 0 56 56"><mask id="a" width="43" height="45" x="9.7" y="6.12" maskUnits="userSpaceOnUse"><path fill="#fff" d="M9.7 6.12h43v45h-43z"/><path d="M27.515 48.328a2.185 2.185 0 0 1-1.505-.583c-.433-.386-.649-.895-.649-1.526 0-.302.066-.637.198-1.004a2.53 2.53 0 0 1 .593-.945l8.594-8.591-1.288-1.288-8.58 8.591a2.705 2.705 0 0 1-1.904.791c-.6 0-1.11-.209-1.528-.627a2.07 2.07 0 0 1-.626-1.526c0-.36.073-.71.22-1.053a2.72 2.72 0 0 1 .557-.851l8.594-8.592-1.276-1.276-8.592 8.582a2.722 2.722 0 0 1-.87.572 2.62 2.62 0 0 1-1.045.219c-.593 0-1.1-.21-1.522-.632a2.074 2.074 0 0 1-.632-1.522c0-.342.065-.679.196-1.01.13-.331.328-.63.593-.894l8.054-8.054-1.288-1.274-8.04 8.054c-.224.224-.51.41-.857.558-.348.146-.701.22-1.059.22-.631 0-1.149-.202-1.552-.605-.401-.401-.602-.918-.602-1.55 0-.342.066-.678.196-1.01.133-.331.33-.629.593-.893l13.949-14.283 5.026 5.04c.427.427.91.73 1.449.907.54.18 1.085.269 1.638.269 1.124 0 2.064-.37 2.818-1.111.755-.74 1.132-1.687 1.132-2.84 0-.544-.105-1.093-.315-1.647a4.251 4.251 0 0 0-.982-1.498L32 10.5l-1.111-.763a5.461 5.461 0 0 1 1.86-1.183 5.907 5.907 0 0 1 2.179-.43c.773 0 1.527.144 2.263.43a5.342 5.342 0 0 1 1.883 1.209l9.996 10c.49.492.878 1.09 1.164 1.797.287.705.43 1.486.43 2.345a5.63 5.63 0 0 1-.437 2.205 5.405 5.405 0 0 1-1.157 1.762L29.421 47.535a2.633 2.633 0 0 1-.887.583 2.651 2.651 0 0 1-1.017.208"/></mask><path fill="#222" d="M26.01 47.745l1.337-1.487-.006-.006-1.331 1.493zm.142-3.475l-1.414-1.414 1.414 1.414zm8.594-8.591l1.414 1.414 1.414-1.414-1.414-1.414-1.414 1.414zm-1.288-1.288l1.414-1.414-1.415-1.415-1.415 1.416 1.416 1.413zm-8.58 8.591l1.414 1.415.001-.001-1.415-1.414zm-.894.593l-.733-1.86-.008.002.741 1.858zM20.82 41.62l2 .005v-.005h-2zm.22-1.053l-1.837-.793-.002.008 1.839.785zm.557-.851L20.183 38.3l-.005.005 1.42 1.41zm8.594-8.592l1.414 1.415 1.415-1.415-1.415-1.414-1.414 1.414zm-1.276-1.276l1.414-1.414-1.414-1.414-1.414 1.413 1.414 1.415zm-8.592 8.582l-1.413-1.415 1.413 1.415zm-1.915.791l.009-2h-.01v2zm-1.365-4.058l-1.414-1.414 1.414 1.414zm8.054-8.054l1.415 1.414 1.421-1.422-1.43-1.414-1.406 1.422zm-1.288-1.274l1.407-1.422-1.416-1.4-1.406 1.409 1.415 1.413zm-8.04 8.054l1.414 1.414h.001l-1.415-1.414zm-.857.558l.774 1.844.01-.004-.784-1.84zm-2.61-.385l1.414-1.414-1.415 1.414zm-.407-2.56l-1.857-.741-.003.008 1.86.733zm.593-.893l1.418 1.41.007-.007.006-.006-1.431-1.397zm13.949-14.283l1.416-1.413-1.431-1.435-1.416 1.45 1.43 1.398zm5.026 5.04l-1.416 1.412.002.002 1.414-1.414zm1.449.907l.629-1.898-.003-.001-.626 1.9zm5.273-5.33l1.87-.708v-.002l-1.87.71zm-.982-1.497l1.416-1.412-.019-.019-.02-.019-1.377 1.45zM32 10.5l1.378-1.45-.115-.109-.13-.09L32 10.501zm-1.111-.763L29.488 8.31l-1.733 1.701 2.002 1.375 1.132-1.649zm1.86-1.183l.729 1.862.003-.001-.733-1.861zm4.442 0l-.725 1.864.003.001.722-1.865zm1.883 1.209l-1.416 1.412.002.002 1.414-1.414zm9.996 10l1.416-1.412-.001-.002-1.415 1.414zm1.164 1.797l-1.853.751v.002l1.853-.753zm-.007 4.55l-1.843-.775-.002.004 1.845.771zm-1.157 1.762l-1.414-1.415v.001l1.414 1.414zM29.421 47.535l1.414 1.414-1.414-1.414zm-.887.583l-.748-1.855-.007.003-.007.003.762 1.849zm-1.02-1.79a.216.216 0 0 1-.08-.01.288.288 0 0 1-.087-.06l-2.675 2.974a4.181 4.181 0 0 0 2.843 1.096v-4zm-.173-.076c-.006-.005-.003-.004.004.006s.014.022.019.033l.002.006a.435.435 0 0 1-.005-.078h-4c0 1.144.418 2.216 1.317 3.018l2.663-2.985zm.02-.033c0-.015.004-.116.08-.326l-3.763-1.355a4.972 4.972 0 0 0-.317 1.68h4zm.08-.326a.535.535 0 0 1 .125-.209l-2.828-2.828a4.527 4.527 0 0 0-1.06 1.682l3.763 1.355zm.125-.208l8.594-8.592-2.828-2.828-8.594 8.59 2.828 2.83zm8.594-11.42l-1.288-1.288-2.828 2.828 1.288 1.288 2.828-2.828zm-4.117-1.287l-8.58 8.591 2.83 2.827 8.58-8.592-2.83-2.826zm-8.58 8.59a.612.612 0 0 1-.212.146l1.467 3.721a4.608 4.608 0 0 0 1.574-1.038l-2.828-2.829zm-.22.15a.707.707 0 0 1-.269.055v4a4.71 4.71 0 0 0 1.752-.34l-1.483-3.716zm-.269.055a.35.35 0 0 1-.063-.004l-.01-.003-.004-.002a.26.26 0 0 1-.037-.033l-2.828 2.829c.8.8 1.82 1.213 2.942 1.213v-4zm-.114-.042a.264.264 0 0 1-.032-.036l-.002-.003-.002-.007a.341.341 0 0 1-.004-.06l-4-.01a4.068 4.068 0 0 0 1.212 2.945l2.828-2.829zm-.04-.111c0-.08.015-.164.059-.267L19.2 39.781a4.653 4.653 0 0 0-.38 1.839h4zm.056-.26a.766.766 0 0 1 .14-.235l-2.838-2.819a4.72 4.72 0 0 0-.974 1.469l3.672 1.585zm.135-.23l8.594-8.591-2.828-2.83-8.594 8.592 2.828 2.83zm8.594-11.42l-1.276-1.276-2.829 2.828 1.277 1.276 2.828-2.828zm-4.104-1.277l-8.591 8.582 2.827 2.83 8.591-8.582-2.827-2.83zm-8.592 8.583a.75.75 0 0 1-.24.146l1.568 3.68a4.72 4.72 0 0 0 1.5-.998l-2.828-2.828zm-.24.146a.626.626 0 0 1-.252.059l-.018 4a4.619 4.619 0 0 0 1.838-.38l-1.568-3.68zm-.261.059a.284.284 0 0 1-.052-.004c-.006 0-.007-.002-.006 0 .002 0 0 0-.006-.005a.307.307 0 0 1-.043-.038l-2.829 2.829a4.073 4.073 0 0 0 2.936 1.218v-4zm-.107-.047a.307.307 0 0 1-.038-.043l-.004-.007-.001-.005a.284.284 0 0 1-.004-.052h-4c0 1.127.424 2.142 1.218 2.936l2.829-2.829zm-.047-.107c0-.08.014-.169.057-.276l-3.722-1.468a4.732 4.732 0 0 0-.335 1.744h4zm.057-.276a.612.612 0 0 1 .146-.213l-2.829-2.829a4.608 4.608 0 0 0-1.039 1.574l3.722 1.468zm.146-.213l8.055-8.055-2.829-2.829-8.054 8.055 2.828 2.828zm8.047-10.891l-1.288-1.274-2.813 2.844 1.288 1.274 2.813-2.844zm-4.11-1.265l-8.04 8.054 2.83 2.826 8.04-8.054-2.83-2.826zm-8.04 8.053a.735.735 0 0 1-.225.132l1.567 3.68a4.672 4.672 0 0 0 1.487-.983l-2.829-2.829zm-.216.128a.718.718 0 0 1-.285.063v4c.638 0 1.254-.132 1.833-.375l-1.548-3.688zm-.285.063a.629.629 0 0 1-.107-.007l-.029-.007h.002l.004.003-.007-.007-2.829 2.828c.82.82 1.867 1.19 2.966 1.19v-4zm-.137-.018l-.006-.006a.05.05 0 0 1 .003.005l.001.002a.637.637 0 0 1-.015-.137h-4c0 1.097.368 2.144 1.188 2.964l2.829-2.828zm-.017-.135c0-.081.014-.17.057-.277l-3.721-1.467a4.732 4.732 0 0 0-.336 1.744h4zm.054-.27a.659.659 0 0 1 .153-.224l-2.836-2.82c-.444.446-.796.97-1.032 1.562l3.715 1.483zm.166-.237l13.948-14.283-2.861-2.795-13.949 14.283 2.862 2.795zM25.02 17.738l5.027 5.04 2.832-2.825-5.026-5.04-2.833 2.825zm5.029 5.042a5.646 5.646 0 0 0 2.237 1.393l1.252-3.8a1.651 1.651 0 0 1-.661-.422l-2.829 2.829zm2.233 1.392c.737.244 1.495.37 2.268.37v-4c-.332 0-.666-.054-1.01-.167l-1.258 3.797zm2.268.37c1.611 0 3.065-.551 4.22-1.684l-2.803-2.855c-.355.349-.78.539-1.417.539v4zm4.22-1.684c1.173-1.152 1.73-2.63 1.73-4.267h-4c0 .67-.198 1.084-.533 1.412l2.802 2.855zm1.73-4.267a6.62 6.62 0 0 0-.445-2.356l-3.74 1.418c.132.347.185.657.185.938h4zm-.446-2.358a6.25 6.25 0 0 0-1.435-2.199l-2.833 2.824c.26.26.426.525.53.797l3.738-1.422zm-1.473-2.237l-5.203-4.945-2.756 2.899 5.203 4.945 2.756-2.899zm-5.449-5.145l-1.111-.763-2.265 3.298 1.112.763 2.264-3.298zm-.842 2.313c.305-.3.691-.553 1.188-.748l-1.46-3.724a7.46 7.46 0 0 0-2.53 1.618l2.802 2.854zm1.191-.75a3.91 3.91 0 0 1 1.447-.29v-4c-.996 0-1.97.198-2.913.57l1.466 3.72zm1.447-.29c.52 0 1.028.096 1.538.294l1.45-3.728a8.193 8.193 0 0 0-2.988-.565v4zm1.541.295c.495.191.88.447 1.189.756L40.49 8.35a7.34 7.34 0 0 0-2.577-1.662l-1.444 3.73zm1.19.758l9.997 10 2.829-2.828-9.996-10-2.83 2.828zm9.995 9.998c.284.285.53.653.727 1.136l3.707-1.502a7.357 7.357 0 0 0-1.602-2.458l-2.832 2.824zm.727 1.138c.178.436.283.958.283 1.592h4c0-1.084-.182-2.125-.577-3.098l-3.706 1.506zm.283 1.592c0 .521-.096.992-.28 1.43l3.687 1.55a7.634 7.634 0 0 0 .593-2.98h-4zm-.282 1.434a3.408 3.408 0 0 1-.726 1.118l2.828 2.829a7.402 7.402 0 0 0 1.589-2.405l-3.691-1.542zm-.727 1.119L28.006 46.121l2.83 2.827 19.649-19.663-2.83-2.827zM28.007 46.12a.635.635 0 0 1-.221.143l1.497 3.71a4.634 4.634 0 0 0 1.552-1.024l-2.828-2.829zm-.235.149a.656.656 0 0 1-.255.057v4a4.65 4.65 0 0 0 1.78-.359l-1.525-3.698z" mask="url(#a)"/><path fill="#FF5B53" stroke="#FF5B53" stroke-width="2" d="M10.527 26.924l.706.786.746-.747 13.03-13.057 7.299 7.114c.348.349.746.623 1.196.802l.006.002c.43.168.88.252 1.343.252.855 0 1.62-.301 2.215-.918l.004-.004c.583-.61.866-1.371.866-2.216 0-.46-.107-.912-.29-1.347a3.618 3.618 0 0 0-.762-1.162l-.003-.003L25.54 4.894l-.004-.004a6.441 6.441 0 0 0-2.047-1.403A6.207 6.207 0 0 0 21.016 3c-.845 0-1.645.173-2.385.53a6.88 6.88 0 0 0-1.901 1.36l-8.897 8.947c-.565.568-1.001 1.282-1.329 2.11C6.162 16.81 6 17.751 6 18.755c0 .978.187 1.964.546 2.952a7.112 7.112 0 0 0 1.661 2.633l2.32 2.584z"/></symbol><symbol id="q-icon07" viewBox="0 0 40 41"><path fill="#F7F7F7" d="M2 10h36v7H2z"/><path fill="#34332E" fill-rule="evenodd" d="M8.094 1.122A.915.915 0 0 1 9.248.547l10.185 3.369L30.114.544a.915.915 0 0 1 1.147.593.908.908 0 0 1-.595 1.14L19.703 5.741h-.002a.893.893 0 0 1-.564-.005L8.671 2.272a.913.913 0 0 1-.623-.797.903.903 0 0 1 .045-.352v-.001zM.375 12.519a3.889 3.889 0 0 1 3.892-3.878h31.219c2.147 0 3.891 1.742 3.889 3.878v1.888a3.873 3.873 0 0 1-2.238 3.505l-.288.135v15.438c0 3.865-3.157 7.015-7.039 7.015H10.482c-3.882 0-7.04-3.15-7.04-7.015v-15.27l-.349-.111a3.886 3.886 0 0 1-2.718-3.697V12.52zm18.586-2.062H4.267a2.072 2.072 0 0 0-1.459.604 2.06 2.06 0 0 0-.606 1.455v.5h.003v1.392c0 .546.218 1.07.605 1.456.387.385.912.602 1.459.603H18.96v-6.01zm16.525.003H20.79v6.004h14.695a2.061 2.061 0 0 0 2.064-2.06v-1.887a2.062 2.062 0 0 0-2.064-2.057zm-16.522 7.825H5.272v15.2c0 2.868 2.34 5.197 5.212 5.2h8.48v-20.4zm16.06 0H20.792v20.397h9.022c2.873 0 5.212-2.33 5.212-5.197v-15.2z" clip-rule="evenodd"/><rect width="40" height="11" fill="#FF5B53" rx="4" transform="matrix(1 0 0 -1 0 19)"/><path stroke="#34332E" stroke-width="2" d="M20 8v31"/></symbol><symbol id="q-icon08" viewBox="0 0 40 38"><path fill="#FF5B53" d="M36.688 1H4.312c-1.186 0-2.164.936-2.296 2.146L2 3.429v24.276c0 1.245.893 2.273 2.042 2.412l.27.017h8.825c.55 0 1.082.205 1.498.578.128.068.25.15.361.242l.201.19L20.777 37l5.666-5.868c.186-.27.425-.497.7-.667.276-.17.582-.277.9-.317l.27-.014h8.375c1.186 0 2.164-.936 2.296-2.146l.016-.283V3.429c0-1.248-.893-2.273-2.042-2.412L36.688 1z"/><path fill="#FF5B53" fill-rule="evenodd" d="M20.368 37.998a3.17 3.17 0 0 1-2.189-.77l-.2-.188-4.991-5.049H5.3a5.26 5.26 0 0 1-3.632-1.46A5.405 5.405 0 0 1 .01 26.948L0 26.604V5.374c0-1.375.519-2.695 1.448-3.692A5.27 5.27 0 0 1 4.975.01l.34-.01H34.7a5.26 5.26 0 0 1 3.632 1.46 5.404 5.404 0 0 1 1.658 3.583l.01.344v21.23a5.413 5.413 0 0 1-1.448 3.691 5.27 5.27 0 0 1-3.527 1.673l-.34.01H27.58l-5.066 5.057-.005.005a3.178 3.178 0 0 1-2.14.945zm14.667-35.73l-.305-.02H5.3a3.091 3.091 0 0 0-2.064.794A3.132 3.132 0 0 0 2.221 5.01l-.003.028-.018.307v21.274c0 .762.277 1.499.78 2.071a3.089 3.089 0 0 0 1.956 1.031l.029.004.305.018h8.044c.269 0 .516.099.708.264l.09.077.106.054a.938.938 0 0 1 .139.088l.136.123 5.752 5.82 5.914-5.9.048-.067a1.11 1.11 0 0 1 .735-.448l.182-.01H34.7c.763 0 1.497-.284 2.064-.794s.926-1.21 1.015-1.967l.003-.028.018-.307V5.373c0-.762-.276-1.499-.78-2.071a3.092 3.092 0 0 0-1.956-1.031l-.029-.004z" clip-rule="evenodd"/><path fill="#fff" d="M18.723 23c-.037 0-.074 0-.111-.003a3.414 3.414 0 0 1-2.408-1.111l-.024-.029-4.805-5.582a1.538 1.538 0 0 1 .19-2.197 1.6 1.6 0 0 1 1.162-.362 1.617 1.617 0 0 1 1.082.549l4.787 5.561a.19.19 0 0 0 .127.055c.053.007.098-.016.136-.052l9.414-9.364a1.618 1.618 0 0 1 2.251-.018c.629.602.634 1.59.019 2.205l-9.43 9.38a3.46 3.46 0 0 1-2.39.968z"/></symbol><symbol id="gear-icon" viewBox="0 0 30 30"><path fill="#999" d="M15 9a6 6 0 1 1 0 12 6 6 0 0 1 0-12zm0 3a3 3 0 1 0 0 6 3 3 0 0 0 0-6zm-3 18a.758.758 0 0 1-.75-.63l-.555-3.975C9.75 25.02 8.94 24.51 8.16 23.91l-3.735 1.515c-.33.12-.735 0-.915-.33l-3-5.19a.74.74 0 0 1 .18-.96l3.165-2.49L3.75 15l.105-1.5L.69 11.055a.74.74 0 0 1-.18-.96l3-5.19a.737.737 0 0 1 .915-.33l3.735 1.5c.78-.585 1.59-1.095 2.535-1.47L11.25.63c.06-.36.375-.63.75-.63h6c.375 0 .69.27.75.63l.555 3.975c.945.375 1.755.885 2.535 1.47l3.735-1.5c.33-.135.735 0 .915.33l3 5.19a.74.74 0 0 1-.18.96L26.145 13.5l.105 1.5-.105 1.5 3.165 2.445a.74.74 0 0 1 .18.96l-3 5.19a.737.737 0 0 1-.915.33l-3.735-1.5c-.78.585-1.59 1.095-2.535 1.47l-.555 3.975A.758.758 0 0 1 18 30h-6zm1.875-27l-.555 3.915a8.239 8.239 0 0 0-4.545 2.67L5.16 8.025l-1.125 1.95L7.2 12.3c-.6 1.755-.6 3.66 0 5.4l-3.18 2.34 1.125 1.95 3.645-1.56a8.166 8.166 0 0 0 4.515 2.64L13.86 27h2.28l.555-3.915a8.277 8.277 0 0 0 4.515-2.655l3.645 1.56 1.125-1.95-3.18-2.325c.6-1.755.6-3.66 0-5.415l3.165-2.325-1.125-1.95-3.615 1.56A8.13 8.13 0 0 0 16.68 6.93L16.125 3h-2.25z"/></symbol><symbol id="stop-icon" viewBox="0 0 10 14"><path stroke="#fff" stroke-linecap="round" stroke-width="1.5" d="M1 1v12M9 1v12"/></symbol><symbol id="cuckoo-homesys-logo" viewBox="0 0 190.54 28.76"><defs><style>.cls-1{fill:#585856}</style></defs><g id="Layer_1-2"><path d="M45.59 22.7v-.12c.06-.38-.05-.76-.29-1.02-.25-.28-.62-.42-1.1-.42h-5.36v.9h5.24c.19 0 .33.05.41.14.08.09.12.23.1.41 0 .11-.02.22-.04.34-1.34.09-3.17.15-5.05.15h-.52v.9h1.54c1.34 0 2.75 0 3.92-.12-.03.21-.06.45-.09.69-.03.23-.05.46-.08.64h-6.34v.9h3.76v2.67h.96v-2.67h3.78v-.9h-1.17c.1-.61.21-1.57.32-2.49zm-9.15 0v-.12c.06-.38-.05-.76-.29-1.02-.25-.28-.62-.42-1.1-.42h-5.36v.9h5.24c.19 0 .33.05.41.14.08.09.11.23.1.41 0 .11-.02.22-.04.34-1.34.09-3.17.15-5.05.15h-.51v.9h1.54c1.35 0 2.75 0 3.92-.12-.03.21-.06.45-.09.69-.03.23-.05.46-.08.64H28.8v.9h3.76v2.67h.96v-2.67h3.78v-.9h-1.17c.1-.61.21-1.57.32-2.49zm15.62 2.05c1.66-.1 2.75-.6 2.75-1.47 0-.58-.41-1-1.22-1.23h1.49v-.83h-3.02v-.63h-.97v.63h-3.02v.83h1.41c-.79.23-1.19.64-1.19 1.23 0 .9 1.08 1.39 2.79 1.48v.25h-3.77v.9h8.53v-.9h-3.77v-.25zm-2.74-1.56c0-.45.92-.71 2.22-.71s2.2.26 2.2.71c0 .41-.95.72-2.2.72s-2.22-.31-2.22-.72zm-1.09 4.29c0 .82.51 1.26 1.36 1.26h3.95c.85 0 1.36-.44 1.36-1.26v-1.29h-6.67v1.29zm.95-.43h4.77v.43c0 .26-.15.4-.4.4h-3.96c-.25 0-.4-.14-.4-.4v-.43zm13.95-5.93h.96v7.63h-.96zm1.98 5.98h8.3v.9h-8.3zm-5.35-3.79a.53.53 0 0 1-.08-.27v-1.76h-1v1.76c0 .08-.04.2-.09.27-.06.08-1.98 2.96-2.06 3.09l-.04.06.81.55.04-.06s1.78-2.7 1.83-2.76v-.01l.01.01c.04.06 1.19 1.84 1.79 2.78l.04.06.81-.55-.04-.06s-2-3.02-2.05-3.1zm6.82 3.2c.11-.11 2.62-2.7 2.68-2.77 0 0 .02-.01.02-.02l.02.02c.05.06 2.54 2.67 2.64 2.78l.05.05.68-.65-.05-.05c-.11-.12-2.71-2.84-2.78-2.91-.04-.04-.07-.15-.07-.25v-1.42h-1v1.42c0 .08-.03.2-.08.26s-1.84 1.92-2.78 2.89l-.05.05.68.64.05-.05zm108.49-16.09l-4.21-5.64h-1.71l5.21 6.96v4.18h1.43v-4.19l5.22-6.95h-1.71l-4.23 5.64zm-33.89-.08l-4.57-5.56h-1.6v11.14h1.43v-9.1l4.74 5.82 4.74-5.82v9.1h1.44V4.78h-1.6l-4.58 5.56zM117 4.77v4.81h-6.43V4.77h-1.42v11.06h1.42v-4.91H117v4.91h1.42V4.77H117zm9.66 11.24c-3.64 0-6.61-2.56-6.61-5.71s2.96-5.71 6.61-5.71 6.61 2.56 6.61 5.71-2.96 5.71-6.61 5.71m0-10.11c-2.87 0-5.2 1.98-5.2 4.41s2.33 4.41 5.2 4.41 5.2-1.98 5.2-4.41-2.33-4.41-5.2-4.41m37.61 10.2c-2.53 0-4.95-1.71-5.05-1.78l.9-.99s2.14 1.48 4.15 1.48c.89 0 2.98-.09 3.09-1.66.05-.74-.13-1.45-3.06-2.1-2.6-.57-4.58-1.15-4.58-3.25s1.67-3.14 4.35-3.14c2.39 0 4.29 1.34 4.37 1.4l-.9 1s-1.6-1.1-3.48-1.1c-1.1 0-2.94.17-2.94 1.71 0 .96.53 1.46 3.5 2.11 2.24.49 4.29 1.23 4.14 3.43-.13 1.93-1.83 2.89-4.49 2.89m21.77 0c-2.53 0-4.95-1.71-5.05-1.78l.9-.99s2.14 1.48 4.16 1.48c.89 0 2.98-.09 3.09-1.66.05-.74-.13-1.45-3.06-2.1-2.6-.57-4.58-1.15-4.58-3.25s1.66-3.14 4.35-3.14c2.39 0 4.29 1.34 4.37 1.4l-.9 1s-1.6-1.1-3.47-1.1c-1.1 0-2.94.17-2.94 1.71 0 .96.53 1.46 3.5 2.11 2.24.49 4.29 1.23 4.14 3.43-.13 1.93-1.83 2.89-4.49 2.89M34.86 6.92c1.5 0 2.79.62 3.49 1.19l1.5-1.99c-1.29-1-3.09-1.57-5.03-1.57-3.88 0-6.63 2.5-6.63 5.82s2.75 5.83 6.63 5.83c2.03 0 3.85-.59 5.15-1.66l-1.57-1.93-.08.06c-.71.56-1.99 1.16-3.47 1.16-2.39 0-4.18-1.38-4.18-3.46s1.79-3.46 4.18-3.46m25.72.01c1.5 0 2.79.62 3.5 1.19l1.5-1.99c-1.29-1-3.09-1.57-5.03-1.57-3.88 0-6.63 2.5-6.63 5.82s2.75 5.83 6.63 5.83c2.03 0 3.85-.59 5.15-1.66l-1.57-1.93-.08.06c-.71.56-1.99 1.16-3.47 1.16-2.39 0-4.17-1.38-4.17-3.46s1.79-3.46 4.17-3.46m24.16-2.36c-3.87 0-6.78 2.5-6.78 5.82s2.91 5.83 6.78 5.83 6.78-2.5 6.78-5.83-2.91-5.82-6.78-5.82m0 9.29c-2.47 0-4.19-1.42-4.19-3.46s1.72-3.46 4.19-3.46 4.19 1.42 4.19 3.46-1.72 3.46-4.19 3.46m15.11-9.29c-3.86 0-6.78 2.5-6.78 5.82s2.92 5.83 6.78 5.83 6.78-2.5 6.78-5.83-2.91-5.82-6.78-5.82m0 9.29c-2.47 0-4.19-1.42-4.19-3.46s1.72-3.46 4.19-3.46 4.19 1.42 4.19 3.46-1.72 3.46-4.19 3.46" class="cls-1"/><path d="M78.68 4.79h-3.49l-5.55 5.19V4.79h-2.45v11.12h2.45v-5.25l5.7 5.26h3.52l-6.16-5.68 5.98-5.45zm-28.71 6.62c0 .99-.57 2.4-3.18 2.4-3.02 0-3.05-1.99-3.05-2.4V4.79h-2.45v7.09c0 1.9 1.65 4.33 5.5 4.33s5.63-2.48 5.63-4.33V4.79h-2.45v6.62zm100.86 3.21v-3.58h5.86V9.71h-5.86V6.12h7.25V4.81h-8.68v11.12h8.68l.01-1.31h-7.26zM3.25 7.79L0 20.56h6.85L3.51 7.79h-.26zM.61 2.78c0 1.54 1.25 2.78 2.78 2.78s2.78-1.25 2.78-2.78a2.78 2.78 0 0 0-5.56 0m12.91 10.18L10.25.19h6.85l-3.36 12.77h-.22zm-2.66 5.01c0-1.54 1.25-2.78 2.78-2.78s2.78 1.25 2.78 2.78-1.25 2.79-2.78 2.79-2.78-1.25-2.78-2.79" class="cls-1"/></g></symbol><symbol id="top-arrow" viewBox="0 0 28 35"><path stroke="#272727" stroke-linecap="round" stroke-linejoin="round" stroke-width="2" d="M14 33.166v-32m0 0L26.445 11.24M14 1.166L1.556 11.24"/></symbol><symbol id="search-icon" viewBox="0 0 19 19"><circle cx="7.38" cy="7.38" r="6.38" stroke="#312F2D" stroke-linecap="round" stroke-width="2"/><path stroke="#312F2D" stroke-linecap="round" stroke-width="2" d="M12.333 12.333L18 18"/></symbol><symbol id="ribbon" viewBox="0 0 26 37"><path fill="#F3332B" d="M0 0h26v35.382a1 1 0 0 1-1.447.894l-11.106-5.552a1 1 0 0 0-.894 0L1.447 36.276A1 1 0 0 1 0 35.382V0z"/></symbol><symbol id="arrow-right" viewBox="0 0 9 15"><path stroke="#222" stroke-linecap="round" stroke-linejoin="round" stroke-width="2" d="M1.5 13.5l6-6-6-6"/></symbol><symbol id="arrow-bottom" viewBox="0 0 9 4"><path stroke="#999" stroke-linecap="round" stroke-linejoin="round" d="M1 .5l3.5 3L8 .5"/></symbol><symbol id="arrow-left" viewBox="0 0 9 15"><path stroke="#222" stroke-linecap="round" stroke-linejoin="round" stroke-width="2" d="M7.5 1.5l-6 6 6 6"/></symbol><symbol id="bag-icon" viewBox="0 0 30 28"><path fill="#999" d="M27 6.5h-6v-3l-3-3h-6l-3 3v3H3c-1.65 0-3 1.35-3 3V17c0 1.125.6 2.07 1.5 2.595V24.5c0 1.665 1.335 3 3 3h21c1.665 0 3-1.335 3-3v-4.92c.885-.525 1.5-1.485 1.5-2.58V9.5c0-1.65-1.35-3-3-3zm-15-3h6v3h-6v-3zm-9 6h24V17h-7.5v-4.5h-9V17H3V9.5zm13.5 9h-3v-3h3v3zm9 6h-21V20h6v1.5h9V20h6v4.5z"/></symbol><symbol id="blog-icon" viewBox="0 0 24 24"><path fill="#999" d="M5.768 9.893a.811.811 0 0 0-.613.27.88.88 0 0 0-.253.648c0 .256.08.458.253.647.173.176.373.27.613.27s.452-.094.626-.27a.892.892 0 0 0 .266-.647.892.892 0 0 0-.266-.648.794.794 0 0 0-.626-.27zm7.47-.013a.811.811 0 0 0-.612.27.88.88 0 0 0-.253.647c0 .256.08.459.253.648.173.175.373.27.612.27.24 0 .453-.095.626-.27a.892.892 0 0 0 .267-.648.915.915 0 0 0-.267-.648c-.16-.189-.373-.27-.626-.27zm4.994.013a.811.811 0 0 0-.612.27.88.88 0 0 0-.253.648c0 .256.08.458.253.647a.83.83 0 0 0 .612.27c.24 0 .453-.094.626-.27a.892.892 0 0 0 .267-.647.892.892 0 0 0-.267-.648.812.812 0 0 0-.626-.27z"/><path fill="#999" d="M20.443 3.228H3.557C2.265 3.228 1.2 4.307 1.2 5.616v9.675c0 1.308 1.065 2.388 2.357 2.388h6.632s1.278 3.549 1.744 3.549c.466 0 1.851-3.55 1.851-3.55h6.659c1.292 0 2.357-1.079 2.357-2.388V5.617c0-1.309-1.065-2.388-2.357-2.388zM7.473 12.16c-.334.378-.853.54-1.412.54-.506 0-.88-.149-1.146-.364h-.013v.27H3.637v-5.6h1.265V9.15h.027c.346-.297.799-.391 1.331-.418.453-.014.933.27 1.226.607.28.337.492.864.492 1.444 0 .634-.16.998-.506 1.376zm2.73.5H8.91V9.191c0-.797-.625-.904-.625-.904v-1.39s1.81.108 1.917 2.334v3.427zm5.073-1.067a1.955 1.955 0 0 1-.48.675c-.2.189-.439.337-.705.445a2.213 2.213 0 0 1-.84.162c-.292 0-.572-.054-.825-.162a2.252 2.252 0 0 1-.706-.445 2.09 2.09 0 0 1-.48-.675 1.976 1.976 0 0 1-.159-.796c0-.283.053-.54.16-.796.106-.243.266-.472.48-.675a2.42 2.42 0 0 1 .705-.445 2.213 2.213 0 0 1 1.665 0c.266.108.506.257.705.445.214.203.36.419.48.675.106.257.16.513.16.796 0 .284-.054.54-.16.796zm5.087.554c0 .985-.186 1.578-.613 1.997-.519.499-1.251.526-1.864.445v-1.012c.52.054 1.225-.297 1.225-.972v-.256h-.013c-.293.405-.706.553-1.279.553-.519 0-.972-.189-1.278-.553-.306-.364-.453-.85-.453-1.457 0-.688.173-1.228.506-1.633.346-.405.826-.594 1.385-.594.493 0 .813.122 1.119.405h.013v-.31h1.265v3.387h-.013z"/></symbol><symbol id="cart-icon" viewBox="0 0 20 19"><path stroke="#333" stroke-linecap="round" stroke-linejoin="round" stroke-width="2" d="M17.5 14H7.195c-.81 0-1.214 0-1.494-.237s-.346-.636-.48-1.435l-1.443-8.67c-.133-.798-.2-1.197-.479-1.434-.28-.237-.684-.237-1.494-.237H1M3.857 4l11.308-.007c1.704 0 2.556-.001 3.102.43a2 2 0 0 1 .552.683c.309.624.13 1.457-.226 3.124-.243 1.133-.364 1.7-.71 2.092a2 2 0 0 1-.522.422c-.456.256-1.035.256-2.194.256H5.001"/><path fill="#333" d="M18 17.5a1.5 1.5 0 1 1-3 0 1.5 1.5 0 0 1 3 0zm-9.5 0a1.5 1.5 0 1 1-3 0 1.5 1.5 0 0 1 3 0z"/></symbol><symbol id="q-icon05" viewBox="0 0 32 36"><path fill="#FF5B53" d="M1 1h30v3H1zm0 31h30v3H1z"/><path fill="#F7F7F7" d="M3 4.5h26v27H3z"/><path fill="#34332E" fill-rule="evenodd" d="M28.5 5.333h-25v25.778h25V5.333zm-27-1.777v28.433h29V3.556h-29z" clip-rule="evenodd"/><path fill="#FF5B53" fill-rule="evenodd" d="M2 1.778v1.778h28V1.778H2zM1 0C.448 0 0 .398 0 .889v3.555c0 .491.448.89 1 .89h30c.552 0 1-.399 1-.89V.89c0-.492-.448-.89-1-.89H1zm29 34.222v-1.778H2v1.778h28zM31 36c.552 0 1-.398 1-.889v-3.555c0-.491-.448-.89-1-.89H1c-.552 0-1 .399-1 .89v3.555C0 35.602.448 36 1 36h30z" clip-rule="evenodd"/><path fill="#34332E" fill-rule="evenodd" d="M5 17.333V4.89h2v12.444h2V4.89h2v12.444h2V4.89h2v12.444h2V4.89h2v12.444h2V4.89h2v12.444h2V4.89h2v12.444h2.5v1.778H27v12.445h-2V19.11h-2v12.445h-2V19.11h-2v12.445h-2V19.11h-2v12.445h-2V19.11h-2v12.445H9V19.11H7v12.445H5V19.11H2.5v-1.778H5z" clip-rule="evenodd"/></symbol><symbol id="user-icon" viewBox="0 0 17 20"><path stroke="#333" stroke-linecap="round" stroke-linejoin="round" stroke-width="2" d="M16 19v-1.45c0-.977 0-1.465-.113-1.864a3 3 0 0 0-2.073-2.073c-.399-.113-.887-.113-1.864-.113h-6.9c-.977 0-1.465 0-1.864.113a3 3 0 0 0-2.073 2.073C1 16.085 1 16.573 1 17.55V19M13.2 5.06c0 2.245-1.88 4.065-4.2 4.065-2.32 0-4.2-1.82-4.2-4.065S6.68.995 9 .995c2.32 0 4.2 1.82 4.2 4.065z"/></symbol><symbol id="close-x" viewBox="0 0 16 16"><path stroke="#272727" stroke-linecap="round" stroke-linejoin="round" stroke-width="2" d="M1 1l14 14M1 15L15 1"/></symbol><symbol id="x-icon" viewBox="0 0 24 24"><g clip-path="url(#a)"><path fill="#999" d="M17.176 3h2.76l-6.03 7.625L21 21h-5.554l-4.35-6.293L6.116 21H3.355l6.45-8.155L3 3h5.695l3.933 5.752L17.176 3zm-.969 16.172h1.53L7.864 4.732h-1.64l9.983 14.44z"/></g><defs><clipPath id="a"><path fill="#fff" d="M0 0h24v24H0z"/></clipPath></defs></symbol><symbol id="repair-icon" viewBox="0 0 30 30"><path fill="#999" d="M16.5.045v3.03c6.585.81 11.25 6.795 10.44 13.38-.69 5.46-4.98 9.795-10.44 10.44v3c8.25-.825 14.25-8.145 13.425-16.395C29.25 6.375 23.595.75 16.5.045zm-3 .045c-2.925.285-5.715 1.41-7.995 3.3L7.65 5.61a11.993 11.993 0 0 1 5.85-2.52v-3zM3.39 5.505C1.5 7.785.375 10.56.075 13.5h3a12.025 12.025 0 0 1 2.46-5.85L3.39 5.505zM.09 16.5a15.06 15.06 0 0 0 3.315 7.995l2.13-2.145A12.003 12.003 0 0 1 3.09 16.5h-3zm7.56 8.055L5.505 26.61A14.991 14.991 0 0 0 13.5 30v-3a12.004 12.004 0 0 1-5.85-2.445zm14.58-4.77l-6.165-6.165c.615-1.56.27-3.39-1.02-4.665-1.35-1.365-3.375-1.635-5.01-.885l2.91 2.91-2.025 2.04-2.985-2.925c-.81 1.635-.435 3.66.885 5.025 1.29 1.29 3.12 1.62 4.68 1.02l6.165 6.15a.63.63 0 0 0 .945 0l1.56-1.545c.33-.27.33-.75.06-.96z"/></symbol><symbol id="cs-icon" viewBox="0 0 43 49"><path fill="#fff" fill-rule="evenodd" d="M36.155 6.46a21.18 21.18 0 0 1 6.177 13.917c.054.2.086.406.094.614v7.893a4.6 4.6 0 0 1-.012.308c.05.181.055.374.012.56a21.157 21.157 0 0 1-16.431 15.963h-.111a4.727 4.727 0 1 1 .527-2.458 18.95 18.95 0 0 0 12.297-9.905 4.57 4.57 0 0 1-.92.08h-.512a4.57 4.57 0 0 1-4.57-4.46v-6.175a4.46 4.46 0 0 1 4.57-4.459h2.23c.123-.007.246-.006.369.004a18.95 18.95 0 0 0-37.384-.047c.17-.03.344-.046.518-.046h2.609a4.102 4.102 0 0 1 4.102 4.08v6.911a4.102 4.102 0 0 1-4.102 4.192h-1.45a4.1 4.1 0 0 1-4.1-4.192v-7.422A1.115 1.115 0 0 1 0 21.437 21.18 21.18 0 0 1 36.155 6.46zM16.03 12.698h.557c.743 0 1.115.372 1.115 1.115v3.3c0 .743-.372 1.114-1.115 1.114h-.557c-.744 0-1.115-.371-1.115-1.115v-3.3c0-.742.372-1.114 1.115-1.114zm9.81 0h.557c.743 0 1.115.372 1.115 1.115v3.3c0 .743-.372 1.114-1.115 1.114h-.558c-.743 0-1.114-.371-1.114-1.115v-3.3c0-.742.371-1.114 1.114-1.114zM3.01 20.479a.713.713 0 0 0-.714.713v8.048a1.873 1.873 0 0 0 1.873 1.873h1.449A1.873 1.873 0 0 0 7.49 29.24v-6.91a1.873 1.873 0 0 0-1.873-1.851H3.009zm34.266 0a2.231 2.231 0 0 0-2.341 2.23v6.085a2.229 2.229 0 0 0 2.34 2.23h.514a2.23 2.23 0 0 0 2.23-2.23v-7.803a.513.513 0 0 0-.536-.512h-2.207zM21.714 41.056a2.497 2.497 0 1 0-.044 4.995 2.497 2.497 0 0 0 .044-4.995zM16.016 29.5a9.653 9.653 0 0 0 5.186 1.523 9.676 9.676 0 0 0 8.761-5.596.87.87 0 0 0-.446-1.181.914.914 0 0 0-1.181.423 7.848 7.848 0 0 1-14.268 0 .891.891 0 0 0-1.182-.423.87.87 0 0 0-.424 1.181 9.653 9.653 0 0 0 3.554 4.073z" clip-rule="evenodd"/></symbol><symbol id="youtube-icon" viewBox="0 0 24 24"><path fill="#999" fill-rule="evenodd" d="M20.598 4.716a2.752 2.752 0 0 1 1.944 1.956C23 8.399 22.996 12 22.996 12s0 3.601-.458 5.328c-.252.95-.997 1.7-1.944 1.956-1.715.462-8.596.462-8.596.462s-6.88 0-8.596-.462a2.751 2.751 0 0 1-1.944-1.956C1 15.601 1 12 1 12s0-3.601.462-5.332c.252-.951.997-1.7 1.944-1.956 1.715-.462 8.596-.462 8.596-.462s6.877 0 8.596.466zM9.75 8.728v6.543L15.502 12l-5.75-3.272z" clip-rule="evenodd"/></symbol><symbol id="cuckoo-holdings-logo" viewBox="0 0 195.3 28.97"><defs><style>.cls-1{fill:#585856}</style></defs><g id="Layer_1-2"><path d="M51.95 24.59c1.66-.1 2.75-.4 2.75-1.28 0-.96-1.09-1.36-3.27-1.36s-3.25.39-3.25 1.36c0 .9 1.08 1.2 2.79 1.28v.25H47.2v.87h8.53v-.87h-3.78v-.25zm-2.74-1.36c0-.45 1.02-.65 2.22-.65s2.2.19 2.2.65c0 .41-1.05.56-2.2.56s-2.22-.15-2.22-.56" class="cls-1"/><path d="M54.97 21.35h-3.02v-.63h-.98v.63h-3.01v.83h7.01v-.83zm-9.52 1.45v-.12c.06-.38-.06-.76-.29-1.02-.25-.28-.62-.42-1.1-.42H38.7v.9h5.24c.19 0 .33.05.41.14.08.09.12.23.1.41 0 .11-.02.23-.04.34-1.34.09-3.17.15-5.05.15h-.52v.9h1.54c1.35 0 2.75 0 3.92-.12-.03.21-.06.46-.09.69-.03.23-.05.46-.08.64H37.8v.9h3.76v2.67h.95v-2.67h3.78v-.9h-1.17c.11-.61.21-1.57.32-2.49m-9.14 0v-.12c.06-.38-.05-.76-.29-1.02-.25-.28-.62-.42-1.1-.42h-5.36v.9h5.24c.19 0 .33.05.41.14.08.09.12.23.1.41 0 .11-.02.23-.04.34-1.34.09-3.17.15-5.05.15h-.52v.9h1.54c1.34 0 2.75 0 3.92-.12-.03.21-.06.46-.09.69-.03.23-.06.46-.08.64h-6.33v.9h3.75v2.67h.96v-2.67h3.78v-.9h-1.17c.11-.61.21-1.57.32-2.49m28.32 4.41h8.3v.9h-8.3zm1.47-.6c.11-.11 2.62-2.7 2.68-2.77 0 0 .02-.01.02-.02l.02.02c.05.06 2.54 2.67 2.65 2.78l.05.05.68-.65-.05-.05c-.11-.12-2.71-2.84-2.78-2.91-.04-.04-.07-.15-.07-.25v-1.42h-1v1.42c0 .08-.03.2-.08.26s-1.84 1.92-2.78 2.89l-.05.05.67.64.05-.05zm-4.07-1.78v-.86s-2.19.18-3.86.18c-.22 0-.32-.09-.32-.3V22.2h3.38v-.84h-4.38v2.48c0 .81.47 1.18 1.3 1.18 1.64 0 3.88-.2 3.88-.2m.64-3.85h1.02v4.55h-1.02zm-2.12 4.58c-2.36 0-3.2.89-3.2 1.72 0 1.07 1.2 1.7 3.2 1.7 2.8 0 3.21-1.07 3.21-1.7s-.42-1.72-3.21-1.72m.01 2.59c-1.3 0-2.17-.35-2.17-.86 0-.55.85-.9 2.17-.9s2.18.35 2.18.9c0 .52-.85.86-2.18.86m-11.36-.28h5.63v-1.83h-6.68v.78h5.64v.3h-5.64v.92c0 .55.35.88.86.88h5.85v-.76h-5.48c-.11 0-.17-.03-.17-.15v-.13zM156.79 4.83h1.43v11.14h-1.43zm-14.08 11.15h-7.66V4.83h1.42v9.76h6.24v1.39zM117.06 4.83v4.83h-6.48V4.83h-1.43v11.13h1.43v-4.94h6.48v4.94h1.43V4.83h-1.43zm9.6 11.32c-3.67 0-6.66-2.58-6.66-5.75s2.99-5.75 6.66-5.75 6.66 2.58 6.66 5.75-2.99 5.75-6.66 5.75m0-10.19c-2.89 0-5.24 1.99-5.24 4.44s2.35 4.44 5.24 4.44 5.24-1.99 5.24-4.44-2.35-4.44-5.24-4.44m22.88 10.02h-5.5V4.85h5.5c3.55 0 5.81 2.49 5.81 5.55s-2.27 5.59-5.81 5.59m-4.07-1.36h3.98c2.76 0 4.48-1.89 4.48-4.23s-1.72-4.21-4.48-4.21h-3.98v8.44zm33.79 1.52c-3.67 0-6.66-2.58-6.66-5.75s2.99-5.75 6.66-5.75c1.68 0 3.28.54 4.52 1.53l-.96.96c-.97-.76-2.23-1.18-3.55-1.18-2.89 0-5.24 1.94-5.24 4.44s2.35 4.44 5.24 4.44c1.39 0 2.73-.47 3.71-1.3v-2.33H179V9.87h5.4v4.21l-.18.17c-1.26 1.21-3.06 1.9-4.95 1.9m11.5 0c-2.55 0-4.99-1.72-5.09-1.8l.9-1s2.16 1.49 4.19 1.49c.9 0 3-.09 3.11-1.68.05-.75-.13-1.46-3.08-2.11-2.62-.58-4.62-1.16-4.62-3.27s1.68-3.17 4.38-3.17c2.41 0 4.33 1.35 4.41 1.41l-.91 1s-1.61-1.11-3.5-1.11c-1.11 0-2.96.18-2.96 1.73 0 .97.53 1.47 3.53 2.13 2.26.5 4.32 1.24 4.17 3.46-.13 1.94-1.85 2.91-4.53 2.91m-20.58-.18h.71V4.83h-1.43v9.11l-7.5-9.11h-1.6v11.13h1.43V6.85l7.51 9.12h.87l.01-.01zM34.86 6.94c1.5 0 2.79.62 3.49 1.19 0 0 1.5-1.98 1.5-1.99-1.29-1-3.09-1.57-5.03-1.57-3.88 0-6.63 2.5-6.63 5.82s2.75 5.82 6.63 5.82c2.03 0 3.85-.58 5.15-1.66l-1.56-1.93-.08.07c-.71.56-1.99 1.16-3.46 1.16-2.39 0-4.17-1.38-4.17-3.46s1.79-3.46 4.17-3.46m25.68.01c1.5 0 2.79.62 3.49 1.19 0 0 1.5-1.98 1.5-1.99-1.29-1-3.09-1.57-5.03-1.57-3.88 0-6.63 2.5-6.63 5.82s2.74 5.82 6.63 5.82c2.03 0 3.85-.58 5.15-1.66l-1.56-1.93-.08.07c-.71.56-1.99 1.16-3.47 1.16-2.39 0-4.17-1.38-4.17-3.46s1.78-3.46 4.17-3.46M84.7 4.58c-3.86 0-6.78 2.5-6.78 5.82s2.91 5.82 6.78 5.82 6.77-2.5 6.77-5.82-2.91-5.82-6.77-5.82m0 9.28c-2.47 0-4.19-1.42-4.19-3.46s1.72-3.46 4.19-3.46 4.19 1.42 4.19 3.46-1.72 3.46-4.19 3.46m15.1-9.28c-3.86 0-6.77 2.5-6.77 5.82s2.91 5.82 6.77 5.82 6.77-2.5 6.77-5.82-2.91-5.82-6.77-5.82m0 9.28c-2.46 0-4.19-1.42-4.19-3.46s1.72-3.46 4.19-3.46 4.19 1.42 4.19 3.46-1.72 3.46-4.19 3.46" class="cls-1"/><path d="M78.65 4.81h-3.48L69.62 10V4.81h-2.45v11.12h2.45v-5.25l5.7 5.26h3.52l-6.17-5.68 5.98-5.45zm-28.69 6.63c0 .99-.57 2.4-3.18 2.4-3.02 0-3.05-1.99-3.05-2.4V4.82h-2.45v7.08c0 1.9 1.65 4.32 5.5 4.32s5.62-2.48 5.62-4.32V4.82h-2.44v6.62zM3.25 7.79L0 20.56h6.85L3.5 7.79h-.25zM.61 2.78c0 1.54 1.25 2.78 2.78 2.78s2.78-1.25 2.78-2.78a2.78 2.78 0 0 0-5.56 0m12.91 10.18L10.25.19h6.85l-3.36 12.77h-.22zm-2.66 5.01c0-1.54 1.25-2.78 2.78-2.78s2.79 1.24 2.79 2.78-1.25 2.78-2.79 2.78-2.78-1.25-2.78-2.78" class="cls-1"/></g></symbol><symbol id="cuckoo-eletronics-logo" viewBox="0 0 195.3 28.97"><defs><style>.cls-1{fill:#585856}</style></defs><g id="Layer_1-2"><path d="M51.95 24.59c1.66-.1 2.75-.4 2.75-1.28 0-.96-1.09-1.36-3.27-1.36s-3.25.39-3.25 1.36c0 .9 1.08 1.2 2.79 1.28v.25H47.2v.87h8.53v-.87h-3.78v-.25zm-2.74-1.36c0-.45 1.02-.65 2.22-.65s2.2.19 2.2.65c0 .41-1.05.56-2.2.56s-2.22-.15-2.22-.56" class="cls-1"/><path d="M54.97 21.35h-3.02v-.63h-.98v.63h-3.01v.83h7.01v-.83zm-9.52 1.45v-.12c.06-.38-.06-.76-.29-1.02-.25-.28-.62-.42-1.1-.42H38.7v.9h5.24c.19 0 .33.05.41.14.08.09.12.23.1.41 0 .11-.02.23-.04.34-1.34.09-3.17.15-5.05.15h-.52v.9h1.54c1.35 0 2.75 0 3.92-.12-.03.21-.06.46-.09.69-.03.23-.05.46-.08.64H37.8v.9h3.76v2.67h.95v-2.67h3.78v-.9h-1.17c.11-.61.21-1.57.32-2.49m-9.14 0v-.12c.06-.38-.05-.76-.29-1.02-.25-.28-.62-.42-1.1-.42h-5.36v.9h5.24c.19 0 .33.05.41.14.08.09.12.23.1.41 0 .11-.02.23-.04.34-1.34.09-3.17.15-5.05.15h-.52v.9h1.54c1.34 0 2.75 0 3.92-.12-.03.21-.06.46-.09.69-.03.23-.06.46-.08.64h-6.33v.9h3.75v2.67h.96v-2.67h3.78v-.9h-1.17c.11-.61.21-1.57.32-2.49m28.32 4.41h8.3v.9h-8.3zm1.47-.6c.11-.11 2.62-2.7 2.68-2.77 0 0 .02-.01.02-.02l.02.02c.05.06 2.54 2.67 2.65 2.78l.05.05.68-.65-.05-.05c-.11-.12-2.71-2.84-2.78-2.91-.04-.04-.07-.15-.07-.25v-1.42h-1v1.42c0 .08-.03.2-.08.26s-1.84 1.92-2.78 2.89l-.05.05.67.64.05-.05zm-4.07-1.78v-.86s-2.19.18-3.86.18c-.22 0-.32-.09-.32-.3V22.2h3.38v-.84h-4.38v2.48c0 .81.47 1.18 1.3 1.18 1.64 0 3.88-.2 3.88-.2m.64-3.85h1.02v4.55h-1.02zm-2.12 4.58c-2.36 0-3.2.89-3.2 1.72 0 1.07 1.2 1.7 3.2 1.7 2.8 0 3.21-1.07 3.21-1.7s-.42-1.72-3.21-1.72m.01 2.59c-1.3 0-2.17-.35-2.17-.86 0-.55.85-.9 2.17-.9s2.18.35 2.18.9c0 .52-.85.86-2.18.86m-11.36-.28h5.63v-1.83h-6.68v.78h5.64v.3h-5.64v.92c0 .55.35.88.86.88h5.85v-.76h-5.48c-.11 0-.17-.03-.17-.15v-.13zM156.79 4.83h1.43v11.14h-1.43zm-14.08 11.15h-7.66V4.83h1.42v9.76h6.24v1.39zM117.06 4.83v4.83h-6.48V4.83h-1.43v11.13h1.43v-4.94h6.48v4.94h1.43V4.83h-1.43zm9.6 11.32c-3.67 0-6.66-2.58-6.66-5.75s2.99-5.75 6.66-5.75 6.66 2.58 6.66 5.75-2.99 5.75-6.66 5.75m0-10.19c-2.89 0-5.24 1.99-5.24 4.44s2.35 4.44 5.24 4.44 5.24-1.99 5.24-4.44-2.35-4.44-5.24-4.44m22.88 10.02h-5.5V4.85h5.5c3.55 0 5.81 2.49 5.81 5.55s-2.27 5.59-5.81 5.59m-4.07-1.36h3.98c2.76 0 4.48-1.89 4.48-4.23s-1.72-4.21-4.48-4.21h-3.98v8.44zm33.79 1.52c-3.67 0-6.66-2.58-6.66-5.75s2.99-5.75 6.66-5.75c1.68 0 3.28.54 4.52 1.53l-.96.96c-.97-.76-2.23-1.18-3.55-1.18-2.89 0-5.24 1.94-5.24 4.44s2.35 4.44 5.24 4.44c1.39 0 2.73-.47 3.71-1.3v-2.33H179V9.87h5.4v4.21l-.18.17c-1.26 1.21-3.06 1.9-4.95 1.9m11.5 0c-2.55 0-4.99-1.72-5.09-1.8l.9-1s2.16 1.49 4.19 1.49c.9 0 3-.09 3.11-1.68.05-.75-.13-1.46-3.08-2.11-2.62-.58-4.62-1.16-4.62-3.27s1.68-3.17 4.38-3.17c2.41 0 4.33 1.35 4.41 1.41l-.91 1s-1.61-1.11-3.5-1.11c-1.11 0-2.96.18-2.96 1.73 0 .97.53 1.47 3.53 2.13 2.26.5 4.32 1.24 4.17 3.46-.13 1.94-1.85 2.91-4.53 2.91m-20.58-.18h.71V4.83h-1.43v9.11l-7.5-9.11h-1.6v11.13h1.43V6.85l7.51 9.12h.87l.01-.01zM34.86 6.94c1.5 0 2.79.62 3.49 1.19 0 0 1.5-1.98 1.5-1.99-1.29-1-3.09-1.57-5.03-1.57-3.88 0-6.63 2.5-6.63 5.82s2.75 5.82 6.63 5.82c2.03 0 3.85-.58 5.15-1.66l-1.56-1.93-.08.07c-.71.56-1.99 1.16-3.46 1.16-2.39 0-4.17-1.38-4.17-3.46s1.79-3.46 4.17-3.46m25.68.01c1.5 0 2.79.62 3.49 1.19 0 0 1.5-1.98 1.5-1.99-1.29-1-3.09-1.57-5.03-1.57-3.88 0-6.63 2.5-6.63 5.82s2.74 5.82 6.63 5.82c2.03 0 3.85-.58 5.15-1.66l-1.56-1.93-.08.07c-.71.56-1.99 1.16-3.47 1.16-2.39 0-4.17-1.38-4.17-3.46s1.78-3.46 4.17-3.46M84.7 4.58c-3.86 0-6.78 2.5-6.78 5.82s2.91 5.82 6.78 5.82 6.77-2.5 6.77-5.82-2.91-5.82-6.77-5.82m0 9.28c-2.47 0-4.19-1.42-4.19-3.46s1.72-3.46 4.19-3.46 4.19 1.42 4.19 3.46-1.72 3.46-4.19 3.46m15.1-9.28c-3.86 0-6.77 2.5-6.77 5.82s2.91 5.82 6.77 5.82 6.77-2.5 6.77-5.82-2.91-5.82-6.77-5.82m0 9.28c-2.46 0-4.19-1.42-4.19-3.46s1.72-3.46 4.19-3.46 4.19 1.42 4.19 3.46-1.72 3.46-4.19 3.46" class="cls-1"/><path d="M78.65 4.81h-3.48L69.62 10V4.81h-2.45v11.12h2.45v-5.25l5.7 5.26h3.52l-6.17-5.68 5.98-5.45zm-28.69 6.63c0 .99-.57 2.4-3.18 2.4-3.02 0-3.05-1.99-3.05-2.4V4.82h-2.45v7.08c0 1.9 1.65 4.32 5.5 4.32s5.62-2.48 5.62-4.32V4.82h-2.44v6.62zM3.25 7.79L0 20.56h6.85L3.5 7.79h-.25zM.61 2.78c0 1.54 1.25 2.78 2.78 2.78s2.78-1.25 2.78-2.78a2.78 2.78 0 0 0-5.56 0m12.91 10.18L10.25.19h6.85l-3.36 12.77h-.22zm-2.66 5.01c0-1.54 1.25-2.78 2.78-2.78s2.79 1.24 2.79 2.78-1.25 2.78-2.79 2.78-2.78-1.25-2.78-2.78" class="cls-1"/></g></symbol><symbol id="clock-icon" viewBox="0 0 24 24"><g clip-path="url(#a)"><path fill="#F3332B" d="M24 12a12 12 0 1 1-24 0 12 12 0 0 1 24 0zM12 5.25a.75.75 0 1 0-1.5 0v8.25a.75.75 0 0 0 .378.651l5.25 3a.75.75 0 0 0 .744-1.302L12 13.065V5.25z"/></g><defs><clipPath id="a"><path fill="#fff" d="M0 0h24v24H0z"/></clipPath></defs></symbol></svg>