<svg xmlns="http://www.w3.org/2000/svg">
    <symbol id="download" viewBox="0 0 14 14">
        <path fill="currentColor"
            d="M10.698 5.523a.5.5 0 0 1-.022.707L7.342 9.364a.5.5 0 0 1-.684 0L3.325 6.23a.5.5 0 0 1 .684-.728L6.5 7.845V1a.5.5 0 0 1 1 0v6.844l2.49-2.342a.5.5 0 0 1 .708.021z" />
        <path fill="currentColor"
            d="M.5 11V8.335a.5.5 0 1 1 1 0V11l.005.61c.004.168.012.304.027.42.03.217.076.285.114.323.039.038.107.085.324.114.23.031.545.033 1.03.033h8c.485 0 .8-.002 1.03-.033.217-.029.285-.076.324-.114.038-.038.085-.106.114-.323.03-.231.032-.545.032-1.03V8.334a.5.5 0 0 1 1 0V11c0 .456.001.85-.041 1.163-.044.327-.144.642-.399.897-.254.255-.568.354-.896.399-.313.042-.707.04-1.164.04H3c-.457 0-.85.002-1.164-.04-.328-.045-.642-.144-.897-.399-.254-.255-.354-.57-.398-.897a5.005 5.005 0 0 1-.036-.528L.5 11.001z" />
    </symbol>
    <symbol id="arrow" viewBox="0 0 10 6">
        <path fill="currentColor"
            d="M8.646.647a.5.5 0 1 1 .707.707l-4 4a.5.5 0 0 1-.707 0l-4-4-.064-.078a.5.5 0 0 1 .693-.694l.078.065L5 4.293 8.646.647z" />
    </symbol>
    <symbol id="home" viewBox="0 0 10 9">
        <path fill="currentColor"
            d="M3.641 9a.27.27 0 0 0 .272-.267V6.058a.27.27 0 0 1 .272-.267h1.63c.15 0 .272.12.272.267v2.675A.27.27 0 0 0 6.36 9h2.174a.27.27 0 0 0 .272-.267V4.989a.27.27 0 0 1 .272-.268h.65c.25 0 .368-.302.182-.466L5.182.069a.275.275 0 0 0-.364 0L.091 4.255c-.186.164-.068.466.181.466h.651c.15 0 .272.12.272.268v3.744A.27.27 0 0 0 1.467 9H3.64z" />
    </symbol>
    <symbol id="cuckoo-logo" viewBox="0 0 78.42 11.65">
        <g id="Layer_1-2">
            <path fill="currentColor"
                d="M6.67 2.36c1.5 0 2.79.62 3.49 1.19l1.5-1.99C10.37.56 8.57-.01 6.63-.01 2.75 0 0 2.5 0 5.82s2.75 5.83 6.63 5.83c2.03 0 3.85-.59 5.15-1.66l-1.57-1.93-.08.06c-.71.56-1.99 1.16-3.47 1.16-2.39 0-4.18-1.38-4.18-3.46s1.79-3.46 4.18-3.46m25.71 0c1.5 0 2.79.62 3.5 1.19l1.5-1.99c-1.29-1-3.09-1.57-5.03-1.57-3.88 0-6.63 2.5-6.63 5.82s2.75 5.83 6.63 5.83c2.03 0 3.85-.59 5.15-1.66l-1.57-1.93-.08.06c-.71.56-1.99 1.16-3.47 1.16-2.39 0-4.17-1.38-4.17-3.46s1.79-3.46 4.17-3.46M56.53 0c-3.87 0-6.78 2.5-6.78 5.82s2.91 5.83 6.78 5.83 6.78-2.5 6.78-5.83S60.4 0 56.53 0m0 9.29c-2.47 0-4.19-1.42-4.19-3.46s1.72-3.46 4.19-3.46 4.19 1.42 4.19 3.46S59 9.29 56.53 9.29M71.65 0c-3.86 0-6.78 2.5-6.78 5.82s2.92 5.83 6.78 5.83 6.78-2.5 6.78-5.83S75.52 0 71.65 0m0 9.29c-2.47 0-4.19-1.42-4.19-3.46s1.72-3.46 4.19-3.46 4.19 1.42 4.19 3.46-1.72 3.46-4.19 3.46"/>
            <path fill="currentColor"
                d="M50.48.23H47l-5.56 5.19V.23H39v11.13h2.44V6.11l5.71 5.26h3.52L44.5 5.69 50.48.23zm-28.7 6.63c0 .99-.57 2.4-3.18 2.4-3.02 0-3.05-1.99-3.05-2.4V.24H13.1v7.09c0 1.9 1.65 4.33 5.5 4.33s5.63-2.48 5.63-4.33V.24h-2.45v6.62z"/>
        </g>
    </symbol>
</svg>