<svg xmlns="http://www.w3.org/2000/svg" width="48" height="48" viewBox="0 0 48 48">
    <g data-name="-e-ICON_x">
        <path data-name="Rectangle 10" style="fill:transparent" d="M0 0h48v48H0z"/>
        <path data-name="Rectangle 1 copy" d="m1564.434 160.181-13.876-13.456-13.876 13.456a1.023 1.023 0 0 1-1.414 0l-.409-.4a.951.951 0 0 1 0-1.372l13.876-13.455-13.877-13.454a.95.95 0 0 1 0-1.371l.409-.4a1.023 1.023 0 0 1 1.414 0l13.876 13.455 13.876-13.455a1.023 1.023 0 0 1 1.414 0l.409.4a.948.948 0 0 1 0 1.371l-13.876 13.456 13.876 13.455a.949.949 0 0 1 0 1.372l-.409.4a1.023 1.023 0 0 1-1.414 0z" transform="translate(-1526.566 -121.451)" style="fill:#111"/>
    </g>
</svg>
