<svg xmlns="http://www.w3.org/2000/svg" width="46" height="46" viewBox="0 0 46 46">
    <path data-name="Icon awesome-youtube" d="M44.131 9.341a5.529 5.529 0 0 0-3.89-3.915C36.809 4.5 23.05 4.5 23.05 4.5s-13.759 0-17.191.925a5.529 5.529 0 0 0-3.89 3.915C1.05 12.794 1.05 20 1.05 20s0 7.206.919 10.659a5.446 5.446 0 0 0 3.89 3.853c3.431.925 17.191.925 17.191.925s13.759 0 17.191-.925a5.446 5.446 0 0 0 3.89-3.853C45.05 27.206 45.05 20 45.05 20s0-7.206-.919-10.659zM18.55 26.542V13.458L30.05 20l-11.5 6.542z" transform="translate(-.141 3.5)" style="fill:#555"/>
</svg>
