<svg xmlns="http://www.w3.org/2000/svg" width="46" height="46" viewBox="0 0 46 46">
    <path data-name="Icon simple-instagram" d="M22 0c-5.977 0-6.723.027-9.069.132A16.222 16.222 0 0 0 7.59 1.155a10.774 10.774 0 0 0-3.9 2.537 10.734 10.734 0 0 0-2.537 3.9A16.175 16.175 0 0 0 .132 12.93C.022 15.277 0 16.023 0 22s.027 6.723.132 9.069a16.232 16.232 0 0 0 1.023 5.34 10.789 10.789 0 0 0 2.537 3.9 10.758 10.758 0 0 0 3.9 2.537 16.242 16.242 0 0 0 5.34 1.023c2.347.11 3.093.132 9.069.132s6.723-.027 9.069-.132a16.28 16.28 0 0 0 5.34-1.023 11.243 11.243 0 0 0 6.435-6.435 16.232 16.232 0 0 0 1.023-5.34c.11-2.348.132-3.094.132-9.071s-.027-6.723-.132-9.069a16.27 16.27 0 0 0-1.023-5.34 10.8 10.8 0 0 0-2.537-3.9 10.719 10.719 0 0 0-3.9-2.537A16.185 16.185 0 0 0 31.069.132C28.723.022 27.977 0 22 0zm0 3.96c5.872 0 6.573.029 8.892.13a12.121 12.121 0 0 1 4.083.761 7.24 7.24 0 0 1 4.176 4.174 12.147 12.147 0 0 1 .757 4.083c.1 2.321.128 3.018.128 8.892s-.028 6.573-.136 8.892a12.381 12.381 0 0 1-.772 4.083 6.985 6.985 0 0 1-1.648 2.534 6.863 6.863 0 0 1-2.53 1.643 12.236 12.236 0 0 1-4.1.757c-2.336.1-3.023.128-8.908.128s-6.574-.028-8.908-.136a12.475 12.475 0 0 1-4.1-.772 6.813 6.813 0 0 1-2.528-1.648 6.68 6.68 0 0 1-1.65-2.53 12.485 12.485 0 0 1-.77-4.1c-.082-2.31-.112-3.023-.112-8.881s.029-6.574.112-8.912a12.471 12.471 0 0 1 .77-4.1 6.521 6.521 0 0 1 1.65-2.532 6.507 6.507 0 0 1 2.532-1.639 12.176 12.176 0 0 1 4.072-.772c2.337-.083 3.025-.11 8.908-.11L22 3.96zm0 6.74A11.3 11.3 0 1 0 33.3 22 11.3 11.3 0 0 0 22 10.7zm0 18.63A7.333 7.333 0 1 1 29.333 22 7.331 7.331 0 0 1 22 29.333zm14.384-19.073a2.64 2.64 0 1 1-2.64-2.638 2.642 2.642 0 0 1 2.64 2.638z" transform="translate(1 1)" style="fill:#555"/>
</svg>
